%TF.GenerationSoftware,KiCad,Pcbnew,9.0.1*%
%TF.CreationDate,2025-06-18T17:03:31+02:00*%
%TF.ProjectId,Sensor,53656e73-6f72-42e6-9b69-6361645f7063,rev?*%
%TF.SameCoordinates,Original*%
%TF.FileFunction,Paste,Bot*%
%TF.FilePolarity,Positive*%
%FSLAX46Y46*%
G04 Gerber Fmt 4.6, Leading zero omitted, Abs format (unit mm)*
G04 Created by KiCad (PCBNEW 9.0.1) date 2025-06-18 17:03:31*
%MOMM*%
%LPD*%
G01*
G04 APERTURE LIST*
G04 Aperture macros list*
%AMRoundRect*
0 Rectangle with rounded corners*
0 $1 Rounding radius*
0 $2 $3 $4 $5 $6 $7 $8 $9 X,Y pos of 4 corners*
0 Add a 4 corners polygon primitive as box body*
4,1,4,$2,$3,$4,$5,$6,$7,$8,$9,$2,$3,0*
0 Add four circle primitives for the rounded corners*
1,1,$1+$1,$2,$3*
1,1,$1+$1,$4,$5*
1,1,$1+$1,$6,$7*
1,1,$1+$1,$8,$9*
0 Add four rect primitives between the rounded corners*
20,1,$1+$1,$2,$3,$4,$5,0*
20,1,$1+$1,$4,$5,$6,$7,0*
20,1,$1+$1,$6,$7,$8,$9,0*
20,1,$1+$1,$8,$9,$2,$3,0*%
G04 Aperture macros list end*
%ADD10RoundRect,0.237500X0.237500X-0.300000X0.237500X0.300000X-0.237500X0.300000X-0.237500X-0.300000X0*%
%ADD11RoundRect,0.150000X0.512500X0.150000X-0.512500X0.150000X-0.512500X-0.150000X0.512500X-0.150000X0*%
%ADD12RoundRect,0.150000X-0.150000X0.512500X-0.150000X-0.512500X0.150000X-0.512500X0.150000X0.512500X0*%
%ADD13RoundRect,0.237500X0.237500X-0.287500X0.237500X0.287500X-0.237500X0.287500X-0.237500X-0.287500X0*%
%ADD14RoundRect,0.150000X-0.512500X-0.150000X0.512500X-0.150000X0.512500X0.150000X-0.512500X0.150000X0*%
%ADD15RoundRect,0.237500X-0.300000X-0.237500X0.300000X-0.237500X0.300000X0.237500X-0.300000X0.237500X0*%
%ADD16RoundRect,0.237500X-0.237500X0.250000X-0.237500X-0.250000X0.237500X-0.250000X0.237500X0.250000X0*%
%ADD17RoundRect,0.237500X0.300000X0.237500X-0.300000X0.237500X-0.300000X-0.237500X0.300000X-0.237500X0*%
%ADD18RoundRect,0.150000X0.150000X-0.512500X0.150000X0.512500X-0.150000X0.512500X-0.150000X-0.512500X0*%
%ADD19RoundRect,0.237500X-0.237500X0.300000X-0.237500X-0.300000X0.237500X-0.300000X0.237500X0.300000X0*%
%ADD20RoundRect,0.237500X0.237500X-0.250000X0.237500X0.250000X-0.237500X0.250000X-0.237500X-0.250000X0*%
G04 APERTURE END LIST*
D10*
%TO.C,C49*%
X91980000Y-71782500D03*
X91980000Y-70057500D03*
%TD*%
D11*
%TO.C,D16*%
X86267500Y-78612500D03*
X86267500Y-80512500D03*
X83992500Y-79562500D03*
%TD*%
D12*
%TO.C,CR2*%
X102550000Y-99530000D03*
X104450000Y-99530000D03*
X103500000Y-101805000D03*
%TD*%
D13*
%TO.C,D20*%
X113480000Y-58875000D03*
X113480000Y-57125000D03*
%TD*%
D10*
%TO.C,C51*%
X93880000Y-71782500D03*
X93880000Y-70057500D03*
%TD*%
%TO.C,C56*%
X93880000Y-80337500D03*
X93880000Y-78612500D03*
%TD*%
D14*
%TO.C,D13*%
X122820000Y-72930000D03*
X122820000Y-71030000D03*
X125095000Y-71980000D03*
%TD*%
D13*
%TO.C,D7*%
X105245000Y-50125000D03*
X105245000Y-48375000D03*
%TD*%
D10*
%TO.C,C58*%
X91980000Y-80337500D03*
X91980000Y-78612500D03*
%TD*%
D13*
%TO.C,D9*%
X113295000Y-50125000D03*
X113295000Y-48375000D03*
%TD*%
D10*
%TO.C,C25*%
X90280000Y-63237500D03*
X90280000Y-61512500D03*
%TD*%
D15*
%TO.C,C13*%
X105647500Y-70720000D03*
X107372500Y-70720000D03*
%TD*%
D11*
%TO.C,D10*%
X86267500Y-61512500D03*
X86267500Y-63412500D03*
X83992500Y-62462500D03*
%TD*%
D10*
%TO.C,C27*%
X91980000Y-63237500D03*
X91980000Y-61512500D03*
%TD*%
D16*
%TO.C,R27*%
X103520000Y-57100000D03*
X103520000Y-58925000D03*
%TD*%
D11*
%TO.C,D15*%
X86267500Y-70057500D03*
X86267500Y-71957500D03*
X83992500Y-71007500D03*
%TD*%
D10*
%TO.C,C65*%
X93880000Y-89337500D03*
X93880000Y-87612500D03*
%TD*%
D16*
%TO.C,R17*%
X103645000Y-48337500D03*
X103645000Y-50162500D03*
%TD*%
D17*
%TO.C,C10*%
X111120000Y-85870000D03*
X109395000Y-85870000D03*
%TD*%
D16*
%TO.C,R19*%
X111880000Y-57100000D03*
X111880000Y-58925000D03*
%TD*%
D10*
%TO.C,C63*%
X91980000Y-89337500D03*
X91980000Y-87612500D03*
%TD*%
%TO.C,C4*%
X106980000Y-83892500D03*
X106980000Y-82167500D03*
%TD*%
%TO.C,C29*%
X93880000Y-63237500D03*
X93880000Y-61512500D03*
%TD*%
D14*
%TO.C,D14*%
X122810000Y-65150000D03*
X122810000Y-63250000D03*
X125085000Y-64200000D03*
%TD*%
D10*
%TO.C,C61*%
X90280000Y-89337500D03*
X90280000Y-87612500D03*
%TD*%
D11*
%TO.C,D17*%
X86267500Y-87612500D03*
X86267500Y-89512500D03*
X83992500Y-88562500D03*
%TD*%
D18*
%TO.C,CR1*%
X117240000Y-99517500D03*
X115340000Y-99517500D03*
X116290000Y-97242500D03*
%TD*%
D10*
%TO.C,C47*%
X90280000Y-71820000D03*
X90280000Y-70095000D03*
%TD*%
D19*
%TO.C,C8*%
X112530000Y-82317500D03*
X112530000Y-84042500D03*
%TD*%
D16*
%TO.C,R18*%
X111695000Y-48337500D03*
X111695000Y-50162500D03*
%TD*%
D13*
%TO.C,D21*%
X105120000Y-58850000D03*
X105120000Y-57100000D03*
%TD*%
D20*
%TO.C,R14*%
X119215000Y-97730000D03*
X119215000Y-95905000D03*
%TD*%
D10*
%TO.C,C54*%
X90280000Y-80337500D03*
X90280000Y-78612500D03*
%TD*%
M02*
