M48
; DRILL file {KiCad 9.0.1} date 2025-06-18T17:04:45+0200
; FORMAT={-:-/ absolute / metric / decimal}
; #@! TF.CreationDate,2025-06-18T17:04:45+02:00
; #@! TF.GenerationSoftware,Kicad,Pcbnew,9.0.1
; #@! TF.FileFunction,Plated,1,4,PTH
FMAT,2
METRIC
; #@! TA.AperFunction,Plated,PTH,ViaDrill
T1C0.200
; #@! TA.AperFunction,Plated,PTH,ViaDrill
T2C0.300
; #@! TA.AperFunction,Plated,PTH,ComponentDrill
T3C0.500
; #@! TA.AperFunction,Plated,PTH,ComponentDrill
T4C1.000
; #@! TA.AperFunction,Plated,PTH,ComponentDrill
T5C3.200
%
G90
G05
T1
X82.78Y-62.44
X82.79Y-88.56
X82.8Y-79.56
X82.83Y-71.0
X84.57Y-68.45
X84.59Y-73.39
X84.59Y-81.94
X84.61Y-59.9
X84.63Y-76.98
X84.64Y-64.83
X84.7Y-90.91
X84.73Y-86.01
X84.93Y-61.3
X84.94Y-78.24
X85.0Y-63.37
X85.06Y-71.98
X85.06Y-87.47
X85.07Y-69.64
X85.07Y-89.56
X85.08Y-80.58
X85.41Y-83.77
X85.44Y-66.61
X85.52Y-92.71
X85.66Y-75.18
X86.1Y-73.06
X86.12Y-60.27
X86.13Y-68.79
X86.14Y-64.29
X86.19Y-90.79
X86.22Y-86.28
X86.37Y-77.41
X86.46Y-81.46
X88.49Y-77.78
X88.5Y-60.62
X88.51Y-64.01
X88.51Y-86.72
X88.52Y-69.2
X88.52Y-72.6
X88.53Y-81.12
X88.53Y-90.12
X90.242Y-60.52
X90.242Y-69.14
X90.242Y-72.63
X90.242Y-77.65
X90.242Y-81.19
X90.242Y-86.64
X90.292Y-64.17
X90.292Y-90.2
X92.87Y-63.237
X92.92Y-61.512
X92.94Y-70.057
X92.94Y-80.337
X92.94Y-87.612
X92.95Y-78.612
X92.96Y-89.337
X92.97Y-71.782
X95.04Y-83.24
X95.09Y-74.72
X95.11Y-92.24
X95.13Y-66.12
X95.47Y-75.83
X96.61Y-89.49
X96.94Y-67.39
X97.52Y-75.59
X98.5Y-82.73
X98.51Y-80.97
X99.22Y-77.55
X99.32Y-73.83
X99.33Y-75.16
X99.88Y-94.37
X100.99Y-78.27
X101.67Y-85.77
X101.68Y-87.54
X101.85Y-58.86
X101.97Y-50.03
X102.58Y-89.2
X102.64Y-82.41
X102.68Y-69.73
X102.87Y-72.1
X102.9Y-98.1
X103.5Y-100.8
X104.13Y-64.11
X104.14Y-98.1
X104.16Y-70.205
X104.19Y-96.52
X104.21Y-89.32
X104.46Y-103.12
X104.76Y-73.82
X104.84Y-75.56
X105.06Y-88.38
X105.08Y-59.87
X105.24Y-51.09
X105.58Y-84.34
X105.79Y-96.61
X106.05Y-86.15
X106.18Y-67.72
X106.307Y-72.33
X106.5Y-57.31
X106.56Y-75.54
X106.58Y-48.45
X106.78Y-58.84
X106.87Y-81.16
X106.94Y-49.98
X107.18Y-85.1
X107.251Y-65.809
X107.45Y-96.56
X107.84Y-87.18
X108.0Y-54.0
X108.25Y-77.68
X108.26Y-85.69
X108.31Y-74.58
X108.97Y-57.15
X109.21Y-97.78
X109.32Y-93.84
X109.33Y-87.15
X109.819Y-65.839
X110.02Y-49.98
X110.18Y-91.57
X110.2Y-58.78
X110.455Y-87.035
X110.56Y-100.46
X110.81Y-67.56
X110.921Y-72.11
X111.05Y-93.86
X111.17Y-97.78
X111.38Y-83.34
X111.43Y-75.31
X111.55Y-82.32
X111.66Y-86.875
X111.81Y-101.24
X112.84Y-91.9
X112.87Y-64.25
X113.15Y-75.36
X113.29Y-51.29
X113.53Y-59.88
X114.16Y-84.11
X114.23Y-93.13
X114.72Y-48.54
X114.79Y-73.76
X114.91Y-57.29
X114.97Y-49.92
X115.16Y-58.79
X115.19Y-81.16
X115.39Y-88.82
X115.44Y-90.55
X116.57Y-99.51
X116.89Y-97.25
X116.91Y-87.5
X117.68Y-83.77
X117.75Y-75.73
X117.75Y-77.69
X117.78Y-68.16
X117.78Y-84.89
X118.345Y-91.805
X119.53Y-82.82
X119.53Y-86.73
X120.13Y-92.13
X120.56Y-61.04
X121.61Y-66.6
X121.62Y-65.19
X121.63Y-63.58
X121.63Y-71.28
X121.635Y-74.505
X121.66Y-69.17
X121.67Y-72.93
X122.3Y-52.16
X122.39Y-79.917
X122.7Y-89.73
X123.06Y-93.5
X123.23Y-58.03
X123.45Y-77.867
X123.67Y-63.25
X123.7Y-65.14
X123.73Y-70.97
X123.75Y-72.95
X123.93Y-88.0
X123.99Y-52.15
X124.5Y-86.55
X125.08Y-63.52
X125.28Y-92.34
X125.32Y-59.24
X125.32Y-95.85
X125.93Y-66.45
X125.94Y-74.25
X125.95Y-61.96
X125.96Y-69.67
X126.29Y-71.97
X126.54Y-83.61
X126.54Y-89.28
X128.56Y-75.81
X128.57Y-79.688
T2
X81.6Y-98.14
X82.74Y-55.04
X86.08Y-52.87
X86.11Y-54.39
X86.12Y-51.33
X87.22Y-48.55
X89.06Y-103.5
X89.06Y-107.3
X90.58Y-103.51
X90.58Y-107.28
X90.6Y-47.9
X91.41Y-95.15
X91.43Y-100.86
X92.0Y-53.4
X92.72Y-107.35
X92.96Y-95.15
X93.33Y-100.71
X94.49Y-95.15
X95.36Y-47.36
X96.14Y-95.38
X97.15Y-55.32
X97.16Y-48.0
X97.85Y-99.09
X97.89Y-95.1
X98.7Y-48.02
X99.72Y-50.84
X99.79Y-100.78
X100.04Y-52.59
X100.32Y-55.01
X100.54Y-46.38
X106.19Y-99.29
X107.24Y-100.72
X108.55Y-69.962
X108.73Y-46.33
X108.87Y-55.03
X126.98Y-56.05
X127.01Y-98.08
T3
X79.2Y-48.662
X79.2Y-105.6
X79.903Y-46.965
X79.903Y-50.36
X79.903Y-103.903
X79.903Y-107.297
X81.6Y-46.262
X81.6Y-51.062
X81.6Y-103.2
X81.6Y-108.0
X83.297Y-46.965
X83.297Y-50.36
X83.297Y-103.903
X83.297Y-107.297
X84.0Y-48.662
X84.0Y-105.6
X124.6Y-48.662
X124.6Y-105.6
X125.303Y-46.965
X125.303Y-50.36
X125.303Y-103.903
X125.303Y-107.297
X127.0Y-46.262
X127.0Y-51.062
X127.0Y-103.2
X127.0Y-108.0
X128.697Y-46.965
X128.697Y-50.36
X128.697Y-103.903
X128.697Y-107.297
X129.4Y-48.662
X129.4Y-105.6
T4
X115.09Y-101.73
X117.59Y-101.73
T5
X81.6Y-48.662
X81.6Y-105.6
X127.0Y-48.662
X127.0Y-105.6
M30
