%TF.GenerationSoftware,KiCad,Pcbnew,9.0.1*%
%TF.CreationDate,2025-06-18T17:03:31+02:00*%
%TF.ProjectId,Sensor,53656e73-6f72-42e6-9b69-6361645f7063,rev?*%
%TF.SameCoordinates,Original*%
%TF.FileFunction,Legend,Top*%
%TF.FilePolarity,Positive*%
%FSLAX46Y46*%
G04 Gerber Fmt 4.6, Leading zero omitted, Abs format (unit mm)*
G04 Created by KiCad (PCBNEW 9.0.1) date 2025-06-18 17:03:31*
%MOMM*%
%LPD*%
G01*
G04 APERTURE LIST*
G04 Aperture macros list*
%AMRoundRect*
0 Rectangle with rounded corners*
0 $1 Rounding radius*
0 $2 $3 $4 $5 $6 $7 $8 $9 X,Y pos of 4 corners*
0 Add a 4 corners polygon primitive as box body*
4,1,4,$2,$3,$4,$5,$6,$7,$8,$9,$2,$3,0*
0 Add four circle primitives for the rounded corners*
1,1,$1+$1,$2,$3*
1,1,$1+$1,$4,$5*
1,1,$1+$1,$6,$7*
1,1,$1+$1,$8,$9*
0 Add four rect primitives between the rounded corners*
20,1,$1+$1,$2,$3,$4,$5,0*
20,1,$1+$1,$4,$5,$6,$7,0*
20,1,$1+$1,$6,$7,$8,$9,0*
20,1,$1+$1,$8,$9,$2,$3,0*%
G04 Aperture macros list end*
%ADD10C,0.400000*%
%ADD11C,0.150000*%
%ADD12C,0.120000*%
%ADD13C,0.100000*%
%ADD14C,0.152400*%
%ADD15C,0.000000*%
%ADD16RoundRect,0.237500X0.250000X0.237500X-0.250000X0.237500X-0.250000X-0.237500X0.250000X-0.237500X0*%
%ADD17RoundRect,0.237500X-0.250000X-0.237500X0.250000X-0.237500X0.250000X0.237500X-0.250000X0.237500X0*%
%ADD18RoundRect,0.100000X0.100000X-0.712500X0.100000X0.712500X-0.100000X0.712500X-0.100000X-0.712500X0*%
%ADD19RoundRect,0.237500X0.300000X0.237500X-0.300000X0.237500X-0.300000X-0.237500X0.300000X-0.237500X0*%
%ADD20C,0.800000*%
%ADD21C,6.400000*%
%ADD22RoundRect,0.150000X0.150000X0.700000X-0.150000X0.700000X-0.150000X-0.700000X0.150000X-0.700000X0*%
%ADD23RoundRect,0.250000X0.250000X1.150000X-0.250000X1.150000X-0.250000X-1.150000X0.250000X-1.150000X0*%
%ADD24RoundRect,0.237500X-0.300000X-0.237500X0.300000X-0.237500X0.300000X0.237500X-0.300000X0.237500X0*%
%ADD25RoundRect,0.237500X-0.287500X-0.237500X0.287500X-0.237500X0.287500X0.237500X-0.287500X0.237500X0*%
%ADD26RoundRect,0.237500X0.237500X-0.300000X0.237500X0.300000X-0.237500X0.300000X-0.237500X-0.300000X0*%
%ADD27RoundRect,0.237500X0.237500X-0.250000X0.237500X0.250000X-0.237500X0.250000X-0.237500X-0.250000X0*%
%ADD28RoundRect,0.237500X-0.237500X0.300000X-0.237500X-0.300000X0.237500X-0.300000X0.237500X0.300000X0*%
%ADD29RoundRect,0.162500X0.162500X-0.617500X0.162500X0.617500X-0.162500X0.617500X-0.162500X-0.617500X0*%
%ADD30RoundRect,0.237500X0.287500X0.237500X-0.287500X0.237500X-0.287500X-0.237500X0.287500X-0.237500X0*%
%ADD31RoundRect,0.150000X0.512500X0.150000X-0.512500X0.150000X-0.512500X-0.150000X0.512500X-0.150000X0*%
%ADD32RoundRect,0.237500X-0.237500X0.250000X-0.237500X-0.250000X0.237500X-0.250000X0.237500X0.250000X0*%
%ADD33RoundRect,0.150000X0.275000X-0.150000X0.275000X0.150000X-0.275000X0.150000X-0.275000X-0.150000X0*%
%ADD34RoundRect,0.187500X0.362500X-0.187500X0.362500X0.187500X-0.362500X0.187500X-0.362500X-0.187500X0*%
%ADD35RoundRect,0.112500X0.112500X-0.112500X0.112500X0.112500X-0.112500X0.112500X-0.112500X-0.112500X0*%
%ADD36RoundRect,0.162500X-0.617500X-0.162500X0.617500X-0.162500X0.617500X0.162500X-0.617500X0.162500X0*%
%ADD37RoundRect,0.150000X0.700000X-0.150000X0.700000X0.150000X-0.700000X0.150000X-0.700000X-0.150000X0*%
%ADD38RoundRect,0.250000X1.150000X-0.250000X1.150000X0.250000X-1.150000X0.250000X-1.150000X-0.250000X0*%
%ADD39RoundRect,0.237500X0.237500X-0.287500X0.237500X0.287500X-0.237500X0.287500X-0.237500X-0.287500X0*%
%ADD40RoundRect,0.250001X-0.462499X-1.074999X0.462499X-1.074999X0.462499X1.074999X-0.462499X1.074999X0*%
%ADD41RoundRect,0.225000X-0.375000X0.225000X-0.375000X-0.225000X0.375000X-0.225000X0.375000X0.225000X0*%
%ADD42R,0.900000X0.800000*%
%ADD43RoundRect,0.150000X0.625000X-0.150000X0.625000X0.150000X-0.625000X0.150000X-0.625000X-0.150000X0*%
%ADD44RoundRect,0.250000X0.650000X-0.350000X0.650000X0.350000X-0.650000X0.350000X-0.650000X-0.350000X0*%
%ADD45R,0.762000X0.254000*%
%ADD46R,0.254000X0.762000*%
%ADD47R,4.699000X4.699000*%
%ADD48RoundRect,0.250001X-0.849999X0.462499X-0.849999X-0.462499X0.849999X-0.462499X0.849999X0.462499X0*%
%ADD49RoundRect,0.237500X-0.237500X0.287500X-0.237500X-0.287500X0.237500X-0.287500X0.237500X0.287500X0*%
%ADD50RoundRect,0.150000X-0.150000X0.512500X-0.150000X-0.512500X0.150000X-0.512500X0.150000X0.512500X0*%
%ADD51RoundRect,0.100000X-0.100000X0.225000X-0.100000X-0.225000X0.100000X-0.225000X0.100000X0.225000X0*%
%ADD52RoundRect,0.150000X0.150000X-0.587500X0.150000X0.587500X-0.150000X0.587500X-0.150000X-0.587500X0*%
%ADD53RoundRect,0.075000X0.662500X0.075000X-0.662500X0.075000X-0.662500X-0.075000X0.662500X-0.075000X0*%
%ADD54RoundRect,0.075000X0.075000X0.662500X-0.075000X0.662500X-0.075000X-0.662500X0.075000X-0.662500X0*%
%ADD55C,1.200000*%
%ADD56RoundRect,0.250000X0.600000X0.750000X-0.600000X0.750000X-0.600000X-0.750000X0.600000X-0.750000X0*%
%ADD57O,1.700000X2.000000*%
%ADD58RoundRect,0.250000X0.375000X0.625000X-0.375000X0.625000X-0.375000X-0.625000X0.375000X-0.625000X0*%
%ADD59RoundRect,0.175000X0.225000X-0.175000X0.225000X0.175000X-0.225000X0.175000X-0.225000X-0.175000X0*%
%ADD60RoundRect,0.125000X-0.125000X0.537500X-0.125000X-0.537500X0.125000X-0.537500X0.125000X0.537500X0*%
G04 APERTURE END LIST*
D10*
G36*
X117482733Y-60046379D02*
G01*
X117482733Y-59639471D01*
X119136227Y-59983121D01*
X118721197Y-58769661D01*
X118721197Y-58432850D01*
X120925001Y-58891050D01*
X120925001Y-59297745D01*
X119161445Y-58931228D01*
X119576475Y-60144474D01*
X119576475Y-60481498D01*
X117482733Y-60046379D01*
G37*
G36*
X120925001Y-57557911D02*
G01*
X120925001Y-57964820D01*
X117482733Y-57249310D01*
X117482733Y-56842402D01*
X120925001Y-57557911D01*
G37*
G36*
X120925001Y-54847182D02*
G01*
X120925001Y-55308374D01*
X119688460Y-55635995D01*
X119614943Y-55647963D01*
X119521551Y-55658221D01*
X119521551Y-55655015D01*
X119588656Y-55689850D01*
X119690597Y-55752254D01*
X120925001Y-56606677D01*
X120925001Y-57046925D01*
X119193074Y-55810384D01*
X117482733Y-56278415D01*
X117482733Y-55821925D01*
X118616692Y-55540893D01*
X118736371Y-55515461D01*
X118852844Y-55497937D01*
X118852844Y-55501142D01*
X118716282Y-55421427D01*
X118604724Y-55349834D01*
X117482733Y-54584529D01*
X117482733Y-54144282D01*
X119190724Y-55342995D01*
X120925001Y-54847182D01*
G37*
G36*
X119054161Y-52309346D02*
G01*
X118816011Y-52276548D01*
X118595107Y-52278999D01*
X118386226Y-52318619D01*
X118210424Y-52394190D01*
X118062271Y-52508666D01*
X117946276Y-52664750D01*
X117893494Y-52785408D01*
X117859933Y-52929027D01*
X117847968Y-53100296D01*
X117847968Y-53256092D01*
X120925001Y-53895734D01*
X120925001Y-54302643D01*
X117482733Y-53587133D01*
X117482733Y-53018017D01*
X117495853Y-52797669D01*
X117533100Y-52606364D01*
X117592154Y-52439924D01*
X117676886Y-52286035D01*
X117780951Y-52157157D01*
X117905243Y-52050540D01*
X118046723Y-51967332D01*
X118209456Y-51905458D01*
X118396995Y-51865893D01*
X118589101Y-51852111D01*
X118803286Y-51862576D01*
X119042835Y-51900300D01*
X120925001Y-52291608D01*
X120925001Y-52698303D01*
X119054161Y-52309346D01*
G37*
G36*
X117907594Y-50335925D02*
G01*
X117907594Y-50351740D01*
X120925001Y-50978986D01*
X120925001Y-51385894D01*
X117482733Y-50670385D01*
X117482733Y-50269888D01*
X118239276Y-48989323D01*
X118473718Y-49038049D01*
X119196708Y-49944831D01*
X120925001Y-49406062D01*
X120925001Y-49895250D01*
X119244793Y-50360929D01*
X119114001Y-50333788D01*
X118415802Y-49486845D01*
X117907594Y-50335925D01*
G37*
G36*
X119133662Y-46777185D02*
G01*
X119373908Y-46847561D01*
X119588656Y-46952643D01*
X119781332Y-47092682D01*
X119951540Y-47267868D01*
X120093500Y-47472533D01*
X120212056Y-47716451D01*
X120299253Y-47983367D01*
X120360158Y-48290055D01*
X120925001Y-48407597D01*
X120925001Y-48814506D01*
X117482733Y-48098996D01*
X117482733Y-47857501D01*
X118279454Y-47857501D01*
X119984238Y-48212050D01*
X119912243Y-47937446D01*
X119811908Y-47712789D01*
X119685468Y-47530094D01*
X119525613Y-47378356D01*
X119342194Y-47269830D01*
X119130670Y-47202045D01*
X118963983Y-47182036D01*
X118819992Y-47193354D01*
X118693784Y-47232705D01*
X118581429Y-47299712D01*
X118458243Y-47425882D01*
X118356617Y-47606716D01*
X118279454Y-47857501D01*
X117482733Y-47857501D01*
X117482733Y-47692088D01*
X117904602Y-47779710D01*
X117966412Y-47497043D01*
X118053773Y-47269792D01*
X118174071Y-47073762D01*
X118314930Y-46928707D01*
X118483235Y-46824553D01*
X118678882Y-46763721D01*
X118890879Y-46747816D01*
X119133662Y-46777185D01*
G37*
G36*
X117482733Y-44646898D02*
G01*
X119587801Y-45084368D01*
X119642066Y-44874676D01*
X119731630Y-44712508D01*
X119856392Y-44582081D01*
X120007746Y-44487896D01*
X120180238Y-44428663D01*
X120378538Y-44401343D01*
X120586100Y-44405150D01*
X120809596Y-44438101D01*
X120925001Y-44462037D01*
X120925001Y-44868732D01*
X120806604Y-44844155D01*
X120543611Y-44808456D01*
X120347281Y-44817393D01*
X120201795Y-44859937D01*
X120094518Y-44930412D01*
X120017252Y-45029325D01*
X119967569Y-45163228D01*
X120925001Y-45362408D01*
X120925001Y-45769316D01*
X119968210Y-45570350D01*
X120031455Y-45753174D01*
X120139128Y-45908855D01*
X120296555Y-46042055D01*
X120514805Y-46153273D01*
X120809596Y-46238843D01*
X120925001Y-46262779D01*
X120925001Y-46669474D01*
X120806604Y-46644897D01*
X120585950Y-46585772D01*
X120376187Y-46502564D01*
X120180262Y-46394311D01*
X120006251Y-46262565D01*
X119855481Y-46106034D01*
X119731203Y-45924472D01*
X119640607Y-45721501D01*
X119587374Y-45491277D01*
X117482733Y-45053807D01*
X117482733Y-44646898D01*
G37*
D11*
X111809160Y-107254160D02*
X112285350Y-107254160D01*
X111713922Y-107539875D02*
X112047255Y-106539875D01*
X112047255Y-106539875D02*
X112380588Y-107539875D01*
X112856779Y-107539875D02*
X112761541Y-107492256D01*
X112761541Y-107492256D02*
X112713922Y-107397017D01*
X112713922Y-107397017D02*
X112713922Y-106539875D01*
X113618684Y-107492256D02*
X113523446Y-107539875D01*
X113523446Y-107539875D02*
X113332970Y-107539875D01*
X113332970Y-107539875D02*
X113237732Y-107492256D01*
X113237732Y-107492256D02*
X113190113Y-107397017D01*
X113190113Y-107397017D02*
X113190113Y-107016065D01*
X113190113Y-107016065D02*
X113237732Y-106920827D01*
X113237732Y-106920827D02*
X113332970Y-106873208D01*
X113332970Y-106873208D02*
X113523446Y-106873208D01*
X113523446Y-106873208D02*
X113618684Y-106920827D01*
X113618684Y-106920827D02*
X113666303Y-107016065D01*
X113666303Y-107016065D02*
X113666303Y-107111303D01*
X113666303Y-107111303D02*
X113190113Y-107206541D01*
X113999637Y-107539875D02*
X114523446Y-106873208D01*
X113999637Y-106873208D02*
X114523446Y-107539875D01*
X115618685Y-107492256D02*
X115761542Y-107539875D01*
X115761542Y-107539875D02*
X115999637Y-107539875D01*
X115999637Y-107539875D02*
X116094875Y-107492256D01*
X116094875Y-107492256D02*
X116142494Y-107444636D01*
X116142494Y-107444636D02*
X116190113Y-107349398D01*
X116190113Y-107349398D02*
X116190113Y-107254160D01*
X116190113Y-107254160D02*
X116142494Y-107158922D01*
X116142494Y-107158922D02*
X116094875Y-107111303D01*
X116094875Y-107111303D02*
X115999637Y-107063684D01*
X115999637Y-107063684D02*
X115809161Y-107016065D01*
X115809161Y-107016065D02*
X115713923Y-106968446D01*
X115713923Y-106968446D02*
X115666304Y-106920827D01*
X115666304Y-106920827D02*
X115618685Y-106825589D01*
X115618685Y-106825589D02*
X115618685Y-106730351D01*
X115618685Y-106730351D02*
X115666304Y-106635113D01*
X115666304Y-106635113D02*
X115713923Y-106587494D01*
X115713923Y-106587494D02*
X115809161Y-106539875D01*
X115809161Y-106539875D02*
X116047256Y-106539875D01*
X116047256Y-106539875D02*
X116190113Y-106587494D01*
X116761542Y-107539875D02*
X116666304Y-107492256D01*
X116666304Y-107492256D02*
X116618685Y-107444636D01*
X116618685Y-107444636D02*
X116571066Y-107349398D01*
X116571066Y-107349398D02*
X116571066Y-107063684D01*
X116571066Y-107063684D02*
X116618685Y-106968446D01*
X116618685Y-106968446D02*
X116666304Y-106920827D01*
X116666304Y-106920827D02*
X116761542Y-106873208D01*
X116761542Y-106873208D02*
X116904399Y-106873208D01*
X116904399Y-106873208D02*
X116999637Y-106920827D01*
X116999637Y-106920827D02*
X117047256Y-106968446D01*
X117047256Y-106968446D02*
X117094875Y-107063684D01*
X117094875Y-107063684D02*
X117094875Y-107349398D01*
X117094875Y-107349398D02*
X117047256Y-107444636D01*
X117047256Y-107444636D02*
X116999637Y-107492256D01*
X116999637Y-107492256D02*
X116904399Y-107539875D01*
X116904399Y-107539875D02*
X116761542Y-107539875D01*
X117523447Y-106873208D02*
X117523447Y-107873208D01*
X117523447Y-106920827D02*
X117618685Y-106873208D01*
X117618685Y-106873208D02*
X117809161Y-106873208D01*
X117809161Y-106873208D02*
X117904399Y-106920827D01*
X117904399Y-106920827D02*
X117952018Y-106968446D01*
X117952018Y-106968446D02*
X117999637Y-107063684D01*
X117999637Y-107063684D02*
X117999637Y-107349398D01*
X117999637Y-107349398D02*
X117952018Y-107444636D01*
X117952018Y-107444636D02*
X117904399Y-107492256D01*
X117904399Y-107492256D02*
X117809161Y-107539875D01*
X117809161Y-107539875D02*
X117618685Y-107539875D01*
X117618685Y-107539875D02*
X117523447Y-107492256D01*
X118428209Y-107539875D02*
X118428209Y-106873208D01*
X118428209Y-107063684D02*
X118475828Y-106968446D01*
X118475828Y-106968446D02*
X118523447Y-106920827D01*
X118523447Y-106920827D02*
X118618685Y-106873208D01*
X118618685Y-106873208D02*
X118713923Y-106873208D01*
X119190114Y-107539875D02*
X119094876Y-107492256D01*
X119094876Y-107492256D02*
X119047257Y-107444636D01*
X119047257Y-107444636D02*
X118999638Y-107349398D01*
X118999638Y-107349398D02*
X118999638Y-107063684D01*
X118999638Y-107063684D02*
X119047257Y-106968446D01*
X119047257Y-106968446D02*
X119094876Y-106920827D01*
X119094876Y-106920827D02*
X119190114Y-106873208D01*
X119190114Y-106873208D02*
X119332971Y-106873208D01*
X119332971Y-106873208D02*
X119428209Y-106920827D01*
X119428209Y-106920827D02*
X119475828Y-106968446D01*
X119475828Y-106968446D02*
X119523447Y-107063684D01*
X119523447Y-107063684D02*
X119523447Y-107349398D01*
X119523447Y-107349398D02*
X119475828Y-107444636D01*
X119475828Y-107444636D02*
X119428209Y-107492256D01*
X119428209Y-107492256D02*
X119332971Y-107539875D01*
X119332971Y-107539875D02*
X119190114Y-107539875D01*
X119952019Y-106873208D02*
X119952019Y-107539875D01*
X119952019Y-106968446D02*
X119999638Y-106920827D01*
X119999638Y-106920827D02*
X120094876Y-106873208D01*
X120094876Y-106873208D02*
X120237733Y-106873208D01*
X120237733Y-106873208D02*
X120332971Y-106920827D01*
X120332971Y-106920827D02*
X120380590Y-107016065D01*
X120380590Y-107016065D02*
X120380590Y-107539875D01*
X120856781Y-107539875D02*
X120856781Y-106873208D01*
X120856781Y-106539875D02*
X120809162Y-106587494D01*
X120809162Y-106587494D02*
X120856781Y-106635113D01*
X120856781Y-106635113D02*
X120904400Y-106587494D01*
X120904400Y-106587494D02*
X120856781Y-106539875D01*
X120856781Y-106539875D02*
X120856781Y-106635113D01*
X111809160Y-109102200D02*
X111952017Y-109149819D01*
X111952017Y-109149819D02*
X112190112Y-109149819D01*
X112190112Y-109149819D02*
X112285350Y-109102200D01*
X112285350Y-109102200D02*
X112332969Y-109054580D01*
X112332969Y-109054580D02*
X112380588Y-108959342D01*
X112380588Y-108959342D02*
X112380588Y-108864104D01*
X112380588Y-108864104D02*
X112332969Y-108768866D01*
X112332969Y-108768866D02*
X112285350Y-108721247D01*
X112285350Y-108721247D02*
X112190112Y-108673628D01*
X112190112Y-108673628D02*
X111999636Y-108626009D01*
X111999636Y-108626009D02*
X111904398Y-108578390D01*
X111904398Y-108578390D02*
X111856779Y-108530771D01*
X111856779Y-108530771D02*
X111809160Y-108435533D01*
X111809160Y-108435533D02*
X111809160Y-108340295D01*
X111809160Y-108340295D02*
X111856779Y-108245057D01*
X111856779Y-108245057D02*
X111904398Y-108197438D01*
X111904398Y-108197438D02*
X111999636Y-108149819D01*
X111999636Y-108149819D02*
X112237731Y-108149819D01*
X112237731Y-108149819D02*
X112380588Y-108197438D01*
X112809160Y-109149819D02*
X112809160Y-108483152D01*
X112809160Y-108149819D02*
X112761541Y-108197438D01*
X112761541Y-108197438D02*
X112809160Y-108245057D01*
X112809160Y-108245057D02*
X112856779Y-108197438D01*
X112856779Y-108197438D02*
X112809160Y-108149819D01*
X112809160Y-108149819D02*
X112809160Y-108245057D01*
X113713921Y-108483152D02*
X113713921Y-109292676D01*
X113713921Y-109292676D02*
X113666302Y-109387914D01*
X113666302Y-109387914D02*
X113618683Y-109435533D01*
X113618683Y-109435533D02*
X113523445Y-109483152D01*
X113523445Y-109483152D02*
X113380588Y-109483152D01*
X113380588Y-109483152D02*
X113285350Y-109435533D01*
X113713921Y-109102200D02*
X113618683Y-109149819D01*
X113618683Y-109149819D02*
X113428207Y-109149819D01*
X113428207Y-109149819D02*
X113332969Y-109102200D01*
X113332969Y-109102200D02*
X113285350Y-109054580D01*
X113285350Y-109054580D02*
X113237731Y-108959342D01*
X113237731Y-108959342D02*
X113237731Y-108673628D01*
X113237731Y-108673628D02*
X113285350Y-108578390D01*
X113285350Y-108578390D02*
X113332969Y-108530771D01*
X113332969Y-108530771D02*
X113428207Y-108483152D01*
X113428207Y-108483152D02*
X113618683Y-108483152D01*
X113618683Y-108483152D02*
X113713921Y-108530771D01*
X114618683Y-108483152D02*
X114618683Y-109149819D01*
X114190112Y-108483152D02*
X114190112Y-109006961D01*
X114190112Y-109006961D02*
X114237731Y-109102200D01*
X114237731Y-109102200D02*
X114332969Y-109149819D01*
X114332969Y-109149819D02*
X114475826Y-109149819D01*
X114475826Y-109149819D02*
X114571064Y-109102200D01*
X114571064Y-109102200D02*
X114618683Y-109054580D01*
X115094874Y-109149819D02*
X115094874Y-108483152D01*
X115094874Y-108673628D02*
X115142493Y-108578390D01*
X115142493Y-108578390D02*
X115190112Y-108530771D01*
X115190112Y-108530771D02*
X115285350Y-108483152D01*
X115285350Y-108483152D02*
X115380588Y-108483152D01*
X115952017Y-108006961D02*
X115856779Y-108292676D01*
X116142493Y-108530771D02*
X116047255Y-108483152D01*
X116047255Y-108483152D02*
X115856779Y-108483152D01*
X115856779Y-108483152D02*
X115761541Y-108530771D01*
X115761541Y-108530771D02*
X115713922Y-108578390D01*
X115713922Y-108578390D02*
X115666303Y-108673628D01*
X115666303Y-108673628D02*
X115666303Y-109006961D01*
X115666303Y-109006961D02*
X115713922Y-109102200D01*
X115713922Y-109102200D02*
X115809160Y-109149819D01*
X115809160Y-109149819D02*
X115999636Y-109149819D01*
X115999636Y-109149819D02*
X116094874Y-109102200D01*
X116094874Y-109102200D02*
X116142493Y-109006961D01*
X116142493Y-109006961D02*
X116142493Y-108435533D01*
X116142493Y-108435533D02*
X116094874Y-108292676D01*
X116094874Y-108292676D02*
X115999636Y-108197438D01*
X115999636Y-108197438D02*
X115904398Y-108149819D01*
X115904398Y-108149819D02*
X115713922Y-108102200D01*
X116618684Y-109149819D02*
X116618684Y-108483152D01*
X116618684Y-108673628D02*
X116666303Y-108578390D01*
X116666303Y-108578390D02*
X116713922Y-108530771D01*
X116713922Y-108530771D02*
X116809160Y-108483152D01*
X116809160Y-108483152D02*
X116904398Y-108483152D01*
X117856780Y-108149819D02*
X118190113Y-109149819D01*
X118190113Y-109149819D02*
X118523446Y-108149819D01*
X119380589Y-109149819D02*
X118809161Y-109149819D01*
X119094875Y-109149819D02*
X119094875Y-108149819D01*
X119094875Y-108149819D02*
X118999637Y-108292676D01*
X118999637Y-108292676D02*
X118904399Y-108387914D01*
X118904399Y-108387914D02*
X118809161Y-108435533D01*
X119809161Y-109054580D02*
X119856780Y-109102200D01*
X119856780Y-109102200D02*
X119809161Y-109149819D01*
X119809161Y-109149819D02*
X119761542Y-109102200D01*
X119761542Y-109102200D02*
X119809161Y-109054580D01*
X119809161Y-109054580D02*
X119809161Y-109149819D01*
X120475827Y-108149819D02*
X120571065Y-108149819D01*
X120571065Y-108149819D02*
X120666303Y-108197438D01*
X120666303Y-108197438D02*
X120713922Y-108245057D01*
X120713922Y-108245057D02*
X120761541Y-108340295D01*
X120761541Y-108340295D02*
X120809160Y-108530771D01*
X120809160Y-108530771D02*
X120809160Y-108768866D01*
X120809160Y-108768866D02*
X120761541Y-108959342D01*
X120761541Y-108959342D02*
X120713922Y-109054580D01*
X120713922Y-109054580D02*
X120666303Y-109102200D01*
X120666303Y-109102200D02*
X120571065Y-109149819D01*
X120571065Y-109149819D02*
X120475827Y-109149819D01*
X120475827Y-109149819D02*
X120380589Y-109102200D01*
X120380589Y-109102200D02*
X120332970Y-109054580D01*
X120332970Y-109054580D02*
X120285351Y-108959342D01*
X120285351Y-108959342D02*
X120237732Y-108768866D01*
X120237732Y-108768866D02*
X120237732Y-108530771D01*
X120237732Y-108530771D02*
X120285351Y-108340295D01*
X120285351Y-108340295D02*
X120332970Y-108245057D01*
X120332970Y-108245057D02*
X120380589Y-108197438D01*
X120380589Y-108197438D02*
X120475827Y-108149819D01*
X98956779Y-106959819D02*
X98956779Y-105959819D01*
X98956779Y-105959819D02*
X99337731Y-105959819D01*
X99337731Y-105959819D02*
X99432969Y-106007438D01*
X99432969Y-106007438D02*
X99480588Y-106055057D01*
X99480588Y-106055057D02*
X99528207Y-106150295D01*
X99528207Y-106150295D02*
X99528207Y-106293152D01*
X99528207Y-106293152D02*
X99480588Y-106388390D01*
X99480588Y-106388390D02*
X99432969Y-106436009D01*
X99432969Y-106436009D02*
X99337731Y-106483628D01*
X99337731Y-106483628D02*
X98956779Y-106483628D01*
X99861541Y-105959819D02*
X100099636Y-106959819D01*
X100099636Y-106959819D02*
X100290112Y-106245533D01*
X100290112Y-106245533D02*
X100480588Y-106959819D01*
X100480588Y-106959819D02*
X100718684Y-105959819D01*
X101671064Y-106959819D02*
X101337731Y-106483628D01*
X101099636Y-106959819D02*
X101099636Y-105959819D01*
X101099636Y-105959819D02*
X101480588Y-105959819D01*
X101480588Y-105959819D02*
X101575826Y-106007438D01*
X101575826Y-106007438D02*
X101623445Y-106055057D01*
X101623445Y-106055057D02*
X101671064Y-106150295D01*
X101671064Y-106150295D02*
X101671064Y-106293152D01*
X101671064Y-106293152D02*
X101623445Y-106388390D01*
X101623445Y-106388390D02*
X101575826Y-106436009D01*
X101575826Y-106436009D02*
X101480588Y-106483628D01*
X101480588Y-106483628D02*
X101099636Y-106483628D01*
X101656779Y-105188866D02*
X102418684Y-105188866D01*
X102037731Y-105569819D02*
X102037731Y-104807914D01*
X99377142Y-105589580D02*
X99329523Y-105637200D01*
X99329523Y-105637200D02*
X99186666Y-105684819D01*
X99186666Y-105684819D02*
X99091428Y-105684819D01*
X99091428Y-105684819D02*
X98948571Y-105637200D01*
X98948571Y-105637200D02*
X98853333Y-105541961D01*
X98853333Y-105541961D02*
X98805714Y-105446723D01*
X98805714Y-105446723D02*
X98758095Y-105256247D01*
X98758095Y-105256247D02*
X98758095Y-105113390D01*
X98758095Y-105113390D02*
X98805714Y-104922914D01*
X98805714Y-104922914D02*
X98853333Y-104827676D01*
X98853333Y-104827676D02*
X98948571Y-104732438D01*
X98948571Y-104732438D02*
X99091428Y-104684819D01*
X99091428Y-104684819D02*
X99186666Y-104684819D01*
X99186666Y-104684819D02*
X99329523Y-104732438D01*
X99329523Y-104732438D02*
X99377142Y-104780057D01*
X99758095Y-105399104D02*
X100234285Y-105399104D01*
X99662857Y-105684819D02*
X99996190Y-104684819D01*
X99996190Y-104684819D02*
X100329523Y-105684819D01*
X100662857Y-105684819D02*
X100662857Y-104684819D01*
X100662857Y-104684819D02*
X101234285Y-105684819D01*
X101234285Y-105684819D02*
X101234285Y-104684819D01*
X100684819Y-62399047D02*
X99684819Y-62399047D01*
X99684819Y-62399047D02*
X99684819Y-62018095D01*
X99684819Y-62018095D02*
X99732438Y-61922857D01*
X99732438Y-61922857D02*
X99780057Y-61875238D01*
X99780057Y-61875238D02*
X99875295Y-61827619D01*
X99875295Y-61827619D02*
X100018152Y-61827619D01*
X100018152Y-61827619D02*
X100113390Y-61875238D01*
X100113390Y-61875238D02*
X100161009Y-61922857D01*
X100161009Y-61922857D02*
X100208628Y-62018095D01*
X100208628Y-62018095D02*
X100208628Y-62399047D01*
X99684819Y-61541904D02*
X99684819Y-60970476D01*
X100684819Y-61256190D02*
X99684819Y-61256190D01*
X100684819Y-60113333D02*
X100684819Y-60684761D01*
X100684819Y-60399047D02*
X99684819Y-60399047D01*
X99684819Y-60399047D02*
X99827676Y-60494285D01*
X99827676Y-60494285D02*
X99922914Y-60589523D01*
X99922914Y-60589523D02*
X99970533Y-60684761D01*
X128154819Y-64407619D02*
X127678628Y-64740952D01*
X128154819Y-64979047D02*
X127154819Y-64979047D01*
X127154819Y-64979047D02*
X127154819Y-64598095D01*
X127154819Y-64598095D02*
X127202438Y-64502857D01*
X127202438Y-64502857D02*
X127250057Y-64455238D01*
X127250057Y-64455238D02*
X127345295Y-64407619D01*
X127345295Y-64407619D02*
X127488152Y-64407619D01*
X127488152Y-64407619D02*
X127583390Y-64455238D01*
X127583390Y-64455238D02*
X127631009Y-64502857D01*
X127631009Y-64502857D02*
X127678628Y-64598095D01*
X127678628Y-64598095D02*
X127678628Y-64979047D01*
X127154819Y-64121904D02*
X127154819Y-63550476D01*
X128154819Y-63836190D02*
X127154819Y-63836190D01*
X128154819Y-63217142D02*
X127154819Y-63217142D01*
X127154819Y-63217142D02*
X127154819Y-62979047D01*
X127154819Y-62979047D02*
X127202438Y-62836190D01*
X127202438Y-62836190D02*
X127297676Y-62740952D01*
X127297676Y-62740952D02*
X127392914Y-62693333D01*
X127392914Y-62693333D02*
X127583390Y-62645714D01*
X127583390Y-62645714D02*
X127726247Y-62645714D01*
X127726247Y-62645714D02*
X127916723Y-62693333D01*
X127916723Y-62693333D02*
X128011961Y-62740952D01*
X128011961Y-62740952D02*
X128107200Y-62836190D01*
X128107200Y-62836190D02*
X128154819Y-62979047D01*
X128154819Y-62979047D02*
X128154819Y-63217142D01*
X128154819Y-61693333D02*
X128154819Y-62264761D01*
X128154819Y-61979047D02*
X127154819Y-61979047D01*
X127154819Y-61979047D02*
X127297676Y-62074285D01*
X127297676Y-62074285D02*
X127392914Y-62169523D01*
X127392914Y-62169523D02*
X127440533Y-62264761D01*
X100784819Y-49419047D02*
X99784819Y-49419047D01*
X99784819Y-49419047D02*
X99784819Y-49038095D01*
X99784819Y-49038095D02*
X99832438Y-48942857D01*
X99832438Y-48942857D02*
X99880057Y-48895238D01*
X99880057Y-48895238D02*
X99975295Y-48847619D01*
X99975295Y-48847619D02*
X100118152Y-48847619D01*
X100118152Y-48847619D02*
X100213390Y-48895238D01*
X100213390Y-48895238D02*
X100261009Y-48942857D01*
X100261009Y-48942857D02*
X100308628Y-49038095D01*
X100308628Y-49038095D02*
X100308628Y-49419047D01*
X99784819Y-48561904D02*
X99784819Y-47990476D01*
X100784819Y-48276190D02*
X99784819Y-48276190D01*
X99880057Y-47704761D02*
X99832438Y-47657142D01*
X99832438Y-47657142D02*
X99784819Y-47561904D01*
X99784819Y-47561904D02*
X99784819Y-47323809D01*
X99784819Y-47323809D02*
X99832438Y-47228571D01*
X99832438Y-47228571D02*
X99880057Y-47180952D01*
X99880057Y-47180952D02*
X99975295Y-47133333D01*
X99975295Y-47133333D02*
X100070533Y-47133333D01*
X100070533Y-47133333D02*
X100213390Y-47180952D01*
X100213390Y-47180952D02*
X100784819Y-47752380D01*
X100784819Y-47752380D02*
X100784819Y-47133333D01*
X79854819Y-63634404D02*
X79854819Y-63062976D01*
X80854819Y-63348690D02*
X79854819Y-63348690D01*
X80759580Y-62158214D02*
X80807200Y-62205833D01*
X80807200Y-62205833D02*
X80854819Y-62348690D01*
X80854819Y-62348690D02*
X80854819Y-62443928D01*
X80854819Y-62443928D02*
X80807200Y-62586785D01*
X80807200Y-62586785D02*
X80711961Y-62682023D01*
X80711961Y-62682023D02*
X80616723Y-62729642D01*
X80616723Y-62729642D02*
X80426247Y-62777261D01*
X80426247Y-62777261D02*
X80283390Y-62777261D01*
X80283390Y-62777261D02*
X80092914Y-62729642D01*
X80092914Y-62729642D02*
X79997676Y-62682023D01*
X79997676Y-62682023D02*
X79902438Y-62586785D01*
X79902438Y-62586785D02*
X79854819Y-62443928D01*
X79854819Y-62443928D02*
X79854819Y-62348690D01*
X79854819Y-62348690D02*
X79902438Y-62205833D01*
X79902438Y-62205833D02*
X79950057Y-62158214D01*
X80854819Y-61205833D02*
X80854819Y-61777261D01*
X80854819Y-61491547D02*
X79854819Y-61491547D01*
X79854819Y-61491547D02*
X79997676Y-61586785D01*
X79997676Y-61586785D02*
X80092914Y-61682023D01*
X80092914Y-61682023D02*
X80140533Y-61777261D01*
X117164819Y-49429047D02*
X116164819Y-49429047D01*
X116164819Y-49429047D02*
X116164819Y-49048095D01*
X116164819Y-49048095D02*
X116212438Y-48952857D01*
X116212438Y-48952857D02*
X116260057Y-48905238D01*
X116260057Y-48905238D02*
X116355295Y-48857619D01*
X116355295Y-48857619D02*
X116498152Y-48857619D01*
X116498152Y-48857619D02*
X116593390Y-48905238D01*
X116593390Y-48905238D02*
X116641009Y-48952857D01*
X116641009Y-48952857D02*
X116688628Y-49048095D01*
X116688628Y-49048095D02*
X116688628Y-49429047D01*
X116164819Y-48571904D02*
X116164819Y-48000476D01*
X117164819Y-48286190D02*
X116164819Y-48286190D01*
X116164819Y-47762380D02*
X116164819Y-47143333D01*
X116164819Y-47143333D02*
X116545771Y-47476666D01*
X116545771Y-47476666D02*
X116545771Y-47333809D01*
X116545771Y-47333809D02*
X116593390Y-47238571D01*
X116593390Y-47238571D02*
X116641009Y-47190952D01*
X116641009Y-47190952D02*
X116736247Y-47143333D01*
X116736247Y-47143333D02*
X116974342Y-47143333D01*
X116974342Y-47143333D02*
X117069580Y-47190952D01*
X117069580Y-47190952D02*
X117117200Y-47238571D01*
X117117200Y-47238571D02*
X117164819Y-47333809D01*
X117164819Y-47333809D02*
X117164819Y-47619523D01*
X117164819Y-47619523D02*
X117117200Y-47714761D01*
X117117200Y-47714761D02*
X117069580Y-47762380D01*
X79854819Y-89734404D02*
X79854819Y-89162976D01*
X80854819Y-89448690D02*
X79854819Y-89448690D01*
X80759580Y-88258214D02*
X80807200Y-88305833D01*
X80807200Y-88305833D02*
X80854819Y-88448690D01*
X80854819Y-88448690D02*
X80854819Y-88543928D01*
X80854819Y-88543928D02*
X80807200Y-88686785D01*
X80807200Y-88686785D02*
X80711961Y-88782023D01*
X80711961Y-88782023D02*
X80616723Y-88829642D01*
X80616723Y-88829642D02*
X80426247Y-88877261D01*
X80426247Y-88877261D02*
X80283390Y-88877261D01*
X80283390Y-88877261D02*
X80092914Y-88829642D01*
X80092914Y-88829642D02*
X79997676Y-88782023D01*
X79997676Y-88782023D02*
X79902438Y-88686785D01*
X79902438Y-88686785D02*
X79854819Y-88543928D01*
X79854819Y-88543928D02*
X79854819Y-88448690D01*
X79854819Y-88448690D02*
X79902438Y-88305833D01*
X79902438Y-88305833D02*
X79950057Y-88258214D01*
X80188152Y-87401071D02*
X80854819Y-87401071D01*
X79807200Y-87639166D02*
X80521485Y-87877261D01*
X80521485Y-87877261D02*
X80521485Y-87258214D01*
X129104819Y-88738094D02*
X128104819Y-88738094D01*
X128104819Y-88738094D02*
X128104819Y-88499999D01*
X128104819Y-88499999D02*
X128152438Y-88357142D01*
X128152438Y-88357142D02*
X128247676Y-88261904D01*
X128247676Y-88261904D02*
X128342914Y-88214285D01*
X128342914Y-88214285D02*
X128533390Y-88166666D01*
X128533390Y-88166666D02*
X128676247Y-88166666D01*
X128676247Y-88166666D02*
X128866723Y-88214285D01*
X128866723Y-88214285D02*
X128961961Y-88261904D01*
X128961961Y-88261904D02*
X129057200Y-88357142D01*
X129057200Y-88357142D02*
X129104819Y-88499999D01*
X129104819Y-88499999D02*
X129104819Y-88738094D01*
X128581009Y-87738094D02*
X128581009Y-87404761D01*
X129104819Y-87261904D02*
X129104819Y-87738094D01*
X129104819Y-87738094D02*
X128104819Y-87738094D01*
X128104819Y-87738094D02*
X128104819Y-87261904D01*
X128581009Y-86499999D02*
X128628628Y-86357142D01*
X128628628Y-86357142D02*
X128676247Y-86309523D01*
X128676247Y-86309523D02*
X128771485Y-86261904D01*
X128771485Y-86261904D02*
X128914342Y-86261904D01*
X128914342Y-86261904D02*
X129009580Y-86309523D01*
X129009580Y-86309523D02*
X129057200Y-86357142D01*
X129057200Y-86357142D02*
X129104819Y-86452380D01*
X129104819Y-86452380D02*
X129104819Y-86833332D01*
X129104819Y-86833332D02*
X128104819Y-86833332D01*
X128104819Y-86833332D02*
X128104819Y-86499999D01*
X128104819Y-86499999D02*
X128152438Y-86404761D01*
X128152438Y-86404761D02*
X128200057Y-86357142D01*
X128200057Y-86357142D02*
X128295295Y-86309523D01*
X128295295Y-86309523D02*
X128390533Y-86309523D01*
X128390533Y-86309523D02*
X128485771Y-86357142D01*
X128485771Y-86357142D02*
X128533390Y-86404761D01*
X128533390Y-86404761D02*
X128581009Y-86499999D01*
X128581009Y-86499999D02*
X128581009Y-86833332D01*
X128104819Y-85833332D02*
X128914342Y-85833332D01*
X128914342Y-85833332D02*
X129009580Y-85785713D01*
X129009580Y-85785713D02*
X129057200Y-85738094D01*
X129057200Y-85738094D02*
X129104819Y-85642856D01*
X129104819Y-85642856D02*
X129104819Y-85452380D01*
X129104819Y-85452380D02*
X129057200Y-85357142D01*
X129057200Y-85357142D02*
X129009580Y-85309523D01*
X129009580Y-85309523D02*
X128914342Y-85261904D01*
X128914342Y-85261904D02*
X128104819Y-85261904D01*
X128152438Y-84261904D02*
X128104819Y-84357142D01*
X128104819Y-84357142D02*
X128104819Y-84499999D01*
X128104819Y-84499999D02*
X128152438Y-84642856D01*
X128152438Y-84642856D02*
X128247676Y-84738094D01*
X128247676Y-84738094D02*
X128342914Y-84785713D01*
X128342914Y-84785713D02*
X128533390Y-84833332D01*
X128533390Y-84833332D02*
X128676247Y-84833332D01*
X128676247Y-84833332D02*
X128866723Y-84785713D01*
X128866723Y-84785713D02*
X128961961Y-84738094D01*
X128961961Y-84738094D02*
X129057200Y-84642856D01*
X129057200Y-84642856D02*
X129104819Y-84499999D01*
X129104819Y-84499999D02*
X129104819Y-84404761D01*
X129104819Y-84404761D02*
X129057200Y-84261904D01*
X129057200Y-84261904D02*
X129009580Y-84214285D01*
X129009580Y-84214285D02*
X128676247Y-84214285D01*
X128676247Y-84214285D02*
X128676247Y-84404761D01*
X104560200Y-66917319D02*
X104560200Y-67155414D01*
X104322105Y-67060176D02*
X104560200Y-67155414D01*
X104560200Y-67155414D02*
X104798295Y-67060176D01*
X104417343Y-67345890D02*
X104560200Y-67155414D01*
X104560200Y-67155414D02*
X104703057Y-67345890D01*
X117324819Y-62399047D02*
X116324819Y-62399047D01*
X116324819Y-62399047D02*
X116324819Y-62018095D01*
X116324819Y-62018095D02*
X116372438Y-61922857D01*
X116372438Y-61922857D02*
X116420057Y-61875238D01*
X116420057Y-61875238D02*
X116515295Y-61827619D01*
X116515295Y-61827619D02*
X116658152Y-61827619D01*
X116658152Y-61827619D02*
X116753390Y-61875238D01*
X116753390Y-61875238D02*
X116801009Y-61922857D01*
X116801009Y-61922857D02*
X116848628Y-62018095D01*
X116848628Y-62018095D02*
X116848628Y-62399047D01*
X116324819Y-61541904D02*
X116324819Y-60970476D01*
X117324819Y-61256190D02*
X116324819Y-61256190D01*
X116658152Y-60208571D02*
X117324819Y-60208571D01*
X116277200Y-60446666D02*
X116991485Y-60684761D01*
X116991485Y-60684761D02*
X116991485Y-60065714D01*
X79854819Y-80734404D02*
X79854819Y-80162976D01*
X80854819Y-80448690D02*
X79854819Y-80448690D01*
X80759580Y-79258214D02*
X80807200Y-79305833D01*
X80807200Y-79305833D02*
X80854819Y-79448690D01*
X80854819Y-79448690D02*
X80854819Y-79543928D01*
X80854819Y-79543928D02*
X80807200Y-79686785D01*
X80807200Y-79686785D02*
X80711961Y-79782023D01*
X80711961Y-79782023D02*
X80616723Y-79829642D01*
X80616723Y-79829642D02*
X80426247Y-79877261D01*
X80426247Y-79877261D02*
X80283390Y-79877261D01*
X80283390Y-79877261D02*
X80092914Y-79829642D01*
X80092914Y-79829642D02*
X79997676Y-79782023D01*
X79997676Y-79782023D02*
X79902438Y-79686785D01*
X79902438Y-79686785D02*
X79854819Y-79543928D01*
X79854819Y-79543928D02*
X79854819Y-79448690D01*
X79854819Y-79448690D02*
X79902438Y-79305833D01*
X79902438Y-79305833D02*
X79950057Y-79258214D01*
X79854819Y-78924880D02*
X79854819Y-78305833D01*
X79854819Y-78305833D02*
X80235771Y-78639166D01*
X80235771Y-78639166D02*
X80235771Y-78496309D01*
X80235771Y-78496309D02*
X80283390Y-78401071D01*
X80283390Y-78401071D02*
X80331009Y-78353452D01*
X80331009Y-78353452D02*
X80426247Y-78305833D01*
X80426247Y-78305833D02*
X80664342Y-78305833D01*
X80664342Y-78305833D02*
X80759580Y-78353452D01*
X80759580Y-78353452D02*
X80807200Y-78401071D01*
X80807200Y-78401071D02*
X80854819Y-78496309D01*
X80854819Y-78496309D02*
X80854819Y-78782023D01*
X80854819Y-78782023D02*
X80807200Y-78877261D01*
X80807200Y-78877261D02*
X80759580Y-78924880D01*
X114704285Y-105619580D02*
X114656666Y-105667200D01*
X114656666Y-105667200D02*
X114513809Y-105714819D01*
X114513809Y-105714819D02*
X114418571Y-105714819D01*
X114418571Y-105714819D02*
X114275714Y-105667200D01*
X114275714Y-105667200D02*
X114180476Y-105571961D01*
X114180476Y-105571961D02*
X114132857Y-105476723D01*
X114132857Y-105476723D02*
X114085238Y-105286247D01*
X114085238Y-105286247D02*
X114085238Y-105143390D01*
X114085238Y-105143390D02*
X114132857Y-104952914D01*
X114132857Y-104952914D02*
X114180476Y-104857676D01*
X114180476Y-104857676D02*
X114275714Y-104762438D01*
X114275714Y-104762438D02*
X114418571Y-104714819D01*
X114418571Y-104714819D02*
X114513809Y-104714819D01*
X114513809Y-104714819D02*
X114656666Y-104762438D01*
X114656666Y-104762438D02*
X114704285Y-104810057D01*
X115085238Y-105429104D02*
X115561428Y-105429104D01*
X114990000Y-105714819D02*
X115323333Y-104714819D01*
X115323333Y-104714819D02*
X115656666Y-105714819D01*
X115990000Y-105714819D02*
X115990000Y-104714819D01*
X115990000Y-104714819D02*
X116561428Y-105714819D01*
X116561428Y-105714819D02*
X116561428Y-104714819D01*
X117799524Y-105714819D02*
X117799524Y-104714819D01*
X118466190Y-104714819D02*
X118656666Y-104714819D01*
X118656666Y-104714819D02*
X118751904Y-104762438D01*
X118751904Y-104762438D02*
X118847142Y-104857676D01*
X118847142Y-104857676D02*
X118894761Y-105048152D01*
X118894761Y-105048152D02*
X118894761Y-105381485D01*
X118894761Y-105381485D02*
X118847142Y-105571961D01*
X118847142Y-105571961D02*
X118751904Y-105667200D01*
X118751904Y-105667200D02*
X118656666Y-105714819D01*
X118656666Y-105714819D02*
X118466190Y-105714819D01*
X118466190Y-105714819D02*
X118370952Y-105667200D01*
X118370952Y-105667200D02*
X118275714Y-105571961D01*
X118275714Y-105571961D02*
X118228095Y-105381485D01*
X118228095Y-105381485D02*
X118228095Y-105048152D01*
X118228095Y-105048152D02*
X118275714Y-104857676D01*
X118275714Y-104857676D02*
X118370952Y-104762438D01*
X118370952Y-104762438D02*
X118466190Y-104714819D01*
X123075229Y-98054819D02*
X123075229Y-97054819D01*
X123075229Y-97054819D02*
X123313324Y-97054819D01*
X123313324Y-97054819D02*
X123456181Y-97102438D01*
X123456181Y-97102438D02*
X123551419Y-97197676D01*
X123551419Y-97197676D02*
X123599038Y-97292914D01*
X123599038Y-97292914D02*
X123646657Y-97483390D01*
X123646657Y-97483390D02*
X123646657Y-97626247D01*
X123646657Y-97626247D02*
X123599038Y-97816723D01*
X123599038Y-97816723D02*
X123551419Y-97911961D01*
X123551419Y-97911961D02*
X123456181Y-98007200D01*
X123456181Y-98007200D02*
X123313324Y-98054819D01*
X123313324Y-98054819D02*
X123075229Y-98054819D01*
X123932372Y-97054819D02*
X124503800Y-97054819D01*
X124218086Y-98054819D02*
X124218086Y-97054819D01*
X125360943Y-98054819D02*
X124789515Y-98054819D01*
X125075229Y-98054819D02*
X125075229Y-97054819D01*
X125075229Y-97054819D02*
X124979991Y-97197676D01*
X124979991Y-97197676D02*
X124884753Y-97292914D01*
X124884753Y-97292914D02*
X124789515Y-97340533D01*
X128194819Y-72537619D02*
X127718628Y-72870952D01*
X128194819Y-73109047D02*
X127194819Y-73109047D01*
X127194819Y-73109047D02*
X127194819Y-72728095D01*
X127194819Y-72728095D02*
X127242438Y-72632857D01*
X127242438Y-72632857D02*
X127290057Y-72585238D01*
X127290057Y-72585238D02*
X127385295Y-72537619D01*
X127385295Y-72537619D02*
X127528152Y-72537619D01*
X127528152Y-72537619D02*
X127623390Y-72585238D01*
X127623390Y-72585238D02*
X127671009Y-72632857D01*
X127671009Y-72632857D02*
X127718628Y-72728095D01*
X127718628Y-72728095D02*
X127718628Y-73109047D01*
X127194819Y-72251904D02*
X127194819Y-71680476D01*
X128194819Y-71966190D02*
X127194819Y-71966190D01*
X128194819Y-71347142D02*
X127194819Y-71347142D01*
X127194819Y-71347142D02*
X127194819Y-71109047D01*
X127194819Y-71109047D02*
X127242438Y-70966190D01*
X127242438Y-70966190D02*
X127337676Y-70870952D01*
X127337676Y-70870952D02*
X127432914Y-70823333D01*
X127432914Y-70823333D02*
X127623390Y-70775714D01*
X127623390Y-70775714D02*
X127766247Y-70775714D01*
X127766247Y-70775714D02*
X127956723Y-70823333D01*
X127956723Y-70823333D02*
X128051961Y-70870952D01*
X128051961Y-70870952D02*
X128147200Y-70966190D01*
X128147200Y-70966190D02*
X128194819Y-71109047D01*
X128194819Y-71109047D02*
X128194819Y-71347142D01*
X127290057Y-70394761D02*
X127242438Y-70347142D01*
X127242438Y-70347142D02*
X127194819Y-70251904D01*
X127194819Y-70251904D02*
X127194819Y-70013809D01*
X127194819Y-70013809D02*
X127242438Y-69918571D01*
X127242438Y-69918571D02*
X127290057Y-69870952D01*
X127290057Y-69870952D02*
X127385295Y-69823333D01*
X127385295Y-69823333D02*
X127480533Y-69823333D01*
X127480533Y-69823333D02*
X127623390Y-69870952D01*
X127623390Y-69870952D02*
X128194819Y-70442380D01*
X128194819Y-70442380D02*
X128194819Y-69823333D01*
X79854819Y-72179404D02*
X79854819Y-71607976D01*
X80854819Y-71893690D02*
X79854819Y-71893690D01*
X80759580Y-70703214D02*
X80807200Y-70750833D01*
X80807200Y-70750833D02*
X80854819Y-70893690D01*
X80854819Y-70893690D02*
X80854819Y-70988928D01*
X80854819Y-70988928D02*
X80807200Y-71131785D01*
X80807200Y-71131785D02*
X80711961Y-71227023D01*
X80711961Y-71227023D02*
X80616723Y-71274642D01*
X80616723Y-71274642D02*
X80426247Y-71322261D01*
X80426247Y-71322261D02*
X80283390Y-71322261D01*
X80283390Y-71322261D02*
X80092914Y-71274642D01*
X80092914Y-71274642D02*
X79997676Y-71227023D01*
X79997676Y-71227023D02*
X79902438Y-71131785D01*
X79902438Y-71131785D02*
X79854819Y-70988928D01*
X79854819Y-70988928D02*
X79854819Y-70893690D01*
X79854819Y-70893690D02*
X79902438Y-70750833D01*
X79902438Y-70750833D02*
X79950057Y-70703214D01*
X79950057Y-70322261D02*
X79902438Y-70274642D01*
X79902438Y-70274642D02*
X79854819Y-70179404D01*
X79854819Y-70179404D02*
X79854819Y-69941309D01*
X79854819Y-69941309D02*
X79902438Y-69846071D01*
X79902438Y-69846071D02*
X79950057Y-69798452D01*
X79950057Y-69798452D02*
X80045295Y-69750833D01*
X80045295Y-69750833D02*
X80140533Y-69750833D01*
X80140533Y-69750833D02*
X80283390Y-69798452D01*
X80283390Y-69798452D02*
X80854819Y-70369880D01*
X80854819Y-70369880D02*
X80854819Y-69750833D01*
D12*
%TO.C,R50*%
X119929724Y-67637500D02*
X119420276Y-67637500D01*
X119929724Y-68682500D02*
X119420276Y-68682500D01*
%TO.C,R33*%
X89125276Y-67647500D02*
X89634724Y-67647500D01*
X89125276Y-68692500D02*
X89634724Y-68692500D01*
%TO.C,U9*%
X91370000Y-70920000D02*
X91370000Y-69420000D01*
X91370000Y-70920000D02*
X91370000Y-72420000D01*
X94590000Y-70920000D02*
X94590000Y-69420000D01*
X94590000Y-70920000D02*
X94590000Y-72420000D01*
X91545000Y-73132500D02*
X91215000Y-73372500D01*
X91215000Y-72892500D01*
X91545000Y-73132500D01*
G36*
X91545000Y-73132500D02*
G01*
X91215000Y-73372500D01*
X91215000Y-72892500D01*
X91545000Y-73132500D01*
G37*
%TO.C,C21*%
X106296267Y-63190000D02*
X106003733Y-63190000D01*
X106296267Y-64210000D02*
X106003733Y-64210000D01*
%TO.C,CAN*%
X99280000Y-99370000D02*
X101080000Y-99370000D01*
X99280000Y-100970000D02*
X99280000Y-99370000D01*
X105950000Y-99370000D02*
X105950000Y-98430000D01*
X106480000Y-103840000D02*
X100550000Y-103840000D01*
X107750000Y-99370000D02*
X105950000Y-99370000D01*
X107750000Y-100970000D02*
X107750000Y-99370000D01*
%TO.C,C53*%
X89233733Y-79740000D02*
X89526267Y-79740000D01*
X89233733Y-80760000D02*
X89526267Y-80760000D01*
%TO.C,D8*%
X98545000Y-75355000D02*
X98545000Y-76825000D01*
X98545000Y-76825000D02*
X101005000Y-76825000D01*
X101005000Y-75355000D02*
X98545000Y-75355000D01*
%TO.C,C18*%
X114076267Y-72250000D02*
X113783733Y-72250000D01*
X114076267Y-73270000D02*
X113783733Y-73270000D01*
%TO.C,PT1*%
X101335000Y-57290000D02*
X103135000Y-57290000D01*
X101335000Y-58890000D02*
X101335000Y-57290000D01*
X105505000Y-57290000D02*
X105505000Y-56350000D01*
X106035000Y-61760000D02*
X102605000Y-61760000D01*
X107305000Y-57290000D02*
X105505000Y-57290000D01*
X107305000Y-58890000D02*
X107305000Y-57290000D01*
%TO.C,C68*%
X123016233Y-52665000D02*
X123308767Y-52665000D01*
X123016233Y-53685000D02*
X123308767Y-53685000D01*
%TO.C,R20*%
X87115276Y-66117500D02*
X87624724Y-66117500D01*
X87115276Y-67162500D02*
X87624724Y-67162500D01*
%TO.C,C5*%
X102140000Y-86786267D02*
X102140000Y-86493733D01*
X103160000Y-86786267D02*
X103160000Y-86493733D01*
%TO.C,R8*%
X81077500Y-54342224D02*
X81077500Y-53832776D01*
X82122500Y-54342224D02*
X82122500Y-53832776D01*
%TO.C,C45*%
X96650000Y-53203733D02*
X96650000Y-53496267D01*
X97670000Y-53203733D02*
X97670000Y-53496267D01*
%TO.C,C26*%
X89526267Y-61072500D02*
X89233733Y-61072500D01*
X89526267Y-62092500D02*
X89233733Y-62092500D01*
%TO.C,C75*%
X126520000Y-77601233D02*
X126520000Y-77893767D01*
X127540000Y-77601233D02*
X127540000Y-77893767D01*
%TO.C,C9*%
X115903733Y-85990000D02*
X116196267Y-85990000D01*
X115903733Y-87010000D02*
X116196267Y-87010000D01*
%TO.C,U12*%
X121615000Y-57775000D02*
X121615000Y-56975000D01*
X121615000Y-57775000D02*
X121615000Y-58575000D01*
X124835000Y-58775000D02*
X124835000Y-56975000D01*
X121665000Y-59075000D02*
X121335000Y-59315000D01*
X121335000Y-58835000D01*
X121665000Y-59075000D01*
G36*
X121665000Y-59075000D02*
G01*
X121335000Y-59315000D01*
X121335000Y-58835000D01*
X121665000Y-59075000D01*
G37*
%TO.C,F9*%
X102786267Y-45790000D02*
X102443733Y-45790000D01*
X102786267Y-46810000D02*
X102443733Y-46810000D01*
%TO.C,R26*%
X103677500Y-94954724D02*
X103677500Y-94445276D01*
X104722500Y-94954724D02*
X104722500Y-94445276D01*
%TO.C,U6*%
X91885000Y-51852500D02*
X91085000Y-51852500D01*
X91885000Y-51852500D02*
X92685000Y-51852500D01*
X91885000Y-54972500D02*
X91085000Y-54972500D01*
X91885000Y-54972500D02*
X92685000Y-54972500D01*
X93425000Y-55252500D02*
X92945000Y-55252500D01*
X93185000Y-54922500D01*
X93425000Y-55252500D01*
G36*
X93425000Y-55252500D02*
G01*
X92945000Y-55252500D01*
X93185000Y-54922500D01*
X93425000Y-55252500D01*
G37*
%TO.C,R23*%
X95007500Y-60590276D02*
X95007500Y-61099724D01*
X96052500Y-60590276D02*
X96052500Y-61099724D01*
%TO.C,C32*%
X93980000Y-97176267D02*
X93980000Y-96883733D01*
X95000000Y-97176267D02*
X95000000Y-96883733D01*
%TO.C,R32*%
X89125276Y-73147500D02*
X89634724Y-73147500D01*
X89125276Y-74192500D02*
X89634724Y-74192500D01*
%TO.C,C60*%
X89233733Y-88715000D02*
X89526267Y-88715000D01*
X89233733Y-89735000D02*
X89526267Y-89735000D01*
%TO.C,C16*%
X112426267Y-73900000D02*
X112133733Y-73900000D01*
X112426267Y-74920000D02*
X112133733Y-74920000D01*
%TO.C,R38*%
X95007500Y-77690276D02*
X95007500Y-78199724D01*
X96052500Y-77690276D02*
X96052500Y-78199724D01*
%TO.C,RTD1*%
X122084277Y-60790000D02*
X122084277Y-61840000D01*
X122084277Y-66560000D02*
X121894277Y-66560000D01*
X122084277Y-67610000D02*
X122084277Y-66560000D01*
X125134277Y-60790000D02*
X122084277Y-60790000D01*
X125134277Y-67610000D02*
X122084277Y-67610000D01*
X126104277Y-63810000D02*
X126604277Y-63410000D01*
X126104277Y-64590000D02*
X126104277Y-63810000D01*
X126604277Y-63410000D02*
X126604277Y-61860000D01*
X126604277Y-64990000D02*
X126104277Y-64590000D01*
X126604277Y-66540000D02*
X126604277Y-64990000D01*
X127167500Y-65950000D02*
X127521053Y-66200000D01*
X127521053Y-65700000D02*
X127167500Y-65950000D01*
X127521053Y-66200000D02*
X127521053Y-65700000D01*
%TO.C,FB1*%
X87938733Y-49295000D02*
X88281267Y-49295000D01*
X87938733Y-50315000D02*
X88281267Y-50315000D01*
%TO.C,C36*%
X94337500Y-102963767D02*
X94337500Y-102671233D01*
X95357500Y-102963767D02*
X95357500Y-102671233D01*
%TO.C,C70*%
X116715000Y-64253733D02*
X116715000Y-64546267D01*
X117735000Y-64253733D02*
X117735000Y-64546267D01*
%TO.C,R21*%
X89125276Y-64602500D02*
X89634724Y-64602500D01*
X89125276Y-65647500D02*
X89634724Y-65647500D01*
%TO.C,C69*%
X119821267Y-61590000D02*
X119528733Y-61590000D01*
X119821267Y-62610000D02*
X119528733Y-62610000D01*
%TO.C,PT2*%
X101460000Y-48540000D02*
X103260000Y-48540000D01*
X101460000Y-50140000D02*
X101460000Y-48540000D01*
X105630000Y-48540000D02*
X105630000Y-47600000D01*
X106160000Y-53010000D02*
X102730000Y-53010000D01*
X107430000Y-48540000D02*
X105630000Y-48540000D01*
X107430000Y-50140000D02*
X107430000Y-48540000D01*
D13*
%TO.C,D5*%
X100265000Y-94205000D02*
X100265000Y-94780000D01*
X100265000Y-94780000D02*
X100840000Y-94780000D01*
D12*
%TO.C,U14*%
X122900000Y-79470000D02*
X124700000Y-79470000D01*
X123900000Y-76250000D02*
X123100000Y-76250000D01*
X123900000Y-76250000D02*
X124700000Y-76250000D01*
X122600000Y-76300000D02*
X122360000Y-75970000D01*
X122840000Y-75970000D01*
X122600000Y-76300000D01*
G36*
X122600000Y-76300000D02*
G01*
X122360000Y-75970000D01*
X122840000Y-75970000D01*
X122600000Y-76300000D01*
G37*
%TO.C,C64*%
X93226267Y-91935000D02*
X92933733Y-91935000D01*
X93226267Y-92955000D02*
X92933733Y-92955000D01*
%TO.C,R39*%
X87215276Y-92227500D02*
X87724724Y-92227500D01*
X87215276Y-93272500D02*
X87724724Y-93272500D01*
%TO.C,C57*%
X93226267Y-82940000D02*
X92933733Y-82940000D01*
X93226267Y-83960000D02*
X92933733Y-83960000D01*
%TO.C,C46*%
X89233733Y-71197500D02*
X89526267Y-71197500D01*
X89233733Y-72217500D02*
X89526267Y-72217500D01*
%TO.C,C2*%
X113900000Y-89546233D02*
X113900000Y-89838767D01*
X114920000Y-89546233D02*
X114920000Y-89838767D01*
%TO.C,TC1*%
X81670000Y-64090000D02*
X81670000Y-60660000D01*
X84540000Y-59390000D02*
X86140000Y-59390000D01*
X84540000Y-65360000D02*
X86140000Y-65360000D01*
X86140000Y-59390000D02*
X86140000Y-61190000D01*
X86140000Y-63560000D02*
X87080000Y-63560000D01*
X86140000Y-65360000D02*
X86140000Y-63560000D01*
%TO.C,C73*%
X91587500Y-50106267D02*
X91587500Y-49813733D01*
X92607500Y-50106267D02*
X92607500Y-49813733D01*
%TO.C,C40*%
X105146267Y-64740000D02*
X104853733Y-64740000D01*
X105146267Y-65760000D02*
X104853733Y-65760000D01*
%TO.C,PT3*%
X109510000Y-48540000D02*
X111310000Y-48540000D01*
X109510000Y-50140000D02*
X109510000Y-48540000D01*
X113680000Y-48540000D02*
X113680000Y-47600000D01*
X114210000Y-53010000D02*
X110780000Y-53010000D01*
X115480000Y-48540000D02*
X113680000Y-48540000D01*
X115480000Y-50140000D02*
X115480000Y-48540000D01*
%TO.C,C38*%
X88560000Y-105623767D02*
X88560000Y-105331233D01*
X89580000Y-105623767D02*
X89580000Y-105331233D01*
%TO.C,C22*%
X110703733Y-63240000D02*
X110996267Y-63240000D01*
X110703733Y-64260000D02*
X110996267Y-64260000D01*
%TO.C,C59*%
X95020000Y-81156233D02*
X95020000Y-81448767D01*
X96040000Y-81156233D02*
X96040000Y-81448767D01*
%TO.C,TC4*%
X81670000Y-90190000D02*
X81670000Y-86760000D01*
X84540000Y-85490000D02*
X86140000Y-85490000D01*
X84540000Y-91460000D02*
X86140000Y-91460000D01*
X86140000Y-85490000D02*
X86140000Y-87290000D01*
X86140000Y-89660000D02*
X87080000Y-89660000D01*
X86140000Y-91460000D02*
X86140000Y-89660000D01*
%TO.C,R41*%
X89125276Y-85202500D02*
X89634724Y-85202500D01*
X89125276Y-86247500D02*
X89634724Y-86247500D01*
%TO.C,D12*%
X105065000Y-93900000D02*
X105065000Y-96360000D01*
X105065000Y-96360000D02*
X106535000Y-96360000D01*
X106535000Y-96360000D02*
X106535000Y-93900000D01*
%TO.C,C55*%
X89526267Y-78240000D02*
X89233733Y-78240000D01*
X89526267Y-79260000D02*
X89233733Y-79260000D01*
%TO.C,R9*%
X103677500Y-91464724D02*
X103677500Y-90955276D01*
X104722500Y-91464724D02*
X104722500Y-90955276D01*
%TO.C,C77*%
X119821267Y-69217500D02*
X119528733Y-69217500D01*
X119821267Y-70237500D02*
X119528733Y-70237500D01*
%TO.C,R2*%
X116354724Y-92627500D02*
X115845276Y-92627500D01*
X116354724Y-93672500D02*
X115845276Y-93672500D01*
%TO.C,C66*%
X95020000Y-90161233D02*
X95020000Y-90453767D01*
X96040000Y-90161233D02*
X96040000Y-90453767D01*
%TO.C,C48*%
X89526267Y-69697500D02*
X89233733Y-69697500D01*
X89526267Y-70717500D02*
X89233733Y-70717500D01*
%TO.C,C72*%
X114076267Y-70700000D02*
X113783733Y-70700000D01*
X114076267Y-71720000D02*
X113783733Y-71720000D01*
%TO.C,L1*%
X90882936Y-55577500D02*
X92087064Y-55577500D01*
X90882936Y-58297500D02*
X92087064Y-58297500D01*
%TO.C,D18*%
X94172500Y-51702500D02*
X94172500Y-55712500D01*
X96172500Y-51702500D02*
X94172500Y-51702500D01*
X96172500Y-51702500D02*
X96172500Y-55712500D01*
%TO.C,C30*%
X95020000Y-64058733D02*
X95020000Y-64351267D01*
X96040000Y-64058733D02*
X96040000Y-64351267D01*
%TO.C,C7*%
X112280000Y-89546233D02*
X112280000Y-89838767D01*
X113300000Y-89546233D02*
X113300000Y-89838767D01*
%TO.C,R15*%
X102127500Y-77354724D02*
X102127500Y-76845276D01*
X103172500Y-77354724D02*
X103172500Y-76845276D01*
%TO.C,C17*%
X103345000Y-73108767D02*
X103345000Y-72816233D01*
X104365000Y-73108767D02*
X104365000Y-72816233D01*
%TO.C,C50*%
X93226267Y-74377500D02*
X92933733Y-74377500D01*
X93226267Y-75397500D02*
X92933733Y-75397500D01*
%TO.C,C41*%
X88256267Y-52345000D02*
X87963733Y-52345000D01*
X88256267Y-53365000D02*
X87963733Y-53365000D01*
%TO.C,R13*%
X100567500Y-90955276D02*
X100567500Y-91464724D01*
X101612500Y-90955276D02*
X101612500Y-91464724D01*
%TO.C,Y1*%
X114700000Y-83175000D02*
X114700000Y-85475000D01*
X114700000Y-85475000D02*
X117400000Y-85475000D01*
%TO.C,FB2*%
X97171267Y-97440000D02*
X96828733Y-97440000D01*
X97171267Y-98460000D02*
X96828733Y-98460000D01*
%TO.C,R7*%
X126477500Y-54342224D02*
X126477500Y-53832776D01*
X127522500Y-54342224D02*
X127522500Y-53832776D01*
%TO.C,F12*%
X102661267Y-54540000D02*
X102318733Y-54540000D01*
X102661267Y-55560000D02*
X102318733Y-55560000D01*
%TO.C,C19*%
X99000000Y-81703733D02*
X99000000Y-81996267D01*
X100020000Y-81703733D02*
X100020000Y-81996267D01*
%TO.C,DEBUG*%
X122889277Y-82390000D02*
X122889277Y-83440000D01*
X122889277Y-89560000D02*
X121899277Y-89560000D01*
X122889277Y-90610000D02*
X122889277Y-89560000D01*
X125389277Y-82390000D02*
X122889277Y-82390000D01*
X125389277Y-90610000D02*
X122889277Y-90610000D01*
X127359277Y-89440000D02*
X127359277Y-83560000D01*
%TO.C,R22*%
X89125276Y-59102500D02*
X89634724Y-59102500D01*
X89125276Y-60147500D02*
X89634724Y-60147500D01*
%TO.C,F8*%
X105978733Y-54540000D02*
X106321267Y-54540000D01*
X105978733Y-55560000D02*
X106321267Y-55560000D01*
%TO.C,R36*%
X89125276Y-81702500D02*
X89634724Y-81702500D01*
X89125276Y-82747500D02*
X89634724Y-82747500D01*
%TO.C,R24*%
X93100000Y-50214724D02*
X93100000Y-49705276D01*
X94145000Y-50214724D02*
X94145000Y-49705276D01*
%TO.C,R12*%
X102067500Y-90955276D02*
X102067500Y-91464724D01*
X103112500Y-90955276D02*
X103112500Y-91464724D01*
D14*
%TO.C,U3*%
X105375000Y-66787500D02*
X105375000Y-67252759D01*
X105375000Y-72672241D02*
X105375000Y-73137500D01*
X105375000Y-73137500D02*
X105840259Y-73137500D01*
X105840259Y-66787500D02*
X105375000Y-66787500D01*
X111259741Y-73137500D02*
X111725000Y-73137500D01*
X111725000Y-66787500D02*
X111259741Y-66787500D01*
X111725000Y-67252759D02*
X111725000Y-66787500D01*
X111725000Y-73137500D02*
X111725000Y-72672241D01*
D15*
G36*
X104941198Y-72403001D02*
G01*
X104687198Y-72403001D01*
X104687198Y-72022001D01*
X104941198Y-72022001D01*
X104941198Y-72403001D01*
G37*
G36*
X106490499Y-66353698D02*
G01*
X106109499Y-66353698D01*
X106109499Y-66099698D01*
X106490499Y-66099698D01*
X106490499Y-66353698D01*
G37*
G36*
X110990501Y-73825302D02*
G01*
X110609501Y-73825302D01*
X110609501Y-73571302D01*
X110990501Y-73571302D01*
X110990501Y-73825302D01*
G37*
G36*
X112412802Y-67902999D02*
G01*
X112158802Y-67902999D01*
X112158802Y-67521999D01*
X112412802Y-67521999D01*
X112412802Y-67902999D01*
G37*
D12*
%TO.C,F6*%
X114338733Y-54540000D02*
X114681267Y-54540000D01*
X114338733Y-55560000D02*
X114681267Y-55560000D01*
%TO.C,C28*%
X93226267Y-65832500D02*
X92933733Y-65832500D01*
X93226267Y-66852500D02*
X92933733Y-66852500D01*
%TO.C,R44*%
X119420276Y-63077500D02*
X119929724Y-63077500D01*
X119420276Y-64122500D02*
X119929724Y-64122500D01*
%TO.C,F10*%
X110836267Y-45790000D02*
X110493733Y-45790000D01*
X110836267Y-46810000D02*
X110493733Y-46810000D01*
%TO.C,C42*%
X88256267Y-53870000D02*
X87963733Y-53870000D01*
X88256267Y-54890000D02*
X87963733Y-54890000D01*
%TO.C,R10*%
X106927500Y-94445276D02*
X106927500Y-94954724D01*
X107972500Y-94445276D02*
X107972500Y-94954724D01*
%TO.C,R51*%
X119929724Y-75227500D02*
X119420276Y-75227500D01*
X119929724Y-76272500D02*
X119420276Y-76272500D01*
%TO.C,L2*%
X91617500Y-104768748D02*
X91617500Y-105291252D01*
X93837500Y-104768748D02*
X93837500Y-105291252D01*
%TO.C,C6*%
X105553733Y-77610000D02*
X105846267Y-77610000D01*
X105553733Y-78630000D02*
X105846267Y-78630000D01*
%TO.C,C71*%
X119528733Y-66090000D02*
X119821267Y-66090000D01*
X119528733Y-67110000D02*
X119821267Y-67110000D01*
%TO.C,C12*%
X110336267Y-94250000D02*
X110043733Y-94250000D01*
X110336267Y-95270000D02*
X110043733Y-95270000D01*
%TO.C,R25*%
X90050000Y-50214724D02*
X90050000Y-49705276D01*
X91095000Y-50214724D02*
X91095000Y-49705276D01*
%TO.C,R3*%
X119007500Y-85014724D02*
X119007500Y-84505276D01*
X120052500Y-85014724D02*
X120052500Y-84505276D01*
%TO.C,PT4*%
X109695000Y-57290000D02*
X111495000Y-57290000D01*
X109695000Y-58890000D02*
X109695000Y-57290000D01*
X113865000Y-57290000D02*
X113865000Y-56350000D01*
X114395000Y-61760000D02*
X110965000Y-61760000D01*
X115665000Y-57290000D02*
X113865000Y-57290000D01*
X115665000Y-58890000D02*
X115665000Y-57290000D01*
%TO.C,D1*%
X119395000Y-92442500D02*
X119395000Y-94902500D01*
X120865000Y-92442500D02*
X119395000Y-92442500D01*
X120865000Y-94902500D02*
X120865000Y-92442500D01*
%TO.C,C39*%
X90080000Y-105623767D02*
X90080000Y-105331233D01*
X91100000Y-105623767D02*
X91100000Y-105331233D01*
%TO.C,C44*%
X96650000Y-50106267D02*
X96650000Y-49813733D01*
X97670000Y-50106267D02*
X97670000Y-49813733D01*
%TO.C,C67*%
X123016233Y-54165000D02*
X123308767Y-54165000D01*
X123016233Y-55185000D02*
X123308767Y-55185000D01*
%TO.C,R16*%
X102127500Y-80227776D02*
X102127500Y-80737224D01*
X103172500Y-80227776D02*
X103172500Y-80737224D01*
%TO.C,U7*%
X90820000Y-100787500D02*
X90820000Y-99987500D01*
X90820000Y-100787500D02*
X90820000Y-101587500D01*
X93940000Y-100787500D02*
X93940000Y-99987500D01*
X93940000Y-100787500D02*
X93940000Y-101587500D01*
X94220000Y-99727500D02*
X93890000Y-99487500D01*
X94220000Y-99247500D01*
X94220000Y-99727500D01*
G36*
X94220000Y-99727500D02*
G01*
X93890000Y-99487500D01*
X94220000Y-99247500D01*
X94220000Y-99727500D01*
G37*
%TO.C,C79*%
X119528733Y-73717500D02*
X119821267Y-73717500D01*
X119528733Y-74737500D02*
X119821267Y-74737500D01*
%TO.C,U4*%
X99185000Y-77830000D02*
X99185000Y-79230000D01*
X101505000Y-77820000D02*
X101505000Y-79230000D01*
X101785000Y-77690000D02*
X101455000Y-77450000D01*
X101785000Y-77210000D01*
X101785000Y-77690000D01*
G36*
X101785000Y-77690000D02*
G01*
X101455000Y-77450000D01*
X101785000Y-77210000D01*
X101785000Y-77690000D01*
G37*
%TO.C,C34*%
X88256267Y-50820000D02*
X87963733Y-50820000D01*
X88256267Y-51840000D02*
X87963733Y-51840000D01*
%TO.C,R42*%
X95007500Y-86690276D02*
X95007500Y-87199724D01*
X96052500Y-86690276D02*
X96052500Y-87199724D01*
%TO.C,D6*%
X108627500Y-91437500D02*
X108627500Y-90787500D01*
X108627500Y-91437500D02*
X108627500Y-92087500D01*
X111747500Y-91437500D02*
X111747500Y-90787500D01*
X111747500Y-91437500D02*
X111747500Y-92087500D01*
X108677500Y-92600000D02*
X108347500Y-92840000D01*
X108347500Y-92360000D01*
X108677500Y-92600000D01*
G36*
X108677500Y-92600000D02*
G01*
X108347500Y-92840000D01*
X108347500Y-92360000D01*
X108677500Y-92600000D01*
G37*
%TO.C,F2*%
X106103733Y-45790000D02*
X106446267Y-45790000D01*
X106103733Y-46810000D02*
X106446267Y-46810000D01*
%TO.C,R11*%
X99067500Y-90955276D02*
X99067500Y-91464724D01*
X100112500Y-90955276D02*
X100112500Y-91464724D01*
%TO.C,R28*%
X119420276Y-64577500D02*
X119929724Y-64577500D01*
X119420276Y-65622500D02*
X119929724Y-65622500D01*
%TO.C,R49*%
X119420276Y-72205000D02*
X119929724Y-72205000D01*
X119420276Y-73250000D02*
X119929724Y-73250000D01*
%TO.C,STM32*%
X104990000Y-80515000D02*
X104990000Y-80965000D01*
X104990000Y-87735000D02*
X104990000Y-87285000D01*
X105440000Y-80515000D02*
X104990000Y-80515000D01*
X105440000Y-87735000D02*
X104990000Y-87735000D01*
X111760000Y-80515000D02*
X112210000Y-80515000D01*
X111760000Y-87735000D02*
X112210000Y-87735000D01*
X112210000Y-80515000D02*
X112210000Y-80965000D01*
X112210000Y-87735000D02*
X112210000Y-87285000D01*
X113140000Y-87755000D02*
X112460000Y-87755000D01*
X112800000Y-87285000D01*
X113140000Y-87755000D01*
G36*
X113140000Y-87755000D02*
G01*
X112460000Y-87755000D01*
X112800000Y-87285000D01*
X113140000Y-87755000D01*
G37*
%TO.C,C24*%
X89233733Y-62592500D02*
X89526267Y-62592500D01*
X89233733Y-63612500D02*
X89526267Y-63612500D01*
%TO.C,TC3*%
X81670000Y-81190000D02*
X81670000Y-77760000D01*
X84540000Y-76490000D02*
X86140000Y-76490000D01*
X84540000Y-82460000D02*
X86140000Y-82460000D01*
X86140000Y-76490000D02*
X86140000Y-78290000D01*
X86140000Y-80660000D02*
X87080000Y-80660000D01*
X86140000Y-82460000D02*
X86140000Y-80660000D01*
%TO.C,CAN IO*%
X112530000Y-98220000D02*
X112530000Y-104190000D01*
X112530000Y-104190000D02*
X120150000Y-104190000D01*
X112540000Y-101930000D02*
X113290000Y-101930000D01*
X112540000Y-103430000D02*
X112540000Y-104180000D01*
X112540000Y-104180000D02*
X114340000Y-104180000D01*
X113290000Y-98980000D02*
X116340000Y-98980000D01*
X113290000Y-101930000D02*
X113290000Y-98980000D01*
X114340000Y-103430000D02*
X112540000Y-103430000D01*
X114340000Y-104180000D02*
X114340000Y-103430000D01*
X115840000Y-103430000D02*
X115840000Y-104180000D01*
X115840000Y-104180000D02*
X116840000Y-104180000D01*
X116340000Y-98980000D02*
X118330000Y-98980000D01*
X116840000Y-103430000D02*
X115840000Y-103430000D01*
X116840000Y-104180000D02*
X116840000Y-103430000D01*
X118340000Y-103430000D02*
X118340000Y-104180000D01*
X118340000Y-104180000D02*
X120140000Y-104180000D01*
X119190000Y-104480000D02*
X120440000Y-104480000D01*
X119390000Y-101930000D02*
X119390000Y-100590000D01*
X120140000Y-101930000D02*
X119390000Y-101930000D01*
X120140000Y-103430000D02*
X118340000Y-103430000D01*
X120140000Y-104180000D02*
X120140000Y-103430000D01*
X120150000Y-98220000D02*
X112530000Y-98220000D01*
X120150000Y-104190000D02*
X120150000Y-98220000D01*
X120440000Y-104480000D02*
X120440000Y-103230000D01*
%TO.C,C78*%
X116665000Y-71881233D02*
X116665000Y-72173767D01*
X117685000Y-71881233D02*
X117685000Y-72173767D01*
%TO.C,C15*%
X99795000Y-73108767D02*
X99795000Y-72816233D01*
X100815000Y-73108767D02*
X100815000Y-72816233D01*
%TO.C,D3*%
X105065000Y-90387500D02*
X105065000Y-92847500D01*
X105065000Y-92847500D02*
X106535000Y-92847500D01*
X106535000Y-92847500D02*
X106535000Y-90387500D01*
%TO.C,R5*%
X81077500Y-99920276D02*
X81077500Y-100429724D01*
X82122500Y-99920276D02*
X82122500Y-100429724D01*
%TO.C,R1*%
X118007500Y-94332224D02*
X118007500Y-93822776D01*
X119052500Y-94332224D02*
X119052500Y-93822776D01*
%TO.C,F1*%
X101662064Y-95850000D02*
X100457936Y-95850000D01*
X101662064Y-97670000D02*
X100457936Y-97670000D01*
%TO.C,D2*%
X95350000Y-95665000D02*
X95350000Y-97135000D01*
X95350000Y-97135000D02*
X97810000Y-97135000D01*
X97810000Y-95665000D02*
X95350000Y-95665000D01*
%TO.C,DT1*%
X121040724Y-94450000D02*
X121040724Y-94950000D01*
X121040724Y-94950000D02*
X121394277Y-94700000D01*
X121394277Y-94700000D02*
X121040724Y-94450000D01*
X122084277Y-91890000D02*
X122084277Y-92940000D01*
X122084277Y-95260000D02*
X121894277Y-95260000D01*
X122084277Y-96310000D02*
X122084277Y-95260000D01*
X125434277Y-91890000D02*
X122084277Y-91890000D01*
X125434277Y-96310000D02*
X122084277Y-96310000D01*
X126104277Y-93710000D02*
X126604277Y-93310000D01*
X126104277Y-94490000D02*
X126104277Y-93710000D01*
X126604277Y-93310000D02*
X126604277Y-92960000D01*
X126604277Y-94890000D02*
X126104277Y-94490000D01*
X126604277Y-95240000D02*
X126604277Y-94890000D01*
%TO.C,C11*%
X116196267Y-81690000D02*
X115903733Y-81690000D01*
X116196267Y-82710000D02*
X115903733Y-82710000D01*
%TO.C,F11*%
X111021267Y-54540000D02*
X110678733Y-54540000D01*
X111021267Y-55560000D02*
X110678733Y-55560000D01*
%TO.C,R48*%
X119420276Y-70705000D02*
X119929724Y-70705000D01*
X119420276Y-71750000D02*
X119929724Y-71750000D01*
%TO.C,C3*%
X105553733Y-76080000D02*
X105846267Y-76080000D01*
X105553733Y-77100000D02*
X105846267Y-77100000D01*
%TO.C,C35*%
X90900000Y-97176267D02*
X90900000Y-96883733D01*
X91920000Y-97176267D02*
X91920000Y-96883733D01*
%TO.C,U5*%
X91370000Y-62375000D02*
X91370000Y-60875000D01*
X91370000Y-62375000D02*
X91370000Y-63875000D01*
X94590000Y-62375000D02*
X94590000Y-60875000D01*
X94590000Y-62375000D02*
X94590000Y-63875000D01*
X91545000Y-64587500D02*
X91215000Y-64827500D01*
X91215000Y-64347500D01*
X91545000Y-64587500D01*
G36*
X91545000Y-64587500D02*
G01*
X91215000Y-64827500D01*
X91215000Y-64347500D01*
X91545000Y-64587500D01*
G37*
%TO.C,C14*%
X101320000Y-73108767D02*
X101320000Y-72816233D01*
X102340000Y-73108767D02*
X102340000Y-72816233D01*
%TO.C,R4*%
X118217500Y-78884724D02*
X118217500Y-78375276D01*
X119262500Y-78884724D02*
X119262500Y-78375276D01*
%TO.C,RTD2*%
X122084277Y-68580000D02*
X122084277Y-69630000D01*
X122084277Y-74350000D02*
X121894277Y-74350000D01*
X122084277Y-75400000D02*
X122084277Y-74350000D01*
X125134277Y-68580000D02*
X122084277Y-68580000D01*
X125134277Y-75400000D02*
X122084277Y-75400000D01*
X126104277Y-71600000D02*
X126604277Y-71200000D01*
X126104277Y-72380000D02*
X126104277Y-71600000D01*
X126604277Y-71200000D02*
X126604277Y-69650000D01*
X126604277Y-72780000D02*
X126104277Y-72380000D01*
X126604277Y-74330000D02*
X126604277Y-72780000D01*
X127142500Y-73865000D02*
X127496053Y-74115000D01*
X127496053Y-73615000D02*
X127142500Y-73865000D01*
X127496053Y-74115000D02*
X127496053Y-73615000D01*
%TO.C,C74*%
X94850000Y-49193733D02*
X94850000Y-49486267D01*
X95870000Y-49193733D02*
X95870000Y-49486267D01*
%TO.C,TC2*%
X81670000Y-72635000D02*
X81670000Y-69205000D01*
X84540000Y-67935000D02*
X86140000Y-67935000D01*
X84540000Y-73905000D02*
X86140000Y-73905000D01*
X86140000Y-67935000D02*
X86140000Y-69735000D01*
X86140000Y-72105000D02*
X87080000Y-72105000D01*
X86140000Y-73905000D02*
X86140000Y-72105000D01*
%TO.C,D4*%
X106715000Y-90387500D02*
X106715000Y-92847500D01*
X106715000Y-92847500D02*
X108185000Y-92847500D01*
X108185000Y-92847500D02*
X108185000Y-90387500D01*
%TO.C,U2*%
X108627500Y-97637500D02*
X108627500Y-96837500D01*
X108627500Y-97637500D02*
X108627500Y-98437500D01*
X111747500Y-97637500D02*
X111747500Y-96837500D01*
X111747500Y-97637500D02*
X111747500Y-98437500D01*
X112002500Y-96577500D02*
X111672500Y-96337500D01*
X112002500Y-96097500D01*
X112002500Y-96577500D01*
G36*
X112002500Y-96577500D02*
G01*
X111672500Y-96337500D01*
X112002500Y-96097500D01*
X112002500Y-96577500D01*
G37*
%TO.C,R40*%
X89125276Y-90702500D02*
X89634724Y-90702500D01*
X89125276Y-91747500D02*
X89634724Y-91747500D01*
%TO.C,C52*%
X95020000Y-72603733D02*
X95020000Y-72896267D01*
X96040000Y-72603733D02*
X96040000Y-72896267D01*
%TO.C,F4*%
X114153733Y-45790000D02*
X114496267Y-45790000D01*
X114153733Y-46810000D02*
X114496267Y-46810000D01*
%TO.C,C33*%
X92450000Y-97176267D02*
X92450000Y-96883733D01*
X93470000Y-97176267D02*
X93470000Y-96883733D01*
%TO.C,C23*%
X111853733Y-64790000D02*
X112146267Y-64790000D01*
X111853733Y-65810000D02*
X112146267Y-65810000D01*
%TO.C,R6*%
X126477500Y-99920276D02*
X126477500Y-100429724D01*
X127522500Y-99920276D02*
X127522500Y-100429724D01*
%TO.C,R31*%
X87312776Y-74667500D02*
X87822224Y-74667500D01*
X87312776Y-75712500D02*
X87822224Y-75712500D01*
%TO.C,C62*%
X89526267Y-87215000D02*
X89233733Y-87215000D01*
X89526267Y-88235000D02*
X89233733Y-88235000D01*
%TO.C,C76*%
X128050000Y-77611233D02*
X128050000Y-77903767D01*
X129070000Y-77611233D02*
X129070000Y-77903767D01*
%TO.C,U10*%
X91370000Y-79475000D02*
X91370000Y-77975000D01*
X91370000Y-79475000D02*
X91370000Y-80975000D01*
X94590000Y-79475000D02*
X94590000Y-77975000D01*
X94590000Y-79475000D02*
X94590000Y-80975000D01*
X91545000Y-81687500D02*
X91215000Y-81927500D01*
X91215000Y-81447500D01*
X91545000Y-81687500D01*
G36*
X91545000Y-81687500D02*
G01*
X91215000Y-81927500D01*
X91215000Y-81447500D01*
X91545000Y-81687500D01*
G37*
%TO.C,R35*%
X87125276Y-83237500D02*
X87634724Y-83237500D01*
X87125276Y-84282500D02*
X87634724Y-84282500D01*
%TO.C,C43*%
X98190000Y-50106267D02*
X98190000Y-49813733D01*
X99210000Y-50106267D02*
X99210000Y-49813733D01*
%TO.C,C20*%
X100520000Y-81703733D02*
X100520000Y-81996267D01*
X101540000Y-81703733D02*
X101540000Y-81996267D01*
%TO.C,R34*%
X95007500Y-69135276D02*
X95007500Y-69644724D01*
X96052500Y-69135276D02*
X96052500Y-69644724D01*
%TO.C,U11*%
X91370000Y-88475000D02*
X91370000Y-86975000D01*
X91370000Y-88475000D02*
X91370000Y-89975000D01*
X94590000Y-88475000D02*
X94590000Y-86975000D01*
X94590000Y-88475000D02*
X94590000Y-89975000D01*
X91545000Y-90687500D02*
X91215000Y-90927500D01*
X91215000Y-90447500D01*
X91545000Y-90687500D01*
G36*
X91545000Y-90687500D02*
G01*
X91215000Y-90927500D01*
X91215000Y-90447500D01*
X91545000Y-90687500D01*
G37*
%TO.C,R37*%
X89125276Y-76202500D02*
X89634724Y-76202500D01*
X89125276Y-77247500D02*
X89634724Y-77247500D01*
%TD*%
%LPC*%
D16*
%TO.C,R50*%
X120587500Y-68160000D03*
X118762500Y-68160000D03*
%TD*%
D17*
%TO.C,R33*%
X88467500Y-68170000D03*
X90292500Y-68170000D03*
%TD*%
D18*
%TO.C,U9*%
X92005000Y-73032500D03*
X92655000Y-73032500D03*
X93305000Y-73032500D03*
X93955000Y-73032500D03*
X93955000Y-68807500D03*
X93305000Y-68807500D03*
X92655000Y-68807500D03*
X92005000Y-68807500D03*
%TD*%
D19*
%TO.C,C21*%
X107012500Y-63700000D03*
X105287500Y-63700000D03*
%TD*%
D20*
%TO.C,H2*%
X124600000Y-105600000D03*
X125302944Y-103902944D03*
X125302944Y-107297056D03*
X127000000Y-103200000D03*
D21*
X127000000Y-105600000D03*
D20*
X127000000Y-108000000D03*
X128697056Y-103902944D03*
X128697056Y-107297056D03*
X129400000Y-105600000D03*
%TD*%
D22*
%TO.C,CAN*%
X105390000Y-99280000D03*
X104140000Y-99280000D03*
X102890000Y-99280000D03*
X101640000Y-99280000D03*
D23*
X107240000Y-102630000D03*
X99790000Y-102630000D03*
%TD*%
D24*
%TO.C,C53*%
X88517500Y-80250000D03*
X90242500Y-80250000D03*
%TD*%
D25*
%TO.C,D8*%
X99330000Y-76090000D03*
X101080000Y-76090000D03*
%TD*%
D19*
%TO.C,C18*%
X114792500Y-72760000D03*
X113067500Y-72760000D03*
%TD*%
D22*
%TO.C,PT1*%
X104945000Y-57200000D03*
X103695000Y-57200000D03*
D23*
X106795000Y-60550000D03*
X101845000Y-60550000D03*
%TD*%
D24*
%TO.C,C68*%
X122300000Y-53175000D03*
X124025000Y-53175000D03*
%TD*%
D17*
%TO.C,R20*%
X86457500Y-66640000D03*
X88282500Y-66640000D03*
%TD*%
D26*
%TO.C,C5*%
X102650000Y-87502500D03*
X102650000Y-85777500D03*
%TD*%
D27*
%TO.C,R8*%
X81600000Y-55000000D03*
X81600000Y-53175000D03*
%TD*%
D28*
%TO.C,C45*%
X97160000Y-52487500D03*
X97160000Y-54212500D03*
%TD*%
D19*
%TO.C,C26*%
X90242500Y-61582500D03*
X88517500Y-61582500D03*
%TD*%
D28*
%TO.C,C75*%
X127030000Y-76885000D03*
X127030000Y-78610000D03*
%TD*%
D24*
%TO.C,C9*%
X115187500Y-86500000D03*
X116912500Y-86500000D03*
%TD*%
D29*
%TO.C,U12*%
X122275000Y-59225000D03*
X123225000Y-59225000D03*
X124175000Y-59225000D03*
X124175000Y-56525000D03*
X122275000Y-56525000D03*
%TD*%
D30*
%TO.C,F9*%
X103490000Y-46300000D03*
X101740000Y-46300000D03*
%TD*%
D27*
%TO.C,R26*%
X104200000Y-95612500D03*
X104200000Y-93787500D03*
%TD*%
D31*
%TO.C,U6*%
X93022500Y-54362500D03*
X93022500Y-53412500D03*
X93022500Y-52462500D03*
X90747500Y-52462500D03*
X90747500Y-54362500D03*
%TD*%
D32*
%TO.C,R23*%
X95530000Y-59932500D03*
X95530000Y-61757500D03*
%TD*%
D26*
%TO.C,C32*%
X94490000Y-97892500D03*
X94490000Y-96167500D03*
%TD*%
D17*
%TO.C,R32*%
X88467500Y-73670000D03*
X90292500Y-73670000D03*
%TD*%
D24*
%TO.C,C60*%
X88517500Y-89225000D03*
X90242500Y-89225000D03*
%TD*%
D19*
%TO.C,C16*%
X113142500Y-74410000D03*
X111417500Y-74410000D03*
%TD*%
D32*
%TO.C,R38*%
X95530000Y-77032500D03*
X95530000Y-78857500D03*
%TD*%
D33*
%TO.C,RTD1*%
X122319277Y-66000000D03*
X122319277Y-64800000D03*
X122319277Y-63600000D03*
X122319277Y-62400000D03*
D34*
X125944277Y-67175000D03*
X125944277Y-61225000D03*
%TD*%
D25*
%TO.C,FB1*%
X87235000Y-49805000D03*
X88985000Y-49805000D03*
%TD*%
D26*
%TO.C,C36*%
X94847500Y-103680000D03*
X94847500Y-101955000D03*
%TD*%
D28*
%TO.C,C70*%
X117225000Y-63537500D03*
X117225000Y-65262500D03*
%TD*%
D17*
%TO.C,R21*%
X88467500Y-65125000D03*
X90292500Y-65125000D03*
%TD*%
D19*
%TO.C,C69*%
X120537500Y-62100000D03*
X118812500Y-62100000D03*
%TD*%
D22*
%TO.C,PT2*%
X105070000Y-48450000D03*
X103820000Y-48450000D03*
D23*
X106920000Y-51800000D03*
X101970000Y-51800000D03*
%TD*%
D35*
%TO.C,D5*%
X100665000Y-94380000D03*
X100665000Y-93530000D03*
X101515000Y-93530000D03*
X101515000Y-94380000D03*
%TD*%
D36*
%TO.C,U14*%
X122450000Y-76910000D03*
X122450000Y-77860000D03*
X122450000Y-78810000D03*
X125150000Y-78810000D03*
X125150000Y-76910000D03*
%TD*%
D19*
%TO.C,C64*%
X93942500Y-92445000D03*
X92217500Y-92445000D03*
%TD*%
D17*
%TO.C,R39*%
X86557500Y-92750000D03*
X88382500Y-92750000D03*
%TD*%
D19*
%TO.C,C57*%
X93942500Y-83450000D03*
X92217500Y-83450000D03*
%TD*%
D24*
%TO.C,C46*%
X88517500Y-71707500D03*
X90242500Y-71707500D03*
%TD*%
D28*
%TO.C,C2*%
X114410000Y-88830000D03*
X114410000Y-90555000D03*
%TD*%
D37*
%TO.C,TC1*%
X86230000Y-63000000D03*
X86230000Y-61750000D03*
D38*
X82880000Y-64850000D03*
X82880000Y-59900000D03*
%TD*%
D26*
%TO.C,C73*%
X92097500Y-50822500D03*
X92097500Y-49097500D03*
%TD*%
D19*
%TO.C,C40*%
X105862500Y-65250000D03*
X104137500Y-65250000D03*
%TD*%
D22*
%TO.C,PT3*%
X113120000Y-48450000D03*
X111870000Y-48450000D03*
D23*
X114970000Y-51800000D03*
X110020000Y-51800000D03*
%TD*%
D26*
%TO.C,C38*%
X89070000Y-106340000D03*
X89070000Y-104615000D03*
%TD*%
D24*
%TO.C,C22*%
X109987500Y-63750000D03*
X111712500Y-63750000D03*
%TD*%
D28*
%TO.C,C59*%
X95530000Y-80440000D03*
X95530000Y-82165000D03*
%TD*%
D37*
%TO.C,TC4*%
X86230000Y-89100000D03*
X86230000Y-87850000D03*
D38*
X82880000Y-90950000D03*
X82880000Y-86000000D03*
%TD*%
D17*
%TO.C,R41*%
X88467500Y-85725000D03*
X90292500Y-85725000D03*
%TD*%
D39*
%TO.C,D12*%
X105800000Y-95575000D03*
X105800000Y-93825000D03*
%TD*%
D19*
%TO.C,C55*%
X90242500Y-78750000D03*
X88517500Y-78750000D03*
%TD*%
D27*
%TO.C,R9*%
X104200000Y-92122500D03*
X104200000Y-90297500D03*
%TD*%
D19*
%TO.C,C77*%
X120537500Y-69727500D03*
X118812500Y-69727500D03*
%TD*%
D16*
%TO.C,R2*%
X117012500Y-93150000D03*
X115187500Y-93150000D03*
%TD*%
D28*
%TO.C,C66*%
X95530000Y-89445000D03*
X95530000Y-91170000D03*
%TD*%
D19*
%TO.C,C48*%
X90242500Y-70207500D03*
X88517500Y-70207500D03*
%TD*%
%TO.C,C72*%
X114792500Y-71210000D03*
X113067500Y-71210000D03*
%TD*%
D40*
%TO.C,L1*%
X89997500Y-56937500D03*
X92972500Y-56937500D03*
%TD*%
D41*
%TO.C,D18*%
X95172500Y-52412500D03*
X95172500Y-55712500D03*
%TD*%
D28*
%TO.C,C30*%
X95530000Y-63342500D03*
X95530000Y-65067500D03*
%TD*%
%TO.C,C7*%
X112790000Y-88830000D03*
X112790000Y-90555000D03*
%TD*%
D27*
%TO.C,R15*%
X102650000Y-78012500D03*
X102650000Y-76187500D03*
%TD*%
D26*
%TO.C,C17*%
X103855000Y-73825000D03*
X103855000Y-72100000D03*
%TD*%
D19*
%TO.C,C50*%
X93942500Y-74887500D03*
X92217500Y-74887500D03*
%TD*%
%TO.C,C41*%
X88972500Y-52855000D03*
X87247500Y-52855000D03*
%TD*%
D32*
%TO.C,R13*%
X101090000Y-90297500D03*
X101090000Y-92122500D03*
%TD*%
D42*
%TO.C,Y1*%
X115350000Y-84875000D03*
X116750000Y-84875000D03*
X116750000Y-83775000D03*
X115350000Y-83775000D03*
%TD*%
D30*
%TO.C,FB2*%
X97875000Y-97950000D03*
X96125000Y-97950000D03*
%TD*%
D27*
%TO.C,R7*%
X127000000Y-55000000D03*
X127000000Y-53175000D03*
%TD*%
D30*
%TO.C,F12*%
X103365000Y-55050000D03*
X101615000Y-55050000D03*
%TD*%
D28*
%TO.C,C19*%
X99510000Y-80987500D03*
X99510000Y-82712500D03*
%TD*%
D43*
%TO.C,DEBUG*%
X122674277Y-89000000D03*
X122674277Y-88000000D03*
X122674277Y-87000000D03*
X122674277Y-86000000D03*
X122674277Y-85000000D03*
X122674277Y-84000000D03*
D44*
X126549277Y-90300000D03*
X126549277Y-82700000D03*
%TD*%
D17*
%TO.C,R22*%
X88467500Y-59625000D03*
X90292500Y-59625000D03*
%TD*%
D25*
%TO.C,F8*%
X105275000Y-55050000D03*
X107025000Y-55050000D03*
%TD*%
D17*
%TO.C,R36*%
X88467500Y-82225000D03*
X90292500Y-82225000D03*
%TD*%
D27*
%TO.C,R24*%
X93622500Y-50872500D03*
X93622500Y-49047500D03*
%TD*%
D32*
%TO.C,R12*%
X102590000Y-90297500D03*
X102590000Y-92122500D03*
%TD*%
D45*
%TO.C,U3*%
X105576198Y-67712499D03*
X105576198Y-68212501D03*
X105576198Y-68712500D03*
X105576198Y-69212499D03*
X105576198Y-69712500D03*
X105576198Y-70212500D03*
X105576198Y-70712501D03*
X105576198Y-71212500D03*
X105576198Y-71712499D03*
X105576198Y-72212501D03*
D46*
X106299999Y-72936302D03*
X106800001Y-72936302D03*
X107300000Y-72936302D03*
X107799999Y-72936302D03*
X108300000Y-72936302D03*
X108800000Y-72936302D03*
X109300001Y-72936302D03*
X109800000Y-72936302D03*
X110299999Y-72936302D03*
X110800001Y-72936302D03*
D45*
X111523802Y-72212501D03*
X111523802Y-71712499D03*
X111523802Y-71212500D03*
X111523802Y-70712501D03*
X111523802Y-70212500D03*
X111523802Y-69712500D03*
X111523802Y-69212499D03*
X111523802Y-68712500D03*
X111523802Y-68212501D03*
X111523802Y-67712499D03*
D46*
X110800001Y-66988698D03*
X110299999Y-66988698D03*
X109800000Y-66988698D03*
X109300001Y-66988698D03*
X108800000Y-66988698D03*
X108300000Y-66988698D03*
X107799999Y-66988698D03*
X107300000Y-66988698D03*
X106800001Y-66988698D03*
X106299999Y-66988698D03*
D47*
X108550000Y-69962500D03*
%TD*%
D25*
%TO.C,F6*%
X113635000Y-55050000D03*
X115385000Y-55050000D03*
%TD*%
D19*
%TO.C,C28*%
X93942500Y-66342500D03*
X92217500Y-66342500D03*
%TD*%
D17*
%TO.C,R44*%
X118762500Y-63600000D03*
X120587500Y-63600000D03*
%TD*%
D30*
%TO.C,F10*%
X111540000Y-46300000D03*
X109790000Y-46300000D03*
%TD*%
D19*
%TO.C,C42*%
X88972500Y-54380000D03*
X87247500Y-54380000D03*
%TD*%
D32*
%TO.C,R10*%
X107450000Y-93787500D03*
X107450000Y-95612500D03*
%TD*%
D16*
%TO.C,R51*%
X120587500Y-75750000D03*
X118762500Y-75750000D03*
%TD*%
D48*
%TO.C,L2*%
X92727500Y-103867500D03*
X92727500Y-106192500D03*
%TD*%
D24*
%TO.C,C6*%
X104837500Y-78120000D03*
X106562500Y-78120000D03*
%TD*%
%TO.C,C71*%
X118812500Y-66600000D03*
X120537500Y-66600000D03*
%TD*%
D19*
%TO.C,C12*%
X111052500Y-94760000D03*
X109327500Y-94760000D03*
%TD*%
D27*
%TO.C,R25*%
X90572500Y-50872500D03*
X90572500Y-49047500D03*
%TD*%
%TO.C,R3*%
X119530000Y-85672500D03*
X119530000Y-83847500D03*
%TD*%
D22*
%TO.C,PT4*%
X113305000Y-57200000D03*
X112055000Y-57200000D03*
D23*
X115155000Y-60550000D03*
X110205000Y-60550000D03*
%TD*%
D49*
%TO.C,D1*%
X120130000Y-93227500D03*
X120130000Y-94977500D03*
%TD*%
D26*
%TO.C,C39*%
X90590000Y-106340000D03*
X90590000Y-104615000D03*
%TD*%
%TO.C,C44*%
X97160000Y-50822500D03*
X97160000Y-49097500D03*
%TD*%
D24*
%TO.C,C67*%
X122300000Y-54675000D03*
X124025000Y-54675000D03*
%TD*%
D32*
%TO.C,R16*%
X102650000Y-79570000D03*
X102650000Y-81395000D03*
%TD*%
D50*
%TO.C,U7*%
X93330000Y-99650000D03*
X92380000Y-99650000D03*
X91430000Y-99650000D03*
X91430000Y-101925000D03*
X92380000Y-101925000D03*
X93330000Y-101925000D03*
%TD*%
D24*
%TO.C,C79*%
X118812500Y-74227500D03*
X120537500Y-74227500D03*
%TD*%
D51*
%TO.C,U4*%
X100995000Y-77580000D03*
X100345000Y-77580000D03*
X99695000Y-77580000D03*
X99695000Y-79480000D03*
X100345000Y-79480000D03*
X100995000Y-79480000D03*
%TD*%
D19*
%TO.C,C34*%
X88972500Y-51330000D03*
X87247500Y-51330000D03*
%TD*%
D32*
%TO.C,R42*%
X95530000Y-86032500D03*
X95530000Y-87857500D03*
%TD*%
D52*
%TO.C,D6*%
X109237500Y-92375000D03*
X111137500Y-92375000D03*
X110187500Y-90500000D03*
%TD*%
D25*
%TO.C,F2*%
X105400000Y-46300000D03*
X107150000Y-46300000D03*
%TD*%
D32*
%TO.C,R11*%
X99590000Y-90297500D03*
X99590000Y-92122500D03*
%TD*%
D17*
%TO.C,R28*%
X118762500Y-65100000D03*
X120587500Y-65100000D03*
%TD*%
%TO.C,R49*%
X118762500Y-72727500D03*
X120587500Y-72727500D03*
%TD*%
D53*
%TO.C,STM32*%
X112762500Y-86875000D03*
X112762500Y-86375000D03*
X112762500Y-85875000D03*
X112762500Y-85375000D03*
X112762500Y-84875000D03*
X112762500Y-84375000D03*
X112762500Y-83875000D03*
X112762500Y-83375000D03*
X112762500Y-82875000D03*
X112762500Y-82375000D03*
X112762500Y-81875000D03*
X112762500Y-81375000D03*
D54*
X111350000Y-79962500D03*
X110850000Y-79962500D03*
X110350000Y-79962500D03*
X109850000Y-79962500D03*
X109350000Y-79962500D03*
X108850000Y-79962500D03*
X108350000Y-79962500D03*
X107850000Y-79962500D03*
X107350000Y-79962500D03*
X106850000Y-79962500D03*
X106350000Y-79962500D03*
X105850000Y-79962500D03*
D53*
X104437500Y-81375000D03*
X104437500Y-81875000D03*
X104437500Y-82375000D03*
X104437500Y-82875000D03*
X104437500Y-83375000D03*
X104437500Y-83875000D03*
X104437500Y-84375000D03*
X104437500Y-84875000D03*
X104437500Y-85375000D03*
X104437500Y-85875000D03*
X104437500Y-86375000D03*
X104437500Y-86875000D03*
D54*
X105850000Y-88287500D03*
X106350000Y-88287500D03*
X106850000Y-88287500D03*
X107350000Y-88287500D03*
X107850000Y-88287500D03*
X108350000Y-88287500D03*
X108850000Y-88287500D03*
X109350000Y-88287500D03*
X109850000Y-88287500D03*
X110350000Y-88287500D03*
X110850000Y-88287500D03*
X111350000Y-88287500D03*
%TD*%
D24*
%TO.C,C24*%
X88517500Y-63102500D03*
X90242500Y-63102500D03*
%TD*%
D37*
%TO.C,TC3*%
X86230000Y-80100000D03*
X86230000Y-78850000D03*
D38*
X82880000Y-81950000D03*
X82880000Y-77000000D03*
%TD*%
D55*
%TO.C,CAN IO*%
X119190000Y-99730000D03*
D56*
X117590000Y-101730000D03*
D57*
X115090000Y-101730000D03*
%TD*%
D28*
%TO.C,C78*%
X117175000Y-71165000D03*
X117175000Y-72890000D03*
%TD*%
D26*
%TO.C,C15*%
X100305000Y-73825000D03*
X100305000Y-72100000D03*
%TD*%
D39*
%TO.C,D3*%
X105800000Y-92062500D03*
X105800000Y-90312500D03*
%TD*%
D32*
%TO.C,R5*%
X81600000Y-99262500D03*
X81600000Y-101087500D03*
%TD*%
D27*
%TO.C,R1*%
X118530000Y-94990000D03*
X118530000Y-93165000D03*
%TD*%
D58*
%TO.C,F1*%
X102460000Y-96760000D03*
X99660000Y-96760000D03*
%TD*%
D25*
%TO.C,D2*%
X96135000Y-96400000D03*
X97885000Y-96400000D03*
%TD*%
D33*
%TO.C,DT1*%
X122319277Y-94700000D03*
X122319277Y-93500000D03*
D59*
X126094277Y-95850000D03*
X126094277Y-92350000D03*
%TD*%
D19*
%TO.C,C11*%
X116912500Y-82200000D03*
X115187500Y-82200000D03*
%TD*%
D30*
%TO.C,F11*%
X111725000Y-55050000D03*
X109975000Y-55050000D03*
%TD*%
D20*
%TO.C,H4*%
X79200000Y-48662500D03*
X79902944Y-46965444D03*
X79902944Y-50359556D03*
X81600000Y-46262500D03*
D21*
X81600000Y-48662500D03*
D20*
X81600000Y-51062500D03*
X83297056Y-46965444D03*
X83297056Y-50359556D03*
X84000000Y-48662500D03*
%TD*%
D17*
%TO.C,R48*%
X118762500Y-71227500D03*
X120587500Y-71227500D03*
%TD*%
D24*
%TO.C,C3*%
X104837500Y-76590000D03*
X106562500Y-76590000D03*
%TD*%
D26*
%TO.C,C35*%
X91410000Y-97892500D03*
X91410000Y-96167500D03*
%TD*%
D18*
%TO.C,U5*%
X92005000Y-64487500D03*
X92655000Y-64487500D03*
X93305000Y-64487500D03*
X93955000Y-64487500D03*
X93955000Y-60262500D03*
X93305000Y-60262500D03*
X92655000Y-60262500D03*
X92005000Y-60262500D03*
%TD*%
D26*
%TO.C,C14*%
X101830000Y-73825000D03*
X101830000Y-72100000D03*
%TD*%
D27*
%TO.C,R4*%
X118740000Y-79542500D03*
X118740000Y-77717500D03*
%TD*%
D33*
%TO.C,RTD2*%
X122319277Y-73790000D03*
X122319277Y-72590000D03*
X122319277Y-71390000D03*
X122319277Y-70190000D03*
D34*
X125944277Y-74965000D03*
X125944277Y-69015000D03*
%TD*%
D28*
%TO.C,C74*%
X95360000Y-48477500D03*
X95360000Y-50202500D03*
%TD*%
D37*
%TO.C,TC2*%
X86230000Y-71545000D03*
X86230000Y-70295000D03*
D38*
X82880000Y-73395000D03*
X82880000Y-68445000D03*
%TD*%
D20*
%TO.C,H3*%
X124600000Y-48662500D03*
X125302944Y-46965444D03*
X125302944Y-50359556D03*
X127000000Y-46262500D03*
D21*
X127000000Y-48662500D03*
D20*
X127000000Y-51062500D03*
X128697056Y-46965444D03*
X128697056Y-50359556D03*
X129400000Y-48662500D03*
%TD*%
%TO.C,H1*%
X79200000Y-105600000D03*
X79902944Y-103902944D03*
X79902944Y-107297056D03*
X81600000Y-103200000D03*
D21*
X81600000Y-105600000D03*
D20*
X81600000Y-108000000D03*
X83297056Y-103902944D03*
X83297056Y-107297056D03*
X84000000Y-105600000D03*
%TD*%
D39*
%TO.C,D4*%
X107450000Y-92062500D03*
X107450000Y-90312500D03*
%TD*%
D60*
%TO.C,U2*%
X111162500Y-96500000D03*
X110512500Y-96500000D03*
X109862500Y-96500000D03*
X109212500Y-96500000D03*
X109212500Y-98775000D03*
X109862500Y-98775000D03*
X110512500Y-98775000D03*
X111162500Y-98775000D03*
%TD*%
D17*
%TO.C,R40*%
X88467500Y-91225000D03*
X90292500Y-91225000D03*
%TD*%
D28*
%TO.C,C52*%
X95530000Y-71887500D03*
X95530000Y-73612500D03*
%TD*%
D25*
%TO.C,F4*%
X113450000Y-46300000D03*
X115200000Y-46300000D03*
%TD*%
D26*
%TO.C,C33*%
X92960000Y-97892500D03*
X92960000Y-96167500D03*
%TD*%
D24*
%TO.C,C23*%
X111137500Y-65300000D03*
X112862500Y-65300000D03*
%TD*%
D32*
%TO.C,R6*%
X127000000Y-99262500D03*
X127000000Y-101087500D03*
%TD*%
D17*
%TO.C,R31*%
X86655000Y-75190000D03*
X88480000Y-75190000D03*
%TD*%
D19*
%TO.C,C62*%
X90242500Y-87725000D03*
X88517500Y-87725000D03*
%TD*%
D28*
%TO.C,C76*%
X128560000Y-76895000D03*
X128560000Y-78620000D03*
%TD*%
D18*
%TO.C,U10*%
X92005000Y-81587500D03*
X92655000Y-81587500D03*
X93305000Y-81587500D03*
X93955000Y-81587500D03*
X93955000Y-77362500D03*
X93305000Y-77362500D03*
X92655000Y-77362500D03*
X92005000Y-77362500D03*
%TD*%
D17*
%TO.C,R35*%
X86467500Y-83760000D03*
X88292500Y-83760000D03*
%TD*%
D26*
%TO.C,C43*%
X98700000Y-50822500D03*
X98700000Y-49097500D03*
%TD*%
D28*
%TO.C,C20*%
X101030000Y-80987500D03*
X101030000Y-82712500D03*
%TD*%
D32*
%TO.C,R34*%
X95530000Y-68477500D03*
X95530000Y-70302500D03*
%TD*%
D18*
%TO.C,U11*%
X92005000Y-90587500D03*
X92655000Y-90587500D03*
X93305000Y-90587500D03*
X93955000Y-90587500D03*
X93955000Y-86362500D03*
X93305000Y-86362500D03*
X92655000Y-86362500D03*
X92005000Y-86362500D03*
%TD*%
D17*
%TO.C,R37*%
X88467500Y-76725000D03*
X90292500Y-76725000D03*
%TD*%
%LPD*%
M02*
