%TF.GenerationSoftware,KiCad,Pcbnew,9.0.1*%
%TF.CreationDate,2025-06-18T17:04:45+02:00*%
%TF.ProjectId,Sensor,53656e73-6f72-42e6-9b69-6361645f7063,rev?*%
%TF.SameCoordinates,Original*%
%TF.FileFunction,Drillmap*%
%TF.FilePolarity,Positive*%
%FSLAX45Y45*%
G04 Gerber Fmt 4.5, Leading zero omitted, Abs format (unit mm)*
G04 Created by KiCad (PCBNEW 9.0.1) date 2025-06-18 17:04:45*
%MOMM*%
%LPD*%
G01*
G04 APERTURE LIST*
%ADD10C,0.050000*%
%ADD11C,0.200000*%
%ADD12C,0.120000*%
G04 APERTURE END LIST*
D10*
X8130000Y-4393000D02*
X12731000Y-4393000D01*
X8130000Y-10981000D02*
G75*
G02*
X7730000Y-10581000I0J400000D01*
G01*
X12731000Y-10981000D02*
X8130000Y-10981000D01*
X12731000Y-4393000D02*
G75*
G02*
X13131000Y-4793000I0J-400000D01*
G01*
X7730000Y-10581000D02*
X7730000Y-4793000D01*
X13131000Y-4793000D02*
X13131000Y-10581000D01*
X13131000Y-10581000D02*
G75*
G02*
X12731000Y-10981000I-400000J0D01*
G01*
X7730000Y-4793000D02*
G75*
G02*
X8130000Y-4393000I400000J0D01*
G01*
D11*
D12*
X11859000Y-9913000D02*
X11979000Y-10033000D01*
X11979000Y-9913000D02*
X11859000Y-10033000D01*
D11*
X7988277Y-11294984D02*
X7988277Y-11094984D01*
X7988277Y-11094984D02*
X8035896Y-11094984D01*
X8035896Y-11094984D02*
X8064467Y-11104508D01*
X8064467Y-11104508D02*
X8083515Y-11123555D01*
X8083515Y-11123555D02*
X8093039Y-11142603D01*
X8093039Y-11142603D02*
X8102562Y-11180698D01*
X8102562Y-11180698D02*
X8102562Y-11209269D01*
X8102562Y-11209269D02*
X8093039Y-11247365D01*
X8093039Y-11247365D02*
X8083515Y-11266412D01*
X8083515Y-11266412D02*
X8064467Y-11285460D01*
X8064467Y-11285460D02*
X8035896Y-11294984D01*
X8035896Y-11294984D02*
X7988277Y-11294984D01*
X8188277Y-11294984D02*
X8188277Y-11161650D01*
X8188277Y-11199746D02*
X8197801Y-11180698D01*
X8197801Y-11180698D02*
X8207324Y-11171174D01*
X8207324Y-11171174D02*
X8226372Y-11161650D01*
X8226372Y-11161650D02*
X8245420Y-11161650D01*
X8312086Y-11294984D02*
X8312086Y-11161650D01*
X8312086Y-11094984D02*
X8302562Y-11104508D01*
X8302562Y-11104508D02*
X8312086Y-11114031D01*
X8312086Y-11114031D02*
X8321610Y-11104508D01*
X8321610Y-11104508D02*
X8312086Y-11094984D01*
X8312086Y-11094984D02*
X8312086Y-11114031D01*
X8435896Y-11294984D02*
X8416848Y-11285460D01*
X8416848Y-11285460D02*
X8407324Y-11266412D01*
X8407324Y-11266412D02*
X8407324Y-11094984D01*
X8540658Y-11294984D02*
X8521610Y-11285460D01*
X8521610Y-11285460D02*
X8512086Y-11266412D01*
X8512086Y-11266412D02*
X8512086Y-11094984D01*
X8769229Y-11294984D02*
X8769229Y-11094984D01*
X8769229Y-11094984D02*
X8835896Y-11237841D01*
X8835896Y-11237841D02*
X8902563Y-11094984D01*
X8902563Y-11094984D02*
X8902563Y-11294984D01*
X9083515Y-11294984D02*
X9083515Y-11190222D01*
X9083515Y-11190222D02*
X9073991Y-11171174D01*
X9073991Y-11171174D02*
X9054944Y-11161650D01*
X9054944Y-11161650D02*
X9016848Y-11161650D01*
X9016848Y-11161650D02*
X8997801Y-11171174D01*
X9083515Y-11285460D02*
X9064467Y-11294984D01*
X9064467Y-11294984D02*
X9016848Y-11294984D01*
X9016848Y-11294984D02*
X8997801Y-11285460D01*
X8997801Y-11285460D02*
X8988277Y-11266412D01*
X8988277Y-11266412D02*
X8988277Y-11247365D01*
X8988277Y-11247365D02*
X8997801Y-11228317D01*
X8997801Y-11228317D02*
X9016848Y-11218793D01*
X9016848Y-11218793D02*
X9064467Y-11218793D01*
X9064467Y-11218793D02*
X9083515Y-11209269D01*
X9178753Y-11161650D02*
X9178753Y-11361650D01*
X9178753Y-11171174D02*
X9197801Y-11161650D01*
X9197801Y-11161650D02*
X9235896Y-11161650D01*
X9235896Y-11161650D02*
X9254944Y-11171174D01*
X9254944Y-11171174D02*
X9264467Y-11180698D01*
X9264467Y-11180698D02*
X9273991Y-11199746D01*
X9273991Y-11199746D02*
X9273991Y-11256888D01*
X9273991Y-11256888D02*
X9264467Y-11275936D01*
X9264467Y-11275936D02*
X9254944Y-11285460D01*
X9254944Y-11285460D02*
X9235896Y-11294984D01*
X9235896Y-11294984D02*
X9197801Y-11294984D01*
X9197801Y-11294984D02*
X9178753Y-11285460D01*
X9359705Y-11275936D02*
X9369229Y-11285460D01*
X9369229Y-11285460D02*
X9359705Y-11294984D01*
X9359705Y-11294984D02*
X9350182Y-11285460D01*
X9350182Y-11285460D02*
X9359705Y-11275936D01*
X9359705Y-11275936D02*
X9359705Y-11294984D01*
X9359705Y-11171174D02*
X9369229Y-11180698D01*
X9369229Y-11180698D02*
X9359705Y-11190222D01*
X9359705Y-11190222D02*
X9350182Y-11180698D01*
X9350182Y-11180698D02*
X9359705Y-11171174D01*
X9359705Y-11171174D02*
X9359705Y-11190222D01*
D12*
X7607500Y-11563500D02*
X7727500Y-11683500D01*
X7727500Y-11563500D02*
X7607500Y-11683500D01*
D11*
X8093039Y-11714984D02*
X7978753Y-11714984D01*
X8035896Y-11714984D02*
X8035896Y-11514984D01*
X8035896Y-11514984D02*
X8016848Y-11543555D01*
X8016848Y-11543555D02*
X7997801Y-11562603D01*
X7997801Y-11562603D02*
X7978753Y-11572127D01*
X8178753Y-11695936D02*
X8188277Y-11705460D01*
X8188277Y-11705460D02*
X8178753Y-11714984D01*
X8178753Y-11714984D02*
X8169229Y-11705460D01*
X8169229Y-11705460D02*
X8178753Y-11695936D01*
X8178753Y-11695936D02*
X8178753Y-11714984D01*
X8264467Y-11534031D02*
X8273991Y-11524508D01*
X8273991Y-11524508D02*
X8293039Y-11514984D01*
X8293039Y-11514984D02*
X8340658Y-11514984D01*
X8340658Y-11514984D02*
X8359705Y-11524508D01*
X8359705Y-11524508D02*
X8369229Y-11534031D01*
X8369229Y-11534031D02*
X8378753Y-11553079D01*
X8378753Y-11553079D02*
X8378753Y-11572127D01*
X8378753Y-11572127D02*
X8369229Y-11600698D01*
X8369229Y-11600698D02*
X8254943Y-11714984D01*
X8254943Y-11714984D02*
X8378753Y-11714984D01*
X8502563Y-11514984D02*
X8521610Y-11514984D01*
X8521610Y-11514984D02*
X8540658Y-11524508D01*
X8540658Y-11524508D02*
X8550182Y-11534031D01*
X8550182Y-11534031D02*
X8559705Y-11553079D01*
X8559705Y-11553079D02*
X8569229Y-11591174D01*
X8569229Y-11591174D02*
X8569229Y-11638793D01*
X8569229Y-11638793D02*
X8559705Y-11676888D01*
X8559705Y-11676888D02*
X8550182Y-11695936D01*
X8550182Y-11695936D02*
X8540658Y-11705460D01*
X8540658Y-11705460D02*
X8521610Y-11714984D01*
X8521610Y-11714984D02*
X8502563Y-11714984D01*
X8502563Y-11714984D02*
X8483515Y-11705460D01*
X8483515Y-11705460D02*
X8473991Y-11695936D01*
X8473991Y-11695936D02*
X8464467Y-11676888D01*
X8464467Y-11676888D02*
X8454944Y-11638793D01*
X8454944Y-11638793D02*
X8454944Y-11591174D01*
X8454944Y-11591174D02*
X8464467Y-11553079D01*
X8464467Y-11553079D02*
X8473991Y-11534031D01*
X8473991Y-11534031D02*
X8483515Y-11524508D01*
X8483515Y-11524508D02*
X8502563Y-11514984D01*
X8693039Y-11514984D02*
X8712086Y-11514984D01*
X8712086Y-11514984D02*
X8731134Y-11524508D01*
X8731134Y-11524508D02*
X8740658Y-11534031D01*
X8740658Y-11534031D02*
X8750182Y-11553079D01*
X8750182Y-11553079D02*
X8759705Y-11591174D01*
X8759705Y-11591174D02*
X8759705Y-11638793D01*
X8759705Y-11638793D02*
X8750182Y-11676888D01*
X8750182Y-11676888D02*
X8740658Y-11695936D01*
X8740658Y-11695936D02*
X8731134Y-11705460D01*
X8731134Y-11705460D02*
X8712086Y-11714984D01*
X8712086Y-11714984D02*
X8693039Y-11714984D01*
X8693039Y-11714984D02*
X8673991Y-11705460D01*
X8673991Y-11705460D02*
X8664467Y-11695936D01*
X8664467Y-11695936D02*
X8654944Y-11676888D01*
X8654944Y-11676888D02*
X8645420Y-11638793D01*
X8645420Y-11638793D02*
X8645420Y-11591174D01*
X8645420Y-11591174D02*
X8654944Y-11553079D01*
X8654944Y-11553079D02*
X8664467Y-11534031D01*
X8664467Y-11534031D02*
X8673991Y-11524508D01*
X8673991Y-11524508D02*
X8693039Y-11514984D01*
X8845420Y-11714984D02*
X8845420Y-11581650D01*
X8845420Y-11600698D02*
X8854944Y-11591174D01*
X8854944Y-11591174D02*
X8873991Y-11581650D01*
X8873991Y-11581650D02*
X8902563Y-11581650D01*
X8902563Y-11581650D02*
X8921610Y-11591174D01*
X8921610Y-11591174D02*
X8931134Y-11610222D01*
X8931134Y-11610222D02*
X8931134Y-11714984D01*
X8931134Y-11610222D02*
X8940658Y-11591174D01*
X8940658Y-11591174D02*
X8959705Y-11581650D01*
X8959705Y-11581650D02*
X8988277Y-11581650D01*
X8988277Y-11581650D02*
X9007325Y-11591174D01*
X9007325Y-11591174D02*
X9016848Y-11610222D01*
X9016848Y-11610222D02*
X9016848Y-11714984D01*
X9112086Y-11714984D02*
X9112086Y-11581650D01*
X9112086Y-11600698D02*
X9121610Y-11591174D01*
X9121610Y-11591174D02*
X9140658Y-11581650D01*
X9140658Y-11581650D02*
X9169229Y-11581650D01*
X9169229Y-11581650D02*
X9188277Y-11591174D01*
X9188277Y-11591174D02*
X9197801Y-11610222D01*
X9197801Y-11610222D02*
X9197801Y-11714984D01*
X9197801Y-11610222D02*
X9207325Y-11591174D01*
X9207325Y-11591174D02*
X9226372Y-11581650D01*
X9226372Y-11581650D02*
X9254944Y-11581650D01*
X9254944Y-11581650D02*
X9273991Y-11591174D01*
X9273991Y-11591174D02*
X9283515Y-11610222D01*
X9283515Y-11610222D02*
X9283515Y-11714984D01*
X9673991Y-11505460D02*
X9502563Y-11762603D01*
X9931134Y-11514984D02*
X9950182Y-11514984D01*
X9950182Y-11514984D02*
X9969229Y-11524508D01*
X9969229Y-11524508D02*
X9978753Y-11534031D01*
X9978753Y-11534031D02*
X9988277Y-11553079D01*
X9988277Y-11553079D02*
X9997801Y-11591174D01*
X9997801Y-11591174D02*
X9997801Y-11638793D01*
X9997801Y-11638793D02*
X9988277Y-11676888D01*
X9988277Y-11676888D02*
X9978753Y-11695936D01*
X9978753Y-11695936D02*
X9969229Y-11705460D01*
X9969229Y-11705460D02*
X9950182Y-11714984D01*
X9950182Y-11714984D02*
X9931134Y-11714984D01*
X9931134Y-11714984D02*
X9912087Y-11705460D01*
X9912087Y-11705460D02*
X9902563Y-11695936D01*
X9902563Y-11695936D02*
X9893039Y-11676888D01*
X9893039Y-11676888D02*
X9883515Y-11638793D01*
X9883515Y-11638793D02*
X9883515Y-11591174D01*
X9883515Y-11591174D02*
X9893039Y-11553079D01*
X9893039Y-11553079D02*
X9902563Y-11534031D01*
X9902563Y-11534031D02*
X9912087Y-11524508D01*
X9912087Y-11524508D02*
X9931134Y-11514984D01*
X10083515Y-11695936D02*
X10093039Y-11705460D01*
X10093039Y-11705460D02*
X10083515Y-11714984D01*
X10083515Y-11714984D02*
X10073991Y-11705460D01*
X10073991Y-11705460D02*
X10083515Y-11695936D01*
X10083515Y-11695936D02*
X10083515Y-11714984D01*
X10216848Y-11514984D02*
X10235896Y-11514984D01*
X10235896Y-11514984D02*
X10254944Y-11524508D01*
X10254944Y-11524508D02*
X10264468Y-11534031D01*
X10264468Y-11534031D02*
X10273991Y-11553079D01*
X10273991Y-11553079D02*
X10283515Y-11591174D01*
X10283515Y-11591174D02*
X10283515Y-11638793D01*
X10283515Y-11638793D02*
X10273991Y-11676888D01*
X10273991Y-11676888D02*
X10264468Y-11695936D01*
X10264468Y-11695936D02*
X10254944Y-11705460D01*
X10254944Y-11705460D02*
X10235896Y-11714984D01*
X10235896Y-11714984D02*
X10216848Y-11714984D01*
X10216848Y-11714984D02*
X10197801Y-11705460D01*
X10197801Y-11705460D02*
X10188277Y-11695936D01*
X10188277Y-11695936D02*
X10178753Y-11676888D01*
X10178753Y-11676888D02*
X10169229Y-11638793D01*
X10169229Y-11638793D02*
X10169229Y-11591174D01*
X10169229Y-11591174D02*
X10178753Y-11553079D01*
X10178753Y-11553079D02*
X10188277Y-11534031D01*
X10188277Y-11534031D02*
X10197801Y-11524508D01*
X10197801Y-11524508D02*
X10216848Y-11514984D01*
X10454944Y-11581650D02*
X10454944Y-11714984D01*
X10407325Y-11505460D02*
X10359706Y-11648317D01*
X10359706Y-11648317D02*
X10483515Y-11648317D01*
X10540658Y-11514984D02*
X10673991Y-11514984D01*
X10673991Y-11514984D02*
X10588277Y-11714984D01*
X10740658Y-11534031D02*
X10750182Y-11524508D01*
X10750182Y-11524508D02*
X10769229Y-11514984D01*
X10769229Y-11514984D02*
X10816849Y-11514984D01*
X10816849Y-11514984D02*
X10835896Y-11524508D01*
X10835896Y-11524508D02*
X10845420Y-11534031D01*
X10845420Y-11534031D02*
X10854944Y-11553079D01*
X10854944Y-11553079D02*
X10854944Y-11572127D01*
X10854944Y-11572127D02*
X10845420Y-11600698D01*
X10845420Y-11600698D02*
X10731134Y-11714984D01*
X10731134Y-11714984D02*
X10854944Y-11714984D01*
X10931134Y-11514984D02*
X10931134Y-11553079D01*
X11007325Y-11514984D02*
X11007325Y-11553079D01*
X11302563Y-11791174D02*
X11293039Y-11781650D01*
X11293039Y-11781650D02*
X11273991Y-11753079D01*
X11273991Y-11753079D02*
X11264468Y-11734031D01*
X11264468Y-11734031D02*
X11254944Y-11705460D01*
X11254944Y-11705460D02*
X11245420Y-11657841D01*
X11245420Y-11657841D02*
X11245420Y-11619746D01*
X11245420Y-11619746D02*
X11254944Y-11572127D01*
X11254944Y-11572127D02*
X11264468Y-11543555D01*
X11264468Y-11543555D02*
X11273991Y-11524508D01*
X11273991Y-11524508D02*
X11293039Y-11495936D01*
X11293039Y-11495936D02*
X11302563Y-11486412D01*
X11483515Y-11714984D02*
X11369229Y-11714984D01*
X11426372Y-11714984D02*
X11426372Y-11514984D01*
X11426372Y-11514984D02*
X11407325Y-11543555D01*
X11407325Y-11543555D02*
X11388277Y-11562603D01*
X11388277Y-11562603D02*
X11369229Y-11572127D01*
X11721610Y-11714984D02*
X11721610Y-11514984D01*
X11807325Y-11714984D02*
X11807325Y-11610222D01*
X11807325Y-11610222D02*
X11797801Y-11591174D01*
X11797801Y-11591174D02*
X11778753Y-11581650D01*
X11778753Y-11581650D02*
X11750182Y-11581650D01*
X11750182Y-11581650D02*
X11731134Y-11591174D01*
X11731134Y-11591174D02*
X11721610Y-11600698D01*
X11931134Y-11714984D02*
X11912087Y-11705460D01*
X11912087Y-11705460D02*
X11902563Y-11695936D01*
X11902563Y-11695936D02*
X11893039Y-11676888D01*
X11893039Y-11676888D02*
X11893039Y-11619746D01*
X11893039Y-11619746D02*
X11902563Y-11600698D01*
X11902563Y-11600698D02*
X11912087Y-11591174D01*
X11912087Y-11591174D02*
X11931134Y-11581650D01*
X11931134Y-11581650D02*
X11959706Y-11581650D01*
X11959706Y-11581650D02*
X11978753Y-11591174D01*
X11978753Y-11591174D02*
X11988277Y-11600698D01*
X11988277Y-11600698D02*
X11997801Y-11619746D01*
X11997801Y-11619746D02*
X11997801Y-11676888D01*
X11997801Y-11676888D02*
X11988277Y-11695936D01*
X11988277Y-11695936D02*
X11978753Y-11705460D01*
X11978753Y-11705460D02*
X11959706Y-11714984D01*
X11959706Y-11714984D02*
X11931134Y-11714984D01*
X12112087Y-11714984D02*
X12093039Y-11705460D01*
X12093039Y-11705460D02*
X12083515Y-11686412D01*
X12083515Y-11686412D02*
X12083515Y-11514984D01*
X12264468Y-11705460D02*
X12245420Y-11714984D01*
X12245420Y-11714984D02*
X12207325Y-11714984D01*
X12207325Y-11714984D02*
X12188277Y-11705460D01*
X12188277Y-11705460D02*
X12178753Y-11686412D01*
X12178753Y-11686412D02*
X12178753Y-11610222D01*
X12178753Y-11610222D02*
X12188277Y-11591174D01*
X12188277Y-11591174D02*
X12207325Y-11581650D01*
X12207325Y-11581650D02*
X12245420Y-11581650D01*
X12245420Y-11581650D02*
X12264468Y-11591174D01*
X12264468Y-11591174D02*
X12273991Y-11610222D01*
X12273991Y-11610222D02*
X12273991Y-11629269D01*
X12273991Y-11629269D02*
X12178753Y-11648317D01*
X12340658Y-11791174D02*
X12350182Y-11781650D01*
X12350182Y-11781650D02*
X12369230Y-11753079D01*
X12369230Y-11753079D02*
X12378753Y-11734031D01*
X12378753Y-11734031D02*
X12388277Y-11705460D01*
X12388277Y-11705460D02*
X12397801Y-11657841D01*
X12397801Y-11657841D02*
X12397801Y-11619746D01*
X12397801Y-11619746D02*
X12388277Y-11572127D01*
X12388277Y-11572127D02*
X12378753Y-11543555D01*
X12378753Y-11543555D02*
X12369230Y-11524508D01*
X12369230Y-11524508D02*
X12350182Y-11495936D01*
X12350182Y-11495936D02*
X12340658Y-11486412D01*
X12702563Y-11791174D02*
X12693039Y-11781650D01*
X12693039Y-11781650D02*
X12673991Y-11753079D01*
X12673991Y-11753079D02*
X12664468Y-11734031D01*
X12664468Y-11734031D02*
X12654944Y-11705460D01*
X12654944Y-11705460D02*
X12645420Y-11657841D01*
X12645420Y-11657841D02*
X12645420Y-11619746D01*
X12645420Y-11619746D02*
X12654944Y-11572127D01*
X12654944Y-11572127D02*
X12664468Y-11543555D01*
X12664468Y-11543555D02*
X12673991Y-11524508D01*
X12673991Y-11524508D02*
X12693039Y-11495936D01*
X12693039Y-11495936D02*
X12702563Y-11486412D01*
X12778753Y-11581650D02*
X12778753Y-11714984D01*
X12778753Y-11600698D02*
X12788277Y-11591174D01*
X12788277Y-11591174D02*
X12807325Y-11581650D01*
X12807325Y-11581650D02*
X12835896Y-11581650D01*
X12835896Y-11581650D02*
X12854944Y-11591174D01*
X12854944Y-11591174D02*
X12864468Y-11610222D01*
X12864468Y-11610222D02*
X12864468Y-11714984D01*
X12988277Y-11714984D02*
X12969230Y-11705460D01*
X12969230Y-11705460D02*
X12959706Y-11695936D01*
X12959706Y-11695936D02*
X12950182Y-11676888D01*
X12950182Y-11676888D02*
X12950182Y-11619746D01*
X12950182Y-11619746D02*
X12959706Y-11600698D01*
X12959706Y-11600698D02*
X12969230Y-11591174D01*
X12969230Y-11591174D02*
X12988277Y-11581650D01*
X12988277Y-11581650D02*
X13016849Y-11581650D01*
X13016849Y-11581650D02*
X13035896Y-11591174D01*
X13035896Y-11591174D02*
X13045420Y-11600698D01*
X13045420Y-11600698D02*
X13054944Y-11619746D01*
X13054944Y-11619746D02*
X13054944Y-11676888D01*
X13054944Y-11676888D02*
X13045420Y-11695936D01*
X13045420Y-11695936D02*
X13035896Y-11705460D01*
X13035896Y-11705460D02*
X13016849Y-11714984D01*
X13016849Y-11714984D02*
X12988277Y-11714984D01*
X13112087Y-11581650D02*
X13188277Y-11581650D01*
X13140658Y-11514984D02*
X13140658Y-11686412D01*
X13140658Y-11686412D02*
X13150182Y-11705460D01*
X13150182Y-11705460D02*
X13169230Y-11714984D01*
X13169230Y-11714984D02*
X13188277Y-11714984D01*
X13407325Y-11581650D02*
X13407325Y-11781650D01*
X13407325Y-11591174D02*
X13426372Y-11581650D01*
X13426372Y-11581650D02*
X13464468Y-11581650D01*
X13464468Y-11581650D02*
X13483515Y-11591174D01*
X13483515Y-11591174D02*
X13493039Y-11600698D01*
X13493039Y-11600698D02*
X13502563Y-11619746D01*
X13502563Y-11619746D02*
X13502563Y-11676888D01*
X13502563Y-11676888D02*
X13493039Y-11695936D01*
X13493039Y-11695936D02*
X13483515Y-11705460D01*
X13483515Y-11705460D02*
X13464468Y-11714984D01*
X13464468Y-11714984D02*
X13426372Y-11714984D01*
X13426372Y-11714984D02*
X13407325Y-11705460D01*
X13616849Y-11714984D02*
X13597801Y-11705460D01*
X13597801Y-11705460D02*
X13588277Y-11686412D01*
X13588277Y-11686412D02*
X13588277Y-11514984D01*
X13778753Y-11714984D02*
X13778753Y-11610222D01*
X13778753Y-11610222D02*
X13769230Y-11591174D01*
X13769230Y-11591174D02*
X13750182Y-11581650D01*
X13750182Y-11581650D02*
X13712087Y-11581650D01*
X13712087Y-11581650D02*
X13693039Y-11591174D01*
X13778753Y-11705460D02*
X13759706Y-11714984D01*
X13759706Y-11714984D02*
X13712087Y-11714984D01*
X13712087Y-11714984D02*
X13693039Y-11705460D01*
X13693039Y-11705460D02*
X13683515Y-11686412D01*
X13683515Y-11686412D02*
X13683515Y-11667365D01*
X13683515Y-11667365D02*
X13693039Y-11648317D01*
X13693039Y-11648317D02*
X13712087Y-11638793D01*
X13712087Y-11638793D02*
X13759706Y-11638793D01*
X13759706Y-11638793D02*
X13778753Y-11629269D01*
X13845420Y-11581650D02*
X13921611Y-11581650D01*
X13873992Y-11514984D02*
X13873992Y-11686412D01*
X13873992Y-11686412D02*
X13883515Y-11705460D01*
X13883515Y-11705460D02*
X13902563Y-11714984D01*
X13902563Y-11714984D02*
X13921611Y-11714984D01*
X14064468Y-11705460D02*
X14045420Y-11714984D01*
X14045420Y-11714984D02*
X14007325Y-11714984D01*
X14007325Y-11714984D02*
X13988277Y-11705460D01*
X13988277Y-11705460D02*
X13978753Y-11686412D01*
X13978753Y-11686412D02*
X13978753Y-11610222D01*
X13978753Y-11610222D02*
X13988277Y-11591174D01*
X13988277Y-11591174D02*
X14007325Y-11581650D01*
X14007325Y-11581650D02*
X14045420Y-11581650D01*
X14045420Y-11581650D02*
X14064468Y-11591174D01*
X14064468Y-11591174D02*
X14073992Y-11610222D01*
X14073992Y-11610222D02*
X14073992Y-11629269D01*
X14073992Y-11629269D02*
X13978753Y-11648317D01*
X14245420Y-11714984D02*
X14245420Y-11514984D01*
X14245420Y-11705460D02*
X14226373Y-11714984D01*
X14226373Y-11714984D02*
X14188277Y-11714984D01*
X14188277Y-11714984D02*
X14169230Y-11705460D01*
X14169230Y-11705460D02*
X14159706Y-11695936D01*
X14159706Y-11695936D02*
X14150182Y-11676888D01*
X14150182Y-11676888D02*
X14150182Y-11619746D01*
X14150182Y-11619746D02*
X14159706Y-11600698D01*
X14159706Y-11600698D02*
X14169230Y-11591174D01*
X14169230Y-11591174D02*
X14188277Y-11581650D01*
X14188277Y-11581650D02*
X14226373Y-11581650D01*
X14226373Y-11581650D02*
X14245420Y-11591174D01*
X14321611Y-11791174D02*
X14331134Y-11781650D01*
X14331134Y-11781650D02*
X14350182Y-11753079D01*
X14350182Y-11753079D02*
X14359706Y-11734031D01*
X14359706Y-11734031D02*
X14369230Y-11705460D01*
X14369230Y-11705460D02*
X14378753Y-11657841D01*
X14378753Y-11657841D02*
X14378753Y-11619746D01*
X14378753Y-11619746D02*
X14369230Y-11572127D01*
X14369230Y-11572127D02*
X14359706Y-11543555D01*
X14359706Y-11543555D02*
X14350182Y-11524508D01*
X14350182Y-11524508D02*
X14331134Y-11495936D01*
X14331134Y-11495936D02*
X14321611Y-11486412D01*
M02*
