%TF.GenerationSoftware,KiCad,Pcbnew,9.0.1*%
%TF.CreationDate,2025-06-18T17:03:31+02:00*%
%TF.ProjectId,Sensor,53656e73-6f72-42e6-9b69-6361645f7063,rev?*%
%TF.SameCoordinates,Original*%
%TF.FileFunction,Soldermask,Top*%
%TF.FilePolarity,Negative*%
%FSLAX46Y46*%
G04 Gerber Fmt 4.6, Leading zero omitted, Abs format (unit mm)*
G04 Created by KiCad (PCBNEW 9.0.1) date 2025-06-18 17:03:31*
%MOMM*%
%LPD*%
G01*
G04 APERTURE LIST*
G04 Aperture macros list*
%AMRoundRect*
0 Rectangle with rounded corners*
0 $1 Rounding radius*
0 $2 $3 $4 $5 $6 $7 $8 $9 X,Y pos of 4 corners*
0 Add a 4 corners polygon primitive as box body*
4,1,4,$2,$3,$4,$5,$6,$7,$8,$9,$2,$3,0*
0 Add four circle primitives for the rounded corners*
1,1,$1+$1,$2,$3*
1,1,$1+$1,$4,$5*
1,1,$1+$1,$6,$7*
1,1,$1+$1,$8,$9*
0 Add four rect primitives between the rounded corners*
20,1,$1+$1,$2,$3,$4,$5,0*
20,1,$1+$1,$4,$5,$6,$7,0*
20,1,$1+$1,$6,$7,$8,$9,0*
20,1,$1+$1,$8,$9,$2,$3,0*%
G04 Aperture macros list end*
%ADD10RoundRect,0.237500X0.250000X0.237500X-0.250000X0.237500X-0.250000X-0.237500X0.250000X-0.237500X0*%
%ADD11RoundRect,0.237500X-0.250000X-0.237500X0.250000X-0.237500X0.250000X0.237500X-0.250000X0.237500X0*%
%ADD12RoundRect,0.100000X0.100000X-0.712500X0.100000X0.712500X-0.100000X0.712500X-0.100000X-0.712500X0*%
%ADD13RoundRect,0.237500X0.300000X0.237500X-0.300000X0.237500X-0.300000X-0.237500X0.300000X-0.237500X0*%
%ADD14C,0.800000*%
%ADD15C,6.400000*%
%ADD16RoundRect,0.150000X0.150000X0.700000X-0.150000X0.700000X-0.150000X-0.700000X0.150000X-0.700000X0*%
%ADD17RoundRect,0.250000X0.250000X1.150000X-0.250000X1.150000X-0.250000X-1.150000X0.250000X-1.150000X0*%
%ADD18RoundRect,0.237500X-0.300000X-0.237500X0.300000X-0.237500X0.300000X0.237500X-0.300000X0.237500X0*%
%ADD19RoundRect,0.237500X-0.287500X-0.237500X0.287500X-0.237500X0.287500X0.237500X-0.287500X0.237500X0*%
%ADD20RoundRect,0.237500X0.237500X-0.300000X0.237500X0.300000X-0.237500X0.300000X-0.237500X-0.300000X0*%
%ADD21RoundRect,0.237500X0.237500X-0.250000X0.237500X0.250000X-0.237500X0.250000X-0.237500X-0.250000X0*%
%ADD22RoundRect,0.237500X-0.237500X0.300000X-0.237500X-0.300000X0.237500X-0.300000X0.237500X0.300000X0*%
%ADD23RoundRect,0.162500X0.162500X-0.617500X0.162500X0.617500X-0.162500X0.617500X-0.162500X-0.617500X0*%
%ADD24RoundRect,0.237500X0.287500X0.237500X-0.287500X0.237500X-0.287500X-0.237500X0.287500X-0.237500X0*%
%ADD25RoundRect,0.150000X0.512500X0.150000X-0.512500X0.150000X-0.512500X-0.150000X0.512500X-0.150000X0*%
%ADD26RoundRect,0.237500X-0.237500X0.250000X-0.237500X-0.250000X0.237500X-0.250000X0.237500X0.250000X0*%
%ADD27RoundRect,0.150000X0.275000X-0.150000X0.275000X0.150000X-0.275000X0.150000X-0.275000X-0.150000X0*%
%ADD28RoundRect,0.187500X0.362500X-0.187500X0.362500X0.187500X-0.362500X0.187500X-0.362500X-0.187500X0*%
%ADD29RoundRect,0.112500X0.112500X-0.112500X0.112500X0.112500X-0.112500X0.112500X-0.112500X-0.112500X0*%
%ADD30RoundRect,0.162500X-0.617500X-0.162500X0.617500X-0.162500X0.617500X0.162500X-0.617500X0.162500X0*%
%ADD31RoundRect,0.150000X0.700000X-0.150000X0.700000X0.150000X-0.700000X0.150000X-0.700000X-0.150000X0*%
%ADD32RoundRect,0.250000X1.150000X-0.250000X1.150000X0.250000X-1.150000X0.250000X-1.150000X-0.250000X0*%
%ADD33RoundRect,0.237500X0.237500X-0.287500X0.237500X0.287500X-0.237500X0.287500X-0.237500X-0.287500X0*%
%ADD34RoundRect,0.250001X-0.462499X-1.074999X0.462499X-1.074999X0.462499X1.074999X-0.462499X1.074999X0*%
%ADD35RoundRect,0.225000X-0.375000X0.225000X-0.375000X-0.225000X0.375000X-0.225000X0.375000X0.225000X0*%
%ADD36R,0.900000X0.800000*%
%ADD37RoundRect,0.150000X0.625000X-0.150000X0.625000X0.150000X-0.625000X0.150000X-0.625000X-0.150000X0*%
%ADD38RoundRect,0.250000X0.650000X-0.350000X0.650000X0.350000X-0.650000X0.350000X-0.650000X-0.350000X0*%
%ADD39R,0.762000X0.254000*%
%ADD40R,0.254000X0.762000*%
%ADD41R,4.699000X4.699000*%
%ADD42RoundRect,0.250001X-0.849999X0.462499X-0.849999X-0.462499X0.849999X-0.462499X0.849999X0.462499X0*%
%ADD43RoundRect,0.237500X-0.237500X0.287500X-0.237500X-0.287500X0.237500X-0.287500X0.237500X0.287500X0*%
%ADD44RoundRect,0.150000X-0.150000X0.512500X-0.150000X-0.512500X0.150000X-0.512500X0.150000X0.512500X0*%
%ADD45RoundRect,0.100000X-0.100000X0.225000X-0.100000X-0.225000X0.100000X-0.225000X0.100000X0.225000X0*%
%ADD46RoundRect,0.150000X0.150000X-0.587500X0.150000X0.587500X-0.150000X0.587500X-0.150000X-0.587500X0*%
%ADD47RoundRect,0.075000X0.662500X0.075000X-0.662500X0.075000X-0.662500X-0.075000X0.662500X-0.075000X0*%
%ADD48RoundRect,0.075000X0.075000X0.662500X-0.075000X0.662500X-0.075000X-0.662500X0.075000X-0.662500X0*%
%ADD49C,1.200000*%
%ADD50RoundRect,0.250000X0.600000X0.750000X-0.600000X0.750000X-0.600000X-0.750000X0.600000X-0.750000X0*%
%ADD51O,1.700000X2.000000*%
%ADD52RoundRect,0.250000X0.375000X0.625000X-0.375000X0.625000X-0.375000X-0.625000X0.375000X-0.625000X0*%
%ADD53RoundRect,0.175000X0.225000X-0.175000X0.225000X0.175000X-0.225000X0.175000X-0.225000X-0.175000X0*%
%ADD54RoundRect,0.125000X-0.125000X0.537500X-0.125000X-0.537500X0.125000X-0.537500X0.125000X0.537500X0*%
G04 APERTURE END LIST*
D10*
%TO.C,R50*%
X120587500Y-68160000D03*
X118762500Y-68160000D03*
%TD*%
D11*
%TO.C,R33*%
X88467500Y-68170000D03*
X90292500Y-68170000D03*
%TD*%
D12*
%TO.C,U9*%
X92005000Y-73032500D03*
X92655000Y-73032500D03*
X93305000Y-73032500D03*
X93955000Y-73032500D03*
X93955000Y-68807500D03*
X93305000Y-68807500D03*
X92655000Y-68807500D03*
X92005000Y-68807500D03*
%TD*%
D13*
%TO.C,C21*%
X107012500Y-63700000D03*
X105287500Y-63700000D03*
%TD*%
D14*
%TO.C,H2*%
X124600000Y-105600000D03*
X125302944Y-103902944D03*
X125302944Y-107297056D03*
X127000000Y-103200000D03*
D15*
X127000000Y-105600000D03*
D14*
X127000000Y-108000000D03*
X128697056Y-103902944D03*
X128697056Y-107297056D03*
X129400000Y-105600000D03*
%TD*%
D16*
%TO.C,CAN*%
X105390000Y-99280000D03*
X104140000Y-99280000D03*
X102890000Y-99280000D03*
X101640000Y-99280000D03*
D17*
X107240000Y-102630000D03*
X99790000Y-102630000D03*
%TD*%
D18*
%TO.C,C53*%
X88517500Y-80250000D03*
X90242500Y-80250000D03*
%TD*%
D19*
%TO.C,D8*%
X99330000Y-76090000D03*
X101080000Y-76090000D03*
%TD*%
D13*
%TO.C,C18*%
X114792500Y-72760000D03*
X113067500Y-72760000D03*
%TD*%
D16*
%TO.C,PT1*%
X104945000Y-57200000D03*
X103695000Y-57200000D03*
D17*
X106795000Y-60550000D03*
X101845000Y-60550000D03*
%TD*%
D18*
%TO.C,C68*%
X122300000Y-53175000D03*
X124025000Y-53175000D03*
%TD*%
D11*
%TO.C,R20*%
X86457500Y-66640000D03*
X88282500Y-66640000D03*
%TD*%
D20*
%TO.C,C5*%
X102650000Y-87502500D03*
X102650000Y-85777500D03*
%TD*%
D21*
%TO.C,R8*%
X81600000Y-55000000D03*
X81600000Y-53175000D03*
%TD*%
D22*
%TO.C,C45*%
X97160000Y-52487500D03*
X97160000Y-54212500D03*
%TD*%
D13*
%TO.C,C26*%
X90242500Y-61582500D03*
X88517500Y-61582500D03*
%TD*%
D22*
%TO.C,C75*%
X127030000Y-76885000D03*
X127030000Y-78610000D03*
%TD*%
D18*
%TO.C,C9*%
X115187500Y-86500000D03*
X116912500Y-86500000D03*
%TD*%
D23*
%TO.C,U12*%
X122275000Y-59225000D03*
X123225000Y-59225000D03*
X124175000Y-59225000D03*
X124175000Y-56525000D03*
X122275000Y-56525000D03*
%TD*%
D24*
%TO.C,F9*%
X103490000Y-46300000D03*
X101740000Y-46300000D03*
%TD*%
D21*
%TO.C,R26*%
X104200000Y-95612500D03*
X104200000Y-93787500D03*
%TD*%
D25*
%TO.C,U6*%
X93022500Y-54362500D03*
X93022500Y-53412500D03*
X93022500Y-52462500D03*
X90747500Y-52462500D03*
X90747500Y-54362500D03*
%TD*%
D26*
%TO.C,R23*%
X95530000Y-59932500D03*
X95530000Y-61757500D03*
%TD*%
D20*
%TO.C,C32*%
X94490000Y-97892500D03*
X94490000Y-96167500D03*
%TD*%
D11*
%TO.C,R32*%
X88467500Y-73670000D03*
X90292500Y-73670000D03*
%TD*%
D18*
%TO.C,C60*%
X88517500Y-89225000D03*
X90242500Y-89225000D03*
%TD*%
D13*
%TO.C,C16*%
X113142500Y-74410000D03*
X111417500Y-74410000D03*
%TD*%
D26*
%TO.C,R38*%
X95530000Y-77032500D03*
X95530000Y-78857500D03*
%TD*%
D27*
%TO.C,RTD1*%
X122319277Y-66000000D03*
X122319277Y-64800000D03*
X122319277Y-63600000D03*
X122319277Y-62400000D03*
D28*
X125944277Y-67175000D03*
X125944277Y-61225000D03*
%TD*%
D19*
%TO.C,FB1*%
X87235000Y-49805000D03*
X88985000Y-49805000D03*
%TD*%
D20*
%TO.C,C36*%
X94847500Y-103680000D03*
X94847500Y-101955000D03*
%TD*%
D22*
%TO.C,C70*%
X117225000Y-63537500D03*
X117225000Y-65262500D03*
%TD*%
D11*
%TO.C,R21*%
X88467500Y-65125000D03*
X90292500Y-65125000D03*
%TD*%
D13*
%TO.C,C69*%
X120537500Y-62100000D03*
X118812500Y-62100000D03*
%TD*%
D16*
%TO.C,PT2*%
X105070000Y-48450000D03*
X103820000Y-48450000D03*
D17*
X106920000Y-51800000D03*
X101970000Y-51800000D03*
%TD*%
D29*
%TO.C,D5*%
X100665000Y-94380000D03*
X100665000Y-93530000D03*
X101515000Y-93530000D03*
X101515000Y-94380000D03*
%TD*%
D30*
%TO.C,U14*%
X122450000Y-76910000D03*
X122450000Y-77860000D03*
X122450000Y-78810000D03*
X125150000Y-78810000D03*
X125150000Y-76910000D03*
%TD*%
D13*
%TO.C,C64*%
X93942500Y-92445000D03*
X92217500Y-92445000D03*
%TD*%
D11*
%TO.C,R39*%
X86557500Y-92750000D03*
X88382500Y-92750000D03*
%TD*%
D13*
%TO.C,C57*%
X93942500Y-83450000D03*
X92217500Y-83450000D03*
%TD*%
D18*
%TO.C,C46*%
X88517500Y-71707500D03*
X90242500Y-71707500D03*
%TD*%
D22*
%TO.C,C2*%
X114410000Y-88830000D03*
X114410000Y-90555000D03*
%TD*%
D31*
%TO.C,TC1*%
X86230000Y-63000000D03*
X86230000Y-61750000D03*
D32*
X82880000Y-64850000D03*
X82880000Y-59900000D03*
%TD*%
D20*
%TO.C,C73*%
X92097500Y-50822500D03*
X92097500Y-49097500D03*
%TD*%
D13*
%TO.C,C40*%
X105862500Y-65250000D03*
X104137500Y-65250000D03*
%TD*%
D16*
%TO.C,PT3*%
X113120000Y-48450000D03*
X111870000Y-48450000D03*
D17*
X114970000Y-51800000D03*
X110020000Y-51800000D03*
%TD*%
D20*
%TO.C,C38*%
X89070000Y-106340000D03*
X89070000Y-104615000D03*
%TD*%
D18*
%TO.C,C22*%
X109987500Y-63750000D03*
X111712500Y-63750000D03*
%TD*%
D22*
%TO.C,C59*%
X95530000Y-80440000D03*
X95530000Y-82165000D03*
%TD*%
D31*
%TO.C,TC4*%
X86230000Y-89100000D03*
X86230000Y-87850000D03*
D32*
X82880000Y-90950000D03*
X82880000Y-86000000D03*
%TD*%
D11*
%TO.C,R41*%
X88467500Y-85725000D03*
X90292500Y-85725000D03*
%TD*%
D33*
%TO.C,D12*%
X105800000Y-95575000D03*
X105800000Y-93825000D03*
%TD*%
D13*
%TO.C,C55*%
X90242500Y-78750000D03*
X88517500Y-78750000D03*
%TD*%
D21*
%TO.C,R9*%
X104200000Y-92122500D03*
X104200000Y-90297500D03*
%TD*%
D13*
%TO.C,C77*%
X120537500Y-69727500D03*
X118812500Y-69727500D03*
%TD*%
D10*
%TO.C,R2*%
X117012500Y-93150000D03*
X115187500Y-93150000D03*
%TD*%
D22*
%TO.C,C66*%
X95530000Y-89445000D03*
X95530000Y-91170000D03*
%TD*%
D13*
%TO.C,C48*%
X90242500Y-70207500D03*
X88517500Y-70207500D03*
%TD*%
%TO.C,C72*%
X114792500Y-71210000D03*
X113067500Y-71210000D03*
%TD*%
D34*
%TO.C,L1*%
X89997500Y-56937500D03*
X92972500Y-56937500D03*
%TD*%
D35*
%TO.C,D18*%
X95172500Y-52412500D03*
X95172500Y-55712500D03*
%TD*%
D22*
%TO.C,C30*%
X95530000Y-63342500D03*
X95530000Y-65067500D03*
%TD*%
%TO.C,C7*%
X112790000Y-88830000D03*
X112790000Y-90555000D03*
%TD*%
D21*
%TO.C,R15*%
X102650000Y-78012500D03*
X102650000Y-76187500D03*
%TD*%
D20*
%TO.C,C17*%
X103855000Y-73825000D03*
X103855000Y-72100000D03*
%TD*%
D13*
%TO.C,C50*%
X93942500Y-74887500D03*
X92217500Y-74887500D03*
%TD*%
%TO.C,C41*%
X88972500Y-52855000D03*
X87247500Y-52855000D03*
%TD*%
D26*
%TO.C,R13*%
X101090000Y-90297500D03*
X101090000Y-92122500D03*
%TD*%
D36*
%TO.C,Y1*%
X115350000Y-84875000D03*
X116750000Y-84875000D03*
X116750000Y-83775000D03*
X115350000Y-83775000D03*
%TD*%
D24*
%TO.C,FB2*%
X97875000Y-97950000D03*
X96125000Y-97950000D03*
%TD*%
D21*
%TO.C,R7*%
X127000000Y-55000000D03*
X127000000Y-53175000D03*
%TD*%
D24*
%TO.C,F12*%
X103365000Y-55050000D03*
X101615000Y-55050000D03*
%TD*%
D22*
%TO.C,C19*%
X99510000Y-80987500D03*
X99510000Y-82712500D03*
%TD*%
D37*
%TO.C,DEBUG*%
X122674277Y-89000000D03*
X122674277Y-88000000D03*
X122674277Y-87000000D03*
X122674277Y-86000000D03*
X122674277Y-85000000D03*
X122674277Y-84000000D03*
D38*
X126549277Y-90300000D03*
X126549277Y-82700000D03*
%TD*%
D11*
%TO.C,R22*%
X88467500Y-59625000D03*
X90292500Y-59625000D03*
%TD*%
D19*
%TO.C,F8*%
X105275000Y-55050000D03*
X107025000Y-55050000D03*
%TD*%
D11*
%TO.C,R36*%
X88467500Y-82225000D03*
X90292500Y-82225000D03*
%TD*%
D21*
%TO.C,R24*%
X93622500Y-50872500D03*
X93622500Y-49047500D03*
%TD*%
D26*
%TO.C,R12*%
X102590000Y-90297500D03*
X102590000Y-92122500D03*
%TD*%
D39*
%TO.C,U3*%
X105576198Y-67712499D03*
X105576198Y-68212501D03*
X105576198Y-68712500D03*
X105576198Y-69212499D03*
X105576198Y-69712500D03*
X105576198Y-70212500D03*
X105576198Y-70712501D03*
X105576198Y-71212500D03*
X105576198Y-71712499D03*
X105576198Y-72212501D03*
D40*
X106299999Y-72936302D03*
X106800001Y-72936302D03*
X107300000Y-72936302D03*
X107799999Y-72936302D03*
X108300000Y-72936302D03*
X108800000Y-72936302D03*
X109300001Y-72936302D03*
X109800000Y-72936302D03*
X110299999Y-72936302D03*
X110800001Y-72936302D03*
D39*
X111523802Y-72212501D03*
X111523802Y-71712499D03*
X111523802Y-71212500D03*
X111523802Y-70712501D03*
X111523802Y-70212500D03*
X111523802Y-69712500D03*
X111523802Y-69212499D03*
X111523802Y-68712500D03*
X111523802Y-68212501D03*
X111523802Y-67712499D03*
D40*
X110800001Y-66988698D03*
X110299999Y-66988698D03*
X109800000Y-66988698D03*
X109300001Y-66988698D03*
X108800000Y-66988698D03*
X108300000Y-66988698D03*
X107799999Y-66988698D03*
X107300000Y-66988698D03*
X106800001Y-66988698D03*
X106299999Y-66988698D03*
D41*
X108550000Y-69962500D03*
%TD*%
D19*
%TO.C,F6*%
X113635000Y-55050000D03*
X115385000Y-55050000D03*
%TD*%
D13*
%TO.C,C28*%
X93942500Y-66342500D03*
X92217500Y-66342500D03*
%TD*%
D11*
%TO.C,R44*%
X118762500Y-63600000D03*
X120587500Y-63600000D03*
%TD*%
D24*
%TO.C,F10*%
X111540000Y-46300000D03*
X109790000Y-46300000D03*
%TD*%
D13*
%TO.C,C42*%
X88972500Y-54380000D03*
X87247500Y-54380000D03*
%TD*%
D26*
%TO.C,R10*%
X107450000Y-93787500D03*
X107450000Y-95612500D03*
%TD*%
D10*
%TO.C,R51*%
X120587500Y-75750000D03*
X118762500Y-75750000D03*
%TD*%
D42*
%TO.C,L2*%
X92727500Y-103867500D03*
X92727500Y-106192500D03*
%TD*%
D18*
%TO.C,C6*%
X104837500Y-78120000D03*
X106562500Y-78120000D03*
%TD*%
%TO.C,C71*%
X118812500Y-66600000D03*
X120537500Y-66600000D03*
%TD*%
D13*
%TO.C,C12*%
X111052500Y-94760000D03*
X109327500Y-94760000D03*
%TD*%
D21*
%TO.C,R25*%
X90572500Y-50872500D03*
X90572500Y-49047500D03*
%TD*%
%TO.C,R3*%
X119530000Y-85672500D03*
X119530000Y-83847500D03*
%TD*%
D16*
%TO.C,PT4*%
X113305000Y-57200000D03*
X112055000Y-57200000D03*
D17*
X115155000Y-60550000D03*
X110205000Y-60550000D03*
%TD*%
D43*
%TO.C,D1*%
X120130000Y-93227500D03*
X120130000Y-94977500D03*
%TD*%
D20*
%TO.C,C39*%
X90590000Y-106340000D03*
X90590000Y-104615000D03*
%TD*%
%TO.C,C44*%
X97160000Y-50822500D03*
X97160000Y-49097500D03*
%TD*%
D18*
%TO.C,C67*%
X122300000Y-54675000D03*
X124025000Y-54675000D03*
%TD*%
D26*
%TO.C,R16*%
X102650000Y-79570000D03*
X102650000Y-81395000D03*
%TD*%
D44*
%TO.C,U7*%
X93330000Y-99650000D03*
X92380000Y-99650000D03*
X91430000Y-99650000D03*
X91430000Y-101925000D03*
X92380000Y-101925000D03*
X93330000Y-101925000D03*
%TD*%
D18*
%TO.C,C79*%
X118812500Y-74227500D03*
X120537500Y-74227500D03*
%TD*%
D45*
%TO.C,U4*%
X100995000Y-77580000D03*
X100345000Y-77580000D03*
X99695000Y-77580000D03*
X99695000Y-79480000D03*
X100345000Y-79480000D03*
X100995000Y-79480000D03*
%TD*%
D13*
%TO.C,C34*%
X88972500Y-51330000D03*
X87247500Y-51330000D03*
%TD*%
D26*
%TO.C,R42*%
X95530000Y-86032500D03*
X95530000Y-87857500D03*
%TD*%
D46*
%TO.C,D6*%
X109237500Y-92375000D03*
X111137500Y-92375000D03*
X110187500Y-90500000D03*
%TD*%
D19*
%TO.C,F2*%
X105400000Y-46300000D03*
X107150000Y-46300000D03*
%TD*%
D26*
%TO.C,R11*%
X99590000Y-90297500D03*
X99590000Y-92122500D03*
%TD*%
D11*
%TO.C,R28*%
X118762500Y-65100000D03*
X120587500Y-65100000D03*
%TD*%
%TO.C,R49*%
X118762500Y-72727500D03*
X120587500Y-72727500D03*
%TD*%
D47*
%TO.C,STM32*%
X112762500Y-86875000D03*
X112762500Y-86375000D03*
X112762500Y-85875000D03*
X112762500Y-85375000D03*
X112762500Y-84875000D03*
X112762500Y-84375000D03*
X112762500Y-83875000D03*
X112762500Y-83375000D03*
X112762500Y-82875000D03*
X112762500Y-82375000D03*
X112762500Y-81875000D03*
X112762500Y-81375000D03*
D48*
X111350000Y-79962500D03*
X110850000Y-79962500D03*
X110350000Y-79962500D03*
X109850000Y-79962500D03*
X109350000Y-79962500D03*
X108850000Y-79962500D03*
X108350000Y-79962500D03*
X107850000Y-79962500D03*
X107350000Y-79962500D03*
X106850000Y-79962500D03*
X106350000Y-79962500D03*
X105850000Y-79962500D03*
D47*
X104437500Y-81375000D03*
X104437500Y-81875000D03*
X104437500Y-82375000D03*
X104437500Y-82875000D03*
X104437500Y-83375000D03*
X104437500Y-83875000D03*
X104437500Y-84375000D03*
X104437500Y-84875000D03*
X104437500Y-85375000D03*
X104437500Y-85875000D03*
X104437500Y-86375000D03*
X104437500Y-86875000D03*
D48*
X105850000Y-88287500D03*
X106350000Y-88287500D03*
X106850000Y-88287500D03*
X107350000Y-88287500D03*
X107850000Y-88287500D03*
X108350000Y-88287500D03*
X108850000Y-88287500D03*
X109350000Y-88287500D03*
X109850000Y-88287500D03*
X110350000Y-88287500D03*
X110850000Y-88287500D03*
X111350000Y-88287500D03*
%TD*%
D18*
%TO.C,C24*%
X88517500Y-63102500D03*
X90242500Y-63102500D03*
%TD*%
D31*
%TO.C,TC3*%
X86230000Y-80100000D03*
X86230000Y-78850000D03*
D32*
X82880000Y-81950000D03*
X82880000Y-77000000D03*
%TD*%
D49*
%TO.C,CAN IO*%
X119190000Y-99730000D03*
D50*
X117590000Y-101730000D03*
D51*
X115090000Y-101730000D03*
%TD*%
D22*
%TO.C,C78*%
X117175000Y-71165000D03*
X117175000Y-72890000D03*
%TD*%
D20*
%TO.C,C15*%
X100305000Y-73825000D03*
X100305000Y-72100000D03*
%TD*%
D33*
%TO.C,D3*%
X105800000Y-92062500D03*
X105800000Y-90312500D03*
%TD*%
D26*
%TO.C,R5*%
X81600000Y-99262500D03*
X81600000Y-101087500D03*
%TD*%
D21*
%TO.C,R1*%
X118530000Y-94990000D03*
X118530000Y-93165000D03*
%TD*%
D52*
%TO.C,F1*%
X102460000Y-96760000D03*
X99660000Y-96760000D03*
%TD*%
D19*
%TO.C,D2*%
X96135000Y-96400000D03*
X97885000Y-96400000D03*
%TD*%
D27*
%TO.C,DT1*%
X122319277Y-94700000D03*
X122319277Y-93500000D03*
D53*
X126094277Y-95850000D03*
X126094277Y-92350000D03*
%TD*%
D13*
%TO.C,C11*%
X116912500Y-82200000D03*
X115187500Y-82200000D03*
%TD*%
D24*
%TO.C,F11*%
X111725000Y-55050000D03*
X109975000Y-55050000D03*
%TD*%
D14*
%TO.C,H4*%
X79200000Y-48662500D03*
X79902944Y-46965444D03*
X79902944Y-50359556D03*
X81600000Y-46262500D03*
D15*
X81600000Y-48662500D03*
D14*
X81600000Y-51062500D03*
X83297056Y-46965444D03*
X83297056Y-50359556D03*
X84000000Y-48662500D03*
%TD*%
D11*
%TO.C,R48*%
X118762500Y-71227500D03*
X120587500Y-71227500D03*
%TD*%
D18*
%TO.C,C3*%
X104837500Y-76590000D03*
X106562500Y-76590000D03*
%TD*%
D20*
%TO.C,C35*%
X91410000Y-97892500D03*
X91410000Y-96167500D03*
%TD*%
D12*
%TO.C,U5*%
X92005000Y-64487500D03*
X92655000Y-64487500D03*
X93305000Y-64487500D03*
X93955000Y-64487500D03*
X93955000Y-60262500D03*
X93305000Y-60262500D03*
X92655000Y-60262500D03*
X92005000Y-60262500D03*
%TD*%
D20*
%TO.C,C14*%
X101830000Y-73825000D03*
X101830000Y-72100000D03*
%TD*%
D21*
%TO.C,R4*%
X118740000Y-79542500D03*
X118740000Y-77717500D03*
%TD*%
D27*
%TO.C,RTD2*%
X122319277Y-73790000D03*
X122319277Y-72590000D03*
X122319277Y-71390000D03*
X122319277Y-70190000D03*
D28*
X125944277Y-74965000D03*
X125944277Y-69015000D03*
%TD*%
D22*
%TO.C,C74*%
X95360000Y-48477500D03*
X95360000Y-50202500D03*
%TD*%
D31*
%TO.C,TC2*%
X86230000Y-71545000D03*
X86230000Y-70295000D03*
D32*
X82880000Y-73395000D03*
X82880000Y-68445000D03*
%TD*%
D14*
%TO.C,H3*%
X124600000Y-48662500D03*
X125302944Y-46965444D03*
X125302944Y-50359556D03*
X127000000Y-46262500D03*
D15*
X127000000Y-48662500D03*
D14*
X127000000Y-51062500D03*
X128697056Y-46965444D03*
X128697056Y-50359556D03*
X129400000Y-48662500D03*
%TD*%
%TO.C,H1*%
X79200000Y-105600000D03*
X79902944Y-103902944D03*
X79902944Y-107297056D03*
X81600000Y-103200000D03*
D15*
X81600000Y-105600000D03*
D14*
X81600000Y-108000000D03*
X83297056Y-103902944D03*
X83297056Y-107297056D03*
X84000000Y-105600000D03*
%TD*%
D33*
%TO.C,D4*%
X107450000Y-92062500D03*
X107450000Y-90312500D03*
%TD*%
D54*
%TO.C,U2*%
X111162500Y-96500000D03*
X110512500Y-96500000D03*
X109862500Y-96500000D03*
X109212500Y-96500000D03*
X109212500Y-98775000D03*
X109862500Y-98775000D03*
X110512500Y-98775000D03*
X111162500Y-98775000D03*
%TD*%
D11*
%TO.C,R40*%
X88467500Y-91225000D03*
X90292500Y-91225000D03*
%TD*%
D22*
%TO.C,C52*%
X95530000Y-71887500D03*
X95530000Y-73612500D03*
%TD*%
D19*
%TO.C,F4*%
X113450000Y-46300000D03*
X115200000Y-46300000D03*
%TD*%
D20*
%TO.C,C33*%
X92960000Y-97892500D03*
X92960000Y-96167500D03*
%TD*%
D18*
%TO.C,C23*%
X111137500Y-65300000D03*
X112862500Y-65300000D03*
%TD*%
D26*
%TO.C,R6*%
X127000000Y-99262500D03*
X127000000Y-101087500D03*
%TD*%
D11*
%TO.C,R31*%
X86655000Y-75190000D03*
X88480000Y-75190000D03*
%TD*%
D13*
%TO.C,C62*%
X90242500Y-87725000D03*
X88517500Y-87725000D03*
%TD*%
D22*
%TO.C,C76*%
X128560000Y-76895000D03*
X128560000Y-78620000D03*
%TD*%
D12*
%TO.C,U10*%
X92005000Y-81587500D03*
X92655000Y-81587500D03*
X93305000Y-81587500D03*
X93955000Y-81587500D03*
X93955000Y-77362500D03*
X93305000Y-77362500D03*
X92655000Y-77362500D03*
X92005000Y-77362500D03*
%TD*%
D11*
%TO.C,R35*%
X86467500Y-83760000D03*
X88292500Y-83760000D03*
%TD*%
D20*
%TO.C,C43*%
X98700000Y-50822500D03*
X98700000Y-49097500D03*
%TD*%
D22*
%TO.C,C20*%
X101030000Y-80987500D03*
X101030000Y-82712500D03*
%TD*%
D26*
%TO.C,R34*%
X95530000Y-68477500D03*
X95530000Y-70302500D03*
%TD*%
D12*
%TO.C,U11*%
X92005000Y-90587500D03*
X92655000Y-90587500D03*
X93305000Y-90587500D03*
X93955000Y-90587500D03*
X93955000Y-86362500D03*
X93305000Y-86362500D03*
X92655000Y-86362500D03*
X92005000Y-86362500D03*
%TD*%
D11*
%TO.C,R37*%
X88467500Y-76725000D03*
X90292500Y-76725000D03*
%TD*%
M02*
