%TF.GenerationSoftware,KiCad,Pcbnew,9.0.1*%
%TF.CreationDate,2025-11-19T22:04:42+01:00*%
%TF.ProjectId,Sensor,53656e73-6f72-42e6-9b69-6361645f7063,rev?*%
%TF.SameCoordinates,Original*%
%TF.FileFunction,Soldermask,Bot*%
%TF.FilePolarity,Negative*%
%FSLAX46Y46*%
G04 Gerber Fmt 4.6, Leading zero omitted, Abs format (unit mm)*
G04 Created by KiCad (PCBNEW 9.0.1) date 2025-11-19 22:04:42*
%MOMM*%
%LPD*%
G01*
G04 APERTURE LIST*
G04 Aperture macros list*
%AMRoundRect*
0 Rectangle with rounded corners*
0 $1 Rounding radius*
0 $2 $3 $4 $5 $6 $7 $8 $9 X,Y pos of 4 corners*
0 Add a 4 corners polygon primitive as box body*
4,1,4,$2,$3,$4,$5,$6,$7,$8,$9,$2,$3,0*
0 Add four circle primitives for the rounded corners*
1,1,$1+$1,$2,$3*
1,1,$1+$1,$4,$5*
1,1,$1+$1,$6,$7*
1,1,$1+$1,$8,$9*
0 Add four rect primitives between the rounded corners*
20,1,$1+$1,$2,$3,$4,$5,0*
20,1,$1+$1,$4,$5,$6,$7,0*
20,1,$1+$1,$6,$7,$8,$9,0*
20,1,$1+$1,$8,$9,$2,$3,0*%
G04 Aperture macros list end*
%ADD10C,0.800000*%
%ADD11C,6.400000*%
%ADD12RoundRect,0.250000X-0.625000X0.350000X-0.625000X-0.350000X0.625000X-0.350000X0.625000X0.350000X0*%
%ADD13O,1.750000X1.200000*%
%ADD14C,2.710000*%
%ADD15R,1.000000X1.000000*%
%ADD16C,1.000000*%
%ADD17RoundRect,0.250000X-0.750000X0.600000X-0.750000X-0.600000X0.750000X-0.600000X0.750000X0.600000X0*%
%ADD18O,2.000000X1.700000*%
G04 APERTURE END LIST*
D10*
%TO.C,H2*%
X169960000Y-115490000D03*
X171657056Y-116192944D03*
X168262944Y-116192944D03*
X172360000Y-117890000D03*
D11*
X169960000Y-117890000D03*
D10*
X167560000Y-117890000D03*
X171657056Y-119587056D03*
X168262944Y-119587056D03*
X169960000Y-120290000D03*
%TD*%
D12*
%TO.C,J5*%
X231110000Y-97860000D03*
D13*
X231110000Y-99860000D03*
%TD*%
D12*
%TO.C,J7*%
X231110000Y-74460000D03*
D13*
X231110000Y-76460000D03*
%TD*%
D14*
%TO.C,TC1*%
X222209622Y-116991770D03*
X214909622Y-116991770D03*
%TD*%
%TO.C,TC4*%
X185809622Y-116991770D03*
X178509622Y-116991770D03*
%TD*%
D15*
%TO.C,J6*%
X169610000Y-101100000D03*
D16*
X169610000Y-102370000D03*
X169610000Y-103640000D03*
X169610000Y-104910000D03*
%TD*%
D14*
%TO.C,TC3*%
X197942955Y-116991770D03*
X190642955Y-116991770D03*
%TD*%
D17*
%TO.C,J4*%
X170821901Y-81192500D03*
D18*
X170821901Y-83692500D03*
%TD*%
D10*
%TO.C,H4*%
X229960000Y-55490000D03*
X231657056Y-56192944D03*
X228262944Y-56192944D03*
X232360000Y-57890000D03*
D11*
X229960000Y-57890000D03*
D10*
X227560000Y-57890000D03*
X231657056Y-59587056D03*
X228262944Y-59587056D03*
X229960000Y-60290000D03*
%TD*%
D12*
%TO.C,J3*%
X231110000Y-90190000D03*
D13*
X231110000Y-92190000D03*
%TD*%
D14*
%TO.C,TC2*%
X210076289Y-116991770D03*
X202776289Y-116991770D03*
%TD*%
D10*
%TO.C,H3*%
X229960000Y-115490000D03*
X231657056Y-116192944D03*
X228262944Y-116192944D03*
X232360000Y-117890000D03*
D11*
X229960000Y-117890000D03*
D10*
X227560000Y-117890000D03*
X231657056Y-119587056D03*
X228262944Y-119587056D03*
X229960000Y-120290000D03*
%TD*%
%TO.C,H1*%
X169960000Y-55490000D03*
X171657056Y-56192944D03*
X168262944Y-56192944D03*
X172360000Y-57890000D03*
D11*
X169960000Y-57890000D03*
D10*
X167560000Y-57890000D03*
X171657056Y-59587056D03*
X168262944Y-59587056D03*
X169960000Y-60290000D03*
%TD*%
D12*
%TO.C,J1*%
X231110000Y-82340000D03*
D13*
X231110000Y-84340000D03*
%TD*%
M02*
