M48
; DRILL file {KiCad 9.0.1} date 2025-11-19T22:04:42+0100
; FORMAT={-:-/ absolute / inch / decimal}
; #@! TF.CreationDate,2025-11-19T22:04:42+01:00
; #@! TF.GenerationSoftware,Kicad,Pcbnew,9.0.1
; #@! TF.FileFunction,Plated,1,4,PTH
FMAT,2
INCH
; #@! TA.AperFunction,Plated,PTH,ViaDrill
T1C0.0118
; #@! TA.AperFunction,Plated,PTH,ViaDrill
T2C0.0157
; #@! TA.AperFunction,Plated,PTH,ComponentDrill
T3C0.0197
; #@! TA.AperFunction,Plated,PTH,ComponentDrill
T4C0.0276
; #@! TA.AperFunction,Plated,PTH,ComponentDrill
T5C0.0295
; #@! TA.AperFunction,Plated,PTH,ComponentDrill
T6C0.0394
; #@! TA.AperFunction,Plated,PTH,ComponentDrill
T7C0.0949
; #@! TA.AperFunction,Plated,PTH,ComponentDrill
T8C0.1260
%
G90
G05
T1
X6.637Y-2.8272
X6.6709Y-3.7256
X6.6913Y-2.5787
X6.6913Y-4.3362
X6.7283Y-4.0795
X6.7323Y-2.8039
X6.763Y-3.6594
X6.7787Y-2.937
X6.8134Y-3.5894
X6.8382Y-4.1303
X6.8614Y-4.0287
X6.9161Y-2.8315
X6.9209Y-3.2492
X7.0232Y-4.0524
X7.0232Y-4.1535
X7.0232Y-4.2453
X7.0358Y-3.2437
X7.0413Y-2.5984
X7.0807Y-2.7634
X7.0819Y-3.3476
X7.0846Y-3.4236
X7.0909Y-2.8783
X7.1118Y-2.3709
X7.115Y-3.5665
X7.1335Y-3.324
X7.1461Y-3.7319
X7.1512Y-4.2571
X7.1697Y-3.8732
X7.1732Y-2.3689
X7.1854Y-3.324
X7.2004Y-2.7965
X7.2004Y-2.8409
X7.2106Y-2.5941
X7.2445Y-2.2724
X7.2488Y-3.2193
X7.2543Y-3.7886
X7.2827Y-3.4614
X7.2831Y-3.3622
X7.3142Y-4.0524
X7.3142Y-4.1535
X7.3142Y-4.2453
X7.3705Y-3.4126
X7.4618Y-3.8555
X7.4799Y-3.4559
X7.4799Y-3.4929
X7.5035Y-4.0524
X7.5035Y-4.1535
X7.5035Y-4.2453
X7.5728Y-2.5016
X7.5732Y-2.2732
X7.5992Y-3.5823
X7.6197Y-3.1327
X7.628Y-4.2606
X7.6614Y-3.6146
X7.6917Y-3.7244
X7.7173Y-3.1331
X7.7563Y-3.7287
X7.7827Y-3.4134
X7.7957Y-4.0524
X7.7957Y-4.1535
X7.7976Y-2.315
X7.7992Y-4.2453
X7.8209Y-3.726
X7.824Y-3.6134
X7.8315Y-3.4626
X7.8709Y-2.926
X7.885Y-3.5819
X7.9374Y-3.1795
X7.9496Y-3.5343
X7.9612Y-2.5866
X7.9811Y-4.0524
X7.9811Y-4.1535
X7.9811Y-4.2453
X8.0047Y-2.5248
X8.0067Y-3.2126
X8.0104Y-2.4744
X8.013Y-3.0543
X8.027Y-2.926
X8.0289Y-3.3876
X8.0512Y-3.0189
X8.0638Y-2.587
X8.0764Y-3.4933
X8.0898Y-3.3315
X8.1043Y-3.2512
X8.1051Y-3.528
X8.111Y-4.2594
X8.1307Y-3.1598
X8.1319Y-3.1217
X8.1488Y-2.2072
X8.1717Y-3.6256
X8.1882Y-3.1976
X8.2349Y-2.4496
X8.2614Y-3.1094
X8.2728Y-4.0524
X8.2728Y-4.1535
X8.2728Y-4.2453
X8.2882Y-3.6256
X8.3067Y-2.4504
X8.324Y-2.8465
X8.3315Y-3.0035
X8.378Y-2.5866
X8.4071Y-3.6252
X8.4248Y-2.526
X8.4278Y-2.4713
X8.45Y-4.0524
X8.45Y-4.1535
X8.4535Y-4.2453
X8.4831Y-2.585
X8.4854Y-3.6248
X8.4878Y-3.0622
X8.5319Y-3.2685
X8.5319Y-3.4583
X8.5673Y-2.2083
X8.5858Y-4.2594
X8.6606Y-2.45
X8.7335Y-2.4555
X8.7421Y-4.0524
X8.7421Y-4.1535
X8.7421Y-4.2453
X8.8862Y-3.0913
X8.8874Y-3.0307
X8.8909Y-3.9386
X8.8913Y-3.3232
X8.8913Y-3.3858
X8.8917Y-4.002
X8.8925Y-3.6925
X8.8933Y-3.6335
X9.0535Y-4.3358
X9.0539Y-2.5783
T2
X7.75Y-3.604
X8.2204Y-3.2963
X8.2204Y-3.4283
X8.278Y-3.3626
X8.3376Y-3.2927
X8.3376Y-3.4283
T3
X6.5969Y-2.2791
X6.5969Y-4.6413
X6.6245Y-2.2123
X6.6245Y-2.3459
X6.6245Y-4.5745
X6.6245Y-4.7082
X6.6913Y-2.1846
X6.6913Y-2.3736
X6.6913Y-4.5469
X6.6913Y-4.7358
X6.7582Y-2.2123
X6.7582Y-2.3459
X6.7582Y-4.5745
X6.7582Y-4.7082
X6.7858Y-2.2791
X6.7858Y-4.6413
X8.9591Y-2.2791
X8.9591Y-4.6413
X8.9867Y-2.2123
X8.9867Y-2.3459
X8.9867Y-4.5745
X8.9867Y-4.7082
X9.0535Y-2.1846
X9.0535Y-2.3736
X9.0535Y-4.5469
X9.0535Y-4.7358
X9.1204Y-2.2123
X9.1204Y-2.3459
X9.1204Y-4.5745
X9.1204Y-4.7082
X9.148Y-2.2791
X9.148Y-4.6413
T4
X6.6776Y-3.9803
X6.6776Y-4.0303
X6.6776Y-4.0803
X6.6776Y-4.1303
T5
X9.0988Y-2.9315
X9.0988Y-3.0102
X9.0988Y-3.2417
X9.0988Y-3.3205
X9.0988Y-3.5508
X9.0988Y-3.6295
X9.0988Y-3.8528
X9.0988Y-3.9315
T6
X6.7253Y-3.1966
X6.7253Y-3.295
T7
X7.0279Y-4.606
X7.3153Y-4.606
X7.5056Y-4.606
X7.793Y-4.606
X7.9833Y-4.606
X8.2707Y-4.606
X8.461Y-4.606
X8.7484Y-4.606
T8
X6.6913Y-2.2791
X6.6913Y-4.6413
X9.0535Y-2.2791
X9.0535Y-4.6413
M30
