%TF.GenerationSoftware,KiCad,Pcbnew,9.0.1*%
%TF.CreationDate,2025-11-19T22:04:42+01:00*%
%TF.ProjectId,Sensor,53656e73-6f72-42e6-9b69-6361645f7063,rev?*%
%TF.SameCoordinates,Original*%
%TF.FileFunction,Copper,L4,Bot*%
%TF.FilePolarity,Positive*%
%FSLAX46Y46*%
G04 Gerber Fmt 4.6, Leading zero omitted, Abs format (unit mm)*
G04 Created by KiCad (PCBNEW 9.0.1) date 2025-11-19 22:04:42*
%MOMM*%
%LPD*%
G01*
G04 APERTURE LIST*
G04 Aperture macros list*
%AMRoundRect*
0 Rectangle with rounded corners*
0 $1 Rounding radius*
0 $2 $3 $4 $5 $6 $7 $8 $9 X,Y pos of 4 corners*
0 Add a 4 corners polygon primitive as box body*
4,1,4,$2,$3,$4,$5,$6,$7,$8,$9,$2,$3,0*
0 Add four circle primitives for the rounded corners*
1,1,$1+$1,$2,$3*
1,1,$1+$1,$4,$5*
1,1,$1+$1,$6,$7*
1,1,$1+$1,$8,$9*
0 Add four rect primitives between the rounded corners*
20,1,$1+$1,$2,$3,$4,$5,0*
20,1,$1+$1,$4,$5,$6,$7,0*
20,1,$1+$1,$6,$7,$8,$9,0*
20,1,$1+$1,$8,$9,$2,$3,0*%
G04 Aperture macros list end*
%TA.AperFunction,ComponentPad*%
%ADD10C,0.800000*%
%TD*%
%TA.AperFunction,ComponentPad*%
%ADD11C,6.400000*%
%TD*%
%TA.AperFunction,ComponentPad*%
%ADD12RoundRect,0.250000X-0.625000X0.350000X-0.625000X-0.350000X0.625000X-0.350000X0.625000X0.350000X0*%
%TD*%
%TA.AperFunction,ComponentPad*%
%ADD13O,1.750000X1.200000*%
%TD*%
%TA.AperFunction,HeatsinkPad*%
%ADD14C,2.710000*%
%TD*%
%TA.AperFunction,ComponentPad*%
%ADD15R,1.000000X1.000000*%
%TD*%
%TA.AperFunction,ComponentPad*%
%ADD16C,1.000000*%
%TD*%
%TA.AperFunction,ComponentPad*%
%ADD17RoundRect,0.250000X-0.750000X0.600000X-0.750000X-0.600000X0.750000X-0.600000X0.750000X0.600000X0*%
%TD*%
%TA.AperFunction,ComponentPad*%
%ADD18O,2.000000X1.700000*%
%TD*%
%TA.AperFunction,ViaPad*%
%ADD19C,0.600000*%
%TD*%
%TA.AperFunction,ViaPad*%
%ADD20C,0.500000*%
%TD*%
%TA.AperFunction,ViaPad*%
%ADD21C,0.800000*%
%TD*%
%TA.AperFunction,Conductor*%
%ADD22C,0.200000*%
%TD*%
%TA.AperFunction,Conductor*%
%ADD23C,0.300000*%
%TD*%
%TA.AperFunction,Conductor*%
%ADD24C,1.000000*%
%TD*%
%TA.AperFunction,Conductor*%
%ADD25C,0.250000*%
%TD*%
G04 APERTURE END LIST*
D10*
%TO.P,H2,1,1*%
%TO.N,Net-(H2-Pad1)*%
X169960000Y-115490000D03*
X171657056Y-116192944D03*
X168262944Y-116192944D03*
X172360000Y-117890000D03*
D11*
X169960000Y-117890000D03*
D10*
X167560000Y-117890000D03*
X171657056Y-119587056D03*
X168262944Y-119587056D03*
X169960000Y-120290000D03*
%TD*%
D12*
%TO.P,J5,1,Pin_1*%
%TO.N,Net-(J5-Pin_1)*%
X231110000Y-97860000D03*
D13*
%TO.P,J5,2,Pin_2*%
%TO.N,+12V*%
X231110000Y-99860000D03*
%TD*%
D12*
%TO.P,J7,1,Pin_1*%
%TO.N,Net-(J7-Pin_1)*%
X231110000Y-74460000D03*
D13*
%TO.P,J7,2,Pin_2*%
%TO.N,+12V*%
X231110000Y-76460000D03*
%TD*%
D14*
%TO.P,TC1,MP,MountPin*%
%TO.N,Earth*%
X222209622Y-116991770D03*
X214909622Y-116991770D03*
%TD*%
%TO.P,TC4,MP,MountPin*%
%TO.N,Earth*%
X185809622Y-116991770D03*
X178509622Y-116991770D03*
%TD*%
D15*
%TO.P,J6,1,Pin_1*%
%TO.N,/EXT_TX*%
X169610000Y-101100000D03*
D16*
%TO.P,J6,2,Pin_2*%
%TO.N,/EXT_RX*%
X169610000Y-102370000D03*
%TO.P,J6,3,Pin_3*%
%TO.N,Earth*%
X169610000Y-103640000D03*
%TO.P,J6,4,Pin_4*%
%TO.N,Net-(J6-Pin_4)*%
X169610000Y-104910000D03*
%TD*%
D14*
%TO.P,TC3,MP,MountPin*%
%TO.N,Earth*%
X197942955Y-116991770D03*
X190642955Y-116991770D03*
%TD*%
D17*
%TO.P,J4,1,Pin_1*%
%TO.N,/H*%
X170821901Y-81192500D03*
D18*
%TO.P,J4,2,Pin_2*%
%TO.N,/L*%
X170821901Y-83692500D03*
%TD*%
D10*
%TO.P,H4,1,1*%
%TO.N,Net-(H4-Pad1)*%
X229960000Y-55490000D03*
X231657056Y-56192944D03*
X228262944Y-56192944D03*
X232360000Y-57890000D03*
D11*
X229960000Y-57890000D03*
D10*
X227560000Y-57890000D03*
X231657056Y-59587056D03*
X228262944Y-59587056D03*
X229960000Y-60290000D03*
%TD*%
D12*
%TO.P,J3,1,Pin_1*%
%TO.N,Net-(J3-Pin_1)*%
X231110000Y-90190000D03*
D13*
%TO.P,J3,2,Pin_2*%
%TO.N,+12V*%
X231110000Y-92190000D03*
%TD*%
D14*
%TO.P,TC2,MP,MountPin*%
%TO.N,Earth*%
X210076289Y-116991770D03*
X202776289Y-116991770D03*
%TD*%
D10*
%TO.P,H3,1,1*%
%TO.N,Net-(H3-Pad1)*%
X229960000Y-115490000D03*
X231657056Y-116192944D03*
X228262944Y-116192944D03*
X232360000Y-117890000D03*
D11*
X229960000Y-117890000D03*
D10*
X227560000Y-117890000D03*
X231657056Y-119587056D03*
X228262944Y-119587056D03*
X229960000Y-120290000D03*
%TD*%
%TO.P,H1,1,1*%
%TO.N,Net-(H1-Pad1)*%
X169960000Y-55490000D03*
X171657056Y-56192944D03*
X168262944Y-56192944D03*
X172360000Y-57890000D03*
D11*
X169960000Y-57890000D03*
D10*
X167560000Y-57890000D03*
X171657056Y-59587056D03*
X168262944Y-59587056D03*
X169960000Y-60290000D03*
%TD*%
D12*
%TO.P,J1,1,Pin_1*%
%TO.N,Net-(J1-Pin_1)*%
X231110000Y-82340000D03*
D13*
%TO.P,J1,2,Pin_2*%
%TO.N,+12V*%
X231110000Y-84340000D03*
%TD*%
D19*
%TO.N,+3V3*%
X194600000Y-91810000D03*
X204820000Y-65710000D03*
X190590000Y-105498229D03*
D20*
X205140000Y-88730000D03*
X207980000Y-81220000D03*
D19*
X189530000Y-97930000D03*
D20*
X180640000Y-60220000D03*
D19*
X173060000Y-91170000D03*
X178390000Y-105498229D03*
X200280000Y-90980000D03*
X184990000Y-85400000D03*
X214630000Y-105498229D03*
X173690000Y-104910000D03*
X193540000Y-79570000D03*
X199920000Y-74320000D03*
D20*
X189990000Y-88720000D03*
D19*
X202720000Y-105498229D03*
X201610000Y-80760000D03*
X215470000Y-65660000D03*
D20*
%TO.N,/ADC/V_REF*%
X211430000Y-72300000D03*
D19*
X203885000Y-74320000D03*
%TO.N,+12V*%
X198060000Y-58800000D03*
X225740000Y-76980000D03*
X225830000Y-100040000D03*
X225890000Y-92290000D03*
X182890000Y-72160000D03*
X225840000Y-84410000D03*
X182890000Y-71030000D03*
%TO.N,/EXT_RX*%
X174280000Y-102330000D03*
D20*
X198920000Y-87950000D03*
D19*
%TO.N,/BOOT0*%
X182510000Y-84430000D03*
X181510000Y-94790000D03*
D20*
%TO.N,/SW_CLK*%
X180720000Y-90590000D03*
D19*
X181190000Y-84430000D03*
D20*
%TO.N,/SPI1_MISO*%
X205480000Y-84620000D03*
X203935000Y-86045000D03*
D19*
%TO.N,/EXT_TX*%
X184260000Y-96230000D03*
X182110000Y-98380000D03*
%TO.N,/ADC/T_REF*%
X198010000Y-105498229D03*
X210130000Y-105498229D03*
X222050000Y-105498229D03*
X185780000Y-105498229D03*
X204500000Y-76680000D03*
D20*
%TO.N,/NRST*%
X201920000Y-89770000D03*
X197680000Y-86700000D03*
D19*
%TO.N,Net-(RTD1-Pin_1)*%
X213990000Y-64160000D03*
X219980000Y-62230000D03*
%TO.N,Net-(RTD2-Pin_1)*%
X209167500Y-62220000D03*
X203320000Y-64130000D03*
%TO.N,/H*%
X171000000Y-71220000D03*
X178710000Y-82390000D03*
X179950000Y-86960000D03*
%TO.N,Earth*%
X168580000Y-71810000D03*
X202720000Y-102930000D03*
X175790000Y-82530000D03*
D20*
X172180000Y-74600000D03*
D19*
X203530000Y-77580000D03*
X187210000Y-86680000D03*
X170900000Y-103620000D03*
D21*
X208797500Y-83725000D03*
D20*
X183150000Y-65890000D03*
D19*
X178390000Y-102930000D03*
X192360000Y-57740000D03*
X225840000Y-86000000D03*
X184010000Y-57720000D03*
D21*
X211775000Y-83634999D03*
D20*
X216710000Y-83020000D03*
X209840000Y-78980000D03*
D19*
X210990000Y-62240000D03*
X222050000Y-107830000D03*
X203465000Y-62850000D03*
X222050000Y-102930000D03*
X210130000Y-102930000D03*
X169960000Y-110140000D03*
X190590000Y-102930000D03*
X206020000Y-108190000D03*
X218080000Y-108190000D03*
D21*
X208797500Y-87080000D03*
D20*
X216710000Y-87840000D03*
D19*
X175670000Y-71920000D03*
X184980000Y-87920000D03*
X181640000Y-108130000D03*
X198100000Y-107830000D03*
X198730000Y-91780000D03*
X179850000Y-70190000D03*
D20*
X205850000Y-82580000D03*
D19*
X190590000Y-107830000D03*
X178390000Y-107830000D03*
X212800000Y-65700000D03*
X206980000Y-56061901D03*
D20*
X206550000Y-79290000D03*
X211620000Y-76290000D03*
D19*
X185780000Y-107830000D03*
X197010000Y-94710000D03*
X214630000Y-102930000D03*
X202215000Y-65700000D03*
X229960000Y-110130000D03*
X171780000Y-92950000D03*
D20*
X215590000Y-77780000D03*
D21*
X211775000Y-87080000D03*
D20*
X210520000Y-92090000D03*
D19*
X180110000Y-73110000D03*
D20*
X206520000Y-80260000D03*
D19*
X192350000Y-63540000D03*
D20*
X215530000Y-92070000D03*
D19*
X196020000Y-79580000D03*
X185780000Y-102930000D03*
D20*
X178850000Y-66000000D03*
X182200000Y-60170000D03*
D19*
X169440000Y-94630000D03*
X202720000Y-107830000D03*
X198010000Y-102930000D03*
X184120000Y-81770000D03*
X225710000Y-78520000D03*
D20*
X189990000Y-87780000D03*
D19*
X214720000Y-107830000D03*
X179880000Y-85030000D03*
X225870000Y-93790000D03*
X221830000Y-62370000D03*
X193020000Y-90990000D03*
X210130000Y-107830000D03*
X195370000Y-94600000D03*
D20*
X213540000Y-92080000D03*
X214065000Y-62770000D03*
D19*
X198650000Y-94640000D03*
D20*
X205870000Y-89610000D03*
D19*
X193750000Y-108220000D03*
X169960000Y-65500000D03*
X203370000Y-81600000D03*
D21*
X210259999Y-85409999D03*
D19*
X225850000Y-101650000D03*
X217610000Y-56091901D03*
D20*
X207560000Y-92090000D03*
D21*
X196850000Y-91541302D03*
D19*
X229970000Y-65490000D03*
%TD*%
D22*
%TO.N,/ADC/V_REF*%
X211430000Y-72300000D02*
X211430000Y-72330000D01*
X203890000Y-74310000D02*
X203885000Y-74305000D01*
X203885000Y-74305000D02*
X203885000Y-74320000D01*
D23*
X209450000Y-74310000D02*
X203890000Y-74310000D01*
X211430000Y-72330000D02*
X209450000Y-74310000D01*
D24*
%TO.N,+12V*%
X220680000Y-85210000D02*
X221470000Y-84420000D01*
X220680000Y-83820000D02*
X220680000Y-85210000D01*
X182890000Y-71030000D02*
X184860000Y-69060000D01*
D23*
X198060000Y-63830000D02*
X192830000Y-69060000D01*
D24*
X221470000Y-84420000D02*
X225830000Y-84420000D01*
X183630000Y-69060000D02*
X190620000Y-69060000D01*
X182890000Y-71030000D02*
X182890000Y-69800000D01*
X182890000Y-69200000D02*
X183030000Y-69060000D01*
X220680000Y-85210000D02*
X220680000Y-91930000D01*
X225830000Y-100040000D02*
X220680000Y-94890000D01*
X182890000Y-72160000D02*
X182890000Y-69200000D01*
X225530000Y-91930000D02*
X225890000Y-92290000D01*
X220680000Y-77050000D02*
X225760000Y-77050000D01*
X183030000Y-69060000D02*
X183630000Y-69060000D01*
X182890000Y-71030000D02*
X182900000Y-71040000D01*
X217040000Y-69060000D02*
X220680000Y-72700000D01*
X182890000Y-69800000D02*
X183630000Y-69060000D01*
X220680000Y-76530000D02*
X220680000Y-77050000D01*
X225830000Y-84420000D02*
X225840000Y-84410000D01*
X220680000Y-72700000D02*
X220680000Y-76530000D01*
X215380000Y-69060000D02*
X217040000Y-69060000D01*
X220680000Y-77050000D02*
X220680000Y-83820000D01*
X194400000Y-69060000D02*
X204720000Y-69060000D01*
X220680000Y-91930000D02*
X225530000Y-91930000D01*
X182890000Y-71030000D02*
X182890000Y-72160000D01*
X190620000Y-69060000D02*
X194400000Y-69060000D01*
X204720000Y-69060000D02*
X215380000Y-69060000D01*
D23*
X198060000Y-58800000D02*
X198060000Y-63830000D01*
D24*
X220680000Y-94890000D02*
X220680000Y-91930000D01*
D22*
%TO.N,/EXT_RX*%
X176130000Y-102330000D02*
X183860000Y-94600000D01*
X198650000Y-87680000D02*
X198920000Y-87950000D01*
X187920000Y-94600000D02*
X192030000Y-90490000D01*
X194840000Y-87680000D02*
X196580000Y-87680000D01*
X174280000Y-102330000D02*
X176130000Y-102330000D01*
X196580000Y-87680000D02*
X198650000Y-87680000D01*
X183860000Y-94600000D02*
X187920000Y-94600000D01*
X192030000Y-90490000D02*
X194840000Y-87680000D01*
D25*
%TO.N,/BOOT0*%
X182510000Y-84430000D02*
X182510000Y-93790000D01*
X182510000Y-93790000D02*
X181510000Y-94790000D01*
D22*
%TO.N,/SW_CLK*%
X181190000Y-84470000D02*
X181190000Y-90120000D01*
X181190000Y-90120000D02*
X180720000Y-90590000D01*
%TO.N,/SPI1_MISO*%
X204075000Y-86045000D02*
X205500000Y-84620000D01*
X203935000Y-86045000D02*
X204075000Y-86045000D01*
%TO.N,/EXT_TX*%
X184260000Y-96230000D02*
X182110000Y-98380000D01*
D23*
%TO.N,/ADC/T_REF*%
X199660000Y-80580000D02*
X199700000Y-80620000D01*
X210130000Y-105498229D02*
X208638229Y-105498229D01*
X212720000Y-96040000D02*
X202670000Y-96040000D01*
X204500000Y-76740000D02*
X204500000Y-76680000D01*
X222050000Y-105498229D02*
X222050000Y-105370000D01*
X202690000Y-96020000D02*
X202670000Y-96040000D01*
X202690000Y-95910000D02*
X202690000Y-96020000D01*
X200030000Y-98570000D02*
X200030000Y-103478229D01*
X203560000Y-76680000D02*
X199660000Y-80580000D01*
X205280000Y-102140000D02*
X205280000Y-98650000D01*
X186041771Y-105498229D02*
X185780000Y-105498229D01*
X200030000Y-103478229D02*
X198010000Y-105498229D01*
X208638229Y-105498229D02*
X205280000Y-102140000D01*
X195520000Y-96020000D02*
X186041771Y-105498229D01*
X202690000Y-96020000D02*
X195520000Y-96020000D01*
X205280000Y-98650000D02*
X202670000Y-96040000D01*
X204500000Y-76690000D02*
X204500000Y-76680000D01*
X199700000Y-84970000D02*
X202690000Y-87960000D01*
X202690000Y-95910000D02*
X200030000Y-98570000D01*
X202690000Y-87960000D02*
X202690000Y-95910000D01*
X204500000Y-76680000D02*
X203560000Y-76680000D01*
X222050000Y-105370000D02*
X212720000Y-96040000D01*
X199700000Y-80620000D02*
X199700000Y-84970000D01*
D22*
%TO.N,/NRST*%
X198850000Y-86700000D02*
X201920000Y-89770000D01*
X197680000Y-86700000D02*
X198850000Y-86700000D01*
D23*
%TO.N,Net-(RTD1-Pin_1)*%
X219980000Y-62230000D02*
X218050000Y-64160000D01*
X218050000Y-64160000D02*
X213990000Y-64160000D01*
%TO.N,Net-(RTD2-Pin_1)*%
X207257500Y-64130000D02*
X209167500Y-62220000D01*
X203320000Y-64130000D02*
X207257500Y-64130000D01*
%TO.N,/H*%
X170060000Y-72160000D02*
X171000000Y-71220000D01*
X170821901Y-80451901D02*
X170060000Y-79690000D01*
X170821901Y-81192500D02*
X170821901Y-80451901D01*
D25*
X179890000Y-86960000D02*
X179950000Y-86960000D01*
D23*
X170060000Y-79690000D02*
X170060000Y-72160000D01*
X178710000Y-85780000D02*
X179890000Y-86960000D01*
D25*
X179950000Y-86960000D02*
X180020000Y-86960000D01*
D23*
X178710000Y-82390000D02*
X178710000Y-85780000D01*
%TD*%
M02*
