%TF.GenerationSoftware,KiCad,Pcbnew,9.0.1*%
%TF.CreationDate,2025-11-19T22:04:42+01:00*%
%TF.ProjectId,Sensor,53656e73-6f72-42e6-9b69-6361645f7063,rev?*%
%TF.SameCoordinates,Original*%
%TF.FileFunction,Copper,L2,Inr*%
%TF.FilePolarity,Positive*%
%FSLAX46Y46*%
G04 Gerber Fmt 4.6, Leading zero omitted, Abs format (unit mm)*
G04 Created by KiCad (PCBNEW 9.0.1) date 2025-11-19 22:04:42*
%MOMM*%
%LPD*%
G01*
G04 APERTURE LIST*
G04 Aperture macros list*
%AMRoundRect*
0 Rectangle with rounded corners*
0 $1 Rounding radius*
0 $2 $3 $4 $5 $6 $7 $8 $9 X,Y pos of 4 corners*
0 Add a 4 corners polygon primitive as box body*
4,1,4,$2,$3,$4,$5,$6,$7,$8,$9,$2,$3,0*
0 Add four circle primitives for the rounded corners*
1,1,$1+$1,$2,$3*
1,1,$1+$1,$4,$5*
1,1,$1+$1,$6,$7*
1,1,$1+$1,$8,$9*
0 Add four rect primitives between the rounded corners*
20,1,$1+$1,$2,$3,$4,$5,0*
20,1,$1+$1,$4,$5,$6,$7,0*
20,1,$1+$1,$6,$7,$8,$9,0*
20,1,$1+$1,$8,$9,$2,$3,0*%
G04 Aperture macros list end*
%TA.AperFunction,ComponentPad*%
%ADD10C,0.800000*%
%TD*%
%TA.AperFunction,ComponentPad*%
%ADD11C,6.400000*%
%TD*%
%TA.AperFunction,ComponentPad*%
%ADD12RoundRect,0.250000X-0.625000X0.350000X-0.625000X-0.350000X0.625000X-0.350000X0.625000X0.350000X0*%
%TD*%
%TA.AperFunction,ComponentPad*%
%ADD13O,1.750000X1.200000*%
%TD*%
%TA.AperFunction,HeatsinkPad*%
%ADD14C,2.710000*%
%TD*%
%TA.AperFunction,ComponentPad*%
%ADD15R,1.000000X1.000000*%
%TD*%
%TA.AperFunction,ComponentPad*%
%ADD16C,1.000000*%
%TD*%
%TA.AperFunction,ComponentPad*%
%ADD17RoundRect,0.250000X-0.750000X0.600000X-0.750000X-0.600000X0.750000X-0.600000X0.750000X0.600000X0*%
%TD*%
%TA.AperFunction,ComponentPad*%
%ADD18O,2.000000X1.700000*%
%TD*%
%TA.AperFunction,ViaPad*%
%ADD19C,0.600000*%
%TD*%
%TA.AperFunction,ViaPad*%
%ADD20C,0.500000*%
%TD*%
%TA.AperFunction,ViaPad*%
%ADD21C,0.800000*%
%TD*%
G04 APERTURE END LIST*
D10*
%TO.N,Net-(H2-Pad1)*%
%TO.C,H2*%
X169960000Y-115490000D03*
X171657056Y-116192944D03*
X168262944Y-116192944D03*
X172360000Y-117890000D03*
D11*
X169960000Y-117890000D03*
D10*
X167560000Y-117890000D03*
X171657056Y-119587056D03*
X168262944Y-119587056D03*
X169960000Y-120290000D03*
%TD*%
D12*
%TO.N,Net-(J5-Pin_1)*%
%TO.C,J5*%
X231110000Y-97860000D03*
D13*
%TO.N,+12V*%
X231110000Y-99860000D03*
%TD*%
D12*
%TO.N,Net-(J7-Pin_1)*%
%TO.C,J7*%
X231110000Y-74460000D03*
D13*
%TO.N,+12V*%
X231110000Y-76460000D03*
%TD*%
D14*
%TO.N,Earth*%
%TO.C,TC1*%
X222209622Y-116991770D03*
X214909622Y-116991770D03*
%TD*%
%TO.N,Earth*%
%TO.C,TC4*%
X185809622Y-116991770D03*
X178509622Y-116991770D03*
%TD*%
D15*
%TO.N,/EXT_TX*%
%TO.C,J6*%
X169610000Y-101100000D03*
D16*
%TO.N,/EXT_RX*%
X169610000Y-102370000D03*
%TO.N,Earth*%
X169610000Y-103640000D03*
%TO.N,Net-(J6-Pin_4)*%
X169610000Y-104910000D03*
%TD*%
D14*
%TO.N,Earth*%
%TO.C,TC3*%
X197942955Y-116991770D03*
X190642955Y-116991770D03*
%TD*%
D17*
%TO.N,/H*%
%TO.C,J4*%
X170821901Y-81192500D03*
D18*
%TO.N,/L*%
X170821901Y-83692500D03*
%TD*%
D10*
%TO.N,Net-(H4-Pad1)*%
%TO.C,H4*%
X229960000Y-55490000D03*
X231657056Y-56192944D03*
X228262944Y-56192944D03*
X232360000Y-57890000D03*
D11*
X229960000Y-57890000D03*
D10*
X227560000Y-57890000D03*
X231657056Y-59587056D03*
X228262944Y-59587056D03*
X229960000Y-60290000D03*
%TD*%
D12*
%TO.N,Net-(J3-Pin_1)*%
%TO.C,J3*%
X231110000Y-90190000D03*
D13*
%TO.N,+12V*%
X231110000Y-92190000D03*
%TD*%
D14*
%TO.N,Earth*%
%TO.C,TC2*%
X210076289Y-116991770D03*
X202776289Y-116991770D03*
%TD*%
D10*
%TO.N,Net-(H3-Pad1)*%
%TO.C,H3*%
X229960000Y-115490000D03*
X231657056Y-116192944D03*
X228262944Y-116192944D03*
X232360000Y-117890000D03*
D11*
X229960000Y-117890000D03*
D10*
X227560000Y-117890000D03*
X231657056Y-119587056D03*
X228262944Y-119587056D03*
X229960000Y-120290000D03*
%TD*%
%TO.N,Net-(H1-Pad1)*%
%TO.C,H1*%
X169960000Y-55490000D03*
X171657056Y-56192944D03*
X168262944Y-56192944D03*
X172360000Y-57890000D03*
D11*
X169960000Y-57890000D03*
D10*
X167560000Y-57890000D03*
X171657056Y-59587056D03*
X168262944Y-59587056D03*
X169960000Y-60290000D03*
%TD*%
D12*
%TO.N,Net-(J1-Pin_1)*%
%TO.C,J1*%
X231110000Y-82340000D03*
D13*
%TO.N,+12V*%
X231110000Y-84340000D03*
%TD*%
D19*
%TO.N,+3V3*%
X194600000Y-91810000D03*
X204820000Y-65710000D03*
X190590000Y-105498229D03*
D20*
X205140000Y-88730000D03*
X207980000Y-81220000D03*
D19*
X189530000Y-97930000D03*
D20*
X180640000Y-60220000D03*
D19*
X173060000Y-91170000D03*
X178390000Y-105498229D03*
X200280000Y-90980000D03*
X184990000Y-85400000D03*
X214630000Y-105498229D03*
X173690000Y-104910000D03*
X193540000Y-79570000D03*
X199920000Y-74320000D03*
D20*
X189990000Y-88720000D03*
D19*
X202720000Y-105498229D03*
X201610000Y-80760000D03*
X215470000Y-65660000D03*
D20*
%TO.N,/ADC/V_REF*%
X211430000Y-72300000D03*
D19*
X203885000Y-74320000D03*
%TO.N,+12V*%
X198060000Y-58800000D03*
X225740000Y-76980000D03*
X225830000Y-100040000D03*
X225890000Y-92290000D03*
X182890000Y-72160000D03*
X225840000Y-84410000D03*
X182890000Y-71030000D03*
%TO.N,/EXT_RX*%
X174280000Y-102330000D03*
D20*
X198920000Y-87950000D03*
D19*
%TO.N,/BOOT0*%
X182510000Y-84430000D03*
X181510000Y-94790000D03*
D20*
%TO.N,/SW_CLK*%
X180720000Y-90590000D03*
D19*
X181190000Y-84430000D03*
D20*
%TO.N,/SPI1_MISO*%
X205480000Y-84620000D03*
X203935000Y-86045000D03*
D19*
%TO.N,/EXT_TX*%
X184260000Y-96230000D03*
X182110000Y-98380000D03*
%TO.N,/ADC/T_REF*%
X198010000Y-105498229D03*
X210130000Y-105498229D03*
X222050000Y-105498229D03*
X185780000Y-105498229D03*
X204500000Y-76680000D03*
D20*
%TO.N,/NRST*%
X201920000Y-89770000D03*
X197680000Y-86700000D03*
D19*
%TO.N,Net-(RTD1-Pin_1)*%
X213990000Y-64160000D03*
X219980000Y-62230000D03*
%TO.N,Net-(RTD2-Pin_1)*%
X209167500Y-62220000D03*
X203320000Y-64130000D03*
%TO.N,/H*%
X171000000Y-71220000D03*
X178710000Y-82390000D03*
X179950000Y-86960000D03*
%TO.N,Earth*%
X168580000Y-71810000D03*
X202720000Y-102930000D03*
X175790000Y-82530000D03*
D20*
X172180000Y-74600000D03*
D19*
X203530000Y-77580000D03*
X187210000Y-86680000D03*
X170900000Y-103620000D03*
D21*
X208797500Y-83725000D03*
D20*
X183150000Y-65890000D03*
D19*
X178390000Y-102930000D03*
X192360000Y-57740000D03*
X225840000Y-86000000D03*
X184010000Y-57720000D03*
D21*
X211775000Y-83634999D03*
D20*
X216710000Y-83020000D03*
X209840000Y-78980000D03*
D19*
X210990000Y-62240000D03*
X222050000Y-107830000D03*
X203465000Y-62850000D03*
X222050000Y-102930000D03*
X210130000Y-102930000D03*
X169960000Y-110140000D03*
X190590000Y-102930000D03*
X206020000Y-108190000D03*
X218080000Y-108190000D03*
D21*
X208797500Y-87080000D03*
D20*
X216710000Y-87840000D03*
D19*
X175670000Y-71920000D03*
X184980000Y-87920000D03*
X181640000Y-108130000D03*
X198100000Y-107830000D03*
X198730000Y-91780000D03*
X179850000Y-70190000D03*
D20*
X205850000Y-82580000D03*
D19*
X190590000Y-107830000D03*
X178390000Y-107830000D03*
X212800000Y-65700000D03*
X206980000Y-56061901D03*
D20*
X206550000Y-79290000D03*
X211620000Y-76290000D03*
D19*
X185780000Y-107830000D03*
X197010000Y-94710000D03*
X214630000Y-102930000D03*
X202215000Y-65700000D03*
X229960000Y-110130000D03*
X171780000Y-92950000D03*
D20*
X215590000Y-77780000D03*
D21*
X211775000Y-87080000D03*
D20*
X210520000Y-92090000D03*
D19*
X180110000Y-73110000D03*
D20*
X206520000Y-80260000D03*
D19*
X192350000Y-63540000D03*
D20*
X215530000Y-92070000D03*
D19*
X196020000Y-79580000D03*
X185780000Y-102930000D03*
D20*
X178850000Y-66000000D03*
X182200000Y-60170000D03*
D19*
X169440000Y-94630000D03*
X202720000Y-107830000D03*
X198010000Y-102930000D03*
X184120000Y-81770000D03*
X225710000Y-78520000D03*
D20*
X189990000Y-87780000D03*
D19*
X214720000Y-107830000D03*
X179880000Y-85030000D03*
X225870000Y-93790000D03*
X221830000Y-62370000D03*
X193020000Y-90990000D03*
X210130000Y-107830000D03*
X195370000Y-94600000D03*
D20*
X213540000Y-92080000D03*
X214065000Y-62770000D03*
D19*
X198650000Y-94640000D03*
D20*
X205870000Y-89610000D03*
D19*
X193750000Y-108220000D03*
X169960000Y-65500000D03*
X203370000Y-81600000D03*
D21*
X210259999Y-85409999D03*
D19*
X225850000Y-101650000D03*
X217610000Y-56091901D03*
D20*
X207560000Y-92090000D03*
D21*
X196850000Y-91541302D03*
D19*
X229970000Y-65490000D03*
%TD*%
%TA.AperFunction,Conductor*%
%TO.N,Earth*%
G36*
X229962702Y-52965618D02*
G01*
X229976221Y-52966208D01*
X230383810Y-52984003D01*
X230394547Y-52984943D01*
X230809771Y-53039608D01*
X230820397Y-53041481D01*
X231229286Y-53132130D01*
X231239698Y-53134919D01*
X231639132Y-53260861D01*
X231649267Y-53264550D01*
X232036191Y-53424819D01*
X232045982Y-53429385D01*
X232417442Y-53622755D01*
X232426810Y-53628163D01*
X232780014Y-53853179D01*
X232788875Y-53859384D01*
X233121115Y-54114320D01*
X233129402Y-54121274D01*
X233438155Y-54404195D01*
X233445804Y-54411844D01*
X233728725Y-54720597D01*
X233735679Y-54728884D01*
X233990615Y-55061124D01*
X233996820Y-55069985D01*
X234221836Y-55423189D01*
X234227244Y-55432557D01*
X234420611Y-55804010D01*
X234425183Y-55813814D01*
X234585443Y-56200717D01*
X234589142Y-56210880D01*
X234661553Y-56440538D01*
X234715074Y-56610282D01*
X234717874Y-56620732D01*
X234808515Y-57029589D01*
X234810393Y-57040242D01*
X234865054Y-57455432D01*
X234865997Y-57466208D01*
X234884382Y-57887297D01*
X234884500Y-57892706D01*
X234884500Y-117887293D01*
X234884382Y-117892702D01*
X234865997Y-118313791D01*
X234865054Y-118324567D01*
X234810393Y-118739757D01*
X234808515Y-118750410D01*
X234717874Y-119159267D01*
X234715074Y-119169717D01*
X234589143Y-119569117D01*
X234585443Y-119579282D01*
X234425183Y-119966185D01*
X234420611Y-119975989D01*
X234227244Y-120347442D01*
X234221836Y-120356810D01*
X233996820Y-120710014D01*
X233990615Y-120718875D01*
X233735679Y-121051115D01*
X233728725Y-121059402D01*
X233445804Y-121368155D01*
X233438155Y-121375804D01*
X233129402Y-121658725D01*
X233121115Y-121665679D01*
X232788875Y-121920615D01*
X232780014Y-121926820D01*
X232426810Y-122151836D01*
X232417442Y-122157244D01*
X232045989Y-122350611D01*
X232036185Y-122355183D01*
X231649282Y-122515443D01*
X231639117Y-122519143D01*
X231239717Y-122645074D01*
X231229267Y-122647874D01*
X230820410Y-122738515D01*
X230809757Y-122740393D01*
X230394567Y-122795054D01*
X230383791Y-122795997D01*
X229962703Y-122814382D01*
X229957294Y-122814500D01*
X169962706Y-122814500D01*
X169957297Y-122814382D01*
X169536208Y-122795997D01*
X169525432Y-122795054D01*
X169110242Y-122740393D01*
X169099589Y-122738515D01*
X168832531Y-122679310D01*
X168690729Y-122647873D01*
X168680286Y-122645075D01*
X168280880Y-122519142D01*
X168270717Y-122515443D01*
X167883814Y-122355183D01*
X167874010Y-122350611D01*
X167502557Y-122157244D01*
X167493189Y-122151836D01*
X167139985Y-121926820D01*
X167131124Y-121920615D01*
X166798884Y-121665679D01*
X166790597Y-121658725D01*
X166481844Y-121375804D01*
X166474195Y-121368155D01*
X166191274Y-121059402D01*
X166184320Y-121051115D01*
X165929384Y-120718875D01*
X165923179Y-120710014D01*
X165698163Y-120356810D01*
X165692755Y-120347442D01*
X165499388Y-119975989D01*
X165494816Y-119966185D01*
X165423801Y-119794738D01*
X165334550Y-119579267D01*
X165330861Y-119569132D01*
X165204919Y-119169698D01*
X165202130Y-119159286D01*
X165111481Y-118750397D01*
X165109608Y-118739771D01*
X165054943Y-118324547D01*
X165054003Y-118313810D01*
X165035618Y-117892701D01*
X165035500Y-117887293D01*
X165035500Y-117708209D01*
X166259500Y-117708209D01*
X166259500Y-118071790D01*
X166295137Y-118433630D01*
X166366064Y-118790212D01*
X166366067Y-118790223D01*
X166471614Y-119138165D01*
X166610754Y-119474078D01*
X166610756Y-119474083D01*
X166782140Y-119794720D01*
X166782151Y-119794738D01*
X166984140Y-120097035D01*
X166984150Y-120097049D01*
X167214807Y-120378106D01*
X167471893Y-120635192D01*
X167471898Y-120635196D01*
X167471899Y-120635197D01*
X167752956Y-120865854D01*
X168055268Y-121067853D01*
X168055277Y-121067858D01*
X168055279Y-121067859D01*
X168375916Y-121239243D01*
X168375918Y-121239243D01*
X168375924Y-121239247D01*
X168711836Y-121378386D01*
X169059767Y-121483930D01*
X169059773Y-121483931D01*
X169059776Y-121483932D01*
X169059787Y-121483935D01*
X169416369Y-121554862D01*
X169778206Y-121590500D01*
X169778209Y-121590500D01*
X170141791Y-121590500D01*
X170141794Y-121590500D01*
X170503631Y-121554862D01*
X170573045Y-121541054D01*
X170860212Y-121483935D01*
X170860223Y-121483932D01*
X170860223Y-121483931D01*
X170860233Y-121483930D01*
X171208164Y-121378386D01*
X171544076Y-121239247D01*
X171864732Y-121067853D01*
X172167044Y-120865854D01*
X172448101Y-120635197D01*
X172705197Y-120378101D01*
X172935854Y-120097044D01*
X173137853Y-119794732D01*
X173309247Y-119474076D01*
X173448386Y-119138164D01*
X173553930Y-118790233D01*
X173553932Y-118790223D01*
X173553935Y-118790212D01*
X173624862Y-118433630D01*
X173624862Y-118433628D01*
X173627370Y-118408169D01*
X173627370Y-118408168D01*
X173660500Y-118071790D01*
X173660500Y-117708209D01*
X173624862Y-117346369D01*
X173553935Y-116989787D01*
X173553932Y-116989776D01*
X173553931Y-116989773D01*
X173553930Y-116989767D01*
X173517653Y-116870179D01*
X176654622Y-116870179D01*
X176654622Y-117113360D01*
X176686362Y-117354438D01*
X176749297Y-117589318D01*
X176842352Y-117813972D01*
X176842357Y-117813983D01*
X176963930Y-118024554D01*
X176963935Y-118024561D01*
X177033116Y-118114720D01*
X177498158Y-117649678D01*
X177590500Y-117776775D01*
X177724617Y-117910892D01*
X177851712Y-118003232D01*
X177386670Y-118468274D01*
X177386670Y-118468275D01*
X177476828Y-118537455D01*
X177687408Y-118659034D01*
X177687419Y-118659039D01*
X177912073Y-118752094D01*
X178146953Y-118815029D01*
X178388031Y-118846769D01*
X178388046Y-118846770D01*
X178631198Y-118846770D01*
X178631212Y-118846769D01*
X178872290Y-118815029D01*
X179107170Y-118752094D01*
X179331824Y-118659039D01*
X179331835Y-118659034D01*
X179542416Y-118537454D01*
X179632572Y-118468274D01*
X179167530Y-118003232D01*
X179294627Y-117910892D01*
X179428744Y-117776775D01*
X179521084Y-117649678D01*
X179986126Y-118114720D01*
X180055306Y-118024564D01*
X180176886Y-117813983D01*
X180176891Y-117813972D01*
X180269946Y-117589318D01*
X180332881Y-117354438D01*
X180364621Y-117113360D01*
X180364622Y-117113346D01*
X180364622Y-116870193D01*
X180364621Y-116870179D01*
X183954622Y-116870179D01*
X183954622Y-117113360D01*
X183986362Y-117354438D01*
X184049297Y-117589318D01*
X184142352Y-117813972D01*
X184142357Y-117813983D01*
X184263930Y-118024554D01*
X184263935Y-118024561D01*
X184333116Y-118114720D01*
X184798158Y-117649678D01*
X184890500Y-117776775D01*
X185024617Y-117910892D01*
X185151712Y-118003232D01*
X184686670Y-118468274D01*
X184686670Y-118468275D01*
X184776828Y-118537455D01*
X184987408Y-118659034D01*
X184987419Y-118659039D01*
X185212073Y-118752094D01*
X185446953Y-118815029D01*
X185688031Y-118846769D01*
X185688046Y-118846770D01*
X185931198Y-118846770D01*
X185931212Y-118846769D01*
X186172290Y-118815029D01*
X186407170Y-118752094D01*
X186631824Y-118659039D01*
X186631835Y-118659034D01*
X186842416Y-118537454D01*
X186932572Y-118468274D01*
X186467530Y-118003232D01*
X186594627Y-117910892D01*
X186728744Y-117776775D01*
X186821084Y-117649678D01*
X187286126Y-118114720D01*
X187355306Y-118024564D01*
X187476886Y-117813983D01*
X187476891Y-117813972D01*
X187569946Y-117589318D01*
X187632881Y-117354438D01*
X187664621Y-117113360D01*
X187664622Y-117113346D01*
X187664622Y-116870193D01*
X187664621Y-116870179D01*
X188787955Y-116870179D01*
X188787955Y-117113360D01*
X188819695Y-117354438D01*
X188882630Y-117589318D01*
X188975685Y-117813972D01*
X188975690Y-117813983D01*
X189097263Y-118024554D01*
X189097268Y-118024561D01*
X189166449Y-118114720D01*
X189631491Y-117649678D01*
X189723833Y-117776775D01*
X189857950Y-117910892D01*
X189985045Y-118003232D01*
X189520003Y-118468274D01*
X189520003Y-118468275D01*
X189610161Y-118537455D01*
X189820741Y-118659034D01*
X189820752Y-118659039D01*
X190045406Y-118752094D01*
X190280286Y-118815029D01*
X190521364Y-118846769D01*
X190521379Y-118846770D01*
X190764531Y-118846770D01*
X190764545Y-118846769D01*
X191005623Y-118815029D01*
X191240503Y-118752094D01*
X191465157Y-118659039D01*
X191465168Y-118659034D01*
X191675749Y-118537454D01*
X191765905Y-118468274D01*
X191300863Y-118003232D01*
X191427960Y-117910892D01*
X191562077Y-117776775D01*
X191654417Y-117649678D01*
X192119459Y-118114720D01*
X192188639Y-118024564D01*
X192310219Y-117813983D01*
X192310224Y-117813972D01*
X192403279Y-117589318D01*
X192466214Y-117354438D01*
X192497954Y-117113360D01*
X192497955Y-117113346D01*
X192497955Y-116870193D01*
X192497954Y-116870179D01*
X196087955Y-116870179D01*
X196087955Y-117113360D01*
X196119695Y-117354438D01*
X196182630Y-117589318D01*
X196275685Y-117813972D01*
X196275690Y-117813983D01*
X196397263Y-118024554D01*
X196397268Y-118024561D01*
X196466449Y-118114720D01*
X196931491Y-117649678D01*
X197023833Y-117776775D01*
X197157950Y-117910892D01*
X197285045Y-118003232D01*
X196820003Y-118468274D01*
X196820003Y-118468275D01*
X196910161Y-118537455D01*
X197120741Y-118659034D01*
X197120752Y-118659039D01*
X197345406Y-118752094D01*
X197580286Y-118815029D01*
X197821364Y-118846769D01*
X197821379Y-118846770D01*
X198064531Y-118846770D01*
X198064545Y-118846769D01*
X198305623Y-118815029D01*
X198540503Y-118752094D01*
X198765157Y-118659039D01*
X198765168Y-118659034D01*
X198975749Y-118537454D01*
X199065905Y-118468274D01*
X198600863Y-118003232D01*
X198727960Y-117910892D01*
X198862077Y-117776775D01*
X198954417Y-117649678D01*
X199419459Y-118114720D01*
X199488639Y-118024564D01*
X199610219Y-117813983D01*
X199610224Y-117813972D01*
X199703279Y-117589318D01*
X199766214Y-117354438D01*
X199797954Y-117113360D01*
X199797955Y-117113346D01*
X199797955Y-116870193D01*
X199797954Y-116870179D01*
X200921289Y-116870179D01*
X200921289Y-117113360D01*
X200953029Y-117354438D01*
X201015964Y-117589318D01*
X201109019Y-117813972D01*
X201109024Y-117813983D01*
X201230597Y-118024554D01*
X201230602Y-118024561D01*
X201299783Y-118114720D01*
X201764825Y-117649677D01*
X201857167Y-117776775D01*
X201991284Y-117910892D01*
X202118379Y-118003232D01*
X201653337Y-118468274D01*
X201653337Y-118468275D01*
X201743495Y-118537455D01*
X201954075Y-118659034D01*
X201954086Y-118659039D01*
X202178740Y-118752094D01*
X202413620Y-118815029D01*
X202654698Y-118846769D01*
X202654713Y-118846770D01*
X202897865Y-118846770D01*
X202897879Y-118846769D01*
X203138957Y-118815029D01*
X203373837Y-118752094D01*
X203598491Y-118659039D01*
X203598502Y-118659034D01*
X203809083Y-118537454D01*
X203899239Y-118468274D01*
X203434197Y-118003232D01*
X203561294Y-117910892D01*
X203695411Y-117776775D01*
X203787751Y-117649678D01*
X204252793Y-118114720D01*
X204321973Y-118024564D01*
X204443553Y-117813983D01*
X204443558Y-117813972D01*
X204536613Y-117589318D01*
X204599548Y-117354438D01*
X204631288Y-117113360D01*
X204631289Y-117113346D01*
X204631289Y-116870193D01*
X204631288Y-116870179D01*
X208221289Y-116870179D01*
X208221289Y-117113360D01*
X208253029Y-117354438D01*
X208315964Y-117589318D01*
X208409019Y-117813972D01*
X208409024Y-117813983D01*
X208530597Y-118024554D01*
X208530602Y-118024561D01*
X208599783Y-118114720D01*
X209064825Y-117649678D01*
X209157167Y-117776775D01*
X209291284Y-117910892D01*
X209418379Y-118003232D01*
X208953337Y-118468274D01*
X208953337Y-118468275D01*
X209043495Y-118537455D01*
X209254075Y-118659034D01*
X209254086Y-118659039D01*
X209478740Y-118752094D01*
X209713620Y-118815029D01*
X209954698Y-118846769D01*
X209954713Y-118846770D01*
X210197865Y-118846770D01*
X210197879Y-118846769D01*
X210438957Y-118815029D01*
X210673837Y-118752094D01*
X210898491Y-118659039D01*
X210898502Y-118659034D01*
X211109083Y-118537454D01*
X211199239Y-118468274D01*
X210734197Y-118003232D01*
X210861294Y-117910892D01*
X210995411Y-117776775D01*
X211087751Y-117649678D01*
X211552793Y-118114720D01*
X211621973Y-118024564D01*
X211743553Y-117813983D01*
X211743558Y-117813972D01*
X211836613Y-117589318D01*
X211899548Y-117354438D01*
X211931288Y-117113360D01*
X211931289Y-117113346D01*
X211931289Y-116870193D01*
X211931288Y-116870179D01*
X213054622Y-116870179D01*
X213054622Y-117113360D01*
X213086362Y-117354438D01*
X213149297Y-117589318D01*
X213242352Y-117813972D01*
X213242357Y-117813983D01*
X213363930Y-118024554D01*
X213363935Y-118024561D01*
X213433116Y-118114720D01*
X213898158Y-117649678D01*
X213990500Y-117776775D01*
X214124617Y-117910892D01*
X214251712Y-118003232D01*
X213786670Y-118468274D01*
X213786670Y-118468275D01*
X213876828Y-118537455D01*
X214087408Y-118659034D01*
X214087419Y-118659039D01*
X214312073Y-118752094D01*
X214546953Y-118815029D01*
X214788031Y-118846769D01*
X214788046Y-118846770D01*
X215031198Y-118846770D01*
X215031212Y-118846769D01*
X215272290Y-118815029D01*
X215507170Y-118752094D01*
X215731824Y-118659039D01*
X215731835Y-118659034D01*
X215942416Y-118537454D01*
X216032572Y-118468274D01*
X215567530Y-118003232D01*
X215694627Y-117910892D01*
X215828744Y-117776775D01*
X215921084Y-117649678D01*
X216386126Y-118114720D01*
X216455306Y-118024564D01*
X216576886Y-117813983D01*
X216576891Y-117813972D01*
X216669946Y-117589318D01*
X216732881Y-117354438D01*
X216764621Y-117113360D01*
X216764622Y-117113346D01*
X216764622Y-116870193D01*
X216764621Y-116870179D01*
X220354622Y-116870179D01*
X220354622Y-117113360D01*
X220386362Y-117354438D01*
X220449297Y-117589318D01*
X220542352Y-117813972D01*
X220542357Y-117813983D01*
X220663930Y-118024554D01*
X220663935Y-118024561D01*
X220733116Y-118114720D01*
X221198158Y-117649678D01*
X221290500Y-117776775D01*
X221424617Y-117910892D01*
X221551712Y-118003232D01*
X221086670Y-118468274D01*
X221086670Y-118468275D01*
X221176828Y-118537455D01*
X221387408Y-118659034D01*
X221387419Y-118659039D01*
X221612073Y-118752094D01*
X221846953Y-118815029D01*
X222088031Y-118846769D01*
X222088046Y-118846770D01*
X222331198Y-118846770D01*
X222331212Y-118846769D01*
X222572290Y-118815029D01*
X222807170Y-118752094D01*
X223031824Y-118659039D01*
X223031835Y-118659034D01*
X223242416Y-118537454D01*
X223332572Y-118468274D01*
X222867530Y-118003232D01*
X222994627Y-117910892D01*
X223128744Y-117776775D01*
X223221084Y-117649678D01*
X223686126Y-118114720D01*
X223755306Y-118024564D01*
X223876886Y-117813983D01*
X223876891Y-117813972D01*
X223920700Y-117708209D01*
X226259500Y-117708209D01*
X226259500Y-118071790D01*
X226295137Y-118433630D01*
X226366064Y-118790212D01*
X226366067Y-118790223D01*
X226471614Y-119138165D01*
X226610754Y-119474078D01*
X226610756Y-119474083D01*
X226782140Y-119794720D01*
X226782151Y-119794738D01*
X226984140Y-120097035D01*
X226984150Y-120097049D01*
X227214807Y-120378106D01*
X227471893Y-120635192D01*
X227471898Y-120635196D01*
X227471899Y-120635197D01*
X227752956Y-120865854D01*
X228055268Y-121067853D01*
X228055277Y-121067858D01*
X228055279Y-121067859D01*
X228375916Y-121239243D01*
X228375918Y-121239243D01*
X228375924Y-121239247D01*
X228711836Y-121378386D01*
X229059767Y-121483930D01*
X229059773Y-121483931D01*
X229059776Y-121483932D01*
X229059787Y-121483935D01*
X229416369Y-121554862D01*
X229778206Y-121590500D01*
X229778209Y-121590500D01*
X230141791Y-121590500D01*
X230141794Y-121590500D01*
X230503631Y-121554862D01*
X230573045Y-121541054D01*
X230860212Y-121483935D01*
X230860223Y-121483932D01*
X230860223Y-121483931D01*
X230860233Y-121483930D01*
X231208164Y-121378386D01*
X231544076Y-121239247D01*
X231864732Y-121067853D01*
X232167044Y-120865854D01*
X232448101Y-120635197D01*
X232705197Y-120378101D01*
X232935854Y-120097044D01*
X233137853Y-119794732D01*
X233309247Y-119474076D01*
X233448386Y-119138164D01*
X233553930Y-118790233D01*
X233553932Y-118790223D01*
X233553935Y-118790212D01*
X233624862Y-118433630D01*
X233660500Y-118071790D01*
X233660500Y-117708209D01*
X233624862Y-117346369D01*
X233553935Y-116989787D01*
X233553932Y-116989776D01*
X233553931Y-116989773D01*
X233553930Y-116989767D01*
X233448386Y-116641836D01*
X233309247Y-116305924D01*
X233256245Y-116206765D01*
X233137859Y-115985279D01*
X233137858Y-115985277D01*
X233137853Y-115985268D01*
X232935854Y-115682956D01*
X232705197Y-115401899D01*
X232705196Y-115401898D01*
X232705192Y-115401893D01*
X232448106Y-115144807D01*
X232167049Y-114914150D01*
X232167048Y-114914149D01*
X232167044Y-114914146D01*
X231864732Y-114712147D01*
X231864727Y-114712144D01*
X231864720Y-114712140D01*
X231544083Y-114540756D01*
X231544078Y-114540754D01*
X231208165Y-114401614D01*
X230860223Y-114296067D01*
X230860212Y-114296064D01*
X230503630Y-114225137D01*
X230231111Y-114198296D01*
X230141794Y-114189500D01*
X229778206Y-114189500D01*
X229695679Y-114197628D01*
X229416369Y-114225137D01*
X229059787Y-114296064D01*
X229059776Y-114296067D01*
X228711834Y-114401614D01*
X228375921Y-114540754D01*
X228375916Y-114540756D01*
X228055279Y-114712140D01*
X228055261Y-114712151D01*
X227752964Y-114914140D01*
X227752950Y-114914150D01*
X227471893Y-115144807D01*
X227214807Y-115401893D01*
X226984150Y-115682950D01*
X226984140Y-115682964D01*
X226782151Y-115985261D01*
X226782140Y-115985279D01*
X226610756Y-116305916D01*
X226610754Y-116305921D01*
X226471614Y-116641834D01*
X226366067Y-116989776D01*
X226366064Y-116989787D01*
X226295137Y-117346369D01*
X226259500Y-117708209D01*
X223920700Y-117708209D01*
X223941618Y-117657709D01*
X223969946Y-117589318D01*
X224032881Y-117354438D01*
X224064621Y-117113360D01*
X224064622Y-117113346D01*
X224064622Y-116870193D01*
X224064621Y-116870179D01*
X224032881Y-116629101D01*
X223969946Y-116394221D01*
X223876891Y-116169567D01*
X223876886Y-116169556D01*
X223755307Y-115958976D01*
X223686127Y-115868818D01*
X223686126Y-115868818D01*
X223221084Y-116333860D01*
X223128744Y-116206765D01*
X222994627Y-116072648D01*
X222867530Y-115980306D01*
X223332572Y-115515264D01*
X223332572Y-115515263D01*
X223242413Y-115446083D01*
X223242406Y-115446078D01*
X223031835Y-115324505D01*
X223031824Y-115324500D01*
X222807170Y-115231445D01*
X222572290Y-115168510D01*
X222331212Y-115136770D01*
X222088031Y-115136770D01*
X221846953Y-115168510D01*
X221612073Y-115231445D01*
X221387419Y-115324500D01*
X221387408Y-115324505D01*
X221176835Y-115446080D01*
X221176822Y-115446089D01*
X221086670Y-115515263D01*
X221086670Y-115515264D01*
X221551713Y-115980307D01*
X221424617Y-116072648D01*
X221290500Y-116206765D01*
X221198159Y-116333861D01*
X220733116Y-115868818D01*
X220733115Y-115868818D01*
X220663941Y-115958970D01*
X220663932Y-115958983D01*
X220542357Y-116169556D01*
X220542352Y-116169567D01*
X220449297Y-116394221D01*
X220386362Y-116629101D01*
X220354622Y-116870179D01*
X216764621Y-116870179D01*
X216732881Y-116629101D01*
X216669946Y-116394221D01*
X216576891Y-116169567D01*
X216576886Y-116169556D01*
X216455307Y-115958976D01*
X216386127Y-115868818D01*
X216386126Y-115868818D01*
X215921084Y-116333860D01*
X215828744Y-116206765D01*
X215694627Y-116072648D01*
X215567530Y-115980306D01*
X216032572Y-115515264D01*
X216032572Y-115515263D01*
X215942413Y-115446083D01*
X215942406Y-115446078D01*
X215731835Y-115324505D01*
X215731824Y-115324500D01*
X215507170Y-115231445D01*
X215272290Y-115168510D01*
X215031212Y-115136770D01*
X214788031Y-115136770D01*
X214546953Y-115168510D01*
X214312073Y-115231445D01*
X214087419Y-115324500D01*
X214087408Y-115324505D01*
X213876835Y-115446080D01*
X213876822Y-115446089D01*
X213786670Y-115515263D01*
X213786670Y-115515264D01*
X214251713Y-115980307D01*
X214124617Y-116072648D01*
X213990500Y-116206765D01*
X213898159Y-116333860D01*
X213433116Y-115868818D01*
X213433115Y-115868818D01*
X213363941Y-115958970D01*
X213363932Y-115958983D01*
X213242357Y-116169556D01*
X213242352Y-116169567D01*
X213149297Y-116394221D01*
X213086362Y-116629101D01*
X213054622Y-116870179D01*
X211931288Y-116870179D01*
X211899548Y-116629101D01*
X211836613Y-116394221D01*
X211743558Y-116169567D01*
X211743553Y-116169556D01*
X211621974Y-115958976D01*
X211552794Y-115868818D01*
X211552793Y-115868818D01*
X211087751Y-116333860D01*
X210995411Y-116206765D01*
X210861294Y-116072648D01*
X210734197Y-115980306D01*
X211199239Y-115515264D01*
X211199239Y-115515263D01*
X211109080Y-115446083D01*
X211109073Y-115446078D01*
X210898502Y-115324505D01*
X210898491Y-115324500D01*
X210673837Y-115231445D01*
X210438957Y-115168510D01*
X210197879Y-115136770D01*
X209954698Y-115136770D01*
X209713620Y-115168510D01*
X209478740Y-115231445D01*
X209254086Y-115324500D01*
X209254075Y-115324505D01*
X209043502Y-115446080D01*
X209043489Y-115446089D01*
X208953337Y-115515263D01*
X208953337Y-115515264D01*
X209418380Y-115980307D01*
X209291284Y-116072648D01*
X209157167Y-116206765D01*
X209064826Y-116333861D01*
X208599783Y-115868818D01*
X208599782Y-115868818D01*
X208530608Y-115958970D01*
X208530599Y-115958983D01*
X208409024Y-116169556D01*
X208409019Y-116169567D01*
X208315964Y-116394221D01*
X208253029Y-116629101D01*
X208221289Y-116870179D01*
X204631288Y-116870179D01*
X204599548Y-116629101D01*
X204536613Y-116394221D01*
X204443558Y-116169567D01*
X204443553Y-116169556D01*
X204321974Y-115958976D01*
X204252794Y-115868818D01*
X204252793Y-115868818D01*
X203787751Y-116333860D01*
X203695411Y-116206765D01*
X203561294Y-116072648D01*
X203434197Y-115980306D01*
X203899239Y-115515264D01*
X203899239Y-115515263D01*
X203809080Y-115446083D01*
X203809073Y-115446078D01*
X203598502Y-115324505D01*
X203598491Y-115324500D01*
X203373837Y-115231445D01*
X203138957Y-115168510D01*
X202897879Y-115136770D01*
X202654698Y-115136770D01*
X202413620Y-115168510D01*
X202178740Y-115231445D01*
X201954086Y-115324500D01*
X201954075Y-115324505D01*
X201743502Y-115446080D01*
X201743489Y-115446089D01*
X201653337Y-115515263D01*
X201653337Y-115515264D01*
X202118380Y-115980307D01*
X201991284Y-116072648D01*
X201857167Y-116206765D01*
X201764826Y-116333861D01*
X201299783Y-115868818D01*
X201299782Y-115868818D01*
X201230608Y-115958970D01*
X201230599Y-115958983D01*
X201109024Y-116169556D01*
X201109019Y-116169567D01*
X201015964Y-116394221D01*
X200953029Y-116629101D01*
X200921289Y-116870179D01*
X199797954Y-116870179D01*
X199766214Y-116629101D01*
X199703279Y-116394221D01*
X199610224Y-116169567D01*
X199610219Y-116169556D01*
X199488640Y-115958976D01*
X199419460Y-115868818D01*
X199419459Y-115868818D01*
X198954417Y-116333860D01*
X198862077Y-116206765D01*
X198727960Y-116072648D01*
X198600863Y-115980306D01*
X199065905Y-115515264D01*
X199065905Y-115515263D01*
X198975746Y-115446083D01*
X198975739Y-115446078D01*
X198765168Y-115324505D01*
X198765157Y-115324500D01*
X198540503Y-115231445D01*
X198305623Y-115168510D01*
X198064545Y-115136770D01*
X197821364Y-115136770D01*
X197580286Y-115168510D01*
X197345406Y-115231445D01*
X197120752Y-115324500D01*
X197120741Y-115324505D01*
X196910168Y-115446080D01*
X196910155Y-115446089D01*
X196820003Y-115515263D01*
X196820003Y-115515264D01*
X197285046Y-115980307D01*
X197157950Y-116072648D01*
X197023833Y-116206765D01*
X196931492Y-116333861D01*
X196466449Y-115868818D01*
X196466448Y-115868818D01*
X196397274Y-115958970D01*
X196397265Y-115958983D01*
X196275690Y-116169556D01*
X196275685Y-116169567D01*
X196182630Y-116394221D01*
X196119695Y-116629101D01*
X196087955Y-116870179D01*
X192497954Y-116870179D01*
X192466214Y-116629101D01*
X192403279Y-116394221D01*
X192310224Y-116169567D01*
X192310219Y-116169556D01*
X192188640Y-115958976D01*
X192119460Y-115868818D01*
X192119459Y-115868818D01*
X191654417Y-116333860D01*
X191562077Y-116206765D01*
X191427960Y-116072648D01*
X191300863Y-115980306D01*
X191765905Y-115515264D01*
X191765905Y-115515263D01*
X191675746Y-115446083D01*
X191675739Y-115446078D01*
X191465168Y-115324505D01*
X191465157Y-115324500D01*
X191240503Y-115231445D01*
X191005623Y-115168510D01*
X190764545Y-115136770D01*
X190521364Y-115136770D01*
X190280286Y-115168510D01*
X190045406Y-115231445D01*
X189820752Y-115324500D01*
X189820741Y-115324505D01*
X189610168Y-115446080D01*
X189610155Y-115446089D01*
X189520003Y-115515263D01*
X189520003Y-115515264D01*
X189985046Y-115980307D01*
X189857950Y-116072648D01*
X189723833Y-116206765D01*
X189631492Y-116333860D01*
X189166449Y-115868818D01*
X189166448Y-115868818D01*
X189097274Y-115958970D01*
X189097265Y-115958983D01*
X188975690Y-116169556D01*
X188975685Y-116169567D01*
X188882630Y-116394221D01*
X188819695Y-116629101D01*
X188787955Y-116870179D01*
X187664621Y-116870179D01*
X187632881Y-116629101D01*
X187569946Y-116394221D01*
X187476891Y-116169567D01*
X187476886Y-116169556D01*
X187355307Y-115958976D01*
X187286127Y-115868818D01*
X187286126Y-115868818D01*
X186821084Y-116333860D01*
X186728744Y-116206765D01*
X186594627Y-116072648D01*
X186467530Y-115980306D01*
X186932572Y-115515264D01*
X186932572Y-115515263D01*
X186842413Y-115446083D01*
X186842406Y-115446078D01*
X186631835Y-115324505D01*
X186631824Y-115324500D01*
X186407170Y-115231445D01*
X186172290Y-115168510D01*
X185931212Y-115136770D01*
X185688031Y-115136770D01*
X185446953Y-115168510D01*
X185212073Y-115231445D01*
X184987419Y-115324500D01*
X184987408Y-115324505D01*
X184776835Y-115446080D01*
X184776822Y-115446089D01*
X184686670Y-115515263D01*
X184686670Y-115515264D01*
X185151713Y-115980307D01*
X185024617Y-116072648D01*
X184890500Y-116206765D01*
X184798159Y-116333861D01*
X184333116Y-115868818D01*
X184333115Y-115868818D01*
X184263941Y-115958970D01*
X184263932Y-115958983D01*
X184142357Y-116169556D01*
X184142352Y-116169567D01*
X184049297Y-116394221D01*
X183986362Y-116629101D01*
X183954622Y-116870179D01*
X180364621Y-116870179D01*
X180332881Y-116629101D01*
X180269946Y-116394221D01*
X180176891Y-116169567D01*
X180176886Y-116169556D01*
X180055307Y-115958976D01*
X179986127Y-115868818D01*
X179986126Y-115868818D01*
X179521084Y-116333860D01*
X179428744Y-116206765D01*
X179294627Y-116072648D01*
X179167530Y-115980306D01*
X179632572Y-115515264D01*
X179632572Y-115515263D01*
X179542413Y-115446083D01*
X179542406Y-115446078D01*
X179331835Y-115324505D01*
X179331824Y-115324500D01*
X179107170Y-115231445D01*
X178872290Y-115168510D01*
X178631212Y-115136770D01*
X178388031Y-115136770D01*
X178146953Y-115168510D01*
X177912073Y-115231445D01*
X177687419Y-115324500D01*
X177687408Y-115324505D01*
X177476835Y-115446080D01*
X177476822Y-115446089D01*
X177386670Y-115515263D01*
X177386670Y-115515264D01*
X177851713Y-115980307D01*
X177724617Y-116072648D01*
X177590500Y-116206765D01*
X177498159Y-116333861D01*
X177033116Y-115868818D01*
X177033115Y-115868818D01*
X176963941Y-115958970D01*
X176963932Y-115958983D01*
X176842357Y-116169556D01*
X176842352Y-116169567D01*
X176749297Y-116394221D01*
X176686362Y-116629101D01*
X176654622Y-116870179D01*
X173517653Y-116870179D01*
X173448386Y-116641836D01*
X173309247Y-116305924D01*
X173256245Y-116206765D01*
X173137859Y-115985279D01*
X173137858Y-115985277D01*
X173137853Y-115985268D01*
X172935854Y-115682956D01*
X172705197Y-115401899D01*
X172705196Y-115401898D01*
X172705192Y-115401893D01*
X172448106Y-115144807D01*
X172167049Y-114914150D01*
X172167048Y-114914149D01*
X172167044Y-114914146D01*
X171864732Y-114712147D01*
X171864727Y-114712144D01*
X171864720Y-114712140D01*
X171544083Y-114540756D01*
X171544078Y-114540754D01*
X171208165Y-114401614D01*
X170860223Y-114296067D01*
X170860212Y-114296064D01*
X170503630Y-114225137D01*
X170231111Y-114198296D01*
X170141794Y-114189500D01*
X169778206Y-114189500D01*
X169695679Y-114197628D01*
X169416369Y-114225137D01*
X169059787Y-114296064D01*
X169059776Y-114296067D01*
X168711834Y-114401614D01*
X168375921Y-114540754D01*
X168375916Y-114540756D01*
X168055279Y-114712140D01*
X168055261Y-114712151D01*
X167752964Y-114914140D01*
X167752950Y-114914150D01*
X167471893Y-115144807D01*
X167214807Y-115401893D01*
X166984150Y-115682950D01*
X166984140Y-115682964D01*
X166782151Y-115985261D01*
X166782140Y-115985279D01*
X166610756Y-116305916D01*
X166610754Y-116305921D01*
X166471614Y-116641834D01*
X166366067Y-116989776D01*
X166366064Y-116989787D01*
X166295137Y-117346369D01*
X166259500Y-117708209D01*
X165035500Y-117708209D01*
X165035500Y-102468543D01*
X168609499Y-102468543D01*
X168647947Y-102661829D01*
X168647950Y-102661839D01*
X168723365Y-102843907D01*
X168723368Y-102843914D01*
X168763885Y-102904552D01*
X168785271Y-102936559D01*
X168806148Y-103003236D01*
X168787663Y-103070616D01*
X168785271Y-103074339D01*
X168723809Y-103166325D01*
X168648430Y-103348306D01*
X168648427Y-103348318D01*
X168610000Y-103541504D01*
X168610000Y-103738495D01*
X168648427Y-103931681D01*
X168648430Y-103931693D01*
X168723807Y-104113671D01*
X168723814Y-104113684D01*
X168785270Y-104205659D01*
X168806148Y-104272337D01*
X168787663Y-104339717D01*
X168785271Y-104343440D01*
X168723370Y-104436082D01*
X168723364Y-104436093D01*
X168647950Y-104618160D01*
X168647947Y-104618170D01*
X168609500Y-104811456D01*
X168609500Y-104811459D01*
X168609500Y-105008541D01*
X168609500Y-105008543D01*
X168609499Y-105008543D01*
X168647947Y-105201829D01*
X168647950Y-105201839D01*
X168723364Y-105383907D01*
X168723371Y-105383920D01*
X168832860Y-105547781D01*
X168832863Y-105547785D01*
X168972214Y-105687136D01*
X168972218Y-105687139D01*
X169136079Y-105796628D01*
X169136092Y-105796635D01*
X169318160Y-105872049D01*
X169318165Y-105872051D01*
X169318169Y-105872051D01*
X169318170Y-105872052D01*
X169511456Y-105910500D01*
X169511459Y-105910500D01*
X169708543Y-105910500D01*
X169838582Y-105884632D01*
X169901835Y-105872051D01*
X170083914Y-105796632D01*
X170247782Y-105687139D01*
X170387139Y-105547782D01*
X170496632Y-105383914D01*
X170572051Y-105201835D01*
X170610500Y-105008541D01*
X170610500Y-104831153D01*
X172889500Y-104831153D01*
X172889500Y-104988846D01*
X172920261Y-105143489D01*
X172920264Y-105143501D01*
X172980602Y-105289172D01*
X172980609Y-105289185D01*
X173068210Y-105420288D01*
X173068213Y-105420292D01*
X173179707Y-105531786D01*
X173179711Y-105531789D01*
X173310814Y-105619390D01*
X173310827Y-105619397D01*
X173456498Y-105679735D01*
X173456503Y-105679737D01*
X173611153Y-105710499D01*
X173611156Y-105710500D01*
X173611158Y-105710500D01*
X173768844Y-105710500D01*
X173768845Y-105710499D01*
X173923497Y-105679737D01*
X174069179Y-105619394D01*
X174200289Y-105531789D01*
X174311789Y-105420289D01*
X174312395Y-105419382D01*
X177589500Y-105419382D01*
X177589500Y-105577075D01*
X177620261Y-105731718D01*
X177620264Y-105731730D01*
X177680602Y-105877401D01*
X177680609Y-105877414D01*
X177768210Y-106008517D01*
X177768213Y-106008521D01*
X177879707Y-106120015D01*
X177879711Y-106120018D01*
X178010814Y-106207619D01*
X178010827Y-106207626D01*
X178156498Y-106267964D01*
X178156503Y-106267966D01*
X178311153Y-106298728D01*
X178311156Y-106298729D01*
X178311158Y-106298729D01*
X178468844Y-106298729D01*
X178468845Y-106298728D01*
X178623497Y-106267966D01*
X178769179Y-106207623D01*
X178900289Y-106120018D01*
X179011789Y-106008518D01*
X179099394Y-105877408D01*
X179159737Y-105731726D01*
X179190500Y-105577071D01*
X179190500Y-105419387D01*
X179190500Y-105419384D01*
X179190499Y-105419382D01*
X184979500Y-105419382D01*
X184979500Y-105577075D01*
X185010261Y-105731718D01*
X185010264Y-105731730D01*
X185070602Y-105877401D01*
X185070609Y-105877414D01*
X185158210Y-106008517D01*
X185158213Y-106008521D01*
X185269707Y-106120015D01*
X185269711Y-106120018D01*
X185400814Y-106207619D01*
X185400827Y-106207626D01*
X185546498Y-106267964D01*
X185546503Y-106267966D01*
X185701153Y-106298728D01*
X185701156Y-106298729D01*
X185701158Y-106298729D01*
X185858844Y-106298729D01*
X185858845Y-106298728D01*
X186013497Y-106267966D01*
X186159179Y-106207623D01*
X186290289Y-106120018D01*
X186401789Y-106008518D01*
X186489394Y-105877408D01*
X186549737Y-105731726D01*
X186580500Y-105577071D01*
X186580500Y-105419387D01*
X186580500Y-105419384D01*
X186580499Y-105419382D01*
X189789500Y-105419382D01*
X189789500Y-105577075D01*
X189820261Y-105731718D01*
X189820264Y-105731730D01*
X189880602Y-105877401D01*
X189880609Y-105877414D01*
X189968210Y-106008517D01*
X189968213Y-106008521D01*
X190079707Y-106120015D01*
X190079711Y-106120018D01*
X190210814Y-106207619D01*
X190210827Y-106207626D01*
X190356498Y-106267964D01*
X190356503Y-106267966D01*
X190511153Y-106298728D01*
X190511156Y-106298729D01*
X190511158Y-106298729D01*
X190668844Y-106298729D01*
X190668845Y-106298728D01*
X190823497Y-106267966D01*
X190969179Y-106207623D01*
X191100289Y-106120018D01*
X191211789Y-106008518D01*
X191299394Y-105877408D01*
X191359737Y-105731726D01*
X191390500Y-105577071D01*
X191390500Y-105419387D01*
X191390500Y-105419384D01*
X191390499Y-105419382D01*
X197209500Y-105419382D01*
X197209500Y-105577075D01*
X197240261Y-105731718D01*
X197240264Y-105731730D01*
X197300602Y-105877401D01*
X197300609Y-105877414D01*
X197388210Y-106008517D01*
X197388213Y-106008521D01*
X197499707Y-106120015D01*
X197499711Y-106120018D01*
X197630814Y-106207619D01*
X197630827Y-106207626D01*
X197776498Y-106267964D01*
X197776503Y-106267966D01*
X197931153Y-106298728D01*
X197931156Y-106298729D01*
X197931158Y-106298729D01*
X198088844Y-106298729D01*
X198088845Y-106298728D01*
X198243497Y-106267966D01*
X198389179Y-106207623D01*
X198520289Y-106120018D01*
X198631789Y-106008518D01*
X198719394Y-105877408D01*
X198779737Y-105731726D01*
X198810500Y-105577071D01*
X198810500Y-105419387D01*
X198810500Y-105419384D01*
X198810499Y-105419382D01*
X201919500Y-105419382D01*
X201919500Y-105577075D01*
X201950261Y-105731718D01*
X201950264Y-105731730D01*
X202010602Y-105877401D01*
X202010609Y-105877414D01*
X202098210Y-106008517D01*
X202098213Y-106008521D01*
X202209707Y-106120015D01*
X202209711Y-106120018D01*
X202340814Y-106207619D01*
X202340827Y-106207626D01*
X202486498Y-106267964D01*
X202486503Y-106267966D01*
X202641153Y-106298728D01*
X202641156Y-106298729D01*
X202641158Y-106298729D01*
X202798844Y-106298729D01*
X202798845Y-106298728D01*
X202953497Y-106267966D01*
X203099179Y-106207623D01*
X203230289Y-106120018D01*
X203341789Y-106008518D01*
X203429394Y-105877408D01*
X203489737Y-105731726D01*
X203520500Y-105577071D01*
X203520500Y-105419387D01*
X203520500Y-105419384D01*
X203520499Y-105419382D01*
X209329500Y-105419382D01*
X209329500Y-105577075D01*
X209360261Y-105731718D01*
X209360264Y-105731730D01*
X209420602Y-105877401D01*
X209420609Y-105877414D01*
X209508210Y-106008517D01*
X209508213Y-106008521D01*
X209619707Y-106120015D01*
X209619711Y-106120018D01*
X209750814Y-106207619D01*
X209750827Y-106207626D01*
X209896498Y-106267964D01*
X209896503Y-106267966D01*
X210051153Y-106298728D01*
X210051156Y-106298729D01*
X210051158Y-106298729D01*
X210208844Y-106298729D01*
X210208845Y-106298728D01*
X210363497Y-106267966D01*
X210509179Y-106207623D01*
X210640289Y-106120018D01*
X210751789Y-106008518D01*
X210839394Y-105877408D01*
X210899737Y-105731726D01*
X210930500Y-105577071D01*
X210930500Y-105419387D01*
X210930500Y-105419384D01*
X210930499Y-105419382D01*
X213829500Y-105419382D01*
X213829500Y-105577075D01*
X213860261Y-105731718D01*
X213860264Y-105731730D01*
X213920602Y-105877401D01*
X213920609Y-105877414D01*
X214008210Y-106008517D01*
X214008213Y-106008521D01*
X214119707Y-106120015D01*
X214119711Y-106120018D01*
X214250814Y-106207619D01*
X214250827Y-106207626D01*
X214396498Y-106267964D01*
X214396503Y-106267966D01*
X214551153Y-106298728D01*
X214551156Y-106298729D01*
X214551158Y-106298729D01*
X214708844Y-106298729D01*
X214708845Y-106298728D01*
X214863497Y-106267966D01*
X215009179Y-106207623D01*
X215140289Y-106120018D01*
X215251789Y-106008518D01*
X215339394Y-105877408D01*
X215399737Y-105731726D01*
X215430500Y-105577071D01*
X215430500Y-105419387D01*
X215430500Y-105419384D01*
X215430499Y-105419382D01*
X221249500Y-105419382D01*
X221249500Y-105577075D01*
X221280261Y-105731718D01*
X221280264Y-105731730D01*
X221340602Y-105877401D01*
X221340609Y-105877414D01*
X221428210Y-106008517D01*
X221428213Y-106008521D01*
X221539707Y-106120015D01*
X221539711Y-106120018D01*
X221670814Y-106207619D01*
X221670827Y-106207626D01*
X221816498Y-106267964D01*
X221816503Y-106267966D01*
X221971153Y-106298728D01*
X221971156Y-106298729D01*
X221971158Y-106298729D01*
X222128844Y-106298729D01*
X222128845Y-106298728D01*
X222283497Y-106267966D01*
X222429179Y-106207623D01*
X222560289Y-106120018D01*
X222671789Y-106008518D01*
X222759394Y-105877408D01*
X222819737Y-105731726D01*
X222850500Y-105577071D01*
X222850500Y-105419387D01*
X222850500Y-105419384D01*
X222850499Y-105419382D01*
X222843444Y-105383914D01*
X222819737Y-105264732D01*
X222793686Y-105201839D01*
X222759397Y-105119056D01*
X222759390Y-105119043D01*
X222671789Y-104987940D01*
X222671786Y-104987936D01*
X222560292Y-104876442D01*
X222560288Y-104876439D01*
X222429185Y-104788838D01*
X222429172Y-104788831D01*
X222283501Y-104728493D01*
X222283489Y-104728490D01*
X222128845Y-104697729D01*
X222128842Y-104697729D01*
X221971158Y-104697729D01*
X221971155Y-104697729D01*
X221816510Y-104728490D01*
X221816498Y-104728493D01*
X221670827Y-104788831D01*
X221670814Y-104788838D01*
X221539711Y-104876439D01*
X221539707Y-104876442D01*
X221428213Y-104987936D01*
X221428210Y-104987940D01*
X221340609Y-105119043D01*
X221340602Y-105119056D01*
X221280264Y-105264727D01*
X221280261Y-105264739D01*
X221249500Y-105419382D01*
X215430499Y-105419382D01*
X215423444Y-105383914D01*
X215399737Y-105264732D01*
X215373686Y-105201839D01*
X215339397Y-105119056D01*
X215339390Y-105119043D01*
X215251789Y-104987940D01*
X215251786Y-104987936D01*
X215140292Y-104876442D01*
X215140288Y-104876439D01*
X215009185Y-104788838D01*
X215009172Y-104788831D01*
X214863501Y-104728493D01*
X214863489Y-104728490D01*
X214708845Y-104697729D01*
X214708842Y-104697729D01*
X214551158Y-104697729D01*
X214551155Y-104697729D01*
X214396510Y-104728490D01*
X214396498Y-104728493D01*
X214250827Y-104788831D01*
X214250814Y-104788838D01*
X214119711Y-104876439D01*
X214119707Y-104876442D01*
X214008213Y-104987936D01*
X214008210Y-104987940D01*
X213920609Y-105119043D01*
X213920602Y-105119056D01*
X213860264Y-105264727D01*
X213860261Y-105264739D01*
X213829500Y-105419382D01*
X210930499Y-105419382D01*
X210923444Y-105383914D01*
X210899737Y-105264732D01*
X210873686Y-105201839D01*
X210839397Y-105119056D01*
X210839390Y-105119043D01*
X210751789Y-104987940D01*
X210751786Y-104987936D01*
X210640292Y-104876442D01*
X210640288Y-104876439D01*
X210509185Y-104788838D01*
X210509172Y-104788831D01*
X210363501Y-104728493D01*
X210363489Y-104728490D01*
X210208845Y-104697729D01*
X210208842Y-104697729D01*
X210051158Y-104697729D01*
X210051155Y-104697729D01*
X209896510Y-104728490D01*
X209896498Y-104728493D01*
X209750827Y-104788831D01*
X209750814Y-104788838D01*
X209619711Y-104876439D01*
X209619707Y-104876442D01*
X209508213Y-104987936D01*
X209508210Y-104987940D01*
X209420609Y-105119043D01*
X209420602Y-105119056D01*
X209360264Y-105264727D01*
X209360261Y-105264739D01*
X209329500Y-105419382D01*
X203520499Y-105419382D01*
X203513444Y-105383914D01*
X203489737Y-105264732D01*
X203463686Y-105201839D01*
X203429397Y-105119056D01*
X203429390Y-105119043D01*
X203341789Y-104987940D01*
X203341786Y-104987936D01*
X203230292Y-104876442D01*
X203230288Y-104876439D01*
X203099185Y-104788838D01*
X203099172Y-104788831D01*
X202953501Y-104728493D01*
X202953489Y-104728490D01*
X202798845Y-104697729D01*
X202798842Y-104697729D01*
X202641158Y-104697729D01*
X202641155Y-104697729D01*
X202486510Y-104728490D01*
X202486498Y-104728493D01*
X202340827Y-104788831D01*
X202340814Y-104788838D01*
X202209711Y-104876439D01*
X202209707Y-104876442D01*
X202098213Y-104987936D01*
X202098210Y-104987940D01*
X202010609Y-105119043D01*
X202010602Y-105119056D01*
X201950264Y-105264727D01*
X201950261Y-105264739D01*
X201919500Y-105419382D01*
X198810499Y-105419382D01*
X198803444Y-105383914D01*
X198779737Y-105264732D01*
X198753686Y-105201839D01*
X198719397Y-105119056D01*
X198719390Y-105119043D01*
X198631789Y-104987940D01*
X198631786Y-104987936D01*
X198520292Y-104876442D01*
X198520288Y-104876439D01*
X198389185Y-104788838D01*
X198389172Y-104788831D01*
X198243501Y-104728493D01*
X198243489Y-104728490D01*
X198088845Y-104697729D01*
X198088842Y-104697729D01*
X197931158Y-104697729D01*
X197931155Y-104697729D01*
X197776510Y-104728490D01*
X197776498Y-104728493D01*
X197630827Y-104788831D01*
X197630814Y-104788838D01*
X197499711Y-104876439D01*
X197499707Y-104876442D01*
X197388213Y-104987936D01*
X197388210Y-104987940D01*
X197300609Y-105119043D01*
X197300602Y-105119056D01*
X197240264Y-105264727D01*
X197240261Y-105264739D01*
X197209500Y-105419382D01*
X191390499Y-105419382D01*
X191383444Y-105383914D01*
X191359737Y-105264732D01*
X191333686Y-105201839D01*
X191299397Y-105119056D01*
X191299390Y-105119043D01*
X191211789Y-104987940D01*
X191211786Y-104987936D01*
X191100292Y-104876442D01*
X191100288Y-104876439D01*
X190969185Y-104788838D01*
X190969172Y-104788831D01*
X190823501Y-104728493D01*
X190823489Y-104728490D01*
X190668845Y-104697729D01*
X190668842Y-104697729D01*
X190511158Y-104697729D01*
X190511155Y-104697729D01*
X190356510Y-104728490D01*
X190356498Y-104728493D01*
X190210827Y-104788831D01*
X190210814Y-104788838D01*
X190079711Y-104876439D01*
X190079707Y-104876442D01*
X189968213Y-104987936D01*
X189968210Y-104987940D01*
X189880609Y-105119043D01*
X189880602Y-105119056D01*
X189820264Y-105264727D01*
X189820261Y-105264739D01*
X189789500Y-105419382D01*
X186580499Y-105419382D01*
X186573444Y-105383914D01*
X186549737Y-105264732D01*
X186523686Y-105201839D01*
X186489397Y-105119056D01*
X186489390Y-105119043D01*
X186401789Y-104987940D01*
X186401786Y-104987936D01*
X186290292Y-104876442D01*
X186290288Y-104876439D01*
X186159185Y-104788838D01*
X186159172Y-104788831D01*
X186013501Y-104728493D01*
X186013489Y-104728490D01*
X185858845Y-104697729D01*
X185858842Y-104697729D01*
X185701158Y-104697729D01*
X185701155Y-104697729D01*
X185546510Y-104728490D01*
X185546498Y-104728493D01*
X185400827Y-104788831D01*
X185400814Y-104788838D01*
X185269711Y-104876439D01*
X185269707Y-104876442D01*
X185158213Y-104987936D01*
X185158210Y-104987940D01*
X185070609Y-105119043D01*
X185070602Y-105119056D01*
X185010264Y-105264727D01*
X185010261Y-105264739D01*
X184979500Y-105419382D01*
X179190499Y-105419382D01*
X179183444Y-105383914D01*
X179159737Y-105264732D01*
X179133686Y-105201839D01*
X179099397Y-105119056D01*
X179099390Y-105119043D01*
X179011789Y-104987940D01*
X179011786Y-104987936D01*
X178900292Y-104876442D01*
X178900288Y-104876439D01*
X178769185Y-104788838D01*
X178769172Y-104788831D01*
X178623501Y-104728493D01*
X178623489Y-104728490D01*
X178468845Y-104697729D01*
X178468842Y-104697729D01*
X178311158Y-104697729D01*
X178311155Y-104697729D01*
X178156510Y-104728490D01*
X178156498Y-104728493D01*
X178010827Y-104788831D01*
X178010814Y-104788838D01*
X177879711Y-104876439D01*
X177879707Y-104876442D01*
X177768213Y-104987936D01*
X177768210Y-104987940D01*
X177680609Y-105119043D01*
X177680602Y-105119056D01*
X177620264Y-105264727D01*
X177620261Y-105264739D01*
X177589500Y-105419382D01*
X174312395Y-105419382D01*
X174399394Y-105289179D01*
X174459737Y-105143497D01*
X174490500Y-104988842D01*
X174490500Y-104831158D01*
X174490500Y-104831155D01*
X174490499Y-104831153D01*
X174482081Y-104788835D01*
X174459737Y-104676503D01*
X174435571Y-104618160D01*
X174399397Y-104530827D01*
X174399390Y-104530814D01*
X174311789Y-104399711D01*
X174311786Y-104399707D01*
X174200292Y-104288213D01*
X174200288Y-104288210D01*
X174069185Y-104200609D01*
X174069172Y-104200602D01*
X173923501Y-104140264D01*
X173923489Y-104140261D01*
X173768845Y-104109500D01*
X173768842Y-104109500D01*
X173611158Y-104109500D01*
X173611155Y-104109500D01*
X173456510Y-104140261D01*
X173456498Y-104140264D01*
X173310827Y-104200602D01*
X173310814Y-104200609D01*
X173179711Y-104288210D01*
X173179707Y-104288213D01*
X173068213Y-104399707D01*
X173068210Y-104399711D01*
X172980609Y-104530814D01*
X172980602Y-104530827D01*
X172920264Y-104676498D01*
X172920261Y-104676510D01*
X172889500Y-104831153D01*
X170610500Y-104831153D01*
X170610500Y-104811459D01*
X170610500Y-104811456D01*
X170572052Y-104618170D01*
X170572051Y-104618169D01*
X170572051Y-104618165D01*
X170535872Y-104530821D01*
X170496635Y-104436092D01*
X170496628Y-104436079D01*
X170434728Y-104343440D01*
X170413850Y-104276763D01*
X170432334Y-104209383D01*
X170434729Y-104205657D01*
X170496189Y-104113676D01*
X170496191Y-104113673D01*
X170571569Y-103931693D01*
X170571572Y-103931681D01*
X170609999Y-103738495D01*
X170610000Y-103738492D01*
X170610000Y-103541508D01*
X170609999Y-103541504D01*
X170571572Y-103348318D01*
X170571569Y-103348306D01*
X170496192Y-103166328D01*
X170496188Y-103166321D01*
X170434728Y-103074341D01*
X170413850Y-103007663D01*
X170432334Y-102940283D01*
X170434704Y-102936595D01*
X170496632Y-102843914D01*
X170572051Y-102661835D01*
X170591612Y-102563497D01*
X170610500Y-102468543D01*
X170610500Y-102271456D01*
X170610499Y-102271454D01*
X170610062Y-102269253D01*
X170610062Y-102269252D01*
X170606462Y-102251153D01*
X173479500Y-102251153D01*
X173479500Y-102408846D01*
X173510261Y-102563489D01*
X173510264Y-102563501D01*
X173570602Y-102709172D01*
X173570609Y-102709185D01*
X173658210Y-102840288D01*
X173658213Y-102840292D01*
X173769707Y-102951786D01*
X173769711Y-102951789D01*
X173900814Y-103039390D01*
X173900827Y-103039397D01*
X173985186Y-103074339D01*
X174046503Y-103099737D01*
X174201153Y-103130499D01*
X174201156Y-103130500D01*
X174201158Y-103130500D01*
X174358844Y-103130500D01*
X174358845Y-103130499D01*
X174513497Y-103099737D01*
X174659179Y-103039394D01*
X174790289Y-102951789D01*
X174901789Y-102840289D01*
X174989394Y-102709179D01*
X175049737Y-102563497D01*
X175080500Y-102408842D01*
X175080500Y-102251158D01*
X175080500Y-102251155D01*
X175080499Y-102251153D01*
X175049738Y-102096510D01*
X175049737Y-102096503D01*
X175042143Y-102078170D01*
X174989397Y-101950827D01*
X174989390Y-101950814D01*
X174901789Y-101819711D01*
X174901786Y-101819707D01*
X174790292Y-101708213D01*
X174790288Y-101708210D01*
X174659185Y-101620609D01*
X174659172Y-101620602D01*
X174513501Y-101560264D01*
X174513489Y-101560261D01*
X174358845Y-101529500D01*
X174358842Y-101529500D01*
X174201158Y-101529500D01*
X174201155Y-101529500D01*
X174046510Y-101560261D01*
X174046498Y-101560264D01*
X173900827Y-101620602D01*
X173900814Y-101620609D01*
X173769711Y-101708210D01*
X173769707Y-101708213D01*
X173658213Y-101819707D01*
X173658210Y-101819711D01*
X173570609Y-101950814D01*
X173570602Y-101950827D01*
X173510264Y-102096498D01*
X173510261Y-102096510D01*
X173479500Y-102251153D01*
X170606462Y-102251153D01*
X170572052Y-102078170D01*
X170572051Y-102078169D01*
X170572051Y-102078165D01*
X170529680Y-101975873D01*
X170522212Y-101906407D01*
X170544977Y-101854111D01*
X170553796Y-101842331D01*
X170604091Y-101707483D01*
X170610500Y-101647873D01*
X170610499Y-100552128D01*
X170604091Y-100492517D01*
X170583305Y-100436788D01*
X170553797Y-100357671D01*
X170553793Y-100357664D01*
X170467547Y-100242455D01*
X170467544Y-100242452D01*
X170352335Y-100156206D01*
X170352328Y-100156202D01*
X170217482Y-100105908D01*
X170217483Y-100105908D01*
X170157883Y-100099501D01*
X170157881Y-100099500D01*
X170157873Y-100099500D01*
X170157864Y-100099500D01*
X169062129Y-100099500D01*
X169062123Y-100099501D01*
X169002516Y-100105908D01*
X168867671Y-100156202D01*
X168867664Y-100156206D01*
X168752455Y-100242452D01*
X168752452Y-100242455D01*
X168666206Y-100357664D01*
X168666202Y-100357671D01*
X168615908Y-100492517D01*
X168609697Y-100550292D01*
X168609501Y-100552123D01*
X168609500Y-100552135D01*
X168609500Y-101647870D01*
X168609501Y-101647876D01*
X168615908Y-101707483D01*
X168666202Y-101842328D01*
X168666206Y-101842335D01*
X168675023Y-101854113D01*
X168699440Y-101919578D01*
X168690318Y-101975874D01*
X168664500Y-102038206D01*
X168647950Y-102078164D01*
X168647948Y-102078168D01*
X168647947Y-102078171D01*
X168609500Y-102271456D01*
X168609500Y-102271459D01*
X168609500Y-102468541D01*
X168609500Y-102468543D01*
X168609499Y-102468543D01*
X165035500Y-102468543D01*
X165035500Y-99961153D01*
X225029500Y-99961153D01*
X225029500Y-100118846D01*
X225060261Y-100273489D01*
X225060264Y-100273501D01*
X225120602Y-100419172D01*
X225120609Y-100419185D01*
X225208210Y-100550288D01*
X225208213Y-100550292D01*
X225319707Y-100661786D01*
X225319711Y-100661789D01*
X225450814Y-100749390D01*
X225450827Y-100749397D01*
X225575970Y-100801232D01*
X225596503Y-100809737D01*
X225751153Y-100840499D01*
X225751156Y-100840500D01*
X225751158Y-100840500D01*
X225908844Y-100840500D01*
X225908845Y-100840499D01*
X226063497Y-100809737D01*
X226209179Y-100749394D01*
X226340289Y-100661789D01*
X226451789Y-100550289D01*
X226539394Y-100419179D01*
X226599737Y-100273497D01*
X226630500Y-100118842D01*
X226630500Y-99961158D01*
X226630500Y-99961155D01*
X226630499Y-99961153D01*
X226599738Y-99806510D01*
X226599737Y-99806503D01*
X226586021Y-99773389D01*
X226539397Y-99660827D01*
X226539390Y-99660814D01*
X226451789Y-99529711D01*
X226451786Y-99529707D01*
X226340292Y-99418213D01*
X226340288Y-99418210D01*
X226209185Y-99330609D01*
X226209172Y-99330602D01*
X226063501Y-99270264D01*
X226063489Y-99270261D01*
X225908845Y-99239500D01*
X225908842Y-99239500D01*
X225751158Y-99239500D01*
X225751155Y-99239500D01*
X225596510Y-99270261D01*
X225596498Y-99270264D01*
X225450827Y-99330602D01*
X225450814Y-99330609D01*
X225319711Y-99418210D01*
X225319707Y-99418213D01*
X225208213Y-99529707D01*
X225208210Y-99529711D01*
X225120609Y-99660814D01*
X225120602Y-99660827D01*
X225060264Y-99806498D01*
X225060261Y-99806510D01*
X225029500Y-99961153D01*
X165035500Y-99961153D01*
X165035500Y-98301153D01*
X181309500Y-98301153D01*
X181309500Y-98458846D01*
X181340261Y-98613489D01*
X181340264Y-98613501D01*
X181400602Y-98759172D01*
X181400609Y-98759185D01*
X181488210Y-98890288D01*
X181488213Y-98890292D01*
X181599707Y-99001786D01*
X181599711Y-99001789D01*
X181730814Y-99089390D01*
X181730827Y-99089397D01*
X181876498Y-99149735D01*
X181876503Y-99149737D01*
X182031153Y-99180499D01*
X182031156Y-99180500D01*
X182031158Y-99180500D01*
X182188844Y-99180500D01*
X182188845Y-99180499D01*
X182343497Y-99149737D01*
X182489179Y-99089394D01*
X182620289Y-99001789D01*
X182731789Y-98890289D01*
X182819394Y-98759179D01*
X182879737Y-98613497D01*
X182910500Y-98458842D01*
X182910500Y-98301158D01*
X182910500Y-98301155D01*
X182910499Y-98301153D01*
X182883117Y-98163497D01*
X182879737Y-98146503D01*
X182879735Y-98146498D01*
X182819397Y-98000827D01*
X182819390Y-98000814D01*
X182761354Y-97913957D01*
X182731789Y-97869711D01*
X182731786Y-97869707D01*
X182713232Y-97851153D01*
X188729500Y-97851153D01*
X188729500Y-98008846D01*
X188760261Y-98163489D01*
X188760264Y-98163501D01*
X188820602Y-98309172D01*
X188820609Y-98309185D01*
X188908210Y-98440288D01*
X188908213Y-98440292D01*
X189019707Y-98551786D01*
X189019711Y-98551789D01*
X189150814Y-98639390D01*
X189150827Y-98639397D01*
X189296498Y-98699735D01*
X189296503Y-98699737D01*
X189451153Y-98730499D01*
X189451156Y-98730500D01*
X189451158Y-98730500D01*
X189608844Y-98730500D01*
X189608845Y-98730499D01*
X189763497Y-98699737D01*
X189909179Y-98639394D01*
X190040289Y-98551789D01*
X190151789Y-98440289D01*
X190239394Y-98309179D01*
X190242719Y-98301153D01*
X190299735Y-98163501D01*
X190299737Y-98163497D01*
X190330500Y-98008842D01*
X190330500Y-97851158D01*
X190330500Y-97851155D01*
X190330499Y-97851153D01*
X190312012Y-97758213D01*
X190299737Y-97696503D01*
X190299735Y-97696498D01*
X190239397Y-97550827D01*
X190239390Y-97550814D01*
X190222626Y-97525725D01*
X190178698Y-97459983D01*
X229734500Y-97459983D01*
X229734500Y-98260001D01*
X229734501Y-98260019D01*
X229745000Y-98362796D01*
X229745001Y-98362799D01*
X229800185Y-98529331D01*
X229800186Y-98529334D01*
X229892288Y-98678656D01*
X230016344Y-98802712D01*
X230080543Y-98842310D01*
X230127268Y-98894258D01*
X230138489Y-98963221D01*
X230110646Y-99027303D01*
X230103128Y-99035530D01*
X229995585Y-99143073D01*
X229893768Y-99283211D01*
X229815128Y-99437552D01*
X229761597Y-99602302D01*
X229752330Y-99660814D01*
X229734500Y-99773389D01*
X229734500Y-99946611D01*
X229761598Y-100117701D01*
X229815127Y-100282445D01*
X229893768Y-100436788D01*
X229995586Y-100576928D01*
X230118072Y-100699414D01*
X230258212Y-100801232D01*
X230412555Y-100879873D01*
X230577299Y-100933402D01*
X230748389Y-100960500D01*
X230748390Y-100960500D01*
X231471610Y-100960500D01*
X231471611Y-100960500D01*
X231642701Y-100933402D01*
X231807445Y-100879873D01*
X231961788Y-100801232D01*
X232101928Y-100699414D01*
X232224414Y-100576928D01*
X232326232Y-100436788D01*
X232404873Y-100282445D01*
X232458402Y-100117701D01*
X232485500Y-99946611D01*
X232485500Y-99773389D01*
X232458402Y-99602299D01*
X232404873Y-99437555D01*
X232326232Y-99283212D01*
X232224414Y-99143072D01*
X232116872Y-99035530D01*
X232083387Y-98974207D01*
X232088371Y-98904515D01*
X232130243Y-98848582D01*
X232139457Y-98842310D01*
X232203656Y-98802712D01*
X232327712Y-98678656D01*
X232419814Y-98529334D01*
X232474999Y-98362797D01*
X232485500Y-98260009D01*
X232485499Y-97459992D01*
X232474999Y-97357203D01*
X232419814Y-97190666D01*
X232327712Y-97041344D01*
X232203656Y-96917288D01*
X232054334Y-96825186D01*
X231887797Y-96770001D01*
X231887795Y-96770000D01*
X231785010Y-96759500D01*
X230434998Y-96759500D01*
X230434981Y-96759501D01*
X230332203Y-96770000D01*
X230332200Y-96770001D01*
X230165668Y-96825185D01*
X230165663Y-96825187D01*
X230016342Y-96917289D01*
X229892289Y-97041342D01*
X229800187Y-97190663D01*
X229800186Y-97190666D01*
X229745001Y-97357203D01*
X229745001Y-97357204D01*
X229745000Y-97357204D01*
X229734500Y-97459983D01*
X190178698Y-97459983D01*
X190151789Y-97419711D01*
X190151786Y-97419707D01*
X190040292Y-97308213D01*
X190040288Y-97308210D01*
X189909185Y-97220609D01*
X189909172Y-97220602D01*
X189763501Y-97160264D01*
X189763489Y-97160261D01*
X189608845Y-97129500D01*
X189608842Y-97129500D01*
X189451158Y-97129500D01*
X189451155Y-97129500D01*
X189296510Y-97160261D01*
X189296498Y-97160264D01*
X189150827Y-97220602D01*
X189150814Y-97220609D01*
X189019711Y-97308210D01*
X189019707Y-97308213D01*
X188908213Y-97419707D01*
X188908210Y-97419711D01*
X188820609Y-97550814D01*
X188820602Y-97550827D01*
X188760264Y-97696498D01*
X188760261Y-97696510D01*
X188729500Y-97851153D01*
X182713232Y-97851153D01*
X182620292Y-97758213D01*
X182620288Y-97758210D01*
X182489185Y-97670609D01*
X182489172Y-97670602D01*
X182343501Y-97610264D01*
X182343489Y-97610261D01*
X182188845Y-97579500D01*
X182188842Y-97579500D01*
X182031158Y-97579500D01*
X182031155Y-97579500D01*
X181876510Y-97610261D01*
X181876498Y-97610264D01*
X181730827Y-97670602D01*
X181730814Y-97670609D01*
X181599711Y-97758210D01*
X181599707Y-97758213D01*
X181488213Y-97869707D01*
X181488210Y-97869711D01*
X181400609Y-98000814D01*
X181400602Y-98000827D01*
X181340264Y-98146498D01*
X181340261Y-98146510D01*
X181309500Y-98301153D01*
X165035500Y-98301153D01*
X165035500Y-96151153D01*
X183459500Y-96151153D01*
X183459500Y-96308846D01*
X183490261Y-96463489D01*
X183490264Y-96463501D01*
X183550602Y-96609172D01*
X183550609Y-96609185D01*
X183638210Y-96740288D01*
X183638213Y-96740292D01*
X183749707Y-96851786D01*
X183749711Y-96851789D01*
X183880814Y-96939390D01*
X183880827Y-96939397D01*
X184026498Y-96999735D01*
X184026503Y-96999737D01*
X184181153Y-97030499D01*
X184181156Y-97030500D01*
X184181158Y-97030500D01*
X184338844Y-97030500D01*
X184338845Y-97030499D01*
X184493497Y-96999737D01*
X184639179Y-96939394D01*
X184770289Y-96851789D01*
X184881789Y-96740289D01*
X184969394Y-96609179D01*
X185029737Y-96463497D01*
X185060500Y-96308842D01*
X185060500Y-96151158D01*
X185060500Y-96151155D01*
X185060499Y-96151153D01*
X185029738Y-95996510D01*
X185029737Y-95996503D01*
X185029735Y-95996498D01*
X184969397Y-95850827D01*
X184969390Y-95850814D01*
X184881789Y-95719711D01*
X184881786Y-95719707D01*
X184770292Y-95608213D01*
X184770288Y-95608210D01*
X184639185Y-95520609D01*
X184639172Y-95520602D01*
X184493501Y-95460264D01*
X184493489Y-95460261D01*
X184338845Y-95429500D01*
X184338842Y-95429500D01*
X184181158Y-95429500D01*
X184181155Y-95429500D01*
X184026510Y-95460261D01*
X184026498Y-95460264D01*
X183880827Y-95520602D01*
X183880814Y-95520609D01*
X183749711Y-95608210D01*
X183749707Y-95608213D01*
X183638213Y-95719707D01*
X183638210Y-95719711D01*
X183550609Y-95850814D01*
X183550602Y-95850827D01*
X183490264Y-95996498D01*
X183490261Y-95996510D01*
X183459500Y-96151153D01*
X165035500Y-96151153D01*
X165035500Y-94711153D01*
X180709500Y-94711153D01*
X180709500Y-94868846D01*
X180740261Y-95023489D01*
X180740264Y-95023501D01*
X180800602Y-95169172D01*
X180800609Y-95169185D01*
X180888210Y-95300288D01*
X180888213Y-95300292D01*
X180999707Y-95411786D01*
X180999711Y-95411789D01*
X181130814Y-95499390D01*
X181130827Y-95499397D01*
X181276498Y-95559735D01*
X181276503Y-95559737D01*
X181431153Y-95590499D01*
X181431156Y-95590500D01*
X181431158Y-95590500D01*
X181588844Y-95590500D01*
X181588845Y-95590499D01*
X181743497Y-95559737D01*
X181889179Y-95499394D01*
X182020289Y-95411789D01*
X182131789Y-95300289D01*
X182219394Y-95169179D01*
X182279737Y-95023497D01*
X182310500Y-94868842D01*
X182310500Y-94711158D01*
X182310500Y-94711155D01*
X182310499Y-94711153D01*
X182279738Y-94556510D01*
X182279737Y-94556503D01*
X182279735Y-94556498D01*
X182219397Y-94410827D01*
X182219390Y-94410814D01*
X182131789Y-94279711D01*
X182131786Y-94279707D01*
X182020292Y-94168213D01*
X182020288Y-94168210D01*
X181889185Y-94080609D01*
X181889172Y-94080602D01*
X181743501Y-94020264D01*
X181743489Y-94020261D01*
X181588845Y-93989500D01*
X181588842Y-93989500D01*
X181431158Y-93989500D01*
X181431155Y-93989500D01*
X181276510Y-94020261D01*
X181276498Y-94020264D01*
X181130827Y-94080602D01*
X181130814Y-94080609D01*
X180999711Y-94168210D01*
X180999707Y-94168213D01*
X180888213Y-94279707D01*
X180888210Y-94279711D01*
X180800609Y-94410814D01*
X180800602Y-94410827D01*
X180740264Y-94556498D01*
X180740261Y-94556510D01*
X180709500Y-94711153D01*
X165035500Y-94711153D01*
X165035500Y-91091153D01*
X172259500Y-91091153D01*
X172259500Y-91248846D01*
X172290261Y-91403489D01*
X172290264Y-91403501D01*
X172350602Y-91549172D01*
X172350609Y-91549185D01*
X172438210Y-91680288D01*
X172438213Y-91680292D01*
X172549707Y-91791786D01*
X172549711Y-91791789D01*
X172680814Y-91879390D01*
X172680827Y-91879397D01*
X172808546Y-91932299D01*
X172826503Y-91939737D01*
X172981153Y-91970499D01*
X172981156Y-91970500D01*
X172981158Y-91970500D01*
X173138844Y-91970500D01*
X173138845Y-91970499D01*
X173293497Y-91939737D01*
X173439179Y-91879394D01*
X173570289Y-91791789D01*
X173630925Y-91731153D01*
X193799500Y-91731153D01*
X193799500Y-91888846D01*
X193830261Y-92043489D01*
X193830264Y-92043501D01*
X193890602Y-92189172D01*
X193890609Y-92189185D01*
X193978210Y-92320288D01*
X193978213Y-92320292D01*
X194089707Y-92431786D01*
X194089711Y-92431789D01*
X194220814Y-92519390D01*
X194220827Y-92519397D01*
X194366498Y-92579735D01*
X194366503Y-92579737D01*
X194521153Y-92610499D01*
X194521156Y-92610500D01*
X194521158Y-92610500D01*
X194678844Y-92610500D01*
X194678845Y-92610499D01*
X194833497Y-92579737D01*
X194969264Y-92523501D01*
X194979172Y-92519397D01*
X194979172Y-92519396D01*
X194979179Y-92519394D01*
X195110289Y-92431789D01*
X195221789Y-92320289D01*
X195294711Y-92211153D01*
X225089500Y-92211153D01*
X225089500Y-92368846D01*
X225120261Y-92523489D01*
X225120264Y-92523501D01*
X225180602Y-92669172D01*
X225180609Y-92669185D01*
X225268210Y-92800288D01*
X225268213Y-92800292D01*
X225379707Y-92911786D01*
X225379711Y-92911789D01*
X225510814Y-92999390D01*
X225510827Y-92999397D01*
X225583296Y-93029414D01*
X225656503Y-93059737D01*
X225811153Y-93090499D01*
X225811156Y-93090500D01*
X225811158Y-93090500D01*
X225968844Y-93090500D01*
X225968845Y-93090499D01*
X226123497Y-93059737D01*
X226269179Y-92999394D01*
X226400289Y-92911789D01*
X226511789Y-92800289D01*
X226599394Y-92669179D01*
X226659737Y-92523497D01*
X226690500Y-92368842D01*
X226690500Y-92211158D01*
X226690500Y-92211155D01*
X226690499Y-92211153D01*
X226659738Y-92056510D01*
X226659737Y-92056503D01*
X226659735Y-92056498D01*
X226599397Y-91910827D01*
X226599390Y-91910814D01*
X226511789Y-91779711D01*
X226511786Y-91779707D01*
X226400292Y-91668213D01*
X226400288Y-91668210D01*
X226269185Y-91580609D01*
X226269172Y-91580602D01*
X226123501Y-91520264D01*
X226123489Y-91520261D01*
X225968845Y-91489500D01*
X225968842Y-91489500D01*
X225811158Y-91489500D01*
X225811155Y-91489500D01*
X225656510Y-91520261D01*
X225656498Y-91520264D01*
X225510827Y-91580602D01*
X225510814Y-91580609D01*
X225379711Y-91668210D01*
X225379707Y-91668213D01*
X225268213Y-91779707D01*
X225268210Y-91779711D01*
X225180609Y-91910814D01*
X225180602Y-91910827D01*
X225120264Y-92056498D01*
X225120261Y-92056510D01*
X225089500Y-92211153D01*
X195294711Y-92211153D01*
X195309394Y-92189179D01*
X195369737Y-92043497D01*
X195400500Y-91888842D01*
X195400500Y-91731158D01*
X195400500Y-91731155D01*
X195400499Y-91731153D01*
X195392193Y-91689397D01*
X195369737Y-91576503D01*
X195334028Y-91490292D01*
X195309397Y-91430827D01*
X195309390Y-91430814D01*
X195221789Y-91299711D01*
X195221786Y-91299707D01*
X195110292Y-91188213D01*
X195110288Y-91188210D01*
X194979185Y-91100609D01*
X194979172Y-91100602D01*
X194833501Y-91040264D01*
X194833489Y-91040261D01*
X194714956Y-91016683D01*
X194714955Y-91016683D01*
X194678844Y-91009500D01*
X194678842Y-91009500D01*
X194521158Y-91009500D01*
X194521155Y-91009500D01*
X194366510Y-91040261D01*
X194366498Y-91040264D01*
X194220827Y-91100602D01*
X194220814Y-91100609D01*
X194089711Y-91188210D01*
X194089707Y-91188213D01*
X193978213Y-91299707D01*
X193978210Y-91299711D01*
X193890609Y-91430814D01*
X193890602Y-91430827D01*
X193830264Y-91576498D01*
X193830261Y-91576510D01*
X193799500Y-91731153D01*
X173630925Y-91731153D01*
X173681789Y-91680289D01*
X173690833Y-91666752D01*
X173697902Y-91656175D01*
X173769390Y-91549185D01*
X173769390Y-91549184D01*
X173769394Y-91549179D01*
X173829737Y-91403497D01*
X173860500Y-91248842D01*
X173860500Y-91091158D01*
X173860500Y-91091155D01*
X173860499Y-91091153D01*
X173844089Y-91008656D01*
X173829737Y-90936503D01*
X173815097Y-90901158D01*
X173769397Y-90790827D01*
X173769390Y-90790814D01*
X173684601Y-90663920D01*
X179969499Y-90663920D01*
X179998340Y-90808907D01*
X179998343Y-90808917D01*
X180054912Y-90945488D01*
X180054919Y-90945501D01*
X180137048Y-91068415D01*
X180137051Y-91068419D01*
X180241580Y-91172948D01*
X180241584Y-91172951D01*
X180364498Y-91255080D01*
X180364511Y-91255087D01*
X180501082Y-91311656D01*
X180501087Y-91311658D01*
X180501091Y-91311658D01*
X180501092Y-91311659D01*
X180646079Y-91340500D01*
X180646082Y-91340500D01*
X180793920Y-91340500D01*
X180891462Y-91321096D01*
X180938913Y-91311658D01*
X181075495Y-91255084D01*
X181198416Y-91172951D01*
X181302951Y-91068416D01*
X181385084Y-90945495D01*
X181403451Y-90901153D01*
X199479500Y-90901153D01*
X199479500Y-91058846D01*
X199510261Y-91213489D01*
X199510264Y-91213501D01*
X199570602Y-91359172D01*
X199570609Y-91359185D01*
X199658210Y-91490288D01*
X199658213Y-91490292D01*
X199769707Y-91601786D01*
X199769711Y-91601789D01*
X199900814Y-91689390D01*
X199900827Y-91689397D01*
X200046498Y-91749735D01*
X200046503Y-91749737D01*
X200201153Y-91780499D01*
X200201156Y-91780500D01*
X200201158Y-91780500D01*
X200358844Y-91780500D01*
X200358845Y-91780499D01*
X200513497Y-91749737D01*
X200659179Y-91689394D01*
X200790289Y-91601789D01*
X200901789Y-91490289D01*
X200989394Y-91359179D01*
X201049737Y-91213497D01*
X201080500Y-91058842D01*
X201080500Y-90901158D01*
X201080500Y-90901155D01*
X201080499Y-90901153D01*
X201062150Y-90808907D01*
X201049737Y-90746503D01*
X201027492Y-90692799D01*
X200989397Y-90600827D01*
X200989390Y-90600814D01*
X200901789Y-90469711D01*
X200901786Y-90469707D01*
X200790292Y-90358213D01*
X200790288Y-90358210D01*
X200659185Y-90270609D01*
X200659172Y-90270602D01*
X200513501Y-90210264D01*
X200513489Y-90210261D01*
X200358845Y-90179500D01*
X200358842Y-90179500D01*
X200201158Y-90179500D01*
X200201155Y-90179500D01*
X200046510Y-90210261D01*
X200046498Y-90210264D01*
X199900827Y-90270602D01*
X199900814Y-90270609D01*
X199769711Y-90358210D01*
X199769707Y-90358213D01*
X199658213Y-90469707D01*
X199658210Y-90469711D01*
X199570609Y-90600814D01*
X199570602Y-90600827D01*
X199510264Y-90746498D01*
X199510261Y-90746510D01*
X199479500Y-90901153D01*
X181403451Y-90901153D01*
X181441658Y-90808913D01*
X181464755Y-90692799D01*
X181470500Y-90663920D01*
X181470500Y-90516079D01*
X181441659Y-90371092D01*
X181441658Y-90371091D01*
X181441658Y-90371087D01*
X181441001Y-90369500D01*
X181385087Y-90234511D01*
X181385080Y-90234498D01*
X181302951Y-90111584D01*
X181302948Y-90111580D01*
X181198419Y-90007051D01*
X181198415Y-90007048D01*
X181075501Y-89924919D01*
X181075488Y-89924912D01*
X180938917Y-89868343D01*
X180938907Y-89868340D01*
X180816141Y-89843920D01*
X201169499Y-89843920D01*
X201198340Y-89988907D01*
X201198343Y-89988917D01*
X201254912Y-90125488D01*
X201254919Y-90125501D01*
X201337048Y-90248415D01*
X201337051Y-90248419D01*
X201441580Y-90352948D01*
X201441584Y-90352951D01*
X201564498Y-90435080D01*
X201564511Y-90435087D01*
X201648092Y-90469707D01*
X201701087Y-90491658D01*
X201701091Y-90491658D01*
X201701092Y-90491659D01*
X201846079Y-90520500D01*
X201846082Y-90520500D01*
X201993920Y-90520500D01*
X202091462Y-90501096D01*
X202138913Y-90491658D01*
X202275495Y-90435084D01*
X202398416Y-90352951D01*
X202502951Y-90248416D01*
X202585084Y-90125495D01*
X202641658Y-89988913D01*
X202654389Y-89924912D01*
X202670500Y-89843920D01*
X202670500Y-89789983D01*
X229734500Y-89789983D01*
X229734500Y-90590001D01*
X229734501Y-90590019D01*
X229745000Y-90692796D01*
X229745001Y-90692799D01*
X229777483Y-90790821D01*
X229800186Y-90859334D01*
X229892288Y-91008656D01*
X230016344Y-91132712D01*
X230080543Y-91172310D01*
X230127268Y-91224258D01*
X230138489Y-91293221D01*
X230110646Y-91357303D01*
X230103128Y-91365530D01*
X229995585Y-91473073D01*
X229893768Y-91613211D01*
X229815128Y-91767552D01*
X229761597Y-91932302D01*
X229734500Y-92103389D01*
X229734500Y-92276610D01*
X229759077Y-92431789D01*
X229761598Y-92447701D01*
X229815127Y-92612445D01*
X229893768Y-92766788D01*
X229995586Y-92906928D01*
X230118072Y-93029414D01*
X230258212Y-93131232D01*
X230412555Y-93209873D01*
X230577299Y-93263402D01*
X230748389Y-93290500D01*
X230748390Y-93290500D01*
X231471610Y-93290500D01*
X231471611Y-93290500D01*
X231642701Y-93263402D01*
X231807445Y-93209873D01*
X231961788Y-93131232D01*
X232101928Y-93029414D01*
X232224414Y-92906928D01*
X232326232Y-92766788D01*
X232404873Y-92612445D01*
X232458402Y-92447701D01*
X232485500Y-92276611D01*
X232485500Y-92103389D01*
X232458402Y-91932299D01*
X232404873Y-91767555D01*
X232326232Y-91613212D01*
X232224414Y-91473072D01*
X232116872Y-91365530D01*
X232083387Y-91304207D01*
X232088371Y-91234515D01*
X232130243Y-91178582D01*
X232139457Y-91172310D01*
X232203656Y-91132712D01*
X232327712Y-91008656D01*
X232419814Y-90859334D01*
X232474999Y-90692797D01*
X232485500Y-90590009D01*
X232485499Y-89789992D01*
X232474999Y-89687203D01*
X232419814Y-89520666D01*
X232327712Y-89371344D01*
X232203656Y-89247288D01*
X232054334Y-89155186D01*
X231887797Y-89100001D01*
X231887795Y-89100000D01*
X231785010Y-89089500D01*
X230434998Y-89089500D01*
X230434981Y-89089501D01*
X230332203Y-89100000D01*
X230332200Y-89100001D01*
X230165668Y-89155185D01*
X230165663Y-89155187D01*
X230016342Y-89247289D01*
X229892289Y-89371342D01*
X229800187Y-89520663D01*
X229800186Y-89520666D01*
X229745001Y-89687203D01*
X229745001Y-89687204D01*
X229745000Y-89687204D01*
X229734500Y-89789983D01*
X202670500Y-89789983D01*
X202670500Y-89696079D01*
X202641659Y-89551092D01*
X202641658Y-89551091D01*
X202641658Y-89551087D01*
X202600474Y-89451659D01*
X202585087Y-89414511D01*
X202585080Y-89414498D01*
X202502951Y-89291584D01*
X202502948Y-89291580D01*
X202398419Y-89187051D01*
X202398415Y-89187048D01*
X202275501Y-89104919D01*
X202275488Y-89104912D01*
X202138917Y-89048343D01*
X202138907Y-89048340D01*
X201993920Y-89019500D01*
X201993918Y-89019500D01*
X201846082Y-89019500D01*
X201846080Y-89019500D01*
X201701092Y-89048340D01*
X201701082Y-89048343D01*
X201564511Y-89104912D01*
X201564498Y-89104919D01*
X201441584Y-89187048D01*
X201441580Y-89187051D01*
X201337051Y-89291580D01*
X201337048Y-89291584D01*
X201254919Y-89414498D01*
X201254912Y-89414511D01*
X201198343Y-89551082D01*
X201198340Y-89551092D01*
X201169500Y-89696079D01*
X201169500Y-89696082D01*
X201169500Y-89843918D01*
X201169500Y-89843920D01*
X201169499Y-89843920D01*
X180816141Y-89843920D01*
X180793920Y-89839500D01*
X180793918Y-89839500D01*
X180646082Y-89839500D01*
X180646080Y-89839500D01*
X180501092Y-89868340D01*
X180501082Y-89868343D01*
X180364511Y-89924912D01*
X180364498Y-89924919D01*
X180241584Y-90007048D01*
X180241580Y-90007051D01*
X180137051Y-90111580D01*
X180137048Y-90111584D01*
X180054919Y-90234498D01*
X180054912Y-90234511D01*
X179998343Y-90371082D01*
X179998340Y-90371092D01*
X179969500Y-90516079D01*
X179969500Y-90516082D01*
X179969500Y-90663918D01*
X179969500Y-90663920D01*
X179969499Y-90663920D01*
X173684601Y-90663920D01*
X173681789Y-90659711D01*
X173681786Y-90659707D01*
X173570292Y-90548213D01*
X173570288Y-90548210D01*
X173439185Y-90460609D01*
X173439172Y-90460602D01*
X173293501Y-90400264D01*
X173293489Y-90400261D01*
X173138845Y-90369500D01*
X173138842Y-90369500D01*
X172981158Y-90369500D01*
X172981155Y-90369500D01*
X172826510Y-90400261D01*
X172826498Y-90400264D01*
X172680827Y-90460602D01*
X172680814Y-90460609D01*
X172549711Y-90548210D01*
X172549707Y-90548213D01*
X172438213Y-90659707D01*
X172438210Y-90659711D01*
X172350609Y-90790814D01*
X172350602Y-90790827D01*
X172290264Y-90936498D01*
X172290261Y-90936510D01*
X172259500Y-91091153D01*
X165035500Y-91091153D01*
X165035500Y-88793920D01*
X189239499Y-88793920D01*
X189268340Y-88938907D01*
X189268343Y-88938917D01*
X189324912Y-89075488D01*
X189324919Y-89075501D01*
X189407048Y-89198415D01*
X189407051Y-89198419D01*
X189511580Y-89302948D01*
X189511584Y-89302951D01*
X189634498Y-89385080D01*
X189634511Y-89385087D01*
X189705548Y-89414511D01*
X189771087Y-89441658D01*
X189771091Y-89441658D01*
X189771092Y-89441659D01*
X189916079Y-89470500D01*
X189916082Y-89470500D01*
X190063920Y-89470500D01*
X190161462Y-89451096D01*
X190208913Y-89441658D01*
X190321353Y-89395084D01*
X190345488Y-89385087D01*
X190345488Y-89385086D01*
X190345495Y-89385084D01*
X190468416Y-89302951D01*
X190572951Y-89198416D01*
X190655084Y-89075495D01*
X190711658Y-88938913D01*
X190721096Y-88891462D01*
X190738511Y-88803920D01*
X204389499Y-88803920D01*
X204418340Y-88948907D01*
X204418343Y-88948917D01*
X204474912Y-89085488D01*
X204474919Y-89085501D01*
X204557048Y-89208415D01*
X204557051Y-89208419D01*
X204661580Y-89312948D01*
X204661584Y-89312951D01*
X204784498Y-89395080D01*
X204784511Y-89395087D01*
X204896947Y-89441659D01*
X204921087Y-89451658D01*
X204921091Y-89451658D01*
X204921092Y-89451659D01*
X205066079Y-89480500D01*
X205066082Y-89480500D01*
X205213920Y-89480500D01*
X205311462Y-89461096D01*
X205358913Y-89451658D01*
X205495495Y-89395084D01*
X205618416Y-89312951D01*
X205722951Y-89208416D01*
X205805084Y-89085495D01*
X205861658Y-88948913D01*
X205890500Y-88803918D01*
X205890500Y-88656082D01*
X205890500Y-88656079D01*
X205861659Y-88511092D01*
X205861658Y-88511091D01*
X205861658Y-88511087D01*
X205827415Y-88428416D01*
X205805087Y-88374511D01*
X205805080Y-88374498D01*
X205722951Y-88251584D01*
X205722948Y-88251580D01*
X205618419Y-88147051D01*
X205618415Y-88147048D01*
X205495501Y-88064919D01*
X205495488Y-88064912D01*
X205358917Y-88008343D01*
X205358907Y-88008340D01*
X205213920Y-87979500D01*
X205213918Y-87979500D01*
X205066082Y-87979500D01*
X205066080Y-87979500D01*
X204921092Y-88008340D01*
X204921082Y-88008343D01*
X204784511Y-88064912D01*
X204784498Y-88064919D01*
X204661584Y-88147048D01*
X204661580Y-88147051D01*
X204557051Y-88251580D01*
X204557048Y-88251584D01*
X204474919Y-88374498D01*
X204474912Y-88374511D01*
X204418343Y-88511082D01*
X204418340Y-88511092D01*
X204389500Y-88656079D01*
X204389500Y-88656082D01*
X204389500Y-88803918D01*
X204389500Y-88803920D01*
X204389499Y-88803920D01*
X190738511Y-88803920D01*
X190740500Y-88793920D01*
X190740500Y-88646079D01*
X190711659Y-88501092D01*
X190711658Y-88501091D01*
X190711658Y-88501087D01*
X190681557Y-88428416D01*
X190655087Y-88364511D01*
X190655080Y-88364498D01*
X190572951Y-88241584D01*
X190572948Y-88241580D01*
X190468419Y-88137051D01*
X190468415Y-88137048D01*
X190345501Y-88054919D01*
X190345488Y-88054912D01*
X190270666Y-88023920D01*
X198169499Y-88023920D01*
X198198340Y-88168907D01*
X198198343Y-88168917D01*
X198254912Y-88305488D01*
X198254919Y-88305501D01*
X198337048Y-88428415D01*
X198337051Y-88428419D01*
X198441580Y-88532948D01*
X198441584Y-88532951D01*
X198564498Y-88615080D01*
X198564511Y-88615087D01*
X198663483Y-88656082D01*
X198701087Y-88671658D01*
X198701091Y-88671658D01*
X198701092Y-88671659D01*
X198846079Y-88700500D01*
X198846082Y-88700500D01*
X198993920Y-88700500D01*
X199091462Y-88681096D01*
X199138913Y-88671658D01*
X199275495Y-88615084D01*
X199398416Y-88532951D01*
X199502951Y-88428416D01*
X199585084Y-88305495D01*
X199641658Y-88168913D01*
X199662346Y-88064912D01*
X199670500Y-88023920D01*
X199670500Y-87876079D01*
X199641659Y-87731092D01*
X199641658Y-87731091D01*
X199641658Y-87731087D01*
X199616104Y-87669394D01*
X199585087Y-87594511D01*
X199585080Y-87594498D01*
X199502951Y-87471584D01*
X199502948Y-87471580D01*
X199398419Y-87367051D01*
X199398415Y-87367048D01*
X199275501Y-87284919D01*
X199275488Y-87284912D01*
X199138917Y-87228343D01*
X199138907Y-87228340D01*
X198993920Y-87199500D01*
X198993918Y-87199500D01*
X198846082Y-87199500D01*
X198846080Y-87199500D01*
X198701092Y-87228340D01*
X198701082Y-87228343D01*
X198564511Y-87284912D01*
X198564498Y-87284919D01*
X198441584Y-87367048D01*
X198441580Y-87367051D01*
X198337051Y-87471580D01*
X198337048Y-87471584D01*
X198254919Y-87594498D01*
X198254912Y-87594511D01*
X198198343Y-87731082D01*
X198198340Y-87731092D01*
X198169500Y-87876079D01*
X198169500Y-87876082D01*
X198169500Y-88023918D01*
X198169500Y-88023920D01*
X198169499Y-88023920D01*
X190270666Y-88023920D01*
X190208917Y-87998343D01*
X190208907Y-87998340D01*
X190175057Y-87991607D01*
X190063920Y-87969500D01*
X190063918Y-87969500D01*
X189916082Y-87969500D01*
X189916080Y-87969500D01*
X189771092Y-87998340D01*
X189771082Y-87998343D01*
X189634511Y-88054912D01*
X189634498Y-88054919D01*
X189511584Y-88137048D01*
X189511580Y-88137051D01*
X189407051Y-88241580D01*
X189407048Y-88241584D01*
X189324919Y-88364498D01*
X189324912Y-88364511D01*
X189268343Y-88501082D01*
X189268340Y-88501092D01*
X189239500Y-88646079D01*
X189239500Y-88646082D01*
X189239500Y-88793918D01*
X189239500Y-88793920D01*
X189239499Y-88793920D01*
X165035500Y-88793920D01*
X165035500Y-86881153D01*
X179149500Y-86881153D01*
X179149500Y-87038846D01*
X179180261Y-87193489D01*
X179180264Y-87193501D01*
X179240602Y-87339172D01*
X179240609Y-87339185D01*
X179328210Y-87470288D01*
X179328213Y-87470292D01*
X179439707Y-87581786D01*
X179439711Y-87581789D01*
X179570814Y-87669390D01*
X179570827Y-87669397D01*
X179716498Y-87729735D01*
X179716503Y-87729737D01*
X179871153Y-87760499D01*
X179871156Y-87760500D01*
X179871158Y-87760500D01*
X180028844Y-87760500D01*
X180028845Y-87760499D01*
X180183497Y-87729737D01*
X180329179Y-87669394D01*
X180460289Y-87581789D01*
X180571789Y-87470289D01*
X180659394Y-87339179D01*
X180719737Y-87193497D01*
X180750500Y-87038842D01*
X180750500Y-86881158D01*
X180750500Y-86881155D01*
X180750499Y-86881153D01*
X180729168Y-86773920D01*
X196929499Y-86773920D01*
X196958340Y-86918907D01*
X196958343Y-86918917D01*
X197014912Y-87055488D01*
X197014919Y-87055501D01*
X197097048Y-87178415D01*
X197097051Y-87178419D01*
X197201580Y-87282948D01*
X197201584Y-87282951D01*
X197324498Y-87365080D01*
X197324511Y-87365087D01*
X197461082Y-87421656D01*
X197461087Y-87421658D01*
X197461091Y-87421658D01*
X197461092Y-87421659D01*
X197606079Y-87450500D01*
X197606082Y-87450500D01*
X197753920Y-87450500D01*
X197851462Y-87431096D01*
X197898913Y-87421658D01*
X198030751Y-87367049D01*
X198035488Y-87365087D01*
X198035488Y-87365086D01*
X198035495Y-87365084D01*
X198158416Y-87282951D01*
X198262951Y-87178416D01*
X198345084Y-87055495D01*
X198401658Y-86918913D01*
X198430500Y-86773918D01*
X198430500Y-86626082D01*
X198430500Y-86626079D01*
X198401659Y-86481092D01*
X198401658Y-86481091D01*
X198401658Y-86481087D01*
X198388660Y-86449707D01*
X198345087Y-86344511D01*
X198345080Y-86344498D01*
X198262951Y-86221584D01*
X198262948Y-86221580D01*
X198160288Y-86118920D01*
X203184499Y-86118920D01*
X203213340Y-86263907D01*
X203213343Y-86263917D01*
X203269912Y-86400488D01*
X203269919Y-86400501D01*
X203352048Y-86523415D01*
X203352051Y-86523419D01*
X203456580Y-86627948D01*
X203456584Y-86627951D01*
X203579498Y-86710080D01*
X203579511Y-86710087D01*
X203716082Y-86766656D01*
X203716087Y-86766658D01*
X203716091Y-86766658D01*
X203716092Y-86766659D01*
X203861079Y-86795500D01*
X203861082Y-86795500D01*
X204008920Y-86795500D01*
X204117415Y-86773918D01*
X204153913Y-86766658D01*
X204290495Y-86710084D01*
X204413416Y-86627951D01*
X204517951Y-86523416D01*
X204600084Y-86400495D01*
X204656658Y-86263913D01*
X204685500Y-86118918D01*
X204685500Y-85971082D01*
X204685500Y-85971079D01*
X204656659Y-85826092D01*
X204656658Y-85826091D01*
X204656658Y-85826087D01*
X204637225Y-85779172D01*
X204600087Y-85689511D01*
X204600080Y-85689498D01*
X204517951Y-85566584D01*
X204517948Y-85566580D01*
X204413419Y-85462051D01*
X204413415Y-85462048D01*
X204290501Y-85379919D01*
X204290488Y-85379912D01*
X204153917Y-85323343D01*
X204153907Y-85323340D01*
X204008920Y-85294500D01*
X204008918Y-85294500D01*
X203861082Y-85294500D01*
X203861080Y-85294500D01*
X203716092Y-85323340D01*
X203716082Y-85323343D01*
X203579511Y-85379912D01*
X203579498Y-85379919D01*
X203456584Y-85462048D01*
X203456580Y-85462051D01*
X203352051Y-85566580D01*
X203352048Y-85566584D01*
X203269919Y-85689498D01*
X203269912Y-85689511D01*
X203213343Y-85826082D01*
X203213340Y-85826092D01*
X203184500Y-85971079D01*
X203184500Y-85971082D01*
X203184500Y-86118918D01*
X203184500Y-86118920D01*
X203184499Y-86118920D01*
X198160288Y-86118920D01*
X198158416Y-86117048D01*
X198085147Y-86068092D01*
X198035501Y-86034919D01*
X198035488Y-86034912D01*
X197898917Y-85978343D01*
X197898907Y-85978340D01*
X197753920Y-85949500D01*
X197753918Y-85949500D01*
X197606082Y-85949500D01*
X197606080Y-85949500D01*
X197461092Y-85978340D01*
X197461082Y-85978343D01*
X197324511Y-86034912D01*
X197324498Y-86034919D01*
X197201584Y-86117048D01*
X197201580Y-86117051D01*
X197097051Y-86221580D01*
X197097048Y-86221584D01*
X197014919Y-86344498D01*
X197014912Y-86344511D01*
X196958343Y-86481082D01*
X196958340Y-86481092D01*
X196929500Y-86626079D01*
X196929500Y-86626082D01*
X196929500Y-86773918D01*
X196929500Y-86773920D01*
X196929499Y-86773920D01*
X180729168Y-86773920D01*
X180729168Y-86773918D01*
X180719737Y-86726503D01*
X180719735Y-86726498D01*
X180695274Y-86667442D01*
X180659395Y-86580823D01*
X180659390Y-86580814D01*
X180571789Y-86449711D01*
X180571786Y-86449707D01*
X180460292Y-86338213D01*
X180460288Y-86338210D01*
X180329185Y-86250609D01*
X180329172Y-86250602D01*
X180183501Y-86190264D01*
X180183489Y-86190261D01*
X180028845Y-86159500D01*
X180028842Y-86159500D01*
X179871158Y-86159500D01*
X179871155Y-86159500D01*
X179716510Y-86190261D01*
X179716498Y-86190264D01*
X179570827Y-86250602D01*
X179570814Y-86250609D01*
X179439711Y-86338210D01*
X179439707Y-86338213D01*
X179328213Y-86449707D01*
X179328210Y-86449711D01*
X179240609Y-86580814D01*
X179240602Y-86580827D01*
X179180264Y-86726498D01*
X179180261Y-86726510D01*
X179149500Y-86881153D01*
X165035500Y-86881153D01*
X165035500Y-85321153D01*
X184189500Y-85321153D01*
X184189500Y-85478846D01*
X184220261Y-85633489D01*
X184220264Y-85633501D01*
X184280602Y-85779172D01*
X184280609Y-85779185D01*
X184368210Y-85910288D01*
X184368213Y-85910292D01*
X184479707Y-86021786D01*
X184479711Y-86021789D01*
X184610814Y-86109390D01*
X184610827Y-86109397D01*
X184756498Y-86169735D01*
X184756503Y-86169737D01*
X184859699Y-86190264D01*
X184911153Y-86200499D01*
X184911156Y-86200500D01*
X184911158Y-86200500D01*
X185068844Y-86200500D01*
X185068845Y-86200499D01*
X185223497Y-86169737D01*
X185350698Y-86117049D01*
X185369172Y-86109397D01*
X185369172Y-86109396D01*
X185369179Y-86109394D01*
X185500289Y-86021789D01*
X185611789Y-85910289D01*
X185699394Y-85779179D01*
X185759737Y-85633497D01*
X185790500Y-85478842D01*
X185790500Y-85321158D01*
X185790500Y-85321155D01*
X185790499Y-85321153D01*
X185783324Y-85285084D01*
X185759737Y-85166503D01*
X185759735Y-85166498D01*
X185699397Y-85020827D01*
X185699390Y-85020814D01*
X185611789Y-84889711D01*
X185611786Y-84889707D01*
X185500292Y-84778213D01*
X185500288Y-84778210D01*
X185374140Y-84693920D01*
X204729499Y-84693920D01*
X204758340Y-84838907D01*
X204758343Y-84838917D01*
X204814912Y-84975488D01*
X204814919Y-84975501D01*
X204897048Y-85098415D01*
X204897051Y-85098419D01*
X205001580Y-85202948D01*
X205001584Y-85202951D01*
X205124498Y-85285080D01*
X205124511Y-85285087D01*
X205261082Y-85341656D01*
X205261087Y-85341658D01*
X205261091Y-85341658D01*
X205261092Y-85341659D01*
X205406079Y-85370500D01*
X205406082Y-85370500D01*
X205553920Y-85370500D01*
X205651462Y-85351096D01*
X205698913Y-85341658D01*
X205835495Y-85285084D01*
X205958416Y-85202951D01*
X206062951Y-85098416D01*
X206145084Y-84975495D01*
X206201658Y-84838913D01*
X206213733Y-84778210D01*
X206230500Y-84693920D01*
X206230500Y-84546079D01*
X206201659Y-84401092D01*
X206201658Y-84401091D01*
X206201658Y-84401087D01*
X206172690Y-84331153D01*
X225039500Y-84331153D01*
X225039500Y-84488846D01*
X225070261Y-84643489D01*
X225070264Y-84643501D01*
X225130602Y-84789172D01*
X225130609Y-84789185D01*
X225218210Y-84920288D01*
X225218213Y-84920292D01*
X225329707Y-85031786D01*
X225329711Y-85031789D01*
X225460814Y-85119390D01*
X225460827Y-85119397D01*
X225574541Y-85166498D01*
X225606503Y-85179737D01*
X225723192Y-85202948D01*
X225761153Y-85210499D01*
X225761156Y-85210500D01*
X225761158Y-85210500D01*
X225918844Y-85210500D01*
X225918845Y-85210499D01*
X226073497Y-85179737D01*
X226219179Y-85119394D01*
X226350289Y-85031789D01*
X226461789Y-84920289D01*
X226549394Y-84789179D01*
X226553938Y-84778210D01*
X226590224Y-84690606D01*
X226609737Y-84643497D01*
X226640500Y-84488842D01*
X226640500Y-84331158D01*
X226640500Y-84331155D01*
X226640499Y-84331153D01*
X226627240Y-84264498D01*
X226609737Y-84176503D01*
X226557681Y-84050827D01*
X226549397Y-84030827D01*
X226549390Y-84030814D01*
X226461789Y-83899711D01*
X226461786Y-83899707D01*
X226350292Y-83788213D01*
X226350288Y-83788210D01*
X226219185Y-83700609D01*
X226219172Y-83700602D01*
X226073501Y-83640264D01*
X226073489Y-83640261D01*
X225918845Y-83609500D01*
X225918842Y-83609500D01*
X225761158Y-83609500D01*
X225761155Y-83609500D01*
X225606510Y-83640261D01*
X225606498Y-83640264D01*
X225460827Y-83700602D01*
X225460814Y-83700609D01*
X225329711Y-83788210D01*
X225329707Y-83788213D01*
X225218213Y-83899707D01*
X225218210Y-83899711D01*
X225130609Y-84030814D01*
X225130602Y-84030827D01*
X225070264Y-84176498D01*
X225070261Y-84176510D01*
X225039500Y-84331153D01*
X206172690Y-84331153D01*
X206155135Y-84288771D01*
X206145085Y-84264507D01*
X206145080Y-84264498D01*
X206062951Y-84141584D01*
X206062948Y-84141580D01*
X205958419Y-84037051D01*
X205958415Y-84037048D01*
X205835501Y-83954919D01*
X205835488Y-83954912D01*
X205698917Y-83898343D01*
X205698907Y-83898340D01*
X205553920Y-83869500D01*
X205553918Y-83869500D01*
X205406082Y-83869500D01*
X205406080Y-83869500D01*
X205261092Y-83898340D01*
X205261082Y-83898343D01*
X205124511Y-83954912D01*
X205124498Y-83954919D01*
X205001584Y-84037048D01*
X205001580Y-84037051D01*
X204897051Y-84141580D01*
X204897048Y-84141584D01*
X204814919Y-84264498D01*
X204814912Y-84264511D01*
X204758343Y-84401082D01*
X204758340Y-84401092D01*
X204729500Y-84546079D01*
X204729500Y-84546082D01*
X204729500Y-84693918D01*
X204729500Y-84693920D01*
X204729499Y-84693920D01*
X185374140Y-84693920D01*
X185369185Y-84690609D01*
X185369172Y-84690602D01*
X185282135Y-84654551D01*
X185223501Y-84630264D01*
X185223489Y-84630261D01*
X185068845Y-84599500D01*
X185068842Y-84599500D01*
X184911158Y-84599500D01*
X184911155Y-84599500D01*
X184756510Y-84630261D01*
X184756498Y-84630264D01*
X184610827Y-84690602D01*
X184610814Y-84690609D01*
X184479711Y-84778210D01*
X184479707Y-84778213D01*
X184368213Y-84889707D01*
X184368210Y-84889711D01*
X184280609Y-85020814D01*
X184280602Y-85020827D01*
X184220264Y-85166498D01*
X184220261Y-85166510D01*
X184189500Y-85321153D01*
X165035500Y-85321153D01*
X165035500Y-80542483D01*
X169321401Y-80542483D01*
X169321401Y-81842501D01*
X169321402Y-81842518D01*
X169331901Y-81945296D01*
X169331902Y-81945299D01*
X169387086Y-82111831D01*
X169387088Y-82111836D01*
X169479190Y-82261157D01*
X169603245Y-82385212D01*
X169758021Y-82480678D01*
X169804746Y-82532626D01*
X169815969Y-82601588D01*
X169788125Y-82665671D01*
X169780607Y-82673898D01*
X169641790Y-82812715D01*
X169516852Y-82984679D01*
X169420345Y-83174085D01*
X169354654Y-83376260D01*
X169353347Y-83384515D01*
X169321401Y-83586213D01*
X169321401Y-83798787D01*
X169322894Y-83808211D01*
X169346129Y-83954916D01*
X169354655Y-84008743D01*
X169415664Y-84196510D01*
X169420345Y-84210914D01*
X169516852Y-84400320D01*
X169641791Y-84572286D01*
X169792114Y-84722609D01*
X169964080Y-84847548D01*
X169964082Y-84847549D01*
X169964085Y-84847551D01*
X170153489Y-84944057D01*
X170355658Y-85009746D01*
X170565614Y-85043000D01*
X170565615Y-85043000D01*
X171078187Y-85043000D01*
X171078188Y-85043000D01*
X171288144Y-85009746D01*
X171490313Y-84944057D01*
X171679717Y-84847551D01*
X171732542Y-84809172D01*
X171851687Y-84722609D01*
X171851689Y-84722606D01*
X171851693Y-84722604D01*
X172002005Y-84572292D01*
X172002007Y-84572288D01*
X172002010Y-84572286D01*
X172062633Y-84488844D01*
X172126952Y-84400316D01*
X172152002Y-84351153D01*
X180389500Y-84351153D01*
X180389500Y-84508846D01*
X180420261Y-84663489D01*
X180420264Y-84663501D01*
X180480602Y-84809172D01*
X180480609Y-84809185D01*
X180568210Y-84940288D01*
X180568213Y-84940292D01*
X180679707Y-85051786D01*
X180679711Y-85051789D01*
X180810814Y-85139390D01*
X180810827Y-85139397D01*
X180956498Y-85199735D01*
X180956503Y-85199737D01*
X181111153Y-85230499D01*
X181111156Y-85230500D01*
X181111158Y-85230500D01*
X181268844Y-85230500D01*
X181268845Y-85230499D01*
X181423497Y-85199737D01*
X181569179Y-85139394D01*
X181700289Y-85051789D01*
X181731264Y-85020814D01*
X181762319Y-84989760D01*
X181823642Y-84956275D01*
X181893334Y-84961259D01*
X181937681Y-84989760D01*
X181999707Y-85051786D01*
X181999711Y-85051789D01*
X182130814Y-85139390D01*
X182130827Y-85139397D01*
X182276498Y-85199735D01*
X182276503Y-85199737D01*
X182431153Y-85230499D01*
X182431156Y-85230500D01*
X182431158Y-85230500D01*
X182588844Y-85230500D01*
X182588845Y-85230499D01*
X182743497Y-85199737D01*
X182889179Y-85139394D01*
X183020289Y-85051789D01*
X183131789Y-84940289D01*
X183219394Y-84809179D01*
X183279737Y-84663497D01*
X183310500Y-84508842D01*
X183310500Y-84351158D01*
X183310500Y-84351155D01*
X183310499Y-84351153D01*
X183293264Y-84264507D01*
X183279737Y-84196503D01*
X183256989Y-84141584D01*
X183219397Y-84050827D01*
X183219390Y-84050814D01*
X183131789Y-83919711D01*
X183131786Y-83919707D01*
X183020292Y-83808213D01*
X183020288Y-83808210D01*
X182889185Y-83720609D01*
X182889172Y-83720602D01*
X182743501Y-83660264D01*
X182743489Y-83660261D01*
X182588845Y-83629500D01*
X182588842Y-83629500D01*
X182431158Y-83629500D01*
X182431155Y-83629500D01*
X182276510Y-83660261D01*
X182276498Y-83660264D01*
X182130827Y-83720602D01*
X182130814Y-83720609D01*
X181999711Y-83808210D01*
X181999707Y-83808213D01*
X181937681Y-83870240D01*
X181876358Y-83903725D01*
X181806666Y-83898741D01*
X181762319Y-83870240D01*
X181700292Y-83808213D01*
X181700288Y-83808210D01*
X181569185Y-83720609D01*
X181569172Y-83720602D01*
X181423501Y-83660264D01*
X181423489Y-83660261D01*
X181268845Y-83629500D01*
X181268842Y-83629500D01*
X181111158Y-83629500D01*
X181111155Y-83629500D01*
X180956510Y-83660261D01*
X180956498Y-83660264D01*
X180810827Y-83720602D01*
X180810814Y-83720609D01*
X180679711Y-83808210D01*
X180679707Y-83808213D01*
X180568213Y-83919707D01*
X180568210Y-83919711D01*
X180480609Y-84050814D01*
X180480602Y-84050827D01*
X180420264Y-84196498D01*
X180420261Y-84196510D01*
X180389500Y-84351153D01*
X172152002Y-84351153D01*
X172223458Y-84210912D01*
X172289147Y-84008743D01*
X172322401Y-83798787D01*
X172322401Y-83586213D01*
X172289147Y-83376257D01*
X172223458Y-83174088D01*
X172126952Y-82984684D01*
X172126950Y-82984681D01*
X172126949Y-82984679D01*
X172002010Y-82812713D01*
X171863195Y-82673898D01*
X171829710Y-82612575D01*
X171834694Y-82542883D01*
X171876566Y-82486950D01*
X171885780Y-82480678D01*
X171891232Y-82477314D01*
X171891235Y-82477314D01*
X172040557Y-82385212D01*
X172114616Y-82311153D01*
X177909500Y-82311153D01*
X177909500Y-82468846D01*
X177940261Y-82623489D01*
X177940264Y-82623501D01*
X178000602Y-82769172D01*
X178000609Y-82769185D01*
X178088210Y-82900288D01*
X178088213Y-82900292D01*
X178199707Y-83011786D01*
X178199711Y-83011789D01*
X178330814Y-83099390D01*
X178330827Y-83099397D01*
X178476498Y-83159735D01*
X178476503Y-83159737D01*
X178631153Y-83190499D01*
X178631156Y-83190500D01*
X178631158Y-83190500D01*
X178788844Y-83190500D01*
X178788845Y-83190499D01*
X178943497Y-83159737D01*
X179089179Y-83099394D01*
X179220289Y-83011789D01*
X179331789Y-82900289D01*
X179419394Y-82769179D01*
X179479737Y-82623497D01*
X179510500Y-82468842D01*
X179510500Y-82311158D01*
X179510500Y-82311155D01*
X179510499Y-82311153D01*
X179500553Y-82261152D01*
X179479737Y-82156503D01*
X179461237Y-82111840D01*
X179419397Y-82010827D01*
X179419390Y-82010814D01*
X179331789Y-81879711D01*
X179331786Y-81879707D01*
X179220292Y-81768213D01*
X179220288Y-81768210D01*
X179089185Y-81680609D01*
X179089172Y-81680602D01*
X178943501Y-81620264D01*
X178943489Y-81620261D01*
X178788845Y-81589500D01*
X178788842Y-81589500D01*
X178631158Y-81589500D01*
X178631155Y-81589500D01*
X178476510Y-81620261D01*
X178476498Y-81620264D01*
X178330827Y-81680602D01*
X178330814Y-81680609D01*
X178199711Y-81768210D01*
X178199707Y-81768213D01*
X178088213Y-81879707D01*
X178088210Y-81879711D01*
X178000609Y-82010814D01*
X178000602Y-82010827D01*
X177940264Y-82156498D01*
X177940261Y-82156510D01*
X177909500Y-82311153D01*
X172114616Y-82311153D01*
X172164613Y-82261156D01*
X172169316Y-82253530D01*
X172177682Y-82239969D01*
X172256711Y-82111840D01*
X172256715Y-82111834D01*
X172311900Y-81945297D01*
X172322401Y-81842509D01*
X172322400Y-80681153D01*
X200809500Y-80681153D01*
X200809500Y-80838846D01*
X200840261Y-80993489D01*
X200840264Y-80993501D01*
X200900602Y-81139172D01*
X200900609Y-81139185D01*
X200988210Y-81270288D01*
X200988213Y-81270292D01*
X201099707Y-81381786D01*
X201099711Y-81381789D01*
X201230814Y-81469390D01*
X201230827Y-81469397D01*
X201356240Y-81521344D01*
X201376503Y-81529737D01*
X201531153Y-81560499D01*
X201531156Y-81560500D01*
X201531158Y-81560500D01*
X201688844Y-81560500D01*
X201688845Y-81560499D01*
X201843497Y-81529737D01*
X201989179Y-81469394D01*
X202120289Y-81381789D01*
X202208158Y-81293920D01*
X207229499Y-81293920D01*
X207258340Y-81438907D01*
X207258343Y-81438917D01*
X207314912Y-81575488D01*
X207314919Y-81575501D01*
X207397048Y-81698415D01*
X207397051Y-81698419D01*
X207501580Y-81802948D01*
X207501584Y-81802951D01*
X207624498Y-81885080D01*
X207624511Y-81885087D01*
X207757036Y-81939980D01*
X207761087Y-81941658D01*
X207761091Y-81941658D01*
X207761092Y-81941659D01*
X207906079Y-81970500D01*
X207906082Y-81970500D01*
X208053920Y-81970500D01*
X208151462Y-81951096D01*
X208198913Y-81941658D01*
X208202957Y-81939983D01*
X229734500Y-81939983D01*
X229734500Y-82740001D01*
X229734501Y-82740019D01*
X229745000Y-82842796D01*
X229745001Y-82842799D01*
X229764052Y-82900289D01*
X229800186Y-83009334D01*
X229892288Y-83158656D01*
X230016344Y-83282712D01*
X230080543Y-83322310D01*
X230127268Y-83374258D01*
X230138489Y-83443221D01*
X230110646Y-83507303D01*
X230103128Y-83515530D01*
X229995585Y-83623073D01*
X229893768Y-83763211D01*
X229815128Y-83917552D01*
X229761597Y-84082302D01*
X229734500Y-84253389D01*
X229734500Y-84426610D01*
X229757573Y-84572292D01*
X229761598Y-84597701D01*
X229815127Y-84762445D01*
X229893768Y-84916788D01*
X229995586Y-85056928D01*
X230118072Y-85179414D01*
X230258212Y-85281232D01*
X230412555Y-85359873D01*
X230577299Y-85413402D01*
X230748389Y-85440500D01*
X230748390Y-85440500D01*
X231471610Y-85440500D01*
X231471611Y-85440500D01*
X231642701Y-85413402D01*
X231807445Y-85359873D01*
X231961788Y-85281232D01*
X232101928Y-85179414D01*
X232224414Y-85056928D01*
X232326232Y-84916788D01*
X232404873Y-84762445D01*
X232458402Y-84597701D01*
X232485500Y-84426611D01*
X232485500Y-84253389D01*
X232458402Y-84082299D01*
X232404873Y-83917555D01*
X232326232Y-83763212D01*
X232224414Y-83623072D01*
X232116872Y-83515530D01*
X232083387Y-83454207D01*
X232088371Y-83384515D01*
X232130243Y-83328582D01*
X232139457Y-83322310D01*
X232203656Y-83282712D01*
X232327712Y-83158656D01*
X232419814Y-83009334D01*
X232474999Y-82842797D01*
X232485500Y-82740009D01*
X232485499Y-81939992D01*
X232479890Y-81885087D01*
X232474999Y-81837203D01*
X232474998Y-81837200D01*
X232429009Y-81698415D01*
X232419814Y-81670666D01*
X232327712Y-81521344D01*
X232203656Y-81397288D01*
X232054334Y-81305186D01*
X231887797Y-81250001D01*
X231887795Y-81250000D01*
X231785010Y-81239500D01*
X230434998Y-81239500D01*
X230434981Y-81239501D01*
X230332203Y-81250000D01*
X230332200Y-81250001D01*
X230165668Y-81305185D01*
X230165663Y-81305187D01*
X230016342Y-81397289D01*
X229892289Y-81521342D01*
X229800187Y-81670663D01*
X229800185Y-81670668D01*
X229772349Y-81754670D01*
X229745001Y-81837203D01*
X229745001Y-81837204D01*
X229745000Y-81837204D01*
X229734500Y-81939983D01*
X208202957Y-81939983D01*
X208335495Y-81885084D01*
X208343542Y-81879707D01*
X208412350Y-81833732D01*
X208436752Y-81817425D01*
X208458416Y-81802951D01*
X208562951Y-81698416D01*
X208645084Y-81575495D01*
X208701658Y-81438913D01*
X208713022Y-81381786D01*
X208730500Y-81293920D01*
X208730500Y-81146079D01*
X208701659Y-81001092D01*
X208701658Y-81001091D01*
X208701658Y-81001087D01*
X208698511Y-80993489D01*
X208645087Y-80864511D01*
X208645080Y-80864498D01*
X208562951Y-80741584D01*
X208562948Y-80741580D01*
X208458419Y-80637051D01*
X208458415Y-80637048D01*
X208335501Y-80554919D01*
X208335488Y-80554912D01*
X208198917Y-80498343D01*
X208198907Y-80498340D01*
X208053920Y-80469500D01*
X208053918Y-80469500D01*
X207906082Y-80469500D01*
X207906080Y-80469500D01*
X207761092Y-80498340D01*
X207761082Y-80498343D01*
X207624511Y-80554912D01*
X207624498Y-80554919D01*
X207501584Y-80637048D01*
X207501580Y-80637051D01*
X207397051Y-80741580D01*
X207397048Y-80741584D01*
X207314919Y-80864498D01*
X207314912Y-80864511D01*
X207258343Y-81001082D01*
X207258340Y-81001092D01*
X207229500Y-81146079D01*
X207229500Y-81146082D01*
X207229500Y-81293918D01*
X207229500Y-81293920D01*
X207229499Y-81293920D01*
X202208158Y-81293920D01*
X202231789Y-81270289D01*
X202319394Y-81139179D01*
X202379737Y-80993497D01*
X202410500Y-80838842D01*
X202410500Y-80681158D01*
X202410500Y-80681155D01*
X202410499Y-80681153D01*
X202379737Y-80526503D01*
X202368073Y-80498343D01*
X202319397Y-80380827D01*
X202319390Y-80380814D01*
X202231789Y-80249711D01*
X202231786Y-80249707D01*
X202120292Y-80138213D01*
X202120288Y-80138210D01*
X201989185Y-80050609D01*
X201989172Y-80050602D01*
X201843501Y-79990264D01*
X201843489Y-79990261D01*
X201688845Y-79959500D01*
X201688842Y-79959500D01*
X201531158Y-79959500D01*
X201531155Y-79959500D01*
X201376510Y-79990261D01*
X201376498Y-79990264D01*
X201230827Y-80050602D01*
X201230814Y-80050609D01*
X201099711Y-80138210D01*
X201099707Y-80138213D01*
X200988213Y-80249707D01*
X200988210Y-80249711D01*
X200900609Y-80380814D01*
X200900602Y-80380827D01*
X200840264Y-80526498D01*
X200840261Y-80526510D01*
X200809500Y-80681153D01*
X172322400Y-80681153D01*
X172322400Y-80542492D01*
X172320767Y-80526510D01*
X172311900Y-80439703D01*
X172311899Y-80439700D01*
X172288968Y-80370499D01*
X172256715Y-80273166D01*
X172164613Y-80123844D01*
X172040557Y-79999788D01*
X171891235Y-79907686D01*
X171724698Y-79852501D01*
X171724696Y-79852500D01*
X171621911Y-79842000D01*
X170021899Y-79842000D01*
X170021882Y-79842001D01*
X169919104Y-79852500D01*
X169919101Y-79852501D01*
X169752569Y-79907685D01*
X169752564Y-79907687D01*
X169603243Y-79999789D01*
X169479190Y-80123842D01*
X169387088Y-80273163D01*
X169387086Y-80273168D01*
X169365027Y-80339738D01*
X169331902Y-80439703D01*
X169331902Y-80439704D01*
X169331901Y-80439704D01*
X169321401Y-80542483D01*
X165035500Y-80542483D01*
X165035500Y-79491153D01*
X192739500Y-79491153D01*
X192739500Y-79648846D01*
X192770261Y-79803489D01*
X192770264Y-79803501D01*
X192830602Y-79949172D01*
X192830609Y-79949185D01*
X192918210Y-80080288D01*
X192918213Y-80080292D01*
X193029707Y-80191786D01*
X193029711Y-80191789D01*
X193160814Y-80279390D01*
X193160827Y-80279397D01*
X193306498Y-80339735D01*
X193306503Y-80339737D01*
X193461153Y-80370499D01*
X193461156Y-80370500D01*
X193461158Y-80370500D01*
X193618844Y-80370500D01*
X193618845Y-80370499D01*
X193773497Y-80339737D01*
X193919179Y-80279394D01*
X194050289Y-80191789D01*
X194161789Y-80080289D01*
X194249394Y-79949179D01*
X194309737Y-79803497D01*
X194340500Y-79648842D01*
X194340500Y-79491158D01*
X194340500Y-79491155D01*
X194340499Y-79491153D01*
X194309738Y-79336510D01*
X194309737Y-79336503D01*
X194309735Y-79336498D01*
X194249397Y-79190827D01*
X194249390Y-79190814D01*
X194161789Y-79059711D01*
X194161786Y-79059707D01*
X194050292Y-78948213D01*
X194050288Y-78948210D01*
X193919185Y-78860609D01*
X193919172Y-78860602D01*
X193773501Y-78800264D01*
X193773489Y-78800261D01*
X193618845Y-78769500D01*
X193618842Y-78769500D01*
X193461158Y-78769500D01*
X193461155Y-78769500D01*
X193306510Y-78800261D01*
X193306498Y-78800264D01*
X193160827Y-78860602D01*
X193160814Y-78860609D01*
X193029711Y-78948210D01*
X193029707Y-78948213D01*
X192918213Y-79059707D01*
X192918210Y-79059711D01*
X192830609Y-79190814D01*
X192830602Y-79190827D01*
X192770264Y-79336498D01*
X192770261Y-79336510D01*
X192739500Y-79491153D01*
X165035500Y-79491153D01*
X165035500Y-76601153D01*
X203699500Y-76601153D01*
X203699500Y-76758846D01*
X203730261Y-76913489D01*
X203730264Y-76913501D01*
X203790602Y-77059172D01*
X203790609Y-77059185D01*
X203878210Y-77190288D01*
X203878213Y-77190292D01*
X203989707Y-77301786D01*
X203989711Y-77301789D01*
X204120814Y-77389390D01*
X204120827Y-77389397D01*
X204266498Y-77449735D01*
X204266503Y-77449737D01*
X204417996Y-77479871D01*
X204421153Y-77480499D01*
X204421156Y-77480500D01*
X204421158Y-77480500D01*
X204578844Y-77480500D01*
X204578845Y-77480499D01*
X204733497Y-77449737D01*
X204879179Y-77389394D01*
X205010289Y-77301789D01*
X205121789Y-77190289D01*
X205209394Y-77059179D01*
X205269737Y-76913497D01*
X205272192Y-76901153D01*
X224939500Y-76901153D01*
X224939500Y-77058846D01*
X224970261Y-77213489D01*
X224970264Y-77213501D01*
X225030602Y-77359172D01*
X225030609Y-77359185D01*
X225118210Y-77490288D01*
X225118213Y-77490292D01*
X225229707Y-77601786D01*
X225229711Y-77601789D01*
X225360814Y-77689390D01*
X225360827Y-77689397D01*
X225506498Y-77749735D01*
X225506503Y-77749737D01*
X225661153Y-77780499D01*
X225661156Y-77780500D01*
X225661158Y-77780500D01*
X225818844Y-77780500D01*
X225818845Y-77780499D01*
X225973497Y-77749737D01*
X226119179Y-77689394D01*
X226250289Y-77601789D01*
X226361789Y-77490289D01*
X226449394Y-77359179D01*
X226509737Y-77213497D01*
X226540500Y-77058842D01*
X226540500Y-76901158D01*
X226540500Y-76901155D01*
X226540499Y-76901153D01*
X226512192Y-76758846D01*
X226509737Y-76746503D01*
X226449534Y-76601158D01*
X226449397Y-76600827D01*
X226449390Y-76600814D01*
X226361789Y-76469711D01*
X226361786Y-76469707D01*
X226250292Y-76358213D01*
X226250288Y-76358210D01*
X226119185Y-76270609D01*
X226119172Y-76270602D01*
X225973501Y-76210264D01*
X225973489Y-76210261D01*
X225818845Y-76179500D01*
X225818842Y-76179500D01*
X225661158Y-76179500D01*
X225661155Y-76179500D01*
X225506510Y-76210261D01*
X225506498Y-76210264D01*
X225360827Y-76270602D01*
X225360814Y-76270609D01*
X225229711Y-76358210D01*
X225229707Y-76358213D01*
X225118213Y-76469707D01*
X225118210Y-76469711D01*
X225030609Y-76600814D01*
X225030602Y-76600827D01*
X224970264Y-76746498D01*
X224970261Y-76746510D01*
X224939500Y-76901153D01*
X205272192Y-76901153D01*
X205278216Y-76870874D01*
X205278216Y-76870873D01*
X205300499Y-76758846D01*
X205300500Y-76758844D01*
X205300500Y-76601155D01*
X205300499Y-76601153D01*
X205274353Y-76469711D01*
X205269737Y-76446503D01*
X205269735Y-76446498D01*
X205209397Y-76300827D01*
X205209390Y-76300814D01*
X205121789Y-76169711D01*
X205121786Y-76169707D01*
X205010292Y-76058213D01*
X205010288Y-76058210D01*
X204879185Y-75970609D01*
X204879172Y-75970602D01*
X204733501Y-75910264D01*
X204733489Y-75910261D01*
X204578845Y-75879500D01*
X204578842Y-75879500D01*
X204421158Y-75879500D01*
X204421155Y-75879500D01*
X204266510Y-75910261D01*
X204266498Y-75910264D01*
X204120827Y-75970602D01*
X204120814Y-75970609D01*
X203989711Y-76058210D01*
X203989707Y-76058213D01*
X203878213Y-76169707D01*
X203878210Y-76169711D01*
X203790609Y-76300814D01*
X203790602Y-76300827D01*
X203730264Y-76446498D01*
X203730261Y-76446510D01*
X203699500Y-76601153D01*
X165035500Y-76601153D01*
X165035500Y-74241153D01*
X199119500Y-74241153D01*
X199119500Y-74398846D01*
X199150261Y-74553489D01*
X199150264Y-74553501D01*
X199210602Y-74699172D01*
X199210609Y-74699185D01*
X199298210Y-74830288D01*
X199298213Y-74830292D01*
X199409707Y-74941786D01*
X199409711Y-74941789D01*
X199540814Y-75029390D01*
X199540827Y-75029397D01*
X199686498Y-75089735D01*
X199686503Y-75089737D01*
X199841153Y-75120499D01*
X199841156Y-75120500D01*
X199841158Y-75120500D01*
X199998844Y-75120500D01*
X199998845Y-75120499D01*
X200153497Y-75089737D01*
X200299179Y-75029394D01*
X200430289Y-74941789D01*
X200541789Y-74830289D01*
X200629394Y-74699179D01*
X200689737Y-74553497D01*
X200720500Y-74398842D01*
X200720500Y-74241158D01*
X200720500Y-74241155D01*
X200720499Y-74241153D01*
X203084500Y-74241153D01*
X203084500Y-74398846D01*
X203115261Y-74553489D01*
X203115264Y-74553501D01*
X203175602Y-74699172D01*
X203175609Y-74699185D01*
X203263210Y-74830288D01*
X203263213Y-74830292D01*
X203374707Y-74941786D01*
X203374711Y-74941789D01*
X203505814Y-75029390D01*
X203505827Y-75029397D01*
X203651498Y-75089735D01*
X203651503Y-75089737D01*
X203806153Y-75120499D01*
X203806156Y-75120500D01*
X203806158Y-75120500D01*
X203963844Y-75120500D01*
X203963845Y-75120499D01*
X204118497Y-75089737D01*
X204264179Y-75029394D01*
X204395289Y-74941789D01*
X204506789Y-74830289D01*
X204594394Y-74699179D01*
X204654737Y-74553497D01*
X204685500Y-74398842D01*
X204685500Y-74241158D01*
X204685500Y-74241155D01*
X204685499Y-74241153D01*
X204654739Y-74086511D01*
X204654735Y-74086498D01*
X204643752Y-74059983D01*
X229734500Y-74059983D01*
X229734500Y-74860001D01*
X229734501Y-74860019D01*
X229745000Y-74962796D01*
X229745001Y-74962799D01*
X229767069Y-75029394D01*
X229800186Y-75129334D01*
X229892288Y-75278656D01*
X230016344Y-75402712D01*
X230080543Y-75442310D01*
X230127268Y-75494258D01*
X230138489Y-75563221D01*
X230110646Y-75627303D01*
X230103128Y-75635530D01*
X229995585Y-75743073D01*
X229893768Y-75883211D01*
X229815128Y-76037552D01*
X229761597Y-76202302D01*
X229736904Y-76358210D01*
X229734500Y-76373389D01*
X229734500Y-76546611D01*
X229761598Y-76717701D01*
X229815127Y-76882445D01*
X229893768Y-77036788D01*
X229995586Y-77176928D01*
X230118072Y-77299414D01*
X230258212Y-77401232D01*
X230412555Y-77479873D01*
X230577299Y-77533402D01*
X230748389Y-77560500D01*
X230748390Y-77560500D01*
X231471610Y-77560500D01*
X231471611Y-77560500D01*
X231642701Y-77533402D01*
X231807445Y-77479873D01*
X231961788Y-77401232D01*
X232101928Y-77299414D01*
X232224414Y-77176928D01*
X232326232Y-77036788D01*
X232404873Y-76882445D01*
X232458402Y-76717701D01*
X232485500Y-76546611D01*
X232485500Y-76373389D01*
X232458402Y-76202299D01*
X232404873Y-76037555D01*
X232326232Y-75883212D01*
X232224414Y-75743072D01*
X232116872Y-75635530D01*
X232083387Y-75574207D01*
X232088371Y-75504515D01*
X232130243Y-75448582D01*
X232139457Y-75442310D01*
X232203656Y-75402712D01*
X232327712Y-75278656D01*
X232419814Y-75129334D01*
X232474999Y-74962797D01*
X232485500Y-74860009D01*
X232485499Y-74059992D01*
X232474999Y-73957203D01*
X232419814Y-73790666D01*
X232327712Y-73641344D01*
X232203656Y-73517288D01*
X232054334Y-73425186D01*
X231887797Y-73370001D01*
X231887795Y-73370000D01*
X231785010Y-73359500D01*
X230434998Y-73359500D01*
X230434981Y-73359501D01*
X230332203Y-73370000D01*
X230332200Y-73370001D01*
X230165668Y-73425185D01*
X230165663Y-73425187D01*
X230016342Y-73517289D01*
X229892289Y-73641342D01*
X229800187Y-73790663D01*
X229800186Y-73790666D01*
X229745001Y-73957203D01*
X229745001Y-73957204D01*
X229745000Y-73957204D01*
X229734500Y-74059983D01*
X204643752Y-74059983D01*
X204594397Y-73940827D01*
X204594390Y-73940814D01*
X204506789Y-73809711D01*
X204506786Y-73809707D01*
X204395292Y-73698213D01*
X204395288Y-73698210D01*
X204264185Y-73610609D01*
X204264172Y-73610602D01*
X204118501Y-73550264D01*
X204118489Y-73550261D01*
X203963845Y-73519500D01*
X203963842Y-73519500D01*
X203806158Y-73519500D01*
X203806155Y-73519500D01*
X203651510Y-73550261D01*
X203651498Y-73550264D01*
X203505827Y-73610602D01*
X203505814Y-73610609D01*
X203374711Y-73698210D01*
X203374707Y-73698213D01*
X203263213Y-73809707D01*
X203263210Y-73809711D01*
X203175609Y-73940814D01*
X203175602Y-73940827D01*
X203115264Y-74086498D01*
X203115261Y-74086510D01*
X203084500Y-74241153D01*
X200720499Y-74241153D01*
X200689737Y-74086503D01*
X200689735Y-74086498D01*
X200629397Y-73940827D01*
X200629390Y-73940814D01*
X200541789Y-73809711D01*
X200541786Y-73809707D01*
X200430292Y-73698213D01*
X200430288Y-73698210D01*
X200299185Y-73610609D01*
X200299172Y-73610602D01*
X200153501Y-73550264D01*
X200153489Y-73550261D01*
X199998845Y-73519500D01*
X199998842Y-73519500D01*
X199841158Y-73519500D01*
X199841155Y-73519500D01*
X199686510Y-73550261D01*
X199686498Y-73550264D01*
X199540827Y-73610602D01*
X199540814Y-73610609D01*
X199409711Y-73698210D01*
X199409707Y-73698213D01*
X199298213Y-73809707D01*
X199298210Y-73809711D01*
X199210609Y-73940814D01*
X199210602Y-73940827D01*
X199150264Y-74086498D01*
X199150261Y-74086510D01*
X199119500Y-74241153D01*
X165035500Y-74241153D01*
X165035500Y-71141153D01*
X170199500Y-71141153D01*
X170199500Y-71298846D01*
X170230261Y-71453489D01*
X170230264Y-71453501D01*
X170290602Y-71599172D01*
X170290609Y-71599185D01*
X170378210Y-71730288D01*
X170378213Y-71730292D01*
X170489707Y-71841786D01*
X170489711Y-71841789D01*
X170620814Y-71929390D01*
X170620827Y-71929397D01*
X170766498Y-71989735D01*
X170766503Y-71989737D01*
X170921153Y-72020499D01*
X170921156Y-72020500D01*
X170921158Y-72020500D01*
X171078844Y-72020500D01*
X171078845Y-72020499D01*
X171233497Y-71989737D01*
X171379179Y-71929394D01*
X171510289Y-71841789D01*
X171621789Y-71730289D01*
X171709394Y-71599179D01*
X171718025Y-71578343D01*
X171769735Y-71453501D01*
X171769737Y-71453497D01*
X171800500Y-71298842D01*
X171800500Y-71141158D01*
X171800500Y-71141155D01*
X171800499Y-71141153D01*
X171769738Y-70986509D01*
X171769737Y-70986503D01*
X171755097Y-70951158D01*
X171755095Y-70951153D01*
X182089500Y-70951153D01*
X182089500Y-71108846D01*
X182120261Y-71263489D01*
X182120264Y-71263501D01*
X182180602Y-71409172D01*
X182180612Y-71409190D01*
X182258735Y-71526110D01*
X182279613Y-71592787D01*
X182261128Y-71660167D01*
X182258735Y-71663890D01*
X182180612Y-71780809D01*
X182180602Y-71780827D01*
X182120264Y-71926498D01*
X182120261Y-71926510D01*
X182089500Y-72081153D01*
X182089500Y-72238846D01*
X182120261Y-72393489D01*
X182120264Y-72393501D01*
X182180602Y-72539172D01*
X182180609Y-72539185D01*
X182268210Y-72670288D01*
X182268213Y-72670292D01*
X182379707Y-72781786D01*
X182379711Y-72781789D01*
X182510814Y-72869390D01*
X182510827Y-72869397D01*
X182656498Y-72929735D01*
X182656503Y-72929737D01*
X182811153Y-72960499D01*
X182811156Y-72960500D01*
X182811158Y-72960500D01*
X182968844Y-72960500D01*
X182968845Y-72960499D01*
X183123497Y-72929737D01*
X183236449Y-72882951D01*
X183269172Y-72869397D01*
X183269172Y-72869396D01*
X183269179Y-72869394D01*
X183400289Y-72781789D01*
X183511789Y-72670289D01*
X183599394Y-72539179D01*
X183659737Y-72393497D01*
X183663631Y-72373920D01*
X210679499Y-72373920D01*
X210708340Y-72518907D01*
X210708343Y-72518917D01*
X210764912Y-72655488D01*
X210764919Y-72655501D01*
X210847048Y-72778415D01*
X210847051Y-72778419D01*
X210951580Y-72882948D01*
X210951584Y-72882951D01*
X211074498Y-72965080D01*
X211074511Y-72965087D01*
X211211082Y-73021656D01*
X211211087Y-73021658D01*
X211211091Y-73021658D01*
X211211092Y-73021659D01*
X211356079Y-73050500D01*
X211356082Y-73050500D01*
X211503920Y-73050500D01*
X211601462Y-73031096D01*
X211648913Y-73021658D01*
X211785495Y-72965084D01*
X211908416Y-72882951D01*
X212012951Y-72778416D01*
X212095084Y-72655495D01*
X212151658Y-72518913D01*
X212176605Y-72393501D01*
X212180500Y-72373920D01*
X212180500Y-72226079D01*
X212151659Y-72081092D01*
X212151658Y-72081091D01*
X212151658Y-72081087D01*
X212113819Y-71989735D01*
X212095087Y-71944511D01*
X212095080Y-71944498D01*
X212012951Y-71821584D01*
X212012948Y-71821580D01*
X211908419Y-71717051D01*
X211908415Y-71717048D01*
X211785501Y-71634919D01*
X211785488Y-71634912D01*
X211648917Y-71578343D01*
X211648907Y-71578340D01*
X211503920Y-71549500D01*
X211503918Y-71549500D01*
X211356082Y-71549500D01*
X211356080Y-71549500D01*
X211211092Y-71578340D01*
X211211082Y-71578343D01*
X211074511Y-71634912D01*
X211074498Y-71634919D01*
X210951584Y-71717048D01*
X210951580Y-71717051D01*
X210847051Y-71821580D01*
X210847048Y-71821584D01*
X210764919Y-71944498D01*
X210764912Y-71944511D01*
X210708343Y-72081082D01*
X210708340Y-72081092D01*
X210679500Y-72226079D01*
X210679500Y-72226082D01*
X210679500Y-72373918D01*
X210679500Y-72373920D01*
X210679499Y-72373920D01*
X183663631Y-72373920D01*
X183690500Y-72238842D01*
X183690500Y-72081158D01*
X183690500Y-72081155D01*
X183690499Y-72081153D01*
X183672315Y-71989737D01*
X183659737Y-71926503D01*
X183624648Y-71841789D01*
X183599397Y-71780827D01*
X183599390Y-71780814D01*
X183521264Y-71663891D01*
X183500386Y-71597214D01*
X183518870Y-71529833D01*
X183521264Y-71526109D01*
X183599390Y-71409185D01*
X183599390Y-71409184D01*
X183599394Y-71409179D01*
X183659737Y-71263497D01*
X183690500Y-71108842D01*
X183690500Y-70951158D01*
X183690500Y-70951155D01*
X183690499Y-70951153D01*
X183659737Y-70796503D01*
X183623787Y-70709711D01*
X183599397Y-70650827D01*
X183599390Y-70650814D01*
X183511789Y-70519711D01*
X183511786Y-70519707D01*
X183400292Y-70408213D01*
X183400288Y-70408210D01*
X183269185Y-70320609D01*
X183269172Y-70320602D01*
X183123501Y-70260264D01*
X183123489Y-70260261D01*
X182968845Y-70229500D01*
X182968842Y-70229500D01*
X182811158Y-70229500D01*
X182811155Y-70229500D01*
X182656510Y-70260261D01*
X182656498Y-70260264D01*
X182510827Y-70320602D01*
X182510814Y-70320609D01*
X182379711Y-70408210D01*
X182379707Y-70408213D01*
X182268213Y-70519707D01*
X182268210Y-70519711D01*
X182180609Y-70650814D01*
X182180602Y-70650827D01*
X182120264Y-70796498D01*
X182120261Y-70796510D01*
X182089500Y-70951153D01*
X171755095Y-70951153D01*
X171709397Y-70840827D01*
X171709390Y-70840814D01*
X171621789Y-70709711D01*
X171621786Y-70709707D01*
X171510292Y-70598213D01*
X171510288Y-70598210D01*
X171379185Y-70510609D01*
X171379172Y-70510602D01*
X171233501Y-70450264D01*
X171233489Y-70450261D01*
X171078845Y-70419500D01*
X171078842Y-70419500D01*
X170921158Y-70419500D01*
X170921155Y-70419500D01*
X170766510Y-70450261D01*
X170766498Y-70450264D01*
X170620827Y-70510602D01*
X170620814Y-70510609D01*
X170489711Y-70598210D01*
X170489707Y-70598213D01*
X170378213Y-70709707D01*
X170378210Y-70709711D01*
X170290609Y-70840814D01*
X170290602Y-70840827D01*
X170230264Y-70986498D01*
X170230261Y-70986510D01*
X170199500Y-71141153D01*
X165035500Y-71141153D01*
X165035500Y-65631153D01*
X204019500Y-65631153D01*
X204019500Y-65788846D01*
X204050261Y-65943489D01*
X204050264Y-65943501D01*
X204110602Y-66089172D01*
X204110609Y-66089185D01*
X204198210Y-66220288D01*
X204198213Y-66220292D01*
X204309707Y-66331786D01*
X204309711Y-66331789D01*
X204440814Y-66419390D01*
X204440827Y-66419397D01*
X204540060Y-66460500D01*
X204586503Y-66479737D01*
X204741153Y-66510499D01*
X204741156Y-66510500D01*
X204741158Y-66510500D01*
X204898844Y-66510500D01*
X204898845Y-66510499D01*
X205053497Y-66479737D01*
X205199179Y-66419394D01*
X205330289Y-66331789D01*
X205441789Y-66220289D01*
X205529394Y-66089179D01*
X205589737Y-65943497D01*
X205620500Y-65788842D01*
X205620500Y-65631158D01*
X205620500Y-65631155D01*
X205614155Y-65599258D01*
X205614155Y-65599257D01*
X205610554Y-65581153D01*
X214669500Y-65581153D01*
X214669500Y-65738846D01*
X214700261Y-65893489D01*
X214700264Y-65893501D01*
X214760602Y-66039172D01*
X214760609Y-66039185D01*
X214848210Y-66170288D01*
X214848213Y-66170292D01*
X214959707Y-66281786D01*
X214959711Y-66281789D01*
X215090814Y-66369390D01*
X215090827Y-66369397D01*
X215236498Y-66429735D01*
X215236503Y-66429737D01*
X215391153Y-66460499D01*
X215391156Y-66460500D01*
X215391158Y-66460500D01*
X215548844Y-66460500D01*
X215548845Y-66460499D01*
X215703497Y-66429737D01*
X215849179Y-66369394D01*
X215980289Y-66281789D01*
X216091789Y-66170289D01*
X216179394Y-66039179D01*
X216239737Y-65893497D01*
X216270500Y-65738842D01*
X216270500Y-65581158D01*
X216270500Y-65581155D01*
X216270499Y-65581153D01*
X216249684Y-65476510D01*
X216239737Y-65426503D01*
X216200102Y-65330814D01*
X216179397Y-65280827D01*
X216179390Y-65280814D01*
X216091789Y-65149711D01*
X216091786Y-65149707D01*
X215980292Y-65038213D01*
X215980288Y-65038210D01*
X215849185Y-64950609D01*
X215849172Y-64950602D01*
X215703501Y-64890264D01*
X215703489Y-64890261D01*
X215548845Y-64859500D01*
X215548842Y-64859500D01*
X215391158Y-64859500D01*
X215391155Y-64859500D01*
X215236510Y-64890261D01*
X215236498Y-64890264D01*
X215090827Y-64950602D01*
X215090814Y-64950609D01*
X214959711Y-65038210D01*
X214959707Y-65038213D01*
X214848213Y-65149707D01*
X214848210Y-65149711D01*
X214760609Y-65280814D01*
X214760602Y-65280827D01*
X214700264Y-65426498D01*
X214700261Y-65426510D01*
X214669500Y-65581153D01*
X205610554Y-65581153D01*
X205589738Y-65476510D01*
X205589737Y-65476503D01*
X205589735Y-65476498D01*
X205529397Y-65330827D01*
X205529390Y-65330814D01*
X205441789Y-65199711D01*
X205441786Y-65199707D01*
X205330292Y-65088213D01*
X205330288Y-65088210D01*
X205199185Y-65000609D01*
X205199172Y-65000602D01*
X205053501Y-64940264D01*
X205053489Y-64940261D01*
X204898845Y-64909500D01*
X204898842Y-64909500D01*
X204741158Y-64909500D01*
X204741155Y-64909500D01*
X204586510Y-64940261D01*
X204586498Y-64940264D01*
X204440827Y-65000602D01*
X204440814Y-65000609D01*
X204309711Y-65088210D01*
X204309707Y-65088213D01*
X204198213Y-65199707D01*
X204198210Y-65199711D01*
X204110609Y-65330814D01*
X204110602Y-65330827D01*
X204050264Y-65476498D01*
X204050261Y-65476510D01*
X204019500Y-65631153D01*
X165035500Y-65631153D01*
X165035500Y-64051153D01*
X202519500Y-64051153D01*
X202519500Y-64208846D01*
X202550261Y-64363489D01*
X202550264Y-64363501D01*
X202610602Y-64509172D01*
X202610609Y-64509185D01*
X202698210Y-64640288D01*
X202698213Y-64640292D01*
X202809707Y-64751786D01*
X202809711Y-64751789D01*
X202940814Y-64839390D01*
X202940827Y-64839397D01*
X203063633Y-64890264D01*
X203086503Y-64899737D01*
X203237312Y-64929735D01*
X203241153Y-64930499D01*
X203241156Y-64930500D01*
X203241158Y-64930500D01*
X203398844Y-64930500D01*
X203398845Y-64930499D01*
X203553497Y-64899737D01*
X203699179Y-64839394D01*
X203830289Y-64751789D01*
X203941789Y-64640289D01*
X204029394Y-64509179D01*
X204089737Y-64363497D01*
X204120500Y-64208842D01*
X204120500Y-64081153D01*
X213189500Y-64081153D01*
X213189500Y-64238846D01*
X213220261Y-64393489D01*
X213220264Y-64393501D01*
X213280602Y-64539172D01*
X213280609Y-64539185D01*
X213368210Y-64670288D01*
X213368213Y-64670292D01*
X213479707Y-64781786D01*
X213479711Y-64781789D01*
X213610814Y-64869390D01*
X213610827Y-64869397D01*
X213684078Y-64899738D01*
X213756503Y-64929737D01*
X213911153Y-64960499D01*
X213911156Y-64960500D01*
X213911158Y-64960500D01*
X214068844Y-64960500D01*
X214068845Y-64960499D01*
X214223497Y-64929737D01*
X214369179Y-64869394D01*
X214500289Y-64781789D01*
X214611789Y-64670289D01*
X214699394Y-64539179D01*
X214759737Y-64393497D01*
X214790500Y-64238842D01*
X214790500Y-64081158D01*
X214790500Y-64081155D01*
X214790499Y-64081153D01*
X214759738Y-63926510D01*
X214759737Y-63926503D01*
X214747309Y-63896498D01*
X214699397Y-63780827D01*
X214699390Y-63780814D01*
X214611789Y-63649711D01*
X214611786Y-63649707D01*
X214500292Y-63538213D01*
X214500288Y-63538210D01*
X214369185Y-63450609D01*
X214369172Y-63450602D01*
X214223501Y-63390264D01*
X214223489Y-63390261D01*
X214068845Y-63359500D01*
X214068842Y-63359500D01*
X213911158Y-63359500D01*
X213911155Y-63359500D01*
X213756510Y-63390261D01*
X213756498Y-63390264D01*
X213610827Y-63450602D01*
X213610814Y-63450609D01*
X213479711Y-63538210D01*
X213479707Y-63538213D01*
X213368213Y-63649707D01*
X213368210Y-63649711D01*
X213280609Y-63780814D01*
X213280602Y-63780827D01*
X213220264Y-63926498D01*
X213220261Y-63926510D01*
X213189500Y-64081153D01*
X204120500Y-64081153D01*
X204120500Y-64051158D01*
X204120500Y-64051155D01*
X204120499Y-64051153D01*
X204089737Y-63896503D01*
X204041823Y-63780827D01*
X204029397Y-63750827D01*
X204029390Y-63750814D01*
X203941789Y-63619711D01*
X203941786Y-63619707D01*
X203830292Y-63508213D01*
X203830288Y-63508210D01*
X203699185Y-63420609D01*
X203699172Y-63420602D01*
X203553501Y-63360264D01*
X203553489Y-63360261D01*
X203398845Y-63329500D01*
X203398842Y-63329500D01*
X203241158Y-63329500D01*
X203241155Y-63329500D01*
X203086510Y-63360261D01*
X203086498Y-63360264D01*
X202940827Y-63420602D01*
X202940814Y-63420609D01*
X202809711Y-63508210D01*
X202809707Y-63508213D01*
X202698213Y-63619707D01*
X202698210Y-63619711D01*
X202610609Y-63750814D01*
X202610602Y-63750827D01*
X202550264Y-63896498D01*
X202550261Y-63896510D01*
X202519500Y-64051153D01*
X165035500Y-64051153D01*
X165035500Y-62141153D01*
X208367000Y-62141153D01*
X208367000Y-62298846D01*
X208397761Y-62453489D01*
X208397764Y-62453501D01*
X208458102Y-62599172D01*
X208458109Y-62599185D01*
X208545710Y-62730288D01*
X208545713Y-62730292D01*
X208657207Y-62841786D01*
X208657211Y-62841789D01*
X208788314Y-62929390D01*
X208788327Y-62929397D01*
X208933998Y-62989735D01*
X208934003Y-62989737D01*
X209088653Y-63020499D01*
X209088656Y-63020500D01*
X209088658Y-63020500D01*
X209246344Y-63020500D01*
X209246345Y-63020499D01*
X209400997Y-62989737D01*
X209513666Y-62943067D01*
X209546672Y-62929397D01*
X209546672Y-62929396D01*
X209546679Y-62929394D01*
X209677789Y-62841789D01*
X209789289Y-62730289D01*
X209876894Y-62599179D01*
X209937237Y-62453497D01*
X209968000Y-62298842D01*
X209968000Y-62151153D01*
X219179500Y-62151153D01*
X219179500Y-62308846D01*
X219210261Y-62463489D01*
X219210264Y-62463501D01*
X219270602Y-62609172D01*
X219270609Y-62609185D01*
X219358210Y-62740288D01*
X219358213Y-62740292D01*
X219469707Y-62851786D01*
X219469711Y-62851789D01*
X219600814Y-62939390D01*
X219600827Y-62939397D01*
X219722363Y-62989738D01*
X219746503Y-62999737D01*
X219901153Y-63030499D01*
X219901156Y-63030500D01*
X219901158Y-63030500D01*
X220058844Y-63030500D01*
X220058845Y-63030499D01*
X220213497Y-62999737D01*
X220359179Y-62939394D01*
X220490289Y-62851789D01*
X220601789Y-62740289D01*
X220689394Y-62609179D01*
X220749737Y-62463497D01*
X220780500Y-62308842D01*
X220780500Y-62151158D01*
X220780500Y-62151155D01*
X220780499Y-62151153D01*
X220749738Y-61996510D01*
X220749737Y-61996503D01*
X220745593Y-61986498D01*
X220689397Y-61850827D01*
X220689390Y-61850814D01*
X220601789Y-61719711D01*
X220601786Y-61719707D01*
X220490292Y-61608213D01*
X220490288Y-61608210D01*
X220359185Y-61520609D01*
X220359172Y-61520602D01*
X220213501Y-61460264D01*
X220213489Y-61460261D01*
X220058845Y-61429500D01*
X220058842Y-61429500D01*
X219901158Y-61429500D01*
X219901155Y-61429500D01*
X219746510Y-61460261D01*
X219746498Y-61460264D01*
X219600827Y-61520602D01*
X219600814Y-61520609D01*
X219469711Y-61608210D01*
X219469707Y-61608213D01*
X219358213Y-61719707D01*
X219358210Y-61719711D01*
X219270609Y-61850814D01*
X219270602Y-61850827D01*
X219210264Y-61996498D01*
X219210261Y-61996510D01*
X219179500Y-62151153D01*
X209968000Y-62151153D01*
X209968000Y-62141158D01*
X209968000Y-62141155D01*
X209967999Y-62141153D01*
X209937237Y-61986503D01*
X209881039Y-61850827D01*
X209876897Y-61840827D01*
X209876890Y-61840814D01*
X209789289Y-61709711D01*
X209789286Y-61709707D01*
X209677792Y-61598213D01*
X209677788Y-61598210D01*
X209546685Y-61510609D01*
X209546672Y-61510602D01*
X209401001Y-61450264D01*
X209400989Y-61450261D01*
X209246345Y-61419500D01*
X209246342Y-61419500D01*
X209088658Y-61419500D01*
X209088655Y-61419500D01*
X208934010Y-61450261D01*
X208933998Y-61450264D01*
X208788327Y-61510602D01*
X208788314Y-61510609D01*
X208657211Y-61598210D01*
X208657207Y-61598213D01*
X208545713Y-61709707D01*
X208545710Y-61709711D01*
X208458109Y-61840814D01*
X208458102Y-61840827D01*
X208397764Y-61986498D01*
X208397761Y-61986510D01*
X208367000Y-62141153D01*
X165035500Y-62141153D01*
X165035500Y-57892706D01*
X165035618Y-57887297D01*
X165043437Y-57708206D01*
X166259500Y-57708206D01*
X166259500Y-58071794D01*
X166261353Y-58090606D01*
X166295137Y-58433630D01*
X166366064Y-58790212D01*
X166366067Y-58790223D01*
X166471614Y-59138165D01*
X166610754Y-59474078D01*
X166610756Y-59474083D01*
X166782140Y-59794720D01*
X166782151Y-59794738D01*
X166984140Y-60097035D01*
X166984150Y-60097049D01*
X167214807Y-60378106D01*
X167471893Y-60635192D01*
X167471898Y-60635196D01*
X167471899Y-60635197D01*
X167752956Y-60865854D01*
X168055268Y-61067853D01*
X168055277Y-61067858D01*
X168055279Y-61067859D01*
X168375916Y-61239243D01*
X168375918Y-61239243D01*
X168375924Y-61239247D01*
X168711836Y-61378386D01*
X169059767Y-61483930D01*
X169059773Y-61483931D01*
X169059776Y-61483932D01*
X169059787Y-61483935D01*
X169416369Y-61554862D01*
X169778206Y-61590500D01*
X169778209Y-61590500D01*
X170141791Y-61590500D01*
X170141794Y-61590500D01*
X170503631Y-61554862D01*
X170573045Y-61541054D01*
X170860212Y-61483935D01*
X170860223Y-61483932D01*
X170860223Y-61483931D01*
X170860233Y-61483930D01*
X171208164Y-61378386D01*
X171544076Y-61239247D01*
X171864732Y-61067853D01*
X172167044Y-60865854D01*
X172448101Y-60635197D01*
X172705197Y-60378101D01*
X172774282Y-60293920D01*
X179889499Y-60293920D01*
X179918340Y-60438907D01*
X179918343Y-60438917D01*
X179974912Y-60575488D01*
X179974919Y-60575501D01*
X180057048Y-60698415D01*
X180057051Y-60698419D01*
X180161580Y-60802948D01*
X180161584Y-60802951D01*
X180284498Y-60885080D01*
X180284511Y-60885087D01*
X180421082Y-60941656D01*
X180421087Y-60941658D01*
X180421091Y-60941658D01*
X180421092Y-60941659D01*
X180566079Y-60970500D01*
X180566082Y-60970500D01*
X180713920Y-60970500D01*
X180811462Y-60951096D01*
X180858913Y-60941658D01*
X180995495Y-60885084D01*
X181118416Y-60802951D01*
X181222951Y-60698416D01*
X181305084Y-60575495D01*
X181361658Y-60438913D01*
X181390500Y-60293918D01*
X181390500Y-60146082D01*
X181390500Y-60146079D01*
X181361659Y-60001092D01*
X181361658Y-60001091D01*
X181361658Y-60001087D01*
X181361656Y-60001082D01*
X181305087Y-59864511D01*
X181305080Y-59864498D01*
X181222951Y-59741584D01*
X181222948Y-59741580D01*
X181118419Y-59637051D01*
X181118415Y-59637048D01*
X180995501Y-59554919D01*
X180995488Y-59554912D01*
X180858917Y-59498343D01*
X180858907Y-59498340D01*
X180713920Y-59469500D01*
X180713918Y-59469500D01*
X180566082Y-59469500D01*
X180566080Y-59469500D01*
X180421092Y-59498340D01*
X180421082Y-59498343D01*
X180284511Y-59554912D01*
X180284498Y-59554919D01*
X180161584Y-59637048D01*
X180161580Y-59637051D01*
X180057051Y-59741580D01*
X180057048Y-59741584D01*
X179974919Y-59864498D01*
X179974912Y-59864511D01*
X179918343Y-60001082D01*
X179918340Y-60001092D01*
X179889500Y-60146079D01*
X179889500Y-60146082D01*
X179889500Y-60293918D01*
X179889500Y-60293920D01*
X179889499Y-60293920D01*
X172774282Y-60293920D01*
X172935854Y-60097044D01*
X173137853Y-59794732D01*
X173309247Y-59474076D01*
X173448386Y-59138164D01*
X173553930Y-58790233D01*
X173553932Y-58790223D01*
X173553935Y-58790212D01*
X173567671Y-58721153D01*
X197259500Y-58721153D01*
X197259500Y-58878846D01*
X197290261Y-59033489D01*
X197290264Y-59033501D01*
X197350602Y-59179172D01*
X197350609Y-59179185D01*
X197438210Y-59310288D01*
X197438213Y-59310292D01*
X197549707Y-59421786D01*
X197549711Y-59421789D01*
X197680814Y-59509390D01*
X197680827Y-59509397D01*
X197826498Y-59569735D01*
X197826503Y-59569737D01*
X197981153Y-59600499D01*
X197981156Y-59600500D01*
X197981158Y-59600500D01*
X198138844Y-59600500D01*
X198138845Y-59600499D01*
X198293497Y-59569737D01*
X198439179Y-59509394D01*
X198570289Y-59421789D01*
X198681789Y-59310289D01*
X198769394Y-59179179D01*
X198829737Y-59033497D01*
X198860500Y-58878842D01*
X198860500Y-58721158D01*
X198860500Y-58721155D01*
X198860499Y-58721153D01*
X198829738Y-58566510D01*
X198829737Y-58566503D01*
X198829735Y-58566498D01*
X198769397Y-58420827D01*
X198769390Y-58420814D01*
X198681789Y-58289711D01*
X198681786Y-58289707D01*
X198570292Y-58178213D01*
X198570288Y-58178210D01*
X198439185Y-58090609D01*
X198439172Y-58090602D01*
X198293501Y-58030264D01*
X198293489Y-58030261D01*
X198138845Y-57999500D01*
X198138842Y-57999500D01*
X197981158Y-57999500D01*
X197981155Y-57999500D01*
X197826510Y-58030261D01*
X197826498Y-58030264D01*
X197680827Y-58090602D01*
X197680814Y-58090609D01*
X197549711Y-58178210D01*
X197549707Y-58178213D01*
X197438213Y-58289707D01*
X197438210Y-58289711D01*
X197350609Y-58420814D01*
X197350602Y-58420827D01*
X197290264Y-58566498D01*
X197290261Y-58566510D01*
X197259500Y-58721153D01*
X173567671Y-58721153D01*
X173573694Y-58690875D01*
X173624862Y-58433630D01*
X173639037Y-58289707D01*
X173660500Y-58071794D01*
X173660500Y-57708206D01*
X226259500Y-57708206D01*
X226259500Y-58071794D01*
X226261353Y-58090606D01*
X226295137Y-58433630D01*
X226366064Y-58790212D01*
X226366067Y-58790223D01*
X226471614Y-59138165D01*
X226610754Y-59474078D01*
X226610756Y-59474083D01*
X226782140Y-59794720D01*
X226782151Y-59794738D01*
X226984140Y-60097035D01*
X226984150Y-60097049D01*
X227214807Y-60378106D01*
X227471893Y-60635192D01*
X227471898Y-60635196D01*
X227471899Y-60635197D01*
X227752956Y-60865854D01*
X228055268Y-61067853D01*
X228055277Y-61067858D01*
X228055279Y-61067859D01*
X228375916Y-61239243D01*
X228375918Y-61239243D01*
X228375924Y-61239247D01*
X228711836Y-61378386D01*
X229059767Y-61483930D01*
X229059773Y-61483931D01*
X229059776Y-61483932D01*
X229059787Y-61483935D01*
X229416369Y-61554862D01*
X229778206Y-61590500D01*
X229778209Y-61590500D01*
X230141791Y-61590500D01*
X230141794Y-61590500D01*
X230503631Y-61554862D01*
X230573045Y-61541054D01*
X230860212Y-61483935D01*
X230860223Y-61483932D01*
X230860223Y-61483931D01*
X230860233Y-61483930D01*
X231208164Y-61378386D01*
X231544076Y-61239247D01*
X231864732Y-61067853D01*
X232167044Y-60865854D01*
X232448101Y-60635197D01*
X232705197Y-60378101D01*
X232935854Y-60097044D01*
X233137853Y-59794732D01*
X233309247Y-59474076D01*
X233448386Y-59138164D01*
X233553930Y-58790233D01*
X233553932Y-58790223D01*
X233553935Y-58790212D01*
X233624862Y-58433630D01*
X233639037Y-58289707D01*
X233660500Y-58071794D01*
X233660500Y-57708206D01*
X233624862Y-57346369D01*
X233608013Y-57261661D01*
X233553935Y-56989787D01*
X233553932Y-56989776D01*
X233553931Y-56989773D01*
X233553930Y-56989767D01*
X233448386Y-56641836D01*
X233309247Y-56305924D01*
X233168945Y-56043438D01*
X233137859Y-55985279D01*
X233137858Y-55985277D01*
X233137853Y-55985268D01*
X232935854Y-55682956D01*
X232705197Y-55401899D01*
X232705196Y-55401898D01*
X232705192Y-55401893D01*
X232448106Y-55144807D01*
X232167049Y-54914150D01*
X232167048Y-54914149D01*
X232167044Y-54914146D01*
X231864732Y-54712147D01*
X231864727Y-54712144D01*
X231864720Y-54712140D01*
X231544083Y-54540756D01*
X231544078Y-54540754D01*
X231208165Y-54401614D01*
X230860223Y-54296067D01*
X230860212Y-54296064D01*
X230503630Y-54225137D01*
X230231111Y-54198296D01*
X230141794Y-54189500D01*
X229778206Y-54189500D01*
X229695679Y-54197628D01*
X229416369Y-54225137D01*
X229059787Y-54296064D01*
X229059776Y-54296067D01*
X228711834Y-54401614D01*
X228375921Y-54540754D01*
X228375916Y-54540756D01*
X228055279Y-54712140D01*
X228055261Y-54712151D01*
X227752964Y-54914140D01*
X227752950Y-54914150D01*
X227471893Y-55144807D01*
X227214807Y-55401893D01*
X226984150Y-55682950D01*
X226984140Y-55682964D01*
X226782151Y-55985261D01*
X226782140Y-55985279D01*
X226610756Y-56305916D01*
X226610754Y-56305921D01*
X226471614Y-56641834D01*
X226366067Y-56989776D01*
X226366064Y-56989787D01*
X226295137Y-57346369D01*
X226267628Y-57625679D01*
X226259500Y-57708206D01*
X173660500Y-57708206D01*
X173624862Y-57346369D01*
X173608013Y-57261661D01*
X173553935Y-56989787D01*
X173553932Y-56989776D01*
X173553931Y-56989773D01*
X173553930Y-56989767D01*
X173448386Y-56641836D01*
X173309247Y-56305924D01*
X173168945Y-56043438D01*
X173137859Y-55985279D01*
X173137858Y-55985277D01*
X173137853Y-55985268D01*
X172935854Y-55682956D01*
X172705197Y-55401899D01*
X172705196Y-55401898D01*
X172705192Y-55401893D01*
X172448106Y-55144807D01*
X172167049Y-54914150D01*
X172167048Y-54914149D01*
X172167044Y-54914146D01*
X171864732Y-54712147D01*
X171864727Y-54712144D01*
X171864720Y-54712140D01*
X171544083Y-54540756D01*
X171544078Y-54540754D01*
X171208165Y-54401614D01*
X170860223Y-54296067D01*
X170860212Y-54296064D01*
X170503630Y-54225137D01*
X170231111Y-54198296D01*
X170141794Y-54189500D01*
X169778206Y-54189500D01*
X169695679Y-54197628D01*
X169416369Y-54225137D01*
X169059787Y-54296064D01*
X169059776Y-54296067D01*
X168711834Y-54401614D01*
X168375921Y-54540754D01*
X168375916Y-54540756D01*
X168055279Y-54712140D01*
X168055261Y-54712151D01*
X167752964Y-54914140D01*
X167752950Y-54914150D01*
X167471893Y-55144807D01*
X167214807Y-55401893D01*
X166984150Y-55682950D01*
X166984140Y-55682964D01*
X166782151Y-55985261D01*
X166782140Y-55985279D01*
X166610756Y-56305916D01*
X166610754Y-56305921D01*
X166471614Y-56641834D01*
X166366067Y-56989776D01*
X166366064Y-56989787D01*
X166295137Y-57346369D01*
X166267628Y-57625679D01*
X166259500Y-57708206D01*
X165043437Y-57708206D01*
X165043806Y-57699753D01*
X165043806Y-57699752D01*
X165044665Y-57680076D01*
X165054003Y-57466187D01*
X165054943Y-57455454D01*
X165109609Y-57040224D01*
X165111481Y-57029605D01*
X165202131Y-56620707D01*
X165204918Y-56610307D01*
X165330863Y-56210860D01*
X165334547Y-56200739D01*
X165494822Y-55813799D01*
X165499380Y-55804025D01*
X165692761Y-55432545D01*
X165698156Y-55423200D01*
X165923186Y-55069974D01*
X165929376Y-55061134D01*
X166184327Y-54728875D01*
X166191265Y-54720606D01*
X166474205Y-54411833D01*
X166481833Y-54404205D01*
X166790606Y-54121265D01*
X166798875Y-54114327D01*
X167131134Y-53859376D01*
X167139974Y-53853186D01*
X167493200Y-53628156D01*
X167502545Y-53622761D01*
X167874025Y-53429380D01*
X167883799Y-53424822D01*
X168270739Y-53264547D01*
X168280860Y-53260863D01*
X168680307Y-53134918D01*
X168690707Y-53132131D01*
X169099605Y-53041481D01*
X169110224Y-53039609D01*
X169525454Y-52984943D01*
X169536187Y-52984003D01*
X169944394Y-52966181D01*
X169957298Y-52965618D01*
X169962706Y-52965500D01*
X169984531Y-52965500D01*
X229935469Y-52965500D01*
X229957294Y-52965500D01*
X229962702Y-52965618D01*
G37*
%TD.AperFunction*%
%TD*%
M02*
